# https://github.com/mikedh/trimesh
mtllib material.mtl

o geometry_0.001
usemtl Material_0.001
v -0.29572502 0.00024982 0.00117128
v -0.31817916 0.00018955 -0.00064424
v -0.28941408 0.00033975 -0.03067511
v -0.33869803 0.00006789 -0.00850492
v -0.34864965 0.00033930 -0.03505155
v -0.34285435 -0.00000000 0.02535458
v -0.34934738 0.00012188 0.03060499
v -0.26710513 0.00040301 -0.00770537
v -0.26676536 0.00043597 0.03707754
v -0.26700878 0.00058314 -0.03566405
v -0.26687557 0.00109758 -0.03787897
v 0.28467247 0.00130300 0.01911969
v 0.31636444 0.00137374 -0.01699775
v 0.32139009 0.00131646 0.00304400
v 0.33366448 0.00125945 0.01815446
v 0.33394039 0.00102485 0.03771077
v 0.34779420 0.00118362 0.00751333
v 0.33518967 0.00140602 -0.03728052
v 0.27995548 0.00139696 -0.01734329
v 0.28170455 0.00137729 -0.03735226
v 0.26521540 0.00141785 0.03539293
v 0.26461935 0.00164712 -0.03086349
v 0.26625288 0.00144707 0.03804361
v 0.27310908 0.00170949 -0.03884524
v 0.29710326 0.01457528 0.02475440
v 0.27427939 0.01436205 0.03754857
v 0.32350874 0.01463717 0.02498781
v 0.33762097 0.01447784 0.03756201
v 0.28021312 0.01444708 0.00737129
v 0.26641539 0.01426912 0.03524892
v 0.26646659 0.01409854 -0.03661023
v 0.29289800 0.01425725 -0.03847963
v 0.29587841 0.01454751 -0.01950927
v 0.34547406 0.01456753 0.00028313
v 0.34879622 0.01439857 0.03612694
v 0.32887685 0.01463432 -0.01765765
v 0.33230525 0.01437959 -0.03081542
v 0.32798061 0.01444130 -0.03857668
v 0.30033219 0.01503824 0.01396588
v 0.29420742 0.01499330 0.00899443
v 0.29517794 0.01502769 -0.00267630
v 0.34952334 0.01448124 0.03396755
v 0.34940767 0.01431097 -0.03014473
v 0.30937728 0.01486659 -0.01529115
v 0.30198207 0.01503849 -0.01369970
v 0.29685596 0.01500966 -0.00816388
v 0.27991846 0.01425094 -0.03838176
v 0.29771581 0.01549097 0.00947700
v 0.31945223 0.01480267 -0.01616785
v 0.32404041 0.01492854 -0.01235110
v 0.32757616 0.01482079 -0.00887559
v 0.26563886 0.01302542 0.03752865
v 0.30279031 0.01606658 -0.01219316
v 0.31038976 0.01637349 -0.01375597
v 0.00151947 0.12143271 -0.00162702
v 0.03305122 0.12108862 -0.00419787
v -0.06344709 0.12113000 -0.00415400
v 0.07718313 0.12161751 -0.00152546
v -0.09502549 0.12159354 -0.00155198
v -0.15636384 0.12117190 -0.00418320
v -0.15840696 0.12168329 -0.00157446
v -0.20935969 0.12156460 -0.00155482
v 0.16250858 0.12113436 -0.00412458
v 0.16279434 0.12173583 -0.00149872
v 0.27246171 0.12158894 -0.00150838
v 0.28243229 0.12098338 -0.00413688
v 0.23995070 0.12096596 -0.00419303
v 0.22500587 0.12158899 -0.00150409
v -0.21124606 0.12095720 -0.00421272
v -0.28460029 0.12099358 -0.00407233
v -0.28685918 0.12164082 -0.00147316
v 0.28920591 0.12175702 -0.00152141
v -0.29856160 0.12001048 -0.00586553
v -0.30301511 0.12080051 -0.00182203
v 0.30436912 0.12015791 -0.00585344
v 0.30476063 0.12109338 -0.00221220
v 0.02209694 0.12001562 -0.00652543
v 0.15578355 0.12002182 -0.00648138
v 0.23574671 0.11981029 -0.00660021
v -0.15257262 0.12002406 -0.00672410
v -0.19590707 0.11987620 -0.00646997
v -0.06373861 0.11950385 -0.00766080
v 0.29554096 0.11941365 -0.00729468
v -0.24835004 0.11892518 -0.00796849
v -0.15631223 0.11926549 -0.00797480
v 0.03329002 0.11917546 -0.00776643
v 0.21525580 0.11888940 -0.00798621
v -0.19500804 0.11896026 -0.00778938
v -0.02749998 0.11909069 -0.00769748
v 0.30342808 0.11765083 -0.00935450
v 0.30499822 0.12088732 0.00359483
v -0.30267870 0.12066098 0.00248910
v 0.28600752 0.12155958 0.00199465
v 0.26485193 0.12144511 0.00124601
v 0.22438937 0.12142260 0.00134287
v -0.28410563 0.12148892 0.00125843
v -0.21321504 0.12142731 0.00127066
v -0.16602436 0.12142367 0.00122879
v -0.04995845 0.12121736 0.00133840
v -0.11059626 0.12131972 0.00130420
v 0.30705756 0.12146831 -0.00308775
v 0.30662897 0.12118423 -0.00896276
v 0.32397014 0.12110002 -0.00835266
v 0.30640817 0.11963824 -0.01236323
v 0.32538164 0.12117194 0.00939805
v 0.30736631 0.12145285 0.00329319
v 0.31166035 0.12091400 0.01071213
v 0.15819941 0.12149469 0.00129498
v 0.07936987 0.12128913 0.00126597
v 0.01091579 0.12104673 0.00126528
v -0.30518597 0.12128187 0.00072029
v -0.30677456 0.12028366 -0.00821636
v -0.31252605 0.12055103 0.00315671
v -0.32099801 0.11979714 -0.00768790
v -0.32263240 0.12030564 0.00015077
v -0.31821138 0.11845131 -0.01215987
v -0.32310101 0.11992981 0.00676997
v -0.30412111 0.11874122 -0.00905365
v -0.30586091 0.12015146 0.00854379
v 0.30673304 0.12052587 0.01053115
v 0.32644591 0.12029051 -0.00500042
v -0.28485447 0.12057072 0.00422857
v -0.25947994 0.12030827 0.00436822
v 0.04147983 0.12050568 0.00328672
v -0.00808582 0.12036145 0.00321684
v -0.32467136 0.11901886 0.00906170
v 0.26897097 0.12035179 0.00449040
v 0.22640060 0.12035155 0.00457994
v 0.16830327 0.12076131 0.00339159
v -0.30330026 0.11984097 0.00485249
v -0.22184798 0.12036531 0.00435519
v -0.17738563 0.12024007 0.00426153
v -0.15563859 0.12023766 0.00455298
v -0.09134822 0.12052270 0.00335534
v 0.10689134 0.12058841 0.00316823
v 0.32067081 0.11944989 0.01416776
v 0.29642335 0.11948278 0.00641496
v 0.30449718 0.11873583 0.00838666
v 0.16893654 0.11990377 0.00510810
v -0.07579932 0.11969702 0.00484797
v 0.10697009 0.11966880 0.00492900
v 0.01278697 0.11943184 0.00489035
v -0.27118716 0.11825674 0.00761279
v 0.30917197 0.11981884 0.01201491
v 0.23244542 0.11838651 0.00743505
v -0.21375652 0.11812244 0.00746841
v -0.16714545 0.11788383 0.00757846
v 0.06768110 0.11794422 0.00720417
v -0.00916003 0.11764549 0.00734444
v -0.10321516 0.11775611 0.00752337
v 0.14345890 0.11805806 0.00748868
v 0.26978695 0.11696222 0.00912621
v -0.30256572 0.11779431 0.00856094
v 0.17739938 0.11777907 0.00779886
v 0.29370230 0.11666398 0.00950551
v -0.19950275 0.11620282 0.00934991
v 0.21548370 0.11651506 0.00930816
v 0.32496917 0.11940824 -0.01009242
v 0.00448095 0.11012523 0.01170210
v 0.03463839 0.11150042 0.01162407
v -0.01571752 0.11131438 0.01162896
v 0.07429626 0.11027474 0.01176974
v -0.07963437 0.11043660 0.01180767
v -0.09100718 0.11143422 0.01173424
v -0.10483991 0.11069824 0.01176777
v 0.11242361 0.11119621 0.01184849
v -0.13703917 0.11162087 0.01178168
v -0.12720326 0.10700147 0.01042394
v -0.16005509 0.10689225 0.01035072
v -0.17737165 0.11170251 0.01183806
v -0.17957374 0.10613828 0.00987568
v -0.21513295 0.10677220 0.01033559
v -0.21231486 0.11166998 0.01186522
v -0.25341293 0.10645685 0.01036563
v -0.26574707 0.11150035 0.01193217
v -0.27598003 0.10679311 0.01035321
v -0.28890648 0.11143955 0.01185041
v -0.29291883 0.10613801 0.01005056
v -0.30339190 0.10977250 0.01150668
v 0.10296369 0.10664020 0.01010668
v 0.14223188 0.10682067 0.01024470
v 0.15190575 0.11154798 0.01179860
v 0.18808956 0.10693920 0.01018452
v 0.20680013 0.11177355 0.01180850
v 0.24544372 0.10827965 0.01094312
v 0.23483197 0.10610816 0.01007037
v 0.25769538 0.11152954 0.01184400
v 0.29128909 0.11164775 0.01188269
v 0.29488227 0.10661579 0.01006943
v 0.28170320 0.10534839 0.00960641
v 0.30132154 0.10906845 0.01113080
v -0.08038238 0.10575341 0.00992514
v -0.04594912 0.10684679 0.01030771
v 0.01392206 0.10650989 0.01008879
v -0.09654866 0.10592564 0.00971764
v -0.30057380 0.10625028 0.01056303
v 0.30338821 0.11252376 0.01171128
v -0.01402051 0.10455383 0.00881011
v 0.14357090 0.10466224 0.00897101
v -0.15261595 0.10447342 0.00897861
v -0.21686669 0.10427548 0.00880356
v -0.24985020 0.10392591 0.00870925
v 0.18412335 0.10459316 0.00872143
v 0.23629324 0.10415925 0.00876674
v -0.28381410 0.10408132 0.00855034
v -0.29556131 0.10229169 0.00759055
v 0.05212240 0.10451509 0.00877158
v -0.08901484 0.10260654 0.00731891
v 0.29583102 0.10245262 0.00700965
v 0.15254277 0.10247461 0.00732591
v -0.02498266 0.10260892 0.00719809
v -0.22537690 0.10211949 0.00691970
v -0.14144818 0.10247856 0.00732815
v 0.25867897 0.10204946 0.00662410
v -0.28223476 0.10205302 0.00663244
v -0.29794055 0.10236334 0.00865060
v -0.30411199 0.11297501 0.01133518
v -0.29500827 0.10048973 0.00471807
v -0.30808747 0.10546564 0.01448994
v -0.30512202 0.09104054 0.01403903
v -0.30995232 0.09630239 0.01534288
v -0.30896944 0.06463342 0.01555084
v -0.31161678 0.06882010 0.01593698
v -0.30976179 0.03847102 0.01605695
v -0.31409729 0.05670661 0.01615119
v -0.31550071 0.09330010 0.01583330
v -0.31625393 0.10665094 0.01523425
v -0.31279534 0.01717899 0.01616430
v -0.30740875 0.11366908 0.01407804
v -0.31617269 0.04364371 0.01602408
v -0.32022661 0.11311745 0.01430340
v -0.31734270 0.01755614 0.01564145
v -0.31830877 0.01463061 0.01610891
v -0.30725810 0.01445710 0.01612474
v -0.32051310 0.02303532 0.01464231
v -0.30715692 0.01674973 0.01530273
v -0.32166409 0.08185090 0.01415789
v -0.32025084 0.04245790 0.01481161
v 0.30428356 0.11741244 0.01013960
v -0.30368754 0.03786121 0.01421098
v -0.30584303 0.02371098 0.01467193
v -0.27263075 0.11338793 0.01115376
v 0.25979954 0.11356662 0.01102189
v -0.32225782 0.11451863 0.01359938
v 0.01412045 0.11453427 0.00996711
v 0.11470553 0.11598670 0.00931442
v 0.15294549 0.11640946 0.00921715
v -0.13365513 0.11613580 0.00938332
v -0.09545153 0.11602873 0.00927281
v -0.27983418 0.11698749 0.00910702
v -0.29678938 0.11700413 0.00879113
v -0.30451292 0.11711867 0.01004068
v -0.32330194 0.04279052 0.01335248
v -0.30087999 0.08795431 0.01197059
v -0.30150709 0.01699386 0.01204498
v -0.00818055 0.11620676 0.00887605
v 0.30155337 0.10371442 0.01215860
v -0.32415241 0.01715684 0.01249613
v -0.32533652 0.09598685 0.01164122
v -0.32448447 0.11643118 0.01181810
v 0.30716214 0.11290725 0.01461235
v 0.30430377 0.08902567 0.01445995
v 0.30930465 0.10587019 0.01578415
v 0.30905101 0.11498394 0.01491697
v 0.31762651 0.11538008 0.01554814
v 0.31584439 0.09771825 0.01640331
v 0.30946875 0.08041105 0.01616131
v 0.31254974 0.05078250 0.01646515
v 0.31599608 0.05122567 0.01645873
v 0.31053683 0.01732979 0.01629708
v 0.31806743 0.01703268 0.01607309
v 0.30866668 0.03998890 0.01601994
v 0.31924716 0.11042147 0.01554879
v 0.32282743 0.11905991 0.01414436
v 0.31834680 0.06231360 0.01592398
v 0.32331339 0.11234175 0.01446815
v 0.32284188 0.07560746 0.01437508
v 0.32267076 0.03388419 0.01457112
v 0.32096231 0.01610323 0.01535734
v 0.30508792 0.02697676 0.01483278
v 0.30377626 0.04741223 0.01432358
v 0.30533245 0.01541340 0.01525398
v 0.31195328 0.01510706 0.01716727
v 0.32328665 0.01494559 0.01543138
v 0.30096039 0.01671684 0.01276647
v 0.30037376 0.02994486 0.01216731
v 0.30071706 0.08461618 0.01230712
v 0.32479736 0.01662781 0.01271486
v 0.32600990 0.11204583 0.01237134
v 0.32691479 0.06348514 0.01108425
v 0.29763910 0.10244937 0.00899608
v 0.29790616 0.07997232 0.00992832
v -0.32673761 0.04332312 0.01028185
v -0.30816600 0.11705389 0.01100813
v 0.29725328 0.03797745 0.00917454
v 0.29555762 0.07681069 0.00653405
v 0.29544070 0.10102027 0.00500918
v 0.29474032 0.08456992 0.00453377
v 0.29497176 0.03425953 0.00528298
v 0.29582390 0.01521034 0.00514419
v -0.32750109 0.01359348 -0.01795552
v -0.30316144 0.01351369 -0.01668245
v -0.32445851 0.01348679 -0.02568236
v -0.28290370 0.01327915 -0.01753379
v -0.27981099 0.01314242 -0.03692854
v -0.32995656 0.01348749 -0.03700131
v -0.29375908 0.01354434 -0.00458805
v -0.29642567 0.01370620 0.00719165
v -0.26954588 0.01295855 0.00029197
v -0.26753291 0.01282829 -0.03660928
v -0.26992121 0.01321873 0.03575250
v -0.30240449 0.01358475 0.02464878
v -0.27787900 0.01355553 0.03816115
v -0.31183088 0.01368413 0.03806012
v -0.33559033 0.01366685 0.03839863
v -0.33148500 0.01350340 0.02253852
v -0.31928921 0.01373872 0.01765561
v -0.34756067 0.01331388 0.03558772
v -0.34790501 0.01342649 0.01119859
v -0.32971036 0.01384304 0.00832966
v -0.33037704 0.01359731 -0.00701023
v -0.34799826 0.01320944 -0.03291446
v -0.33978036 0.01328054 -0.03666982
v -0.32488537 0.01392389 0.01381955
v -0.30829656 0.01387212 0.01807726
v -0.29961762 0.01377538 0.01371856
v -0.31079417 0.01389806 -0.01507327
v -0.26623061 0.01253899 -0.00098755
v -0.26625055 0.01289538 0.03632595
v -0.32817328 0.01419049 -0.00545497
v -0.29635647 0.01393360 -0.00562913
v -0.32854009 0.01449237 0.00445474
v -0.27063337 0.01249200 -0.03826972
v -0.30130580 0.01432574 0.01248347
v -0.32693401 0.01480284 0.00928115
v -0.27454025 0.01292825 0.03872290
v -0.34798872 0.01234288 -0.03509304
v -0.34572837 0.01232015 0.03800951
v -0.00041443 0.09964173 -0.00403213
v -0.00731909 0.10032192 -0.00646613
v 0.04992801 0.10032427 -0.00647836
v 0.06239228 0.09963336 -0.00407593
v 0.12322584 0.10094708 -0.00797360
v -0.07623536 0.09962556 -0.00409766
v 0.16199873 0.09968989 -0.00402140
v 0.16255899 0.10104638 -0.00764473
v 0.20716433 0.10114861 -0.00767525
v 0.21974945 0.10001425 -0.00402028
v 0.24962550 0.10117112 -0.00648688
v 0.01432448 0.10099568 -0.00817259
v -0.06961232 0.10021619 -0.00641929
v -0.05709191 0.10088640 -0.00811867
v -0.14188127 0.10065350 -0.00778994
v -0.15964732 0.09964016 -0.00410695
v -0.17409252 0.10096561 -0.00786279
v -0.20176609 0.09966807 -0.00413868
v -0.23826517 0.10008330 -0.00433959
v -0.22061294 0.10126923 -0.00799117
v -0.19834879 0.10101590 -0.00797502
v -0.27179053 0.10121778 -0.00718023
v 0.25518227 0.10034782 -0.00443764
v 0.28453380 0.10072862 -0.00541471
v -0.29511431 0.09981240 -0.00403495
v -0.28649548 0.10092571 -0.00679323
v -0.09717245 0.10115965 -0.00828817
v 0.28372961 0.09952304 -0.00013202
v 0.25896430 0.09959140 -0.00109530
v 0.22351024 0.09957778 -0.00112209
v -0.29253364 0.09936939 -0.00153295
v -0.21631029 0.09942416 -0.00142484
v 0.17358141 0.09942126 -0.00139062
v -0.15290351 0.09934036 -0.00149727
v 0.06652879 0.09943338 -0.00153430
v -0.09776477 0.09941652 -0.00126861
v -0.01919368 0.09947909 -0.00159589
v 0.06679053 0.10106585 -0.00804095
v 0.29483008 0.10185640 -0.00671127
v 0.25963661 0.09959870 0.00019133
v -0.25716642 0.09947440 0.00035367
v -0.20607212 0.09952219 0.00049329
v -0.29223999 0.09948041 0.00091898
v -0.29501709 0.09912086 0.00372870
v 0.29453832 0.10036636 0.00233445
v -0.17737497 0.09953795 0.00036470
v -0.13816105 0.09968188 0.00096719
v 0.21593934 0.09994732 0.00138876
v 0.17628002 0.09973505 0.00068615
v 0.14258428 0.09973495 0.00082630
v 0.09283227 0.09984376 0.00092789
v 0.05156111 0.09994031 0.00130015
v -0.00037589 0.09993687 0.00134235
v -0.04301230 0.09991567 0.00141612
v -0.09931225 0.10005470 0.00174518
v 0.27930027 0.10062449 0.00416734
v 0.25398591 0.10074904 0.00425197
v 0.13122021 0.10104869 0.00473284
v 0.05359514 0.10105897 0.00472604
v -0.01207102 0.10113773 0.00473858
v 0.18828039 0.10100733 0.00452882
v -0.09672578 0.10115089 0.00480782
v -0.14961137 0.10091977 0.00473733
v -0.19682404 0.10087153 0.00443557
v -0.28404424 0.10059373 0.00411117
v 0.22470391 0.10214377 0.00695643
v 0.18361139 0.10241497 0.00698703
v 0.04607031 0.10245048 0.00708159
v -0.18153043 0.10239588 0.00700337
v 0.29190287 0.10333172 -0.00905935
v 0.25222164 0.10301012 -0.00910750
v -0.29763550 0.10260523 -0.00889059
v -0.26847512 0.10410856 -0.01046410
v 0.18557873 0.10411541 -0.01083665
v -0.13498829 0.10356279 -0.01080474
v -0.01248586 0.10339766 -0.01043275
v -0.09529226 0.10403886 -0.01091989
v 0.30231404 0.00228046 0.03841059
v 0.33900079 0.01353389 0.03838203
v 0.28344524 0.01348864 0.03844374
v 0.33756998 0.00222355 0.03842558
v 0.27022615 0.00237558 0.03853255
v 0.26772067 0.01279502 0.03834774
v 0.34711483 0.00137562 0.03821746
v 0.34806836 0.01217033 0.03775050
v 0.28068411 0.00111353 0.03826258
v 0.33562621 0.01245131 -0.03875228
v 0.27267119 0.01167433 -0.03875261
v 0.33268076 0.00172031 -0.03883507
v 0.27993816 0.01354281 -0.03862992
v 0.26622814 0.00238564 -0.03842659
v 0.34398818 0.00188401 -0.03812592
v 0.34602645 0.01294358 -0.03711117
v 0.34266958 0.01423127 -0.03724808
v 0.34778175 0.00147963 -0.03671290
v 0.34861264 0.01436425 -0.03518721
v 0.26479694 0.01235516 -0.00741637
v 0.26507312 0.01390888 0.03507193
v 0.26483873 0.01376331 -0.03091959
v 0.26491573 0.00234535 0.02911849
v 0.26480955 0.00273290 0.00396229
v 0.26545653 0.01293824 -0.03800631
v 0.26551485 0.00171983 -0.03660804
v 0.26511589 0.00166931 -0.00278191
v -0.29803407 0.00220875 -0.03846513
v -0.32632282 0.01277346 -0.03845791
v -0.29435083 0.01157217 -0.03840749
v -0.27066678 0.00240790 -0.03846899
v -0.33316803 0.00079793 -0.03855328
v -0.33829874 0.01259437 -0.03797182
v -0.34080285 0.00028192 -0.03807202
v -0.27543148 0.00042091 -0.03833341
v -0.34616870 0.00097090 -0.03709238
v -0.34625396 0.01137449 -0.03644385
v -0.32372582 0.00031803 -0.03816238
v -0.32815436 0.03678693 -0.00723268
v -0.32972094 0.07449148 -0.00081121
v -0.32807758 0.07728092 -0.00737087
v -0.32975581 0.03328990 -0.00088303
v -0.32986265 0.09847218 -0.00054568
v -0.32807103 0.10761260 -0.00741690
v -0.32695413 0.01631879 -0.00794632
v -0.32895198 0.01655813 -0.00024475
v -0.32876319 0.11562718 -0.00168585
v -0.32926610 0.11552175 0.00273706
v -0.32996032 0.09682152 0.00162024
v -0.32990754 0.03223950 0.00201089
v -0.32626909 0.11697574 -0.00767508
v -0.32533482 0.11587909 -0.00972608
v -0.32871562 0.11493466 0.00638642
v -0.32918641 0.07009637 0.00464626
v -0.32892463 0.03883709 0.00612696
v -0.32825398 0.07066034 0.00737879
v -0.32689381 0.11770612 0.00856632
v -0.32707253 0.10696265 0.00975326
v -0.32630259 0.03410349 -0.00959640
v -0.32555422 0.01446376 -0.00927765
v -0.32582936 0.07297927 -0.00995096
v -0.32559252 0.10376974 -0.01025075
v -0.32394797 0.01404128 -0.01208252
v -0.32528016 0.11889465 -0.00545404
v -0.32631287 0.11924870 0.00406651
v -0.32310173 0.03320902 -0.01259494
v -0.32280403 0.11843828 -0.01050818
v 0.07726077 0.11004613 -0.01268930
v 0.04777884 0.11188889 -0.01260606
v 0.09241125 0.11183780 -0.01259418
v 0.14786418 0.11181500 -0.01256217
v 0.13620919 0.10803740 -0.01299585
v 0.17621504 0.10819153 -0.01292126
v 0.21401276 0.11182661 -0.01250248
v -0.01537297 0.10908398 -0.01289878
v 0.07885882 0.10812098 -0.01300324
v -0.03664141 0.11188117 -0.01253384
v -0.11461545 0.10976918 -0.01266523
v -0.10146974 0.10810382 -0.01286590
v -0.10179818 0.11192179 -0.01240403
v -0.14464979 0.11191713 -0.01264079
v -0.14913727 0.10814249 -0.01307310
v 0.21241491 0.10808571 -0.01273046
v 0.25753769 0.10979369 -0.01234222
v 0.26564458 0.11193624 -0.01217373
v 0.29521081 0.10973772 -0.01214473
v 0.30099714 0.11460546 -0.01111767
v 0.02464786 0.10762639 -0.01292552
v 0.30123094 0.10825297 -0.01153618
v -0.20019953 0.10987350 -0.01255449
v -0.18679467 0.11182316 -0.01243636
v -0.22489330 0.10832918 -0.01284384
v -0.23816396 0.11190458 -0.01260258
v -0.23962076 0.10867801 -0.01278257
v -0.30125332 0.10996886 -0.01200449
v -0.27387866 0.11203905 -0.01216938
v -0.30286580 0.11401451 -0.01126633
v -0.30428350 0.10739857 -0.01285650
v 0.25994986 0.11535612 -0.01109289
v 0.21188368 0.11442626 -0.01164615
v 0.14963551 0.11447416 -0.01162474
v 0.10308951 0.11450445 -0.01160789
v -0.08107523 0.11456387 -0.01154429
v -0.11742529 0.11452521 -0.01155955
v -0.18685581 0.11452407 -0.01151337
v -0.23758051 0.11441523 -0.01178281
v -0.27091235 0.11552761 -0.01097235
v -0.29115319 0.11456980 -0.01102738
v 0.01975062 0.11448733 -0.01165911
v -0.04971788 0.11506383 -0.01133332
v 0.08056471 0.11459074 -0.01144911
v 0.30366343 0.11462811 -0.01158485
v 0.29437372 0.10769479 -0.01192339
v 0.21727422 0.10765009 -0.01238163
v 0.22323804 0.10388050 -0.01038474
v 0.22929263 0.10460907 -0.01069823
v 0.29830226 0.10572688 -0.01080533
v -0.24267124 0.10763180 -0.01251556
v -0.29665059 0.10777579 -0.01197211
v -0.30152515 0.10586166 -0.01137788
v -0.02250483 0.10635109 -0.01226533
v 0.20600630 0.11604347 -0.01067932
v -0.11894570 0.11588778 -0.01062234
v 0.12789768 0.11612652 -0.01052694
v -0.19189690 0.11590905 -0.01060495
v 0.04413670 0.11612639 -0.01042363
v 0.29040125 0.11609213 -0.01017656
v -0.02829292 0.11609603 -0.01039108
v -0.28907651 0.11875197 -0.00773297
v -0.11078666 0.11903588 -0.00783745
v 0.14081974 0.11911568 -0.00779478
v 0.27508575 0.11918860 -0.00744198
v 0.27069935 0.10487322 -0.01067516
v -0.22025156 0.10426378 -0.01085428
v -0.17162974 0.10381529 -0.01073844
v 0.16207050 0.10391987 -0.01060310
v 0.08501539 0.10375115 -0.01068896
v 0.04184386 0.10378572 -0.01081410
v 0.13513856 0.10390317 -0.01075336
v -0.04970595 0.10314611 -0.01035823
v 0.34990767 0.00577169 -0.00251944
v 0.34981534 0.01216420 -0.02973573
v 0.34999999 0.00260941 -0.02724492
v 0.34974229 0.00250553 0.02914983
v 0.34914380 0.00141268 0.03628684
v 0.34943223 0.00159732 -0.03405639
v 0.34940851 0.01455957 0.00216660
v 0.34908935 0.00123820 0.03472997
v 0.34936678 0.00144084 -0.00370825
v -0.26599133 0.00081490 0.03488388
v -0.26583329 0.00225003 -0.01851987
v -0.26583371 0.00777650 -0.00219751
v -0.26581183 0.01174445 0.03191026
v -0.26626778 0.01238942 -0.03240466
v -0.26614329 0.00086798 -0.03156234
v -0.26684240 0.01210618 -0.03794228
v -0.26786599 0.00060135 0.03821542
v -0.34945127 0.01284955 0.03044387
v -0.34965983 0.01285987 -0.02886334
v -0.34981841 0.01185224 -0.01406137
v -0.34999999 0.00226117 -0.01811861
v -0.34970629 0.00033931 -0.03089275
v -0.34931394 0.01100457 -0.03279134
v -0.34945205 0.00011716 0.00286803
v 0.33050713 0.07196754 0.00165821
v 0.33035123 0.03251969 -0.00130120
v 0.33042553 0.09769707 -0.00080012
v 0.33058015 0.04173025 0.00180919
v 0.33069000 0.10134567 0.00209781
v 0.33006907 0.11405335 -0.00056194
v 0.33040792 0.11431750 0.00325130
v 0.33005282 0.02451920 0.00211894
v 0.32938498 0.01901651 -0.00031016
v 0.32913157 0.01705857 0.00265838
v 0.32910639 0.01489988 -0.00252651
v 0.32932186 0.01477855 0.00207119
v 0.32864600 0.02408911 -0.00574989
v 0.32834432 0.11325318 -0.00702557
v 0.32719418 0.01609254 -0.00788369
v 0.32836735 0.10162006 -0.00744033
v 0.32824245 0.08392448 -0.00721661
v 0.32855284 0.03810030 -0.00711211
v 0.32795846 0.11791366 -0.00489454
v 0.32691145 0.02059093 -0.00867757
v 0.32612032 0.05283593 -0.01047152
v 0.32555956 0.01959950 -0.01043128
v 0.32575870 0.11182039 -0.01047099
v 0.32570058 0.08223583 -0.01044313
v 0.32840559 0.11897977 0.00382222
v 0.32883748 0.06796972 0.00780211
v 0.32903910 0.09658878 0.00803932
v 0.32885194 0.04411793 0.00804770
v 0.32863474 0.02557886 0.00745208
v 0.32698530 0.01629926 0.01007198
v 0.32858163 0.11531699 0.00894096
v 0.32709485 0.12048252 0.00805478
v 0.32774985 0.01492395 0.01000584
v 0.32589865 0.12000721 0.01133252
v 0.32757112 0.09513362 0.01052028
v 0.32689703 0.04531647 0.01125953
v -0.30081999 0.00798788 0.03867384
v -0.28125605 0.01175873 0.03884524
v -0.33442226 0.01203845 0.03871935
v -0.33962241 0.00176879 0.03876079
v -0.29043713 0.00198509 0.03881805
v -0.27066156 0.00037344 0.03858032
v -0.26806867 0.01240036 0.03817067
v -0.34664914 0.00054364 0.03817211
v -0.33873898 0.00008633 0.03848739
v -0.28705001 0.00022837 0.03849757
v -0.34867471 0.00016693 0.03671378
v -0.34871766 0.01269110 0.03606377
v 0.29383889 0.03759060 0.00146719
v 0.29420736 0.08501722 -0.00153743
v 0.29405966 0.05083477 -0.00173064
v 0.29396674 0.08654428 0.00162842
v 0.29438776 0.10005143 -0.00091160
v 0.29428506 0.03162029 -0.00162504
v 0.29529104 0.01772512 -0.00193973
v 0.29524294 0.10066796 -0.00400402
v 0.29631263 0.02580364 -0.00706883
v 0.29624382 0.06518003 -0.00743285
v 0.29750431 0.01677915 -0.00705869
v 0.29766402 0.10208686 -0.00797878
v 0.29804772 0.01989231 -0.00853318
v 0.29524338 0.01616632 0.00209052
v 0.29989442 0.01624317 -0.00985485
v 0.30024201 0.04636770 -0.01099728
v 0.30059916 0.08732448 -0.01093544
v 0.30253375 0.10682589 -0.01153960
v 0.30120277 0.02227416 -0.01102212
v 0.30296627 0.04682934 -0.01267450
v 0.30492848 0.09327359 -0.01333856
v 0.30563781 0.11245164 -0.01330847
v 0.30393600 0.01897852 -0.01191739
v 0.30655655 0.02170152 -0.01362393
v 0.30555165 0.04227495 -0.01375181
v 0.30845523 0.03576808 -0.01464438
v 0.30821893 0.09798489 -0.01431293
v 0.30763602 0.11037801 -0.01386793
v 0.31265023 0.01926568 -0.01441307
v 0.31528613 0.03248538 -0.01546457
v 0.31849265 0.01587936 -0.01494973
v 0.31587976 0.09320290 -0.01527718
v 0.31590566 0.06342607 -0.01535752
v 0.31687829 0.09538250 -0.01494452
v 0.31800443 0.10810760 -0.01407582
v 0.32140201 0.11924946 -0.01260807
v 0.31719393 0.01862765 -0.01438192
v 0.31701210 0.03315424 -0.01521112
v 0.31998220 0.01685523 -0.01361782
v 0.32297954 0.10990229 -0.01259721
v 0.32017419 0.12031621 -0.01183111
v 0.32270557 0.07825042 -0.01270757
v 0.32321057 0.04152484 -0.01275257
v -0.29418790 0.05755401 0.00140098
v -0.29450360 0.02949711 0.00159562
v -0.29419586 0.05155206 -0.00151484
v -0.29486707 0.02319094 -0.00150105
v -0.29441404 0.09296644 0.00173701
v -0.29440296 0.09864582 -0.00115531
v -0.29540393 0.01656408 0.00105377
v -0.29510412 0.05943182 0.00439561
v -0.29553235 0.02860089 0.00513476
v -0.29602900 0.01418137 0.00363140
v -0.29645643 0.06115734 0.00764629
v -0.29733816 0.03161336 0.00917499
v -0.29820916 0.01608623 0.00897400
v -0.29790050 0.09148312 0.00962115
v -0.29781595 0.05109986 0.00992114
v -0.29483876 0.05304563 -0.00408127
v -0.29719532 0.01557552 -0.00592506
v -0.29593709 0.02605241 -0.00561424
v -0.29684889 0.04223287 -0.00779927
v -0.30033866 0.03955762 0.01213399
v -0.30495110 0.11616223 -0.01286652
v -0.30609173 0.11860237 -0.01240437
v -0.30232215 0.11817865 -0.00817580
v -0.30529216 0.10872644 -0.01376051
v -0.30445883 0.10140027 -0.01301729
v -0.29847226 0.10080177 -0.00818875
v -0.30162120 0.09533067 -0.01147076
v -0.29885724 0.09134413 -0.00945317
v -0.29602543 0.09412765 -0.00618358
v -0.29649049 0.06172414 -0.00767613
v -0.30008608 0.06213936 -0.01092889
v -0.30026290 0.03771989 -0.01102032
v -0.29815629 0.02021624 -0.00839962
v -0.30113038 0.02069026 -0.01103828
v -0.30359179 0.03815563 -0.01320180
v -0.30424643 0.06362855 -0.01337785
v -0.30046561 0.01429256 -0.00912709
v -0.30757120 0.01954187 -0.01415692
v -0.30459315 0.01419448 -0.01161512
v -0.30679199 0.11446962 -0.01378757
v -0.30837461 0.10453041 -0.01473719
v -0.30872226 0.08006707 -0.01475710
v -0.31000897 0.03591749 -0.01552667
v -0.31011140 0.05227701 -0.01533947
v -0.31162086 0.09469590 -0.01525033
v -0.30633849 0.01580109 -0.01265531
v -0.31026372 0.01437278 -0.01392748
v -0.31312364 0.01591072 -0.01469339
v -0.31212887 0.03156105 -0.01541894
v -0.31302440 0.10424469 -0.01484552
v -0.31587952 0.09255650 -0.01515144
v -0.31569827 0.07453758 -0.01512524
v -0.31614739 0.03569121 -0.01524854
v -0.31783140 0.11480517 -0.01331193
v -0.31707671 0.01552515 -0.01439152
v -0.31922808 0.10855107 -0.01383396
v -0.32220292 0.11602127 -0.01243784
v -0.31960428 0.02971011 -0.01406604
v -0.31928220 0.07447606 -0.01390518
v -0.31922603 0.01438544 -0.01361921
v -0.31634644 0.01409982 -0.01525396
v -0.32275626 0.08377218 -0.01244747
v -0.29105118 0.10451085 -0.01057801
v -0.29694256 0.10107335 -0.00688711
v -0.32412827 0.01616493 -0.01098821
vt 0.93475896 0.75690842
vt 0.90217113 0.76519358
vt 0.94402575 0.89817840
vt 0.87241215 0.80028659
vt 0.85805649 0.91820383
vt 0.45808679 0.01453674
vt 0.68057370 0.99848944
vt 0.86626637 0.65006083
vt 0.85682464 0.62682706
vt 0.58532810 0.99738002
vt 0.97633266 0.79601294
vt 0.97667760 0.59726471
vt 0.01193810 0.97432023
vt 0.97656626 0.92009366
vt 0.11765367 0.97243381
vt 0.57741618 0.01842690
vt 0.97677010 0.92992747
vt 0.12080867 0.96933943
vt 0.46564957 0.66633010
vt 0.41996270 0.82625985
vt 0.41271153 0.73753071
vt 0.39500991 0.67063951
vt 0.39460701 0.58405221
vt 0.37463912 0.71776050
vt 0.39282411 0.91607350
vt 0.47245961 0.82776284
vt 0.46994236 0.91635031
vt 0.49370050 0.59427059
vt 0.24912673 0.01963747
vt 0.49457595 0.88761508
vt 0.15342233 0.02135980
vt 0.68495113 0.93378818
vt 0.49220401 0.58253652
vt 0.25295857 0.01975274
vt 0.48233694 0.92296070
vt 0.16617358 0.95827770
vt 0.32388863 0.64296895
vt 0.69668627 0.99244714
vt 0.35694972 0.58665180
vt 0.28570947 0.64155978
vt 0.78850883 0.99225831
vt 0.26536232 0.58566409
vt 0.34822160 0.72019207
vt 0.36830139 0.59699446
vt 0.36787894 0.91508150
vt 0.18589744 0.98837453
vt 0.18515727 0.87060964
vt 0.32967049 0.92296070
vt 0.32544690 0.83892620
vt 0.25383508 0.75066859
vt 0.24919456 0.59186083
vt 0.80492514 0.99244714
vt 0.32535103 0.02316302
vt 0.27775699 0.83028686
vt 0.27274546 0.88850665
vt 0.18558684 0.71499258
vt 0.27896369 0.92292309
vt 0.31916556 0.69071734
vt 0.96436059 0.00342721
vt 0.32798621 0.71282351
vt 0.32654014 0.76443696
vt 0.54742920 0.62805539
vt 0.24812835 0.60141671
vt 0.32850066 0.02284914
vt 0.24802761 0.88532889
vt 0.42191890 0.02396667
vt 0.30595094 0.82007051
vt 0.31663683 0.81297231
vt 0.32410529 0.78868771
vt 0.54684418 0.65282571
vt 0.18516061 0.92817879
vt 0.34842888 0.92273575
vt 0.32286400 0.71076781
vt 0.95751983 0.00523514
vt 0.29139274 0.82367873
vt 0.28475556 0.80690867
vt 0.16387707 0.77251333
vt 0.54690480 0.78096676
vt 0.27970478 0.79149139
vt 0.16420119 0.79422271
vt 0.36962506 0.58570629
vt 0.68392503 0.98547208
vt 0.25224990 0.07295895
vt 0.31528294 0.80521995
vt 0.54862738 0.68341821
vt 0.30440828 0.81081998
vt 0.54915267 0.71803468
vt 0.51651812 0.52226233
vt 0.47094232 0.51019651
vt 0.61046392 0.51134068
vt 0.40715531 0.52180982
vt 0.65612137 0.52345979
vt 0.74483055 0.51191026
vt 0.74777603 0.52390301
vt 0.82147384 0.52454889
vt 0.28388405 0.50866145
vt 0.28346267 0.52075756
vt 0.12548284 0.51934922
vt 0.11119848 0.50720990
vt 0.17225192 0.50731969
vt 0.19376551 0.51987642
vt 0.82421136 0.51227218
vt 0.93020356 0.51383662
vt 0.93344885 0.52579248
vt 0.10153679 0.51909006
vt 0.95039541 0.50508362
vt 0.95704341 0.52346444
vt 0.07988954 0.49864703
vt 0.07914494 0.51571095
vt 0.48678690 0.49877882
vt 0.29360053 0.49703908
vt 0.17831385 0.49537271
vt 0.73935676 0.49931026
vt 0.80204624 0.50074983
vt 0.59176242 0.17673719
vt 0.61089492 0.49393654
vt 0.09247202 0.49195695
vt 0.07440881 0.17673713
vt 0.87784940 0.49361777
vt 0.85754418 0.17365140
vt 0.72506815 0.17479974
vt 0.74477285 0.49277627
vt 0.45202559 0.17546970
vt 0.47061160 0.49190998
vt 0.18997774 0.17399496
vt 0.20783822 0.48807091
vt 0.78077859 0.17421591
vt 0.80075586 0.49349940
vt 0.53957289 0.17530584
vt 0.55849820 0.49232650
vt 0.06308582 0.16487080
vt 0.08161595 0.48010695
vt 0.69659108 0.68615931
vt 0.07879762 0.54211956
vt 0.95657855 0.54357827
vt 0.10610413 0.53460711
vt 0.13638739 0.53181976
vt 0.19464143 0.53268415
vt 0.92947298 0.53793979
vt 0.82703733 0.53735042
vt 0.75878346 0.53665680
vt 0.59094566 0.53613806
vt 0.67862844 0.53651416
vt 0.07565176 0.51228750
vt 0.07589716 0.48700136
vt 0.05243864 0.48999441
vt 0.69849151 0.70652598
vt 0.07613177 0.47132713
vt 0.05042472 0.56540614
vt 0.07523526 0.54019541
vt 0.06901006 0.57147533
vt 0.29008451 0.53341633
vt 0.40398288 0.53442699
vt 0.50292546 0.53533715
vt 0.96036333 0.53519285
vt 0.96277595 0.49483943
vt 0.97112036 0.54542470
vt 0.98310727 0.49665523
vt 0.98551840 0.53137732
vt 0.97919589 0.47571921
vt 0.00586800 0.71683240
vt 0.98638237 0.56068188
vt 0.95862633 0.48909223
vt 0.00345168 0.64576888
vt 0.03873661 0.47280967
vt 0.96183312 0.57048839
vt 0.07557020 0.57159311
vt 0.95380259 0.46716213
vt 0.04871674 0.50379753
vt 0.01035503 0.81025976
vt 0.93057936 0.55174822
vt 0.89389729 0.55274469
vt 0.45873958 0.54446089
vt 0.53039134 0.54491282
vt 0.01398112 0.47093213
vt 0.98882490 0.57126057
vt 0.13045409 0.54710108
vt 0.19172987 0.54795647
vt 0.27549529 0.54324555
vt 0.95748085 0.55533600
vt 0.83950639 0.55214292
vt 0.77520186 0.55150300
vt 0.74374956 0.55238414
vt 0.65078735 0.54620862
vt 0.36420658 0.54330111
vt 0.05672807 0.58707243
vt 0.97447884 0.46624839
vt 0.09117823 0.55593044
vt 0.07986135 0.56545752
vt 0.27457461 0.55185068
vt 0.62829518 0.55368215
vt 0.36408648 0.55224377
vt 0.50020862 0.55334401
vt 0.91081887 0.57018578
vt 0.07236262 0.57848984
vt 0.95788592 0.46391439
vt 0.18300740 0.56342697
vt 0.82778871 0.56931973
vt 0.76037616 0.56975102
vt 0.42086297 0.56536305
vt 0.53192449 0.56724232
vt 0.66792184 0.56898910
vt 0.31135532 0.56557149
vt 0.89991456 0.45281482
vt 0.12925005 0.57272649
vt 0.95626795 0.57476550
vt 0.26236022 0.56715417
vt 0.09507839 0.57424146
vt 0.93523753 0.45052338
vt 0.19551650 0.45550442
vt 0.80716312 0.58122915
vt 0.81923074 0.45113724
vt 0.20743185 0.57553893
vt 0.05049163 0.48076952
vt 0.01177822 0.78485817
vt 0.50215173 0.42206061
vt 0.54759395 0.42803383
vt 0.47171819 0.42789733
vt 0.60733658 0.42174339
vt 0.37538007 0.42460179
vt 0.35825971 0.42928445
vt 0.33745983 0.42590857
vt 0.66478050 0.42533910
vt 0.28907356 0.43048477
vt 0.30383328 0.40808916
vt 0.25453001 0.40798110
vt 0.22860362 0.43141872
vt 0.22527383 0.40426600
vt 0.17218892 0.40851247
vt 0.17642039 0.43199515
vt 0.11541250 0.40814781
vt 0.09717053 0.43239820
vt 0.08203584 0.41005754
vt 0.06306736 0.43255395
vt 0.05713607 0.40758371
vt 0.04211491 0.42527407
vt 0.65050119 0.40283543
vt 0.70965809 0.40331578
vt 0.72420651 0.42619544
vt 0.77833843 0.40331137
vt 0.80626780 0.42660952
vt 0.86377496 0.40988916
vt 0.84799832 0.39922976
vt 0.88197571 0.42515802
vt 0.93176603 0.42532510
vt 0.93707436 0.40106237
vt 0.91752309 0.39519244
vt 0.94685870 0.41268098
vt 0.37423363 0.40124863
vt 0.42613041 0.40612769
vt 0.51636243 0.40353465
vt 0.34990126 0.40167791
vt 0.04599546 0.40964568
vt 0.53788882 0.99848944
vt 0.94979078 0.42954659
vt 0.47424144 0.39303005
vt 0.71166176 0.39171040
vt 0.26566705 0.39502895
vt 0.16958845 0.39509571
vt 0.12066933 0.39432877
vt 0.77241045 0.39060831
vt 0.85017067 0.38849151
vt 0.07044555 0.39555037
vt 0.05319575 0.38720739
vt 0.92348164 0.19518852
vt 0.57390529 0.39191890
vt 0.36120579 0.38250756
vt 0.62642610 0.19562376
vt 0.93835461 0.37779403
vt 0.07218000 0.19647264
vt 0.27849469 0.19486403
vt 0.72512829 0.37897539
vt 0.45771104 0.38141608
vt 0.53420860 0.19588035
vt 0.82272190 0.19862676
vt 0.15690394 0.38209242
vt 0.70192385 0.19583458
vt 0.28241375 0.38284969
vt 0.88341874 0.37476861
vt 0.12559630 0.19818759
vt 0.90453225 0.20028132
vt 0.07272910 0.38279170
vt 0.04949161 0.38966131
vt 0.53313363 0.98102802
vt 0.04117762 0.43954605
vt 0.92277193 0.21039069
vt 0.05473622 0.37257266
vt 0.03480664 0.40746021
vt 0.03787671 0.34934491
vt 0.03175278 0.37133765
vt 0.03065217 0.24557757
vt 0.02752366 0.26277059
vt 0.02756800 0.14218193
vt 0.02339672 0.21542740
vt 0.02439052 0.36048198
vt 0.02417674 0.41309118
vt 0.02205165 0.05852979
vt 0.03571939 0.43953836
vt 0.01972083 0.16422629
vt 0.01949242 0.43932569
vt 0.01618773 0.06116426
vt 0.01489015 0.04978544
vt 0.75985622 0.82707745
vt 0.02876965 0.04613554
vt 0.77564871 0.82751429
vt 0.01220364 0.08348018
vt 0.02938490 0.05549937
vt 0.01532215 0.31684667
vt 0.01415942 0.16056710
vt 0.95057511 0.45306963
vt 0.08044878 0.57460552
vt 0.03567890 0.13829392
vt 0.03178977 0.08278286
vt 0.08699657 0.44174784
vt 0.88510501 0.43515682
vt 0.01695321 0.44558293
vt 0.51669413 0.44432116
vt 0.66824478 0.45043033
vt 0.35290062 0.57808512
vt 0.29764438 0.57625651
vt 0.72579241 0.45160460
vt 0.29416949 0.45406854
vt 0.71192974 0.58056021
vt 0.35159194 0.45349449
vt 0.65668291 0.57993704
vt 0.92334133 0.57898247
vt 0.07634740 0.46059275
vt 0.94793773 0.57738203
vt 0.05161354 0.46077263
vt 0.95880234 0.58272266
vt 0.04041740 0.45832300
vt 0.00984273 0.16272378
vt 0.04379463 0.33614290
vt 0.53994083 0.91727716
vt 0.03777760 0.05505198
vt 0.53971583 0.60269099
vt 0.53050023 0.57668477
vt 0.48309186 0.45389390
vt 0.94910079 0.38806558
vt 0.00625122 0.06107485
vt 0.01076781 0.37379289
vt 0.99043322 0.58761328
vt 0.01380925 0.45497316
vt 0.70522976 0.79305136
vt 0.95667446 0.43068314
vt 0.95653600 0.32576621
vt 0.96106219 0.40111494
vt 0.95916784 0.43997437
vt 0.97101021 0.44608968
vt 0.97155076 0.36944139
vt 0.96562070 0.29155791
vt 0.97513008 0.16577691
vt 0.97987527 0.16954535
vt 0.97817487 0.02067608
vt 0.98878539 0.02328801
vt 0.97155696 0.11722350
vt 0.97415376 0.42585850
vt 0.97769171 0.46551597
vt 0.05370658 0.58761328
vt 0.98130900 0.21858609
vt 0.97962373 0.43661427
vt 0.98562539 0.27832961
vt 0.99257445 0.09859711
vt 0.99315864 0.02120012
vt 0.96855259 0.05913180
vt 0.96303523 0.14640296
vt 0.97113121 0.00928980
vt 0.30238223 0.67641193
vt 0.98057854 0.01177311
vt 0.28598809 0.68390703
vt 0.99627870 0.01567692
vt 0.16387707 0.91087615
vt 0.96379930 0.01230317
vt 0.96045572 0.06908590
vt 0.95148218 0.30449092
vt 0.99950689 0.02630830
vt 0.16141969 0.89704925
vt 0.98446077 0.43750393
vt 0.02275886 0.89459181
vt 0.99507511 0.22891414
vt 0.09312563 0.88844591
vt 0.94212407 0.37931514
vt 0.94716257 0.28253978
vt 0.00396360 0.16596115
vt 0.59897918 0.79760504
vt 0.03534312 0.45736456
vt 0.95305294 0.10136247
vt 0.94195151 0.26675153
vt 0.93598145 0.37038553
vt 0.93764311 0.29910731
vt 0.26106483 0.33685797
vt 0.94739228 0.08302844
vt 0.33386970 0.33685803
vt 0.32562989 0.72985536
vt 0.95099550 0.00151056
vt 0.54756099 0.59365559
vt 0.36143985 0.33583558
vt 0.74650151 0.67655694
vt 0.78155071 0.68209553
vt 0.75086790 0.64217848
vt 0.81072587 0.67822713
vt 0.81515020 0.59197551
vt 0.74292791 0.59187049
vt 0.79510438 0.73583698
vt 0.79129308 0.78821510
vt 0.52938056 0.58761328
vt 0.82999951 0.75742012
vt 0.83282131 0.59333342
vt 0.82948583 0.91512066
vt 0.78270000 0.86582124
vt 0.81801784 0.92572176
vt 0.76916003 0.92549849
vt 0.73495013 0.92722911
vt 0.85813272 0.29758310
vt 0.74083179 0.85667026
vt 0.75837314 0.83485693
vt 0.71770048 0.91472238
vt 0.71718234 0.80630898
vt 0.74338907 0.79345512
vt 0.74237520 0.72523206
vt 0.71694398 0.61014301
vt 0.67791063 0.93806648
vt 0.72878605 0.59344739
vt 0.75030911 0.81790394
vt 0.00628651 0.04699641
vt 0.77420127 0.83661348
vt 0.78669095 0.81721169
vt 0.77055848 0.68936449
vt 0.15727291 0.67591298
vt 0.83481264 0.75170708
vt 0.06719629 0.91759026
vt 0.83480334 0.91768849
vt 0.01312789 0.91691846
vt 0.74564171 0.73219562
vt 0.55631334 0.86991078
vt 0.79133022 0.73117864
vt 0.15690242 0.59824920
vt 0.51037681 0.58842683
vt 0.74524999 0.77616727
vt 0.55712503 0.82511574
vt 0.57191205 0.07031202
vt 0.82839423 0.58552814
vt 0.78418630 0.81152880
vt 0.03756628 0.04452932
vt 0.53994083 0.59091902
vt 0.74766147 0.79720527
vt 0.00049310 0.05356604
vt 0.55758446 0.80216587
vt 0.76949733 0.30162096
vt 0.82285678 0.92900300
vt 0.71683615 0.59966660
vt 0.45950440 0.06948322
vt 0.68096650 0.94297069
vt 0.87286091 0.30345118
vt 0.72016859 0.92670810
vt 0.49880821 0.24962091
vt 0.50875109 0.26109290
vt 0.42628831 0.26096249
vt 0.40833718 0.24958402
vt 0.32070020 0.26791775
vt 0.60801023 0.25021231
vt 0.26485410 0.24899489
vt 0.26403666 0.26653051
vt 0.19978529 0.26620543
vt 0.18166497 0.24880695
vt 0.13862038 0.26106668
vt 0.47757268 0.26931095
vt 0.59846872 0.26103413
vt 0.58043414 0.26923251
vt 0.70252734 0.26786262
vt 0.72811353 0.25067580
vt 0.74890488 0.26876211
vt 0.78872257 0.25087190
vt 0.84123373 0.25245297
vt 0.81583512 0.26975489
vt 0.78380489 0.26920187
vt 0.88940787 0.26668441
vt 0.13062811 0.25100756
vt 0.08845346 0.25549239
vt 0.92293274 0.25145042
vt 0.03205813 0.59345448
vt 0.51287419 0.96995574
vt 0.91053724 0.26473761
vt 0.63814974 0.27068835
vt 0.08963306 0.23114580
vt 0.12518947 0.23547494
vt 0.17625017 0.23552251
vt 0.91934377 0.23970312
vt 0.80965394 0.23870474
vt 0.24817435 0.23696494
vt 0.71840847 0.23875570
vt 0.40238214 0.23802280
vt 0.63901860 0.23746353
vt 0.52585942 0.23863298
vt 0.40199685 0.26874161
vt 0.07355161 0.26270378
vt 0.12422153 0.22962582
vt 0.86845666 0.23094273
vt 0.79492432 0.22995830
vt 0.91898477 0.22847825
vt 0.92338616 0.21727252
vt 0.05472969 0.36500967
vt 0.52460283 0.96671849
vt 0.93217164 0.36611938
vt 0.23816568 0.32791984
vt 0.67110515 0.60959744
vt 0.07407542 0.21971774
vt 0.75362843 0.23038352
vt 0.69718707 0.22744894
vt 0.18715692 0.22402817
vt 0.24428953 0.22744203
vt 0.29283208 0.22695571
vt 0.36449707 0.22660834
vt 0.42394653 0.22504878
vt 0.49875885 0.22508311
vt 0.56016845 0.22493666
vt 0.64125085 0.22351360
vt 0.09597494 0.21120310
vt 0.13234968 0.21047503
vt 0.30920717 0.20834565
vt 0.42102167 0.20871711
vt 0.51560837 0.20880753
vt 0.22700568 0.20907283
vt 0.63752902 0.20877534
vt 0.71367377 0.20953035
vt 0.78162217 0.21106231
vt 0.90715355 0.21335012
vt 0.17453739 0.19680476
vt 0.83290720 0.37618506
vt 0.77163899 0.37780058
vt 0.23373502 0.19625723
vt 0.56477827 0.37962425
vt 0.43186495 0.19636196
vt 0.75961626 0.19746846
vt 0.22231562 0.38257194
vt 0.07780293 0.27537870
vt 0.13486633 0.27553380
vt 0.13669726 0.09214503
vt 0.92652857 0.27698547
vt 0.02776144 0.61615884
vt 0.88463783 0.28644431
vt 0.88658220 0.09924459
vt 0.01456583 0.49395770
vt 0.23085198 0.28623617
vt 0.23269796 0.09882134
vt 0.69434124 0.09576374
vt 0.69260079 0.28681791
vt 0.51618212 0.28442514
vt 0.51794904 0.09460920
vt 0.63719440 0.09841037
vt 0.63543510 0.28834081
vt 0.73724335 0.93695843
vt 0.79043323 0.98645556
vt 0.70997632 0.98701453
vt 0.78831643 0.93627125
vt 0.69074929 0.93800831
vt 0.68718040 0.98439670
vt 0.36665621 0.58157098
vt 0.80214810 0.93234169
vt 0.37561184 0.58182615
vt 0.80360746 0.98038024
vt 0.32297832 0.03324395
vt 0.47139534 0.58157098
vt 0.70589465 0.93202418
vt 0.18255655 0.68108249
vt 0.18115930 0.96028244
vt 0.16641335 0.69391793
vt 0.39644268 0.92296070
vt 0.18403186 0.92809415
vt 0.16719143 0.98891151
vt 0.49225968 0.92111605
vt 0.14250493 0.02484280
vt 0.38013911 0.91983300
vt 0.16677637 0.64362788
vt 0.18343785 0.63463163
vt 0.25773808 0.91685921
vt 0.18557245 0.64929718
vt 0.37466809 0.91357148
vt 0.16630667 0.62554389
vt 0.43145958 0.08228278
vt 0.24915449 0.90766358
vt 0.18589744 0.62084591
vt 0.42926323 0.02369648
vt 0.18732494 0.07032919
vt 0.37031558 0.59756750
vt 0.24870250 0.07703924
vt 0.37031558 0.88990492
vt 0.15338057 0.07703924
vt 0.24006574 0.02396101
vt 0.20373008 0.02599674
vt 0.18309256 0.99244714
vt 0.36999589 0.92161024
vt 0.14314340 0.07332456
vt 0.49328625 0.91305035
vt 0.14512751 0.02175921
vt 0.49385351 0.76328897
vt 0.19398598 0.02118021
vt 0.53239542 0.02321595
vt 0.74815989 0.58459216
vt 0.49151659 0.07099700
vt 0.53767836 0.06586671
vt 0.57188392 0.02443194
vt 0.48170713 0.01641709
vt 0.73083615 0.58662891
vt 0.47419792 0.06996900
vt 0.47067955 0.01376891
vt 0.86945623 0.93152815
vt 0.56502157 0.01525879
vt 0.96434814 0.93202418
vt 0.46279123 0.01689321
vt 0.86166823 0.92724240
vt 0.46253347 0.06424469
vt 0.49533081 0.01359516
vt 0.89424497 0.93175566
vt 0.58919775 0.88003081
vt 0.64373451 0.85278285
vt 0.64766985 0.88329655
vt 0.58432597 0.85036457
vt 0.67821139 0.85246843
vt 0.69119710 0.88381451
vt 0.55940861 0.88251257
vt 0.56005299 0.84655410
vt 0.70254576 0.85892528
vt 0.70252836 0.83951461
vt 0.67589957 0.84294742
vt 0.58286846 0.83730519
vt 0.70468122 0.88744742
vt 0.70319706 0.89781058
vt 0.70207268 0.82313192
vt 0.63748097 0.82707608
vt 0.59244442 0.81857419
vt 0.63835561 0.81417310
vt 0.99260354 0.56967354
vt 0.70673919 0.81214732
vt 0.00848997 0.41811752
vt 0.69076860 0.80506063
vt 0.58519638 0.89318478
vt 0.55656713 0.89094943
vt 0.64140779 0.89858299
vt 0.68582243 0.90043545
vt 0.75162840 0.70270514
vt 0.15729783 0.73558843
vt 0.55571991 0.90553343
vt 0.98948759 0.50587183
vt 0.70867515 0.87945849
vt 0.99108112 0.54856014
vt 0.70956606 0.83376235
vt 0.12921068 0.73383880
vt 0.58371836 0.91284114
vt 0.98586166 0.48302996
vt 0.00527698 0.73867059
vt 0.70779699 0.90750444
vt 0.38869688 0.12758505
vt 0.43115675 0.13580877
vt 0.36687967 0.13565606
vt 0.28702238 0.13558716
vt 0.30380568 0.11852753
vt 0.24619868 0.11926240
vt 0.19177644 0.13570136
vt 0.52210349 0.12308294
vt 0.38639471 0.11883521
vt 0.55273157 0.13570178
vt 0.66502619 0.12611705
vt 0.64609754 0.11859375
vt 0.64657068 0.13591439
vt 0.70827192 0.13561594
vt 0.71472418 0.11855626
vt 0.19407448 0.11889899
vt 0.12913568 0.12670070
vt 0.11747269 0.13636714
vt 0.07492853 0.12682593
vt 0.06652474 0.14895177
vt 0.46446037 0.11658907
vt 0.06622923 0.12014353
vt 0.78824204 0.12645972
vt 0.76894987 0.13530600
vt 0.82379097 0.11927605
vt 0.84287578 0.13538444
vt 0.84498245 0.12100762
vt 0.93373066 0.12825221
vt 0.89428741 0.13682485
vt 0.93593729 0.14687455
vt 0.01139301 0.64506590
vt 0.93836290 0.11708438
vt 0.02145163 0.65150714
vt 0.12566335 0.15244645
vt 0.19483970 0.14798206
vt 0.28447169 0.14823627
vt 0.35150066 0.14838260
vt 0.61672580 0.14843583
vt 0.66907448 0.14823049
vt 0.76904088 0.14815015
vt 0.84203523 0.14718091
vt 0.89000070 0.15328217
vt 0.91910344 0.14954472
vt 0.47152191 0.14813602
vt 0.57156628 0.15092474
vt 0.38394126 0.14905715
vt 0.06262328 0.14844197
vt 0.69138205 0.69213670
vt 0.07611790 0.11770988
vt 0.18707350 0.11656886
vt 0.17659980 0.28319293
vt 0.17846113 0.09754097
vt 0.16974828 0.10125619
vt 0.16781561 0.28632331
vt 0.07040792 0.10796189
vt 0.06854043 0.28851962
vt 0.67950302 0.66664547
vt 0.84938008 0.11635023
vt 0.92707747 0.11840612
vt 0.02342503 0.63717055
vt 0.93405986 0.10958493
vt 0.53237706 0.11021483
vt 0.20329869 0.15645778
vt 0.67126483 0.15563703
vt 0.31577477 0.15713322
vt 0.77629918 0.15560472
vt 0.43640387 0.15734315
vt 0.08179762 0.15703404
vt 0.54071283 0.15723825
vt 0.91613346 0.17344403
vt 0.93672317 0.49475724
vt 0.65951854 0.17450410
vt 0.67892647 0.49226499
vt 0.29716736 0.17531145
vt 0.31521487 0.49004710
vt 0.10383894 0.17589891
vt 0.12172119 0.49038285
vt 0.11015923 0.10326070
vt 0.10827759 0.28604728
vt 0.81713635 0.09885091
vt 0.81532854 0.28851962
vt 0.74711263 0.09658760
vt 0.74537128 0.28713560
vt 0.26472017 0.28522837
vt 0.26655498 0.09735411
vt 0.37752613 0.09666604
vt 0.37573731 0.28575128
vt 0.43792474 0.28650397
vt 0.43969434 0.09694946
vt 0.30534196 0.09742975
vt 0.30352384 0.28615236
vt 0.56979328 0.28360999
vt 0.57155144 0.09355760
vt 0.38165224 0.06271106
vt 0.42132071 0.03376228
vt 0.41767478 0.07724363
vt 0.33549982 0.07739002
vt 0.37268689 0.59037596
vt 0.80621302 0.93251455
vt 0.32509592 0.08228278
vt 0.37228796 0.90181386
vt 0.42759570 0.08184731
vt 0.24815488 0.74227750
vt 0.37483799 0.02265859
vt 0.37276539 0.59726512
vt 0.32736394 0.08308160
vt 0.37237480 0.76744884
vt 0.38337439 0.08238888
vt 0.97781062 0.60699630
vt 0.01531564 0.97252291
vt 0.09268052 0.96446472
vt 0.06898578 0.93951482
vt 0.01954829 0.92228502
vt 0.83480334 0.61196548
vt 0.11273418 0.91759241
vt 0.97781062 0.90188462
vt 0.11159052 0.97055107
vt 0.57741618 0.06859767
vt 0.83402401 0.58693790
vt 0.12080868 0.91875631
vt 0.97507721 0.59222788
vt 0.75986195 0.35657769
vt 0.00963621 0.97360522
vt 0.71484554 0.89190561
vt 0.58569747 0.93871766
vt 0.71449703 0.62816161
vt 0.67155045 0.94063944
vt 0.65011221 0.94482964
vt 0.65588301 0.98913974
vt 0.85650885 0.89975798
vt 0.67435664 0.99845552
vt 0.67719370 0.94947129
vt 0.85676467 0.74992383
vt 0.62547803 0.99848944
vt 0.08086981 0.84249604
vt 0.13796961 0.82916045
vt 0.04367085 0.83110070
vt 0.12465979 0.84319937
vt 0.03845764 0.84398854
vt 0.02045681 0.83227420
vt 0.02018575 0.84865612
vt 0.14959051 0.84397829
vt 0.15761992 0.83285993
vt 0.16051430 0.84648794
vt 0.27758309 0.76332355
vt 0.16364682 0.82292455
vt 0.27718684 0.74296725
vt 0.16384268 0.84365386
vt 0.15021709 0.80801409
vt 0.02135591 0.80296856
vt 0.16198312 0.79710460
vt 0.03795291 0.80045044
vt 0.06354680 0.80048031
vt 0.12993319 0.80196542
vt 0.01452342 0.81209970
vt 0.15538898 0.79280549
vt 0.10859468 0.78320533
vt 0.15691201 0.78273714
vt 0.02310251 0.78342742
vt 0.06596996 0.78187406
vt 0.01310788 0.85136592
vt 0.08662862 0.87120283
vt 0.04520790 0.87153417
vt 0.12126271 0.87234998
vt 0.14820008 0.86879730
vt 0.16184829 0.88154578
vt 0.01836814 0.87447846
vt 0.04783037 0.56002927
vt 0.01038057 0.87123960
vt 0.27950475 0.70786774
vt 0.16406575 0.87977892
vt 0.04947710 0.57472712
vt 0.98334157 0.47280967
vt 0.01086882 0.88800341
vt 0.04727317 0.88439524
vt 0.99806696 0.15059537
vt 0.11957619 0.88934010
vt 0.80767173 0.32329369
vt 0.77925116 0.30674660
vt 0.85644019 0.30484986
vt 0.86403072 0.35050738
vt 0.79262006 0.35014653
vt 0.76391786 0.35756135
vt 0.97101671 0.59063447
vt 0.83222723 0.92639381
vt 0.76010931 0.30404544
vt 0.00936884 0.91927195
vt 0.87424332 0.35587054
vt 0.86071873 0.59322137
vt 0.86275762 0.35800600
vt 0.87219709 0.59173685
vt 0.78771275 0.35800600
vt 0.94722736 0.59116697
vt 0.85778117 0.59971005
vt 0.87720019 0.35751003
vt 0.57642996 0.99698651
vt 0.71586770 0.91725957
vt 0.87721896 0.30174595
vt 0.57748997 0.93927693
vt 0.32895926 0.31873113
vt 0.58027381 0.60817963
vt 0.64874524 0.62477285
vt 0.59936452 0.62303305
vt 0.25814033 0.32311684
vt 0.65105295 0.61086345
vt 0.67049801 0.62396169
vt 0.07429874 0.23465240
vt 0.57162660 0.62217706
vt 0.55135620 0.62506330
vt 0.07305483 0.24908352
vt 0.67127275 0.63826114
vt 0.56320763 0.64781851
vt 0.61994654 0.65066475
vt 0.54993945 0.65031886
vt 0.06929750 0.26759267
vt 0.67319638 0.65910178
vt 0.55459410 0.65731597
vt 0.54905206 0.60715681
vt 0.35998884 0.32157665
vt 0.31917238 0.79448742
vt 0.54921710 0.66702199
vt 0.59275931 0.67320567
vt 0.65176487 0.67651010
vt 0.06431951 0.11381477
vt 0.67993712 0.68636608
vt 0.55798233 0.67536020
vt 0.59336931 0.68723267
vt 0.66025460 0.69866318
vt 0.68793893 0.70304477
vt 0.55300957 0.68785059
vt 0.55705291 0.70174980
vt 0.58675325 0.69918615
vt 0.57731545 0.71206307
vt 0.66697550 0.71408653
vt 0.68487024 0.71197218
vt 0.55328399 0.72892547
vt 0.57241702 0.74211353
vt 0.29289490 0.81675845
vt 0.54792434 0.75423491
vt 0.65994298 0.74783421
vt 0.61702794 0.74663395
vt 0.66309297 0.75232983
vt 0.68147391 0.75790906
vt 0.69777453 0.77340931
vt 0.05547340 0.46978855
vt 0.01147686 0.76451874
vt 0.55216819 0.74936032
vt 0.57332641 0.74977356
vt 0.54959267 0.76241815
vt 0.16096352 0.75377643
vt 0.68414259 0.78096676
vt 0.02566886 0.76717103
vt 0.05745645 0.47462463
vt 0.69970417 0.76794487
vt 0.63832068 0.77964032
vt 0.07174549 0.76491588
vt 0.58524734 0.77994519
vt 0.12504779 0.76689368
vt 0.52074218 0.78286725
vt 0.52094769 0.65911663
vt 0.51640528 0.75640565
vt 0.51641732 0.63119596
vt 0.52150214 0.93948495
vt 0.92218220 0.23808420
vt 0.51727331 0.96471626
vt 0.52025425 0.60171866
vt 0.52537984 0.79109490
vt 0.52635765 0.65501761
vt 0.79150856 0.77218080
vt 0.52422118 0.59105110
vt 0.53059328 0.79864961
vt 0.53291923 0.66814935
vt 0.53294212 0.59889722
vt 0.53428179 0.93277901
vt 0.53444844 0.75414693
vt 0.51251030 0.76302314
vt 0.15440014 0.60174370
vt 0.50952882 0.59638023
vt 0.13909270 0.59600842
vt 0.51002860 0.64351308
vt 0.11560844 0.60571223
vt 0.50641024 0.71512341
vt 0.04087368 0.14407891
vt 0.53936023 0.70300204
vt 0.00889838 0.65799141
vt 0.96180463 0.47472376
vt 0.00526522 0.66279536
vt 0.93516797 0.17008018
vt 0.95581478 0.49216437
vt 0.00418610 0.63659418
vt 0.01964181 0.65790212
vt 0.03021738 0.65190369
vt 0.03079622 0.61739022
vt 0.03893453 0.63704455
vt 0.04460526 0.62154067
vt 0.04041491 0.60268569
vt 0.50934923 0.94486672
vt 0.08734207 0.60552526
vt 0.50667298 0.80145621
vt 0.08687381 0.62710202
vt 0.12216204 0.62646335
vt 0.14744619 0.61227757
vt 0.14669475 0.62974030
vt 0.12157391 0.64405942
vt 0.08484039 0.64864874
vt 0.78534257 0.71592987
vt 0.15611400 0.62257159
vt 0.14843652 0.66127145
vt 0.77945387 0.70478219
vt 0.15625818 0.64426839
vt 0.01154609 0.66584349
vt 0.02589282 0.67134035
vt 0.06120544 0.67062509
vt 0.12490859 0.67404473
vt 0.10133333 0.67531741
vt 0.04019308 0.68481028
vt 0.15393128 0.65349418
vt 0.15604979 0.67188889
vt 0.77125734 0.69494092
vt 0.15403077 0.68563342
vt 0.13122524 0.68299019
vt 0.02648743 0.69189644
vt 0.04338002 0.70342416
vt 0.06933613 0.70174211
vt 0.12538554 0.70112318
vt 0.01138586 0.71445668
vt 0.15462871 0.70358467
vt 0.02042870 0.71983850
vt 0.00966236 0.73432779
vt 0.70380974 0.91691846
vt 0.13414642 0.71667069
vt 0.06949066 0.71856153
vt 0.75847900 0.69637871
vt 0.15627770 0.71369708
vt 0.76256162 0.68873608
vt 0.15685624 0.69975263
vt 0.05614570 0.73573750
vt 0.65695834 0.91691846
vt 0.91907376 0.10225534
vt 0.02192208 0.59077084
vt 0.92554218 0.26557797
vt 0.03034756 0.60847443
vt 0.15397935 0.73867071
vt 0.55894887 0.90132147
f 579/786 7/10 576/781
f 579/786 576/781 577/783
f 626/848 573/777 7/10
f 7/10 573/777 576/781
f 576/781 573/777 575/780
f 576/781 574/779 577/783
f 577/783 574/779 578/784
f 577/783 578/784 5/7
f 623/840 338/454 626/847
f 626/848 627/851 573/777
f 576/781 575/780 574/779
f 5/7 578/784 337/453
f 626/847 338/454 627/850
f 627/849 318/417 573/776
f 573/776 318/417 319/418
f 573/776 319/418 574/778
f 573/777 574/779 575/780
f 319/418 322/421 574/778
f 578/784 574/779 337/453
f 574/779 322/422 337/453
f 626/846 624/843 623/841
f 337/452 452/612 451/610
f 627/849 338/455 318/417
f 619/833 338/454 623/840
f 338/455 315/413 318/417
f 318/417 316/415 319/418
f 322/421 323/423 337/451
f 452/612 337/452 448/605
f 337/451 323/423 448/604
f 623/840 624/842 619/833
f 619/833 618/832 338/454
f 318/417 315/413 316/415
f 322/421 301/398 306/403
f 618/832 315/414 338/454
f 319/418 321/420 322/421
f 322/421 321/420 301/398
f 322/421 306/403 323/423
f 453/614 5/5 449/607
f 319/418 316/415 320/419
f 319/418 320/419 321/420
f 301/398 303/400 306/403
f 316/415 317/416 324/424
f 316/415 324/424 320/419
f 335/446 332/439 320/419
f 320/419 332/439 321/420
f 321/420 332/439 330/434
f 330/434 478/641 321/420
f 321/420 478/641 301/398
f 323/423 306/403 448/604
f 461/622 332/440 465/626
f 465/626 457/618 461/622
f 465/626 332/440 470/631
f 470/631 469/630 465/626
f 469/630 464/625 465/626
f 465/626 464/625 457/618
f 457/618 455/616 454/615
f 454/615 455/616 456/617
f 464/625 455/616 457/618
f 464/625 458/619 455/616
f 455/616 458/619 456/617
f 458/619 459/620 456/617
f 469/630 468/629 464/625
f 468/629 463/624 464/625
f 464/625 463/624 458/619
f 463/624 462/623 458/619
f 458/619 462/623 459/620
f 315/413 314/412 312/410
f 315/413 312/410 316/415
f 316/415 312/410 317/416
f 324/424 335/446 320/419
f 330/435 475/638 478/643
f 306/403 444/599 448/604
f 332/440 461/622 330/435
f 330/435 461/622 460/621
f 461/622 457/618 460/621
f 335/448 470/631 332/440
f 457/618 454/615 460/621
f 335/448 293/385 470/631
f 335/447 258/340 293/384
f 454/615 474/637 460/621
f 454/615 476/639 474/637
f 454/615 456/617 476/639
f 293/385 471/632 470/631
f 470/631 471/632 469/630
f 293/385 473/636 471/632
f 293/384 259/341 473/635
f 456/617 477/640 476/639
f 473/636 468/629 471/632
f 471/632 468/629 469/630
f 259/341 260/343 473/635
f 459/620 467/628 477/640
f 473/636 472/634 468/629
f 473/636 260/344 472/634
f 462/623 466/627 459/620
f 459/620 466/627 467/628
f 260/342 126/176 472/633
f 472/634 480/647 463/624
f 468/629 472/634 463/624
f 472/633 126/176 480/646
f 480/647 479/645 462/623
f 463/624 480/647 462/623
f 462/623 479/645 466/627
f 317/416 233/303 324/424
f 478/641 731/987 301/398
f 324/425 258/340 335/447
f 324/425 233/302 258/340
f 258/340 233/302 235/306
f 258/340 235/306 253/332
f 258/340 253/332 293/384
f 253/332 259/341 293/384
f 253/332 237/308 259/341
f 259/341 237/308 244/316
f 477/640 727/982 732/990
f 259/341 244/316 260/343
f 466/627 482/652 467/628
f 126/176 117/162 480/646
f 117/162 115/159 480/646
f 480/646 115/159 479/644
f 115/159 114/158 479/644
f 479/644 114/158 482/650
f 619/833 616/830 618/832
f 478/641 730/985 731/987
f 475/638 735/996 478/643
f 235/306 238/309 253/332
f 238/309 237/308 253/332
f 231/300 244/316 237/308
f 244/316 126/175 260/343
f 482/651 116/161 727/981
f 482/650 114/158 116/160
f 624/842 620/834 619/833
f 619/833 620/834 616/830
f 306/403 305/402 444/599
f 232/301 235/306 233/302
f 235/306 232/301 230/299
f 235/306 230/299 238/309
f 238/309 230/299 237/308
f 230/299 226/295 237/308
f 237/308 226/295 231/300
f 226/295 227/296 231/300
f 126/176 119/166 117/162
f 117/162 113/157 115/159
f 115/159 113/157 114/158
f 317/416 312/410 325/426
f 317/416 325/426 233/303
f 731/987 302/399 301/398
f 301/398 302/399 303/400
f 233/302 228/297 232/301
f 730/986 725/979 731/988
f 232/301 228/297 230/299
f 228/297 225/294 230/299
f 230/299 225/294 226/295
f 227/296 229/298 231/300
f 231/300 229/298 244/316
f 244/316 229/298 126/175
f 229/298 294/386 126/175
f 126/175 294/386 119/165
f 117/162 119/166 113/157
f 113/157 112/156 114/158
f 325/426 234/305 233/303
f 731/987 327/428 302/399
f 303/400 305/402 306/403
f 233/302 234/304 228/297
f 228/297 224/293 225/294
f 224/293 223/292 225/294
f 225/294 223/292 226/295
f 223/292 221/290 226/295
f 226/295 221/290 227/296
f 227/296 221/290 229/298
f 112/156 692/938 116/160
f 114/158 112/156 116/160
f 618/832 336/449 315/414
f 315/413 336/450 314/412
f 234/304 236/307 228/297
f 228/297 236/307 224/293
f 224/293 222/291 223/292
f 222/291 221/290 223/292
f 221/290 219/288 229/298
f 119/166 111/155 113/157
f 113/157 111/155 112/156
f 624/842 625/844 620/834
f 717/971 709/961 327/428
f 236/307 241/313 224/293
f 241/313 240/312 224/293
f 222/291 220/289 221/290
f 221/290 220/289 219/288
f 229/298 252/331 294/386
f 294/386 252/331 119/165
f 453/614 450/609 3/3
f 312/410 326/427 325/426
f 325/426 326/427 234/305
f 326/427 334/443 234/305
f 709/961 302/399 327/428
f 305/402 333/442 444/599
f 234/304 334/444 255/335
f 234/304 255/335 236/307
f 236/307 255/335 241/313
f 255/335 240/312 241/313
f 224/293 240/312 222/291
f 222/291 240/312 220/289
f 240/312 254/333 220/289
f 220/289 254/333 196/253
f 220/289 196/253 219/288
f 219/288 196/253 179/236
f 252/330 153/206 119/166
f 119/166 153/206 130/180
f 130/180 92/135 111/155
f 119/166 130/180 111/155
f 111/155 92/135 74/107
f 111/155 74/107 112/156
f 74/107 693/941 112/156
f 693/941 118/163 112/156
f 112/156 118/163 692/938
f 707/958 302/399 709/961
f 334/445 683/925 255/336
f 255/335 690/935 240/312
f 240/312 690/935 254/333
f 217/285 251/329 252/331
f 252/330 251/328 153/206
f 334/443 326/427 308/405
f 331/436 307/404 707/958
f 707/958 307/404 302/399
f 302/399 304/401 303/400
f 303/400 304/401 305/402
f 255/336 683/925 682/924
f 255/336 682/924 690/936
f 690/936 682/924 685/927
f 690/936 685/927 684/926
f 196/254 684/926 216/284
f 216/283 206/264 196/253
f 74/107 73/106 693/941
f 616/830 617/831 618/832
f 618/832 617/831 336/449
f 312/410 308/405 326/427
f 680/921 308/405 307/404
f 680/921 307/404 331/436
f 680/922 677/918 679/920
f 382/502 218/287 216/283
f 196/253 178/235 179/236
f 153/206 251/328 130/180
f 620/834 617/831 616/830
f 313/411 312/410 314/412
f 307/404 304/401 302/399
f 382/501 381/500 218/286
f 178/235 196/253 206/264
f 179/236 177/234 217/285
f 217/285 177/234 251/329
f 92/135 71/104 74/107
f 71/104 70/103 73/106
f 74/107 71/104 73/106
f 312/410 311/409 308/405
f 206/264 215/282 205/263
f 178/235 176/233 177/234
f 178/235 177/234 179/236
f 177/234 250/327 251/329
f 251/328 122/171 130/180
f 130/180 122/171 92/135
f 122/171 96/139 92/135
f 92/135 96/139 71/104
f 336/450 313/411 314/412
f 312/410 313/411 311/409
f 311/409 309/407 308/405
f 250/326 143/194 251/328
f 251/328 143/194 122/171
f 625/844 621/835 620/834
f 308/405 304/401 307/404
f 176/233 175/232 177/234
f 175/232 242/314 177/234
f 177/234 242/314 250/327
f 620/834 621/835 617/831
f 308/405 309/407 304/401
f 621/835 622/838 617/831
f 617/831 622/838 336/449
f 309/407 310/408 305/402
f 304/401 309/407 305/402
f 305/402 310/408 333/442
f 143/194 123/172 122/171
f 621/835 572/774 622/838
f 336/450 622/837 313/411
f 313/411 622/837 311/409
f 310/408 571/771 333/442
f 622/837 329/432 311/409
f 311/409 329/432 328/430
f 311/409 328/430 309/407
f 309/407 328/430 310/408
f 9/13 329/433 572/775
f 572/775 329/433 622/839
f 328/430 569/766 310/408
f 569/766 571/771 310/408
f 122/171 123/172 96/139
f 215/282 202/260 205/263
f 176/233 174/231 175/232
f 544/722 84/120 522/694
f 215/282 212/276 202/260
f 143/194 131/181 123/172
f 123/172 131/181 96/139
f 70/103 81/114 73/106
f 175/232 173/230 242/314
f 96/139 62/95 71/104
f 71/104 62/95 70/103
f 360/477 411/541 358/475
f 84/120 540/718 522/694
f 174/231 173/230 175/232
f 131/181 97/140 96/139
f 96/139 97/140 62/95
f 62/95 69/102 70/103
f 70/103 69/102 81/114
f 174/231 172/229 173/230
f 84/120 88/127 540/718
f 212/276 201/259 202/260
f 173/230 156/210 242/314
f 242/314 156/210 250/327
f 156/211 146/198 143/194
f 250/326 156/211 143/194
f 143/194 146/198 131/181
f 146/198 132/182 131/181
f 131/181 132/182 97/140
f 212/276 171/228 201/259
f 212/276 407/535 171/228
f 505/675 497/667 507/677
f 173/230 170/227 156/210
f 172/229 170/227 173/230
f 132/182 98/141 97/140
f 97/140 98/141 62/95
f 156/211 147/199 146/198
f 146/198 147/199 132/182
f 172/229 171/228 170/227
f 62/95 60/93 69/102
f 69/102 60/93 81/114
f 88/127 85/121 540/718
f 407/535 200/258 171/228
f 171/228 169/226 170/227
f 98/141 61/94 62/95
f 62/95 61/94 60/93
f 60/93 80/113 81/114
f 147/199 133/183 132/182
f 132/182 133/183 98/141
f 407/535 213/278 200/258
f 170/227 248/322 156/210
f 156/211 248/323 147/199
f 169/226 167/224 170/227
f 505/675 493/663 497/667
f 85/121 538/716 540/718
f 170/227 167/224 248/322
f 133/183 100/143 98/141
f 98/141 100/143 61/94
f 248/323 150/202 147/199
f 147/199 150/202 133/183
f 169/226 168/225 167/224
f 168/225 165/222 167/224
f 85/121 545/724 538/716
f 133/183 134/184 100/143
f 100/143 59/92 61/94
f 61/94 59/92 60/93
f 167/224 164/221 248/322
f 493/663 494/664 497/667
f 248/323 249/325 150/202
f 150/202 140/191 133/183
f 133/183 140/191 134/184
f 195/252 165/222 168/225
f 165/222 164/221 167/224
f 164/221 249/324 248/322
f 60/93 82/116 80/113
f 385/509 374/493 393/517
f 213/278 208/267 200/258
f 538/716 518/690 519/691
f 208/267 195/252 200/258
f 538/716 525/697 518/690
f 59/92 57/90 60/93
f 60/93 57/90 82/116
f 208/267 192/249 195/252
f 195/252 192/249 165/222
f 165/222 192/249 163/220
f 493/663 490/660 494/664
f 545/724 82/115 525/697
f 374/493 392/516 393/517
f 134/184 99/142 100/143
f 100/143 99/142 59/92
f 163/220 161/218 164/221
f 99/142 55/88 59/92
f 59/92 55/88 57/90
f 208/267 211/273 192/249
f 164/221 245/317 249/324
f 249/325 149/201 150/202
f 150/202 149/201 140/191
f 192/249 193/250 163/220
f 140/191 125/174 134/184
f 134/184 125/174 99/142
f 211/273 198/256 192/249
f 245/317 256/338 249/324
f 249/325 256/337 149/201
f 164/221 161/218 245/317
f 89/129 543/721 82/115
f 193/250 159/216 163/220
f 163/220 159/216 161/218
f 57/90 77/110 82/116
f 543/721 524/696 525/697
f 55/88 56/89 57/90
f 57/90 56/89 77/110
f 149/201 142/193 140/191
f 140/191 142/193 125/174
f 125/174 110/154 99/142
f 99/142 110/154 55/88
f 194/251 159/216 193/250
f 543/721 541/719 524/696
f 89/129 86/123 543/721
f 211/273 406/532 198/256
f 161/218 160/217 245/317
f 142/193 124/173 125/174
f 125/174 124/173 110/154
f 159/216 160/217 161/218
f 256/337 148/200 149/201
f 149/201 148/200 142/193
f 406/532 207/266 198/256
f 483/653 491/661 490/660
f 194/251 162/219 159/216
f 541/719 526/698 524/696
f 124/173 109/153 110/154
f 109/153 58/91 55/88
f 110/154 109/153 55/88
f 55/88 58/91 56/89
f 159/216 162/219 160/217
f 162/219 166/223 160/217
f 160/217 166/223 245/317
f 245/317 246/318 256/338
f 256/337 246/319 148/200
f 148/200 141/192 142/193
f 142/193 141/192 124/173
f 141/192 135/185 124/173
f 124/173 135/185 109/153
f 406/532 199/257 207/266
f 86/123 539/717 541/719
f 56/89 78/111 77/110
f 194/251 180/237 162/219
f 245/317 166/223 246/318
f 539/717 517/689 526/698
f 58/91 63/96 56/89
f 56/89 63/96 78/111
f 406/532 210/272 199/257
f 180/237 166/223 162/219
f 246/319 151/203 148/200
f 148/200 151/203 141/192
f 86/123 546/726 539/717
f 483/653 487/657 491/661
f 180/237 181/238 166/223
f 135/185 108/152 109/153
f 109/153 108/152 58/91
f 108/152 64/97 58/91
f 58/91 64/97 63/96
f 166/223 182/239 246/318
f 246/319 247/320 151/203
f 181/238 182/239 166/223
f 182/239 247/321 246/318
f 151/203 139/190 141/192
f 141/192 139/190 135/185
f 139/190 129/179 135/185
f 135/185 129/179 108/152
f 181/238 183/240 182/239
f 546/726 537/715 539/717
f 247/320 154/207 151/203
f 151/203 154/207 139/190
f 546/726 87/125 537/715
f 210/272 203/261 199/257
f 210/272 405/530 203/261
f 182/239 184/241 247/321
f 183/240 184/241 182/239
f 247/320 157/213 154/207
f 129/179 95/138 108/152
f 108/152 95/138 64/97
f 405/530 404/529 203/261
f 157/213 145/197 154/207
f 154/207 145/197 139/190
f 139/190 128/178 129/179
f 129/179 128/178 95/138
f 95/138 68/101 64/97
f 64/97 68/101 63/96
f 184/241 157/212 247/321
f 145/197 128/178 139/190
f 63/96 79/112 78/111
f 404/529 204/262 203/261
f 68/101 67/100 63/96
f 63/96 67/100 79/112
f 186/243 185/242 183/240
f 183/240 185/242 184/241
f 184/241 243/315 157/212
f 185/242 187/244 184/241
f 184/241 187/244 243/315
f 243/315 152/204 157/212
f 157/213 152/205 145/197
f 87/125 514/686 537/715
f 404/529 214/279 204/262
f 128/178 127/177 95/138
f 145/197 127/177 128/178
f 127/177 94/137 95/138
f 94/137 65/98 68/101
f 95/138 94/137 68/101
f 68/101 65/98 67/100
f 186/243 190/247 185/242
f 87/125 547/728 514/686
f 65/98 66/99 67/100
f 67/100 66/99 79/112
f 66/99 547/729 79/112
f 21/29 438/589 439/590
f 21/29 439/590 442/597
f 442/597 439/590 22/31
f 52/83 436/586 21/29
f 23/34 52/83 21/29
f 21/29 436/586 438/589
f 438/589 435/584 439/590
f 439/590 435/584 22/31
f 22/31 437/588 440/593
f 22/31 440/593 441/595
f 441/595 440/593 429/572
f 438/589 436/586 435/584
f 22/31 435/584 437/588
f 52/81 30/44 436/585
f 30/44 31/45 436/585
f 435/584 436/586 437/588
f 436/585 31/45 437/587
f 437/587 31/45 440/592
f 23/32 421/557 52/82
f 23/32 420/556 421/557
f 421/558 26/39 52/81
f 52/81 26/39 30/44
f 145/197 152/205 127/177
f 23/32 424/564 420/556
f 29/43 31/45 30/44
f 31/46 428/569 440/591
f 187/244 188/245 243/315
f 547/728 542/720 514/686
f 214/279 190/247 204/262
f 127/177 93/136 94/137
f 420/556 418/554 421/557
f 421/557 418/554 26/38
f 30/44 26/39 29/43
f 29/43 32/48 31/45
f 31/45 32/48 47/72
f 31/46 47/71 428/569
f 214/279 209/269 190/247
f 94/137 93/136 65/98
f 185/242 188/245 187/244
f 188/245 155/209 243/315
f 243/315 155/209 152/204
f 93/136 72/105 65/98
f 65/98 72/105 66/99
f 190/247 189/246 185/242
f 185/242 189/246 188/245
f 547/728 83/118 542/720
f 66/99 83/117 547/729
f 29/43 33/49 32/48
f 542/720 502/672 514/686
f 155/208 137/188 152/205
f 152/205 137/188 127/177
f 127/177 137/188 93/136
f 424/564 416/552 420/556
f 26/39 25/37 29/43
f 420/556 416/552 418/554
f 29/43 25/37 40/60
f 40/60 41/61 29/43
f 29/43 41/61 33/49
f 209/269 189/246 190/247
f 40/60 300/394 41/61
f 41/61 46/69 33/49
f 189/246 191/248 188/245
f 83/118 90/131 542/720
f 93/136 91/134 72/105
f 72/105 75/108 66/99
f 66/99 75/108 83/117
f 25/37 39/58 40/60
f 40/60 48/73 300/394
f 46/69 45/68 33/49
f 300/396 641/870 41/62
f 641/870 634/861 41/62
f 299/393 628/852 641/871
f 300/397 299/393 641/871
f 628/853 633/860 634/861
f 641/870 628/853 634/861
f 634/861 633/860 636/864
f 628/853 630/855 633/860
f 633/860 630/855 636/864
f 630/855 637/865 636/864
f 299/393 298/391 628/852
f 299/392 296/388 298/390
f 299/392 295/387 296/388
f 628/853 629/854 630/855
f 630/855 629/854 637/865
f 298/391 631/856 628/852
f 628/853 631/857 629/854
f 629/854 635/863 637/865
f 298/391 383/505 631/856
f 298/390 297/389 383/504
f 631/857 632/858 629/854
f 629/854 632/858 635/863
f 631/857 383/506 632/858
f 209/269 191/248 189/246
f 191/248 197/255 188/245
f 188/245 197/255 239/310
f 188/245 239/310 155/209
f 137/188 91/134 93/136
f 91/134 76/109 72/105
f 72/105 76/109 75/108
f 40/60 39/58 48/73
f 41/62 638/866 46/70
f 638/866 642/873 46/70
f 41/62 634/861 638/866
f 634/861 636/864 638/866
f 638/866 636/864 640/869
f 48/74 286/374 295/387
f 48/74 295/387 299/392
f 48/74 299/392 300/395
f 636/864 643/874 640/869
f 286/374 292/383 295/387
f 295/387 292/383 296/388
f 292/383 291/382 296/388
f 296/388 291/382 298/390
f 291/382 297/389 298/390
f 291/382 209/269 297/389
f 291/382 191/248 209/269
f 155/208 239/311 138/189
f 155/208 138/189 137/188
f 138/189 91/134 137/188
f 83/117 75/108 90/132
f 33/49 36/54 32/48
f 39/59 285/373 48/74
f 39/59 282/367 285/373
f 46/69 642/872 45/68
f 642/872 53/84 45/68
f 638/866 640/869 642/873
f 285/373 286/374 48/74
f 285/373 280/365 286/374
f 640/869 643/874 646/878
f 286/374 280/365 281/366
f 281/366 262/346 286/374
f 286/374 287/375 292/383
f 286/374 262/346 287/375
f 287/375 291/382 292/383
f 287/375 257/339 291/382
f 287/375 262/346 257/339
f 257/339 191/248 291/382
f 90/131 527/699 502/672
f 25/37 26/39 27/40
f 25/37 283/368 39/58
f 39/59 283/369 282/367
f 45/68 44/67 33/49
f 53/84 44/67 45/68
f 642/873 650/882 53/85
f 285/373 282/367 280/365
f 257/339 197/255 191/248
f 416/552 417/553 418/554
f 283/369 270/354 282/367
f 53/84 54/86 44/67
f 282/367 270/354 280/365
f 280/365 270/354 272/356
f 280/365 272/356 281/366
f 281/366 272/356 267/351
f 281/366 267/351 262/346
f 647/879 648/880 652/884
f 262/346 267/351 263/347
f 261/345 257/339 262/346
f 262/346 263/347 261/345
f 645/877 649/881 648/880
f 257/339 261/345 197/255
f 120/168 239/310 197/255
f 261/345 120/168 197/255
f 261/345 264/348 120/168
f 120/167 138/189 239/311
f 527/700 90/133 104/147
f 527/700 104/147 649/881
f 138/189 120/167 91/134
f 120/167 106/150 91/134
f 91/134 106/150 101/144
f 91/134 101/144 76/109
f 76/109 102/145 75/108
f 76/109 101/144 102/145
f 75/108 102/145 104/148
f 75/108 104/148 90/132
f 25/37 27/40 283/368
f 272/356 270/354 268/352
f 272/356 268/352 267/351
f 263/347 264/348 261/345
f 264/348 144/196 120/168
f 144/195 107/151 120/167
f 120/167 107/151 106/150
f 416/552 419/555 417/553
f 28/42 27/40 26/39
f 267/351 268/352 266/350
f 267/351 266/350 263/347
f 265/349 136/187 264/348
f 264/348 136/187 144/196
f 102/145 668/905 104/148
f 668/906 663/896 104/147
f 424/564 422/559 416/552
f 44/67 36/54 33/49
f 283/369 271/355 270/354
f 270/354 271/355 269/353
f 270/354 269/353 268/352
f 268/352 269/353 266/350
f 266/350 265/349 263/347
f 263/347 265/349 264/348
f 144/195 136/186 107/151
f 107/151 105/149 106/150
f 422/559 419/555 416/552
f 418/554 28/41 26/38
f 44/67 49/75 36/54
f 284/371 279/364 271/355
f 283/369 284/371 271/355
f 271/355 275/360 269/353
f 269/353 275/360 266/350
f 266/350 275/360 273/357
f 266/350 273/357 265/349
f 102/145 103/146 668/905
f 418/554 417/553 28/41
f 27/40 284/370 283/368
f 36/54 37/55 32/48
f 666/901 50/78 658/891
f 32/48 37/55 38/57
f 271/355 278/363 275/360
f 278/363 277/362 275/360
f 275/360 277/362 273/357
f 273/357 277/362 276/361
f 273/357 276/361 274/358
f 273/357 274/358 265/349
f 265/349 274/358 136/187
f 136/186 105/149 107/151
f 105/149 103/146 101/144
f 106/150 105/149 101/144
f 101/144 103/146 102/145
f 49/75 50/76 36/54
f 279/364 284/371 288/376
f 279/364 288/376 278/363
f 136/186 274/359 105/149
f 103/146 158/214 668/905
f 284/372 612/823 609/818
f 284/372 609/818 288/377
f 288/377 609/818 615/829
f 290/381 614/827 289/379
f 289/378 613/825 274/358
f 274/359 613/824 105/149
f 613/824 611/820 105/149
f 105/149 611/820 121/169
f 105/149 121/169 103/146
f 103/146 121/169 158/214
f 590/797 36/54 51/79
f 51/79 36/54 50/76
f 587/794 607/816 608/817
f 605/814 584/791 606/815
f 27/40 34/50 284/370
f 284/370 34/50 612/822
f 612/822 34/50 591/799
f 591/799 34/50 36/54
f 34/50 37/55 36/54
f 28/42 34/50 27/40
f 37/55 432/576 38/57
f 28/42 35/51 34/50
f 417/553 35/52 28/41
f 419/555 422/559 417/553
f 34/50 432/576 37/55
f 422/559 423/561 417/553
f 34/50 43/65 432/576
f 417/553 423/561 35/52
f 42/63 562/755 34/50
f 35/51 42/63 34/50
f 562/755 43/65 34/50
f 422/559 560/751 423/561
f 43/65 434/581 432/576
f 451/610 5/6 337/452
f 7/9 579/785 6/8
f 6/8 579/785 4/4
f 579/785 577/782 4/4
f 626/846 7/9 624/843
f 7/9 6/8 624/843
f 5/5 451/611 449/607
f 451/610 452/612 448/605
f 449/606 451/610 448/605
f 4/4 577/782 5/5
f 453/614 4/4 5/5
f 447/603 449/606 448/605
f 2/2 6/8 4/4
f 447/603 448/605 444/600
f 477/640 456/617 459/620
f 475/638 330/435 460/621
f 475/638 460/621 735/996
f 735/996 460/621 474/637
f 474/637 476/639 481/649
f 481/649 476/639 732/990
f 476/639 477/640 732/990
f 477/640 467/628 727/982
f 4/4 453/614 2/2
f 453/613 449/606 447/603
f 481/649 735/996 474/637
f 727/982 467/628 482/652
f 482/652 466/627 479/645
f 730/986 478/642 735/995
f 735/995 481/648 730/986
f 730/986 481/648 728/983
f 728/983 481/648 729/984
f 729/984 481/648 732/989
f 729/984 732/989 726/980
f 732/989 727/981 726/980
f 443/598 447/603 444/600
f 730/986 728/983 725/979
f 725/979 728/983 723/977
f 723/977 728/983 729/984
f 723/977 729/984 722/976
f 722/976 729/984 721/975
f 721/975 729/984 726/980
f 726/980 727/981 724/978
f 724/978 727/981 116/161
f 731/988 725/979 718/972
f 718/972 725/979 719/973
f 719/973 725/979 723/977
f 713/966 723/977 722/976
f 720/974 721/975 726/980
f 726/980 724/978 720/974
f 625/845 6/8 2/2
f 2/2 453/614 3/3
f 443/598 444/600 445/601
f 327/429 731/988 718/972
f 327/429 718/972 717/970
f 719/973 723/977 713/966
f 714/967 713/966 715/968
f 713/966 722/976 715/968
f 715/968 722/976 721/975
f 721/975 720/974 715/968
f 710/963 724/978 116/161
f 710/963 116/161 692/939
f 453/613 447/603 450/608
f 450/608 447/603 443/598
f 716/969 717/970 708/960
f 708/960 717/970 718/972
f 708/960 718/972 719/973
f 708/960 719/973 713/966
f 714/967 715/968 712/965
f 712/965 715/968 711/964
f 715/968 720/974 711/964
f 711/964 720/974 710/963
f 720/974 724/978 710/963
f 625/845 624/843 6/8
f 709/962 717/970 716/969
f 705/956 708/960 713/966
f 705/956 713/966 706/957
f 706/957 713/966 714/967
f 714/967 712/965 706/957
f 706/957 712/965 695/944
f 695/944 712/965 711/964
f 695/944 711/964 694/943
f 694/943 711/964 710/963
f 1/1 2/2 3/3
f 445/601 444/600 333/441
f 709/962 716/969 708/960
f 709/962 708/960 704/955
f 704/955 708/960 705/956
f 706/957 695/944 697/946
f 513/685 695/944 694/943
f 229/298 219/288 179/236
f 229/298 179/236 217/285
f 694/943 710/963 691/937
f 252/331 229/298 217/285
f 710/963 692/939 691/937
f 691/937 692/939 118/164
f 625/845 2/2 1/1
f 704/955 707/959 709/962
f 704/955 705/956 702/953
f 702/953 705/956 701/952
f 705/956 706/957 701/952
f 706/957 697/946 701/952
f 696/945 695/944 513/685
f 696/945 513/685 535/712
f 535/713 513/684 510/680
f 512/683 513/685 694/943
f 512/683 694/943 691/937
f 510/680 513/684 512/682
f 118/164 512/683 691/937
f 512/683 118/164 693/942
f 334/445 308/406 683/925
f 687/929 331/437 707/959
f 703/954 687/929 707/959
f 703/954 707/959 704/955
f 703/954 704/955 702/953
f 703/954 702/953 689/933
f 689/933 702/953 701/952
f 254/334 690/936 684/926
f 700/950 701/952 698/947
f 698/947 701/952 697/946
f 254/334 684/926 196/254
f 698/947 697/946 696/945
f 696/945 697/946 695/944
f 734/994 696/945 410/540
f 410/540 696/945 535/712
f 534/711 535/713 510/680
f 683/925 308/406 680/922
f 680/922 331/438 677/918
f 677/918 331/438 687/930
f 674/914 677/918 687/930
f 683/925 680/922 679/920
f 688/931 687/929 703/954
f 674/914 687/930 688/932
f 682/924 683/925 679/920
f 689/933 688/931 703/954
f 682/924 679/920 678/919
f 685/927 682/924 681/923
f 681/923 682/924 678/919
f 688/932 689/934 700/951
f 689/933 701/952 700/950
f 684/926 685/927 681/923
f 681/923 678/919 382/503
f 699/948 700/950 698/947
f 684/926 681/923 382/503
f 699/948 698/947 696/945
f 216/284 684/926 382/503
f 363/481 699/948 696/945
f 363/481 696/945 734/994
f 206/264 216/283 218/287
f 410/540 535/712 733/992
f 523/695 512/682 693/940
f 523/695 693/940 544/722
f 679/920 677/918 672/912
f 672/912 677/918 674/914
f 672/912 674/914 673/913
f 673/913 674/914 688/932
f 673/913 688/932 686/928
f 678/919 679/920 672/912
f 678/919 672/912 671/911
f 671/911 672/912 673/913
f 686/928 688/932 700/951
f 678/919 671/911 675/915
f 382/503 678/919 675/915
f 675/915 671/911 673/913
f 675/915 673/913 676/917
f 676/917 673/913 686/928
f 676/917 686/928 363/482
f 363/482 686/928 700/951
f 363/482 700/951 699/949
f 382/503 675/915 676/917
f 382/501 676/916 369/488
f 381/500 382/501 369/488
f 369/488 676/916 363/480
f 733/991 535/713 534/711
f 450/608 443/598 446/602
f 446/602 443/598 445/601
f 206/265 218/286 403/527
f 215/281 206/265 403/527
f 403/527 218/286 381/500
f 363/480 734/993 364/483
f 364/483 734/993 410/539
f 178/235 206/264 205/263
f 510/680 512/682 511/681
f 511/681 512/682 523/695
f 544/723 693/941 73/106
f 522/694 523/695 544/722
f 625/845 1/1 3/3
f 363/480 364/483 360/477
f 364/483 410/539 411/541
f 176/233 178/235 205/263
f 411/543 410/540 733/992
f 733/991 534/711 533/710
f 533/710 534/711 510/680
f 511/681 523/695 522/694
f 625/845 3/3 8/11
f 360/477 364/483 411/541
f 10/14 3/3 450/609
f 446/602 445/601 333/441
f 369/488 363/480 357/474
f 357/474 363/480 360/477
f 403/527 381/500 379/498
f 572/773 621/836 9/12
f 621/836 625/845 8/11
f 3/3 10/14 8/11
f 9/12 621/836 8/11
f 10/14 450/609 11/17
f 11/16 450/608 446/602
f 379/498 381/500 369/488
f 446/602 333/441 571/770
f 11/16 446/602 571/770
f 411/542 733/991 533/710
f 565/761 9/12 8/11
f 565/761 8/11 570/768
f 570/768 8/11 10/14
f 570/769 10/15 11/18
f 565/762 570/769 566/763
f 568/765 565/762 567/764
f 565/762 566/763 567/764
f 566/763 570/769 569/767
f 329/433 9/13 565/762
f 329/433 565/762 568/765
f 567/764 566/763 569/767
f 570/769 11/18 571/772
f 569/767 570/769 571/772
f 568/765 567/764 328/431
f 328/431 567/764 569/767
f 329/433 568/765 328/431
f 176/233 205/263 202/260
f 174/231 176/233 202/260
f 84/119 544/723 73/106
f 510/680 511/681 508/678
f 508/678 511/681 522/694
f 212/275 215/281 403/527
f 508/678 522/694 521/693
f 379/498 369/488 370/489
f 370/489 369/488 357/474
f 533/710 510/680 509/679
f 509/679 510/680 508/678
f 357/474 360/477 358/475
f 549/732 411/542 533/710
f 84/119 73/106 81/114
f 521/693 522/694 540/718
f 212/275 403/527 402/526
f 402/526 403/527 379/498
f 402/526 379/498 380/499
f 507/677 509/679 508/678
f 88/128 84/119 81/114
f 358/475 411/541 549/733
f 172/229 174/231 202/260
f 172/229 202/260 201/259
f 549/732 533/710 507/677
f 507/677 533/710 509/679
f 380/499 379/498 370/489
f 505/675 507/677 508/678
f 370/489 357/474 356/473
f 356/473 357/474 358/475
f 508/678 521/693 520/692
f 520/692 521/693 540/718
f 356/473 358/475 359/476
f 358/475 549/733 359/476
f 359/476 549/733 550/735
f 172/229 201/259 171/228
f 505/675 508/678 506/676
f 506/676 508/678 520/692
f 407/534 212/275 402/526
f 402/526 380/499 384/508
f 380/499 370/489 372/491
f 372/491 370/489 356/473
f 356/473 359/476 355/472
f 550/734 549/732 507/677
f 550/734 507/677 497/667
f 372/491 356/473 354/471
f 354/471 356/473 355/472
f 384/508 380/499 372/491
f 355/472 359/476 550/735
f 85/122 88/128 81/114
f 407/534 402/526 401/525
f 401/525 402/526 384/508
f 169/226 171/228 200/258
f 505/675 506/676 496/666
f 496/666 506/676 520/692
f 85/122 81/114 80/113
f 354/471 355/472 353/470
f 213/277 407/534 401/525
f 401/525 384/508 385/509
f 385/509 384/508 372/491
f 353/470 355/472 550/735
f 493/663 505/675 496/666
f 496/666 520/692 519/691
f 519/691 520/692 540/718
f 413/546 550/734 497/667
f 519/691 540/718 538/716
f 353/470 550/735 413/547
f 168/225 169/226 200/258
f 493/663 496/666 495/665
f 495/665 496/666 519/691
f 413/546 497/667 494/664
f 545/725 85/122 80/113
f 372/491 354/471 344/461
f 344/461 354/471 353/470
f 401/525 385/509 393/517
f 353/470 413/547 365/484
f 415/550 413/546 494/664
f 385/509 372/491 374/493
f 374/493 372/491 344/461
f 344/461 353/470 351/468
f 213/277 401/525 400/524
f 400/524 401/525 393/517
f 195/252 168/225 200/258
f 365/484 413/547 415/551
f 545/725 80/113 82/116
f 351/468 353/470 365/484
f 208/268 213/277 400/524
f 495/665 519/691 518/690
f 164/221 165/222 163/220
f 525/697 538/716 545/724
f 375/494 374/493 344/461
f 351/468 365/484 352/469
f 392/516 374/493 375/494
f 493/663 495/665 492/662
f 492/662 495/665 518/690
f 208/268 400/524 398/522
f 398/522 400/524 393/517
f 398/522 393/517 392/516
f 211/274 208/268 398/522
f 352/469 365/484 555/744
f 555/744 365/484 415/551
f 415/550 494/664 536/714
f 492/662 518/690 525/697
f 193/250 192/249 198/256
f 555/745 415/550 536/714
f 490/660 493/663 492/662
f 82/115 543/721 525/697
f 536/714 494/664 503/673
f 503/673 494/664 490/660
f 352/469 555/744 414/548
f 398/522 392/516 391/515
f 414/549 555/745 536/714
f 89/130 82/116 77/110
f 344/461 351/468 340/457
f 351/468 352/469 350/467
f 340/457 351/468 350/467
f 350/467 352/469 414/548
f 492/662 525/697 524/696
f 194/251 193/250 198/256
f 375/494 344/461 339/456
f 339/456 344/461 340/457
f 391/515 392/516 375/494
f 86/124 89/130 77/110
f 406/533 211/274 398/522
f 541/719 543/721 86/123
f 490/660 492/662 484/654
f 484/654 492/662 524/696
f 339/456 340/457 341/458
f 341/458 340/457 350/467
f 553/741 414/549 536/714
f 390/514 391/515 375/494
f 398/522 391/515 390/514
f 350/467 414/548 553/740
f 375/494 339/456 342/459
f 342/459 339/456 341/458
f 194/251 198/256 207/266
f 553/741 536/714 503/673
f 483/653 490/660 484/654
f 390/514 375/494 373/492
f 373/492 375/494 342/459
f 406/533 398/522 397/521
f 397/521 398/522 390/514
f 503/673 490/660 491/661
f 341/458 350/467 376/495
f 376/495 350/467 553/740
f 484/654 524/696 526/698
f 553/741 503/673 491/661
f 389/513 390/514 373/492
f 376/495 553/740 552/739
f 552/738 553/741 491/661
f 194/251 207/266 199/257
f 483/653 484/654 485/655
f 485/655 484/654 526/698
f 86/124 77/110 78/111
f 406/533 397/521 396/520
f 396/520 397/521 390/514
f 396/520 390/514 389/513
f 180/237 194/251 199/257
f 526/698 541/719 539/717
f 342/459 341/458 343/460
f 343/460 341/458 376/495
f 552/738 491/661 487/657
f 485/655 526/698 517/689
f 210/271 406/533 396/520
f 376/495 552/739 343/460
f 343/460 552/739 554/743
f 546/727 86/124 78/111
f 396/520 389/513 388/512
f 389/513 373/492 371/490
f 388/512 389/513 371/490
f 371/490 373/492 342/459
f 554/742 552/738 487/657
f 371/490 342/459 345/462
f 345/462 342/459 343/460
f 181/238 180/237 199/257
f 483/653 485/655 486/656
f 486/656 485/655 517/689
f 486/656 517/689 516/688
f 516/688 517/689 539/717
f 487/657 483/653 486/656
f 488/658 487/657 486/656
f 551/737 554/742 487/657
f 551/736 343/460 554/743
f 345/462 343/460 346/463
f 346/463 343/460 551/736
f 210/271 396/520 399/523
f 399/523 396/520 388/512
f 399/523 388/512 387/511
f 551/737 487/657 488/658
f 183/240 181/238 199/257
f 87/126 546/727 78/111
f 387/511 388/512 371/490
f 183/240 199/257 203/261
f 516/688 539/717 537/715
f 405/531 210/271 399/523
f 412/545 551/737 488/658
f 346/463 551/736 412/544
f 345/462 346/463 347/464
f 399/523 387/511 386/510
f 386/510 387/511 371/490
f 412/545 488/658 498/668
f 488/658 486/656 489/659
f 489/659 486/656 516/688
f 347/464 346/463 412/544
f 489/659 516/688 515/687
f 515/687 516/688 537/715
f 368/487 371/490 345/462
f 404/528 405/531 399/523
f 386/510 371/490 368/487
f 347/464 412/544 530/703
f 498/668 488/658 489/659
f 87/126 78/111 79/112
f 183/240 203/261 204/262
f 186/243 183/240 204/262
f 530/704 412/545 498/668
f 368/487 345/462 348/465
f 348/465 345/462 347/464
f 530/704 498/668 529/702
f 531/705 530/704 529/702
f 404/528 399/523 395/519
f 395/519 399/523 386/510
f 529/702 498/668 499/669
f 499/669 498/668 489/659
f 368/487 348/465 361/478
f 348/465 347/464 349/466
f 361/478 348/465 349/466
f 349/466 347/464 530/703
f 349/466 530/703 409/537
f 409/538 530/704 531/705
f 489/659 515/687 514/686
f 514/686 515/687 537/715
f 395/519 386/510 378/497
f 378/497 386/510 368/487
f 499/669 489/659 500/670
f 500/670 489/659 514/686
f 378/497 368/487 367/486
f 531/705 529/702 528/701
f 528/701 529/702 499/669
f 214/280 404/528 395/519
f 409/537 531/706 548/731
f 367/486 368/487 361/478
f 548/730 531/705 528/701
f 190/247 186/243 204/262
f 547/729 87/126 79/112
f 214/280 395/519 394/518
f 394/518 395/519 378/497
f 361/478 349/466 362/479
f 362/479 349/466 409/537
f 441/594 429/571 24/35
f 24/36 429/570 426/566
f 426/566 429/570 440/591
f 362/479 409/537 408/536
f 408/536 409/537 548/731
f 22/30 441/594 20/27
f 426/566 440/591 428/569
f 378/497 367/486 366/485
f 366/485 367/486 361/478
f 424/563 23/33 12/19
f 12/19 23/33 21/28
f 21/28 442/596 19/26
f 19/26 442/596 22/30
f 19/26 22/30 20/27
f 366/485 361/478 362/479
f 394/518 378/497 366/485
f 12/19 21/28 19/26
f 20/27 441/594 24/35
f 209/270 214/280 394/518
f 528/701 499/669 501/671
f 501/671 499/669 500/670
f 394/518 366/485 383/507
f 377/496 362/479 408/536
f 500/670 514/686 502/672
f 383/507 366/485 632/859
f 366/485 362/479 635/862
f 632/859 366/485 635/862
f 635/862 362/479 377/496
f 408/536 548/731 532/708
f 532/707 548/730 528/701
f 427/567 24/36 426/566
f 209/270 394/518 383/507
f 20/27 24/35 427/568
f 18/25 20/27 427/568
f 426/566 428/569 32/47
f 32/47 428/569 47/71
f 297/389 209/269 383/504
f 501/671 500/670 502/672
f 424/563 12/19 15/22
f 16/23 424/563 15/22
f 643/874 636/864 637/865
f 637/865 635/863 639/868
f 635/862 377/496 639/867
f 532/708 377/496 408/536
f 639/867 377/496 532/708
f 502/672 542/720 90/131
f 12/19 19/26 13/20
f 643/874 637/865 644/875
f 637/865 639/868 644/875
f 644/875 639/868 645/877
f 639/868 532/709 645/877
f 504/674 532/707 528/701
f 645/876 532/707 504/674
f 528/701 501/671 504/674
f 501/671 502/672 504/674
f 19/26 20/27 18/25
f 642/873 640/869 650/882
f 650/882 640/869 646/878
f 646/878 643/874 647/879
f 647/879 643/874 644/875
f 647/879 644/875 648/880
f 648/880 644/875 645/877
f 645/876 504/674 527/699
f 527/699 504/674 502/672
f 12/19 13/20 14/21
f 427/567 426/566 425/565
f 425/565 426/566 32/47
f 650/882 646/878 651/883
f 646/878 647/879 652/884
f 651/883 646/878 652/884
f 649/881 645/877 527/700
f 13/20 19/26 18/25
f 425/565 32/47 38/56
f 54/87 53/85 650/882
f 651/883 652/884 653/885
f 653/885 652/884 648/880
f 653/885 648/880 654/886
f 648/880 649/881 655/887
f 654/886 648/880 655/887
f 655/887 649/881 104/147
f 54/87 650/882 651/883
f 54/87 651/883 656/888
f 651/883 653/885 656/888
f 656/888 653/885 657/889
f 657/889 653/885 660/893
f 660/893 653/885 659/892
f 653/885 654/886 659/892
f 661/894 654/886 655/887
f 661/894 655/887 662/895
f 44/67 54/86 658/890
f 658/891 54/87 656/888
f 659/892 654/886 661/894
f 655/887 104/147 663/896
f 662/895 655/887 663/896
f 422/560 424/563 16/23
f 12/19 14/21 15/22
f 658/891 656/888 664/899
f 664/899 656/888 665/900
f 656/888 657/889 665/900
f 13/20 18/25 433/578
f 49/75 44/67 658/890
f 666/901 664/899 665/900
f 665/900 657/889 660/893
f 660/893 659/892 661/894
f 49/75 658/890 50/76
f 666/901 658/891 664/899
f 50/77 666/902 601/810
f 670/909 666/901 665/900
f 665/900 660/893 669/907
f 670/909 665/900 669/907
f 660/893 661/894 669/907
f 669/907 661/894 667/903
f 661/894 662/895 667/903
f 667/903 662/895 663/896
f 271/355 279/364 278/363
f 601/810 666/902 670/910
f 663/897 668/905 158/214
f 594/803 51/80 50/77
f 594/803 50/77 601/810
f 599/808 594/803 601/810
f 278/363 288/376 615/828
f 601/810 670/910 600/809
f 278/363 615/828 290/380
f 277/362 278/363 290/380
f 600/809 670/910 603/812
f 670/910 669/908 603/812
f 277/362 290/380 289/378
f 669/908 667/904 603/812
f 603/812 667/904 602/811
f 276/361 277/362 289/378
f 274/358 276/361 289/378
f 667/904 663/898 602/811
f 602/811 663/898 158/215
f 609/818 612/823 591/800
f 609/818 591/800 589/796
f 36/54 590/797 591/799
f 590/798 51/80 594/803
f 589/796 591/800 590/798
f 589/796 590/798 588/795
f 588/795 590/798 594/803
f 609/818 589/796 587/794
f 608/817 609/818 587/794
f 588/795 594/803 592/801
f 592/801 594/803 599/808
f 597/806 592/801 599/808
f 597/806 599/808 601/810
f 609/818 608/817 607/816
f 615/829 609/818 607/816
f 597/806 601/810 600/809
f 615/829 607/816 605/814
f 290/381 615/829 605/814
f 597/806 600/809 596/805
f 614/827 290/381 605/814
f 600/809 603/812 596/805
f 614/827 605/814 606/815
f 596/805 603/812 595/804
f 595/804 603/812 602/811
f 614/827 606/815 610/819
f 595/804 602/811 593/802
f 289/379 614/827 610/819
f 613/826 289/379 610/819
f 613/826 610/819 611/821
f 598/807 593/802 158/215
f 593/802 602/811 158/215
f 604/813 598/807 121/170
f 611/821 604/813 121/170
f 121/170 598/807 158/215
f 587/794 589/796 588/795
f 587/794 588/795 581/788
f 581/788 588/795 592/801
f 581/788 592/801 597/806
f 607/816 587/794 583/790
f 583/790 587/794 581/788
f 605/814 607/816 583/790
f 605/814 583/790 580/787
f 580/787 583/790 581/788
f 596/805 581/788 597/806
f 580/787 581/788 582/789
f 582/789 581/788 596/805
f 605/814 580/787 584/791
f 584/791 580/787 582/789
f 582/789 596/805 595/804
f 606/815 584/791 586/793
f 610/819 606/815 586/793
f 584/791 582/789 585/792
f 585/792 582/789 593/802
f 593/802 582/789 595/804
f 586/793 584/791 585/792
f 585/792 593/802 598/807
f 611/821 610/819 586/793
f 611/821 586/793 604/813
f 586/793 585/792 598/807
f 604/813 586/793 598/807
f 425/565 38/56 432/577
f 563/757 16/23 15/22
f 14/21 13/20 17/24
f 430/574 427/567 425/565
f 15/22 14/21 17/24
f 17/24 13/20 433/578
f 18/25 427/568 430/573
f 433/578 18/25 430/573
f 431/575 425/565 432/577
f 422/560 16/23 560/750
f 560/750 16/23 563/757
f 430/574 425/565 431/575
f 563/757 15/22 17/24
f 433/579 430/574 431/575
f 431/575 432/577 434/582
f 563/757 17/24 564/759
f 564/759 17/24 561/753
f 561/753 17/24 433/578
f 433/579 431/575 434/582
f 560/752 563/758 559/749
f 559/749 563/758 564/760
f 559/749 564/760 558/748
f 558/748 564/760 561/754
f 559/749 558/748 556/746
f 558/748 561/754 557/747
f 42/64 560/752 559/749
f 42/64 559/749 556/746
f 556/746 558/748 557/747
f 561/754 433/580 434/583
f 423/562 560/752 42/64
f 42/64 556/746 557/747
f 557/747 561/754 434/583
f 35/53 423/562 42/64
f 42/64 557/747 562/756
f 562/756 557/747 43/66
f 43/66 557/747 434/583

