# https://github.com/mikedh/trimesh
mtllib material.mtl

o geometry_0.002
usemtl Material_0.002
v -0.05647157 -0.08439004 -0.07336806
v -0.13099722 -0.08379284 -0.07308229
v -0.34220429 -0.08352899 -0.07349403
v -0.34373126 -0.08236257 -0.07708398
v -0.50564532 -0.08332602 -0.07703047
v -0.49477434 -0.08419464 -0.07349628
v 0.02415196 -0.08446751 -0.07688261
v -0.32816121 -0.08432924 -0.00282490
v -0.08190837 -0.08468341 -0.00300722
v 0.04053284 -0.08462264 -0.07341739
v 0.09380895 -0.08455701 -0.00490558
v 0.13382893 -0.08366979 -0.07349515
v 0.24451293 -0.08422295 -0.01440453
v 0.26853315 -0.08380258 -0.07339595
v 0.34184598 -0.08472167 -0.00551662
v 0.44693182 -0.08417352 -0.07319096
v 0.48521597 -0.08492087 -0.00312331
v 0.55871012 -0.08453645 -0.07615481
v 0.63980540 -0.08460348 -0.07357814
v 0.71811227 -0.08520000 -0.00152104
v 0.74705317 -0.08496113 -0.07716892
v -0.63621990 -0.08452130 -0.00448617
v -0.74692308 -0.08506772 -0.00002603
v -0.68594791 -0.08454681 -0.07404180
v -0.56906726 -0.08405009 -0.07811569
v -0.53999356 -0.08430731 -0.06102311
v -0.36279187 -0.08407091 -0.03539363
v -0.54737621 -0.08373685 -0.07964890
v -0.74609421 -0.08473357 -0.07756500
v 0.53523285 -0.08254630 -0.08121943
v -0.52356420 -0.07996568 -0.08361413
v -0.53100304 -0.08160466 -0.09668201
v -0.54514420 -0.08135705 -0.09917076
v -0.54989378 -0.08322405 -0.08973337
v -0.54512584 -0.07834149 -0.10541691
v -0.51987120 -0.07227678 -0.10072415
v -0.51327235 -0.07240241 -0.08577483
v 0.55388195 -0.07954381 -0.08117689
v 0.55716017 -0.07865238 -0.08878226
v 0.54283323 -0.08087007 -0.09521165
v 0.52452472 -0.07850408 -0.09216538
v 0.52017015 -0.07905370 -0.08095890
v 0.54528771 -0.07698420 -0.10371746
v 0.56301314 -0.07542459 -0.10348650
v 0.56653352 -0.07481814 -0.08497740
v 0.51780657 -0.07095527 -0.10384104
v -0.54843639 -0.08407262 -0.09807416
v -0.10004447 -0.08137397 -0.00188217
v 0.06009874 -0.06924928 -0.00155365
v -0.16223099 -0.03625852 -0.00153876
v 0.09877930 -0.03604558 -0.00159310
v 0.25445925 -0.07299775 -0.00174806
v 0.34693589 -0.03595897 -0.00176710
v 0.33202077 -0.08130527 -0.00218927
v 0.43653367 -0.08077138 -0.00186320
v 0.58138560 -0.05520808 -0.00114217
v 0.67907297 -0.03448317 -0.00094307
v 0.71090673 -0.08145437 -0.00088091
v 0.73374824 -0.05474344 -0.00017246
v -0.37960639 -0.08082987 -0.00163160
v -0.38930076 -0.05717578 -0.00129933
v -0.69277998 -0.08424965 -0.00085236
v -0.64846694 -0.05606335 -0.00061279
v -0.74856549 -0.03586863 0.00000000
v -0.36173964 -0.03588952 -0.00144312
v -0.00071684 -0.03262780 -0.00219582
v 0.38000415 -0.03298438 -0.00248363
v 0.61080348 -0.08487057 -0.00241145
v 0.68022012 -0.03251467 -0.00167763
v 0.18169843 -0.08416174 -0.00289637
v -0.49401305 -0.08452398 -0.00220022
v -0.74851403 -0.08186259 -0.00071489
v -0.11565673 -0.03216214 -0.00476841
v 0.09317182 -0.03218878 -0.00465203
v 0.03925545 -0.03194106 -0.07336536
v 0.51762553 -0.03226911 -0.00494943
v 0.54073749 -0.03242494 -0.06905919
v 0.49575559 -0.03242492 -0.07347218
v 0.37450124 -0.03249191 -0.07385638
v 0.29674008 -0.03243651 -0.00518019
v 0.20395917 -0.03259649 -0.07408343
v 0.12076833 -0.03260343 -0.07370381
v -0.01430146 -0.03181071 -0.06033970
v 0.60941181 -0.03223942 -0.07301868
v 0.57644834 -0.03206308 -0.07736557
v 0.74738571 -0.03197565 -0.00009082
v 0.70674890 -0.03220106 -0.07398912
v -0.12141791 -0.03252895 -0.07352621
v -0.29509507 -0.03238394 -0.00506168
v -0.39118905 -0.03269219 -0.07380935
v -0.49129493 -0.03227735 -0.00476663
v -0.52314985 -0.03220990 -0.07460556
v -0.54860165 -0.03235591 -0.06550813
v -0.57419585 -0.03209930 -0.05696874
v -0.58353593 -0.03221655 -0.07701301
v -0.67558696 -0.03238086 -0.07389397
v -0.68332653 -0.03225164 -0.00418372
v -0.74575972 -0.03164820 -0.00634263
v -0.73251167 -0.03184387 -0.07731906
v -0.74773189 -0.03167746 -0.07932093
v -0.57528553 -0.03166220 -0.07358392
v -0.74745918 -0.03196277 -0.00053003
v 0.63754428 -0.03332591 -0.07765666
v -0.66143882 -0.03282744 -0.00093883
v -0.66950445 -0.03345276 -0.07760542
v -0.41394257 -0.03289229 -0.00205490
v 0.03183196 -0.03210728 -0.07732885
v -0.51207878 -0.03305529 -0.07753599
v -0.51879680 -0.03252508 -0.07995768
v -0.02166268 -0.03099849 -0.07167251
v -0.26363420 -0.03368476 -0.07738483
v -0.24776781 -0.03251749 -0.07383035
v -0.06194497 -0.03362544 -0.07731620
v -0.52134095 -0.02848071 -0.08576178
v 0.57384274 -0.03028358 -0.08040470
v -0.56507858 -0.02850397 -0.07560259
v -0.54225925 -0.02740967 -0.07624426
v 0.58222805 -0.03639184 -0.07860115
v 0.51323342 -0.03506962 -0.08013325
v -0.51078593 -0.03854793 -0.07951883
v 0.19876951 -0.07954120 -0.07724073
v 0.17737470 -0.03401281 -0.07739758
v 0.27286607 -0.03454751 -0.07757892
v 0.06132364 -0.08273892 -0.07696001
v 0.05882453 -0.03645746 -0.07744497
v 0.48307106 -0.08011837 -0.07718644
v 0.36519019 -0.03355960 -0.07748906
v 0.50234974 -0.03375146 -0.07742208
v 0.50492606 -0.08330642 -0.07757845
v 0.02716076 -0.07555606 -0.07867274
v 0.41074023 -0.08312493 -0.07657865
v 0.50707723 -0.04933345 -0.07858375
v -0.20763360 -0.03790693 -0.07761311
v -0.36794014 -0.03392497 -0.07736220
v -0.44404095 -0.07984118 -0.07722901
v -0.49883161 -0.03666791 -0.07707666
v -0.06225684 -0.08282995 -0.07692869
v -0.28113444 -0.08236855 -0.07712671
v -0.03406229 -0.06321522 -0.07820410
v -0.03657249 -0.08369106 -0.07699756
v -0.52252039 -0.07939181 -0.08028817
v -0.02590642 -0.07291336 -0.08063521
v -0.03211376 -0.03214829 -0.07742796
v 0.74664436 -0.08327136 -0.07884592
v 0.62580648 -0.08350869 -0.07719622
v 0.74862999 -0.03663118 -0.07950464
v 0.58871861 -0.05932561 -0.07756902
v 0.57576365 -0.07897426 -0.07799716
v 0.73689535 -0.03238166 -0.07887148
v 0.56966870 -0.08432171 -0.07699525
v 0.56775621 -0.07607131 -0.07995254
v 0.57891881 -0.06534385 -0.07951007
v 0.58472070 -0.04942111 -0.07927189
v -0.74861712 -0.08221806 -0.07918922
v -0.74862999 -0.03482974 -0.07785890
v -0.74699849 -0.08518285 -0.05503910
v 0.74849626 -0.08159821 -0.00105720
v 0.74849177 -0.08167460 -0.07749047
v 0.74848669 -0.03564346 -0.00081814
v 0.74758428 -0.03158733 -0.07851921
v 0.74671927 -0.08516318 -0.00031199
v -0.61060974 -0.08341893 -0.07672236
v -0.62569238 -0.03313290 -0.07695272
v -0.58597987 -0.04395757 -0.07683465
v -0.57895702 -0.03977951 -0.07704436
v -0.58688030 -0.06159906 -0.07709691
v -0.74666891 -0.05587002 -0.07984879
v -0.58409129 -0.05772853 -0.07867603
v -0.56185347 -0.08052084 -0.08122217
v 0.58288840 -0.01963753 -0.18958315
v 0.56243007 -0.01661309 -0.19714060
v 0.58560297 -0.00563236 -0.20365108
v 0.56165385 -0.04297244 -0.17014539
v 0.58435371 0.01918389 -0.22744716
v 0.57793332 -0.04173055 -0.16598201
v 0.55907931 -0.06881630 -0.14002519
v 0.60112997 0.02702167 -0.22821134
v 0.59263830 0.04208081 -0.24298175
v 0.58124244 0.03362053 -0.23946459
v 0.56287438 0.00961760 -0.22020504
v 0.53867502 -0.06666363 -0.14331214
v 0.54052966 -0.08112296 -0.12550005
v 0.56206286 0.03546637 -0.23921370
v 0.57839667 0.04996100 -0.24960849
v 0.54826060 -0.01439777 -0.19568079
v 0.53867472 -0.03021111 -0.17778147
v 0.54816504 0.00774059 -0.21406679
v 0.53052707 -0.06036017 -0.14594420
v 0.60006310 0.05738327 -0.24920393
v 0.60742018 0.05017602 -0.24274032
v 0.58007692 -0.05177973 -0.15116634
v 0.56062557 -0.08014129 -0.11909010
v 0.57935940 -0.06395261 -0.13054613
v 0.59768683 -0.01752016 -0.18140611
v 0.60708670 0.00449756 -0.19874757
v 0.61074656 0.02847801 -0.22244242
v 0.62153134 0.05135303 -0.23294410
v 0.59287026 0.06616375 -0.25395199
v 0.57579336 0.06479966 -0.25572682
v 0.53715398 0.00129564 -0.20276877
v 0.56292724 0.07003728 -0.25504721
v 0.52440296 -0.04685967 -0.15391738
v 0.54223619 -0.08378899 -0.11725915
v 0.60721709 0.06548161 -0.24887753
v 0.57277680 -0.07536974 -0.11441226
v 0.62082863 0.06534461 -0.24057076
v 0.59357017 -0.04348963 -0.14650011
v 0.60425931 -0.02202213 -0.16437660
v 0.62132203 0.03037995 -0.20931139
v 0.59007976 -0.05594951 -0.12479405
v 0.61631045 0.00682163 -0.18478719
v 0.57482823 -0.07444008 -0.10855519
v 0.57911695 0.07426852 -0.25488060
v 0.61635637 0.07975582 -0.24016917
v -0.00129028 0.06164177 -0.13298563
v 0.01660613 0.06273795 -0.13746699
v -0.00068097 0.02901028 -0.10409557
v 0.01703632 0.02952629 -0.10821978
v 0.00064273 0.00453143 -0.08534462
v 0.01888646 -0.00039549 -0.08619302
v -0.00082502 -0.02154386 -0.06854349
v 0.01438041 -0.02112770 -0.07201699
v 0.02683478 0.03061136 -0.11465941
v 0.02726194 0.06021717 -0.14102648
v 0.03221232 -0.00101520 -0.09539557
v 0.03375992 0.03811850 -0.12706947
v 0.03755258 0.07460474 -0.16393540
v 0.03360611 -0.02157578 -0.08547743
v 0.03082929 -0.03037898 -0.07967968
v 0.01794287 -0.03120268 -0.07004008
v -0.00272094 -0.02991074 -0.06564550
v 0.04006271 0.03706313 -0.13392963
v 0.03370628 -0.03794129 -0.07939184
v 0.04055677 -0.00240204 -0.10562222
v 0.04602259 -0.01570054 -0.10966896
v -0.01293667 -0.00338775 -0.08263038
v -0.01600606 0.05385762 -0.12949150
v -0.02047303 0.02421688 -0.10560826
v -0.01707446 -0.02140080 -0.07264589
v -0.02526542 -0.01742489 -0.07957783
v -0.02395946 0.00318107 -0.09172230
v -0.02345576 0.05290361 -0.13186834
v -0.03411542 0.00000839 -0.09812090
v -0.58473492 0.08448017 -0.15840963
v -0.56022798 0.08383030 -0.16663691
v -0.58787137 0.08398642 -0.16620916
v -0.61381928 0.08333549 -0.17333152
v -0.60754701 0.08288891 -0.17662470
v -0.61385631 0.08223763 -0.18440224
v -0.62414828 0.08198013 -0.18517200
v -0.54534437 0.08420064 -0.16673601
v -0.52788263 0.08284500 -0.19156033
v -0.53586117 0.08224845 -0.18976278
v -0.53576100 0.08090993 -0.21012873
v -0.53462206 0.08140430 -0.22868193
v -0.56769239 0.08365672 -0.15706633
v -0.60686068 0.07994120 -0.16215850
v -0.58457322 0.06733517 -0.14084914
v -0.56587774 0.06283504 -0.13578212
v -0.58223444 0.02771324 -0.11115088
v -0.60242688 0.05942192 -0.14253159
v -0.58085750 0.00125746 -0.09490218
v -0.55989019 -0.01996606 -0.07775470
v -0.59590070 0.03147485 -0.12087433
v -0.54194114 -0.02006188 -0.07873782
v -0.61909366 0.07034555 -0.16639242
v -0.59393742 -0.00503118 -0.10135139
v -0.62808905 0.07722709 -0.18472156
v -0.60909776 -0.02052432 -0.12774164
v -0.61340345 0.00560120 -0.13392782
v -0.61906912 0.00960492 -0.15297624
v -0.60483456 -0.02109411 -0.11359219
v -0.62394760 0.03540344 -0.16413002
v -0.62496322 0.02735465 -0.17556953
v -0.63010514 0.05600032 -0.18402540
v -0.59716164 -0.04737249 -0.10603338
v -0.63029351 0.05019952 -0.19941054
v -0.63338337 0.07165846 -0.20517020
v -0.60920665 -0.02248804 -0.13971350
v -0.61809387 0.00453768 -0.16533249
v -0.62501697 0.02885838 -0.18512784
v -0.63146592 0.06960593 -0.21963246
v -0.59352790 -0.04036641 -0.09486160
v -0.62610813 0.05907768 -0.17264095
v -0.61688079 0.03683869 -0.14689638
v -0.60006140 -0.01834903 -0.10430722
v -0.60541488 0.01862126 -0.12288556
v -0.58684395 -0.05490031 -0.09385210
v -0.59128485 -0.05789567 -0.10563559
v -0.59830397 -0.04460408 -0.12836938
v -0.62208352 0.02631883 -0.19518231
v -0.61023242 -0.01563413 -0.15620140
v -0.62327807 0.03974886 -0.21190472
v -0.61079142 -0.00559593 -0.17498886
v -0.58453179 -0.06696708 -0.11202252
v -0.59889851 -0.03730932 -0.14707971
v -0.62294806 0.05352271 -0.22654043
v -0.58782334 -0.05016294 -0.14495266
v -0.60005184 -0.01811192 -0.17647848
v -0.57287435 -0.07556060 -0.11661784
v -0.58335138 -0.04154998 -0.08351417
v -0.58388502 -0.05147979 -0.08323616
v -0.58033867 -0.06279387 -0.08480343
v -0.57226245 -0.07369724 -0.08034589
v -0.58593480 -0.02886975 -0.08636379
v -0.61330912 0.04058173 -0.14313382
v -0.57273748 -0.02921725 -0.07718062
v 0.50762747 -0.00037223 -0.14091911
v 0.51172410 0.02002849 -0.15464616
v 0.51075364 0.00068353 -0.15977457
v 0.51535857 0.02307023 -0.17966298
v 0.51582912 0.03978027 -0.17162030
v 0.51784115 0.04636338 -0.18943825
v 0.50879654 -0.01745774 -0.14949501
v 0.50417455 -0.02442259 -0.12672688
v 0.52171835 0.04951327 -0.20642935
v 0.52185991 0.07132147 -0.19562817
v 0.52648101 0.07199106 -0.22237168
v 0.50809683 -0.04240499 -0.13454444
v 0.50382174 -0.04826189 -0.11625443
v 0.50246299 -0.04193747 -0.10797043
v 0.51682819 -0.00250256 -0.17502303
v 0.52547504 0.04199425 -0.21350079
v 0.52070646 0.00933847 -0.18856258
v 0.51142931 -0.06500071 -0.12188400
v 0.50758320 -0.06399550 -0.10955529
v 0.52807476 0.01896178 -0.20584796
v 0.51536936 -0.04148512 -0.14783445
v 0.52448075 -0.01579371 -0.17805948
v 0.53568944 0.04448246 -0.22864842
v 0.51418670 -0.07460415 -0.11083216
v 0.50509914 -0.02230485 -0.11435045
v 0.50642433 -0.04901651 -0.09744610
v 0.54957029 0.07059660 -0.24883728
v 0.54515355 0.03269442 -0.23015257
v 0.52218615 -0.07409690 -0.12574196
v 0.55477819 0.05661987 -0.24817479
v 0.52660640 -0.08254774 -0.11522238
v 0.51215017 0.01241662 -0.13433417
v 0.50644862 -0.05965618 -0.07894357
v 0.50744380 -0.06091898 -0.08970902
v 0.51153900 -0.06544933 -0.10306463
v 0.51175529 -0.07380297 -0.08032423
v 0.52057180 0.05102704 -0.16686491
v 0.52729244 0.07400023 -0.17974144
v 0.51458776 0.00722757 -0.12035639
v 0.52343119 0.04039038 -0.14320006
v 0.59367153 0.01102217 -0.11008414
v 0.60413688 0.03740542 -0.13274333
v 0.59845763 0.05024656 -0.13513297
v 0.57925753 0.01239696 -0.10114377
v 0.60754134 0.07099123 -0.15474503
v 0.58031277 0.04071310 -0.11985754
v 0.59636376 0.07286308 -0.15021052
v 0.57541168 -0.02221146 -0.08255072
v 0.56015994 -0.00150315 -0.08783549
v 0.60015569 0.08501965 -0.16343626
v 0.56108495 0.02570817 -0.10578506
v 0.58043316 0.06823910 -0.14161428
v 0.56089248 -0.02847703 -0.07574370
v 0.57899088 0.08366298 -0.15709769
v 0.56405720 0.05843721 -0.13260436
v 0.53921933 -0.02209727 -0.07770572
v 0.54248295 -0.00314491 -0.08808638
v 0.55910517 0.07037177 -0.14517260
v 0.54894481 0.03058637 -0.11188369
v 0.53883981 -0.02875371 -0.07561458
v 0.56132456 0.08354593 -0.15941929
v 0.56144255 -0.03206194 -0.07072192
v 0.53868772 0.02288535 -0.10914994
v 0.52469378 -0.02015728 -0.08449523
v 0.54055087 0.05245991 -0.13633463
v 0.52771631 -0.00199170 -0.09578117
v 0.51913163 -0.03204985 -0.07738421
v 0.52290109 -0.02878102 -0.08246715
v 0.52427173 0.02228765 -0.12085465
v 0.51633064 -0.01175032 -0.09839760
v 0.51402060 -0.03226694 -0.08885967
v 0.50739226 -0.02946193 -0.09886065
v 0.50687842 -0.04125064 -0.09462324
v -0.52859367 0.00885306 -0.10552632
v -0.51614545 -0.01719058 -0.09685191
v -0.52376005 0.02443640 -0.12477349
v -0.52712130 -0.01983772 -0.08451568
v -0.53912644 0.04250456 -0.12788838
v -0.53946521 0.07345525 -0.15871523
v -0.52779625 0.05248680 -0.15028794
v -0.54737701 0.05462086 -0.13400434
v -0.54382960 0.02427490 -0.10875663
v -0.55177881 0.07794527 -0.15452841
v -0.54151287 0.00105735 -0.09161100
v -0.52895284 0.08014210 -0.18246372
v -0.51441519 0.00606335 -0.12201511
v -0.51217726 -0.03524180 -0.09182306
v -0.52091230 0.04158845 -0.15103033
v -0.50562352 -0.03302305 -0.10791402
v -0.51049934 0.01014191 -0.14421295
v -0.52761474 0.08042578 -0.21591856
v -0.50755049 -0.04790826 -0.09319123
v -0.50785895 -0.05471916 -0.08263545
v -0.50977767 -0.07259187 -0.07868004
v -0.56361027 0.02778190 -0.10753908
v -0.56107763 -0.00109788 -0.08787560
v 0.05058627 0.00221380 -0.14457570
v 0.04704540 -0.00780310 -0.15822245
v 0.05024041 0.01350722 -0.16744506
v 0.04664158 -0.02689098 -0.13634858
v 0.04894891 -0.01796034 -0.12378942
v 0.04635436 -0.03725825 -0.12125288
v 0.05193551 0.03715413 -0.16896082
v 0.05043378 0.04093294 -0.19323939
v 0.05178518 0.05407328 -0.18913366
v 0.05029551 0.05646911 -0.20500888
v 0.04624525 0.01954336 -0.18839999
v 0.04262007 -0.05338230 -0.10193111
v 0.05020638 0.07182341 -0.19247972
v 0.04837035 0.07478463 -0.21320534
v 0.04939601 0.00325449 -0.13204923
v 0.04517109 0.06476984 -0.22303184
v 0.04280957 0.05063479 -0.22169176
v 0.03884221 -0.05426718 -0.12264466
v 0.03929488 -0.02203373 -0.16148886
v 0.03314820 -0.06962293 -0.10553932
v 0.03122120 -0.07124375 -0.11049623
v 0.03718827 0.02013750 -0.20681356
v 0.04513396 0.08197723 -0.21925372
v 0.03557907 0.06704151 -0.23661339
v 0.03153125 0.00078261 -0.19463756
v 0.04216006 -0.02789787 -0.09582361
v 0.04915652 0.03562119 -0.15383690
v 0.03684990 -0.05760656 -0.09462985
v 0.03464922 -0.05316826 -0.08214326
v 0.02754855 -0.07213133 -0.08295559
v 0.03242786 -0.06584533 -0.07819768
v 0.03215667 -0.06763565 -0.10059446
v 0.04646705 0.06061130 -0.16647741
v 0.04622232 0.02197218 -0.13364571
v 0.04571334 0.08164942 -0.18800301
v -0.04895931 -0.01173067 -0.12512105
v -0.05000640 0.02515524 -0.14817968
v -0.05076979 0.00642072 -0.14943379
v -0.05104266 0.05139165 -0.17597381
v -0.05141488 0.03642734 -0.18135243
v -0.04993703 0.06829879 -0.20727537
v -0.04988227 0.07263276 -0.19318150
v -0.04844380 -0.01981124 -0.13444809
v -0.04569941 -0.03533338 -0.11065598
v -0.04930017 0.00127896 -0.15905395
v -0.04588674 -0.01780588 -0.10777110
v -0.04239197 -0.02908113 -0.09468604
v -0.04398623 -0.04276572 -0.12025220
v -0.04108964 -0.05528096 -0.10366388
v -0.04915164 0.03596716 -0.19475927
v -0.04557310 0.04308441 -0.21175728
v -0.04595063 -0.01735677 -0.15106618
v -0.04408503 0.06781508 -0.22549768
v -0.04574423 0.01147786 -0.18294393
v -0.04498588 0.08054150 -0.22033536
v -0.03411139 -0.06919752 -0.10686929
v -0.03992393 -0.03998755 -0.13884779
v -0.03529162 -0.05087420 -0.08427637
v -0.04724403 0.08100016 -0.19490343
v -0.04640014 0.02423699 -0.13571324
v -0.04521471 0.07593553 -0.17779882
v -0.04663293 0.05165166 -0.16050957
v -0.03374764 -0.03648258 -0.07938068
v -0.04078647 0.00418751 -0.11012359
v -0.03205926 -0.06283340 -0.08278815
v -0.03117216 -0.06957515 -0.09964972
v -0.04022622 0.02896593 -0.21033647
v -0.04015998 0.03880823 -0.13578295
v -0.03508037 -0.03061007 -0.08305314
v -0.03670016 -0.00930149 -0.17914512
v -0.03215893 0.08017321 -0.23809146
v -0.03291547 0.06812270 -0.23894176
v -0.03397235 0.04228743 -0.13078725
v -0.01791289 0.07020056 -0.24965195
v -0.01494702 -0.07901512 -0.08102377
v -0.00679146 -0.08303144 -0.09379863
v -0.51259122 0.00076737 -0.16488618
v -0.51260671 -0.02218897 -0.15566174
v -0.51687698 0.00903573 -0.18070721
v -0.50973268 -0.00082976 -0.15242323
v -0.50667909 -0.01455322 -0.13376001
v -0.50715006 -0.03506271 -0.13314943
v -0.51661211 0.03611390 -0.18499881
v -0.52112356 0.03272246 -0.20062769
v -0.52352886 0.06281032 -0.21211877
v -0.50417485 -0.04528907 -0.10914484
v -0.50536267 -0.05411781 -0.11258200
v -0.50989350 -0.05188460 -0.12987869
v -0.52029283 0.06121455 -0.19140784
v -0.51446965 0.03106837 -0.16859501
v -0.52395582 0.07664386 -0.19494748
v -0.50918774 -0.01071840 -0.11843387
v -0.52801636 0.06050099 -0.22290421
v -0.52720395 0.02957715 -0.21130772
v -0.52142733 0.00993399 -0.19046739
v -0.51532158 0.03072380 -0.15394769
v -0.51169245 -0.06926794 -0.11483091
v -0.52066956 0.05468690 -0.17114576
v -0.52320897 -0.01077594 -0.18007327
v -0.53730764 0.06528973 -0.23552306
v -0.53727345 0.05013549 -0.23270474
v -0.51136172 -0.06834073 -0.10883945
v -0.51398103 -0.05724201 -0.13257352
v -0.52594419 -0.02487831 -0.17278812
v -0.53718475 0.03050436 -0.22317915
v -0.53669016 0.00117999 -0.20262469
v -0.52426970 -0.05289547 -0.14794150
v -0.54939810 0.05257433 -0.24326986
v -0.52295882 -0.07313588 -0.12632122
v -0.54533295 0.02785841 -0.22794433
v -0.54465271 -0.01107708 -0.19798967
v -0.53981756 -0.05276255 -0.15756285
v -0.53615173 -0.07193035 -0.13604441
v -0.50780534 -0.04786432 -0.10228008
v -0.51061039 -0.05991633 -0.10087402
v -0.50746136 -0.05609463 -0.09067225
v -0.60242756 0.06479981 -0.24843068
v -0.57736480 0.08071400 -0.24800799
v -0.57724648 0.06099288 -0.25334380
v -0.61545264 0.06689354 -0.24096962
v -0.56042676 0.08057202 -0.24598987
v -0.56726894 0.06087431 -0.25286766
v -0.55084402 0.06229432 -0.24669214
v -0.54105772 0.08001926 -0.23651502
v -0.59044346 0.04917361 -0.24736233
v -0.57878529 0.04884334 -0.24932165
v -0.56245648 0.05046909 -0.24848844
v -0.60551488 0.05331800 -0.24266778
v -0.61517248 0.05828378 -0.23837972
v -0.62426174 0.06797119 -0.23199659
v -0.58100354 0.03053354 -0.23757491
v -0.60092933 0.03547782 -0.23420365
v -0.56160569 0.02304638 -0.23167416
v -0.58102974 0.01655176 -0.22632631
v -0.56102118 -0.00268047 -0.21061976
v -0.57793154 -0.01642908 -0.19546638
v -0.55892637 -0.02974928 -0.18479796
v -0.59802090 0.01170024 -0.21376588
v -0.55768189 -0.04997249 -0.16354452
v -0.57648604 -0.04356441 -0.16523289
v -0.55572813 -0.06377589 -0.14740921
v -0.53995129 -0.02673465 -0.18186786
v -0.54686562 -0.08145763 -0.12356580
v -0.55836792 -0.07920741 -0.12467652
v -0.57354633 -0.06119873 -0.14323957
v -0.59114075 -0.01713838 -0.18694884
v -0.53544500 -0.08292747 -0.11837340
v -0.60916970 0.03278975 -0.22521266
v -0.61093357 0.01509184 -0.20363568
v -0.55255909 -0.08407037 -0.11177617
v 0.00681424 0.07722428 -0.16469565
v 0.00672352 0.07133233 -0.17398739
v -0.01058064 0.07129466 -0.17102545
v 0.02428520 0.07291232 -0.17182466
v 0.02986705 0.07059101 -0.17847273
v -0.01370879 0.08258426 -0.16173361
v -0.02590579 0.07140687 -0.17212067
v 0.00618210 0.08354940 -0.16102592
v 0.02948560 0.08336668 -0.16877208
v -0.03122697 0.08306355 -0.16827472
v -0.00611931 0.08342390 -0.15678735
v -0.03266115 0.06784481 -0.18810541
v 0.02633996 0.06806730 -0.19073312
v 0.01416515 0.06632134 -0.21062101
v -0.01801512 0.06528794 -0.21492042
v 0.03754971 0.06936394 -0.19494397
v -0.03162255 0.06546341 -0.21567033
v 0.00094555 0.06548995 -0.23476512
v 0.01166043 0.08295492 -0.15722456
v -0.02808134 0.06651124 -0.22630577
v -0.01902636 0.06707502 -0.23354006
v -0.03696052 0.06849364 -0.20676045
v 0.03578302 0.06925858 -0.20990833
v -0.02225689 0.08175124 -0.15937620
v 0.03061578 0.08205237 -0.16503418
v 0.03482712 0.08326740 -0.23056389
v 0.02217981 0.08286961 -0.23967403
v 0.03530294 0.08072126 -0.23639926
v 0.01302224 0.07994684 -0.25055407
v 0.00562687 0.08296644 -0.24764034
v -0.01471114 0.07969526 -0.24960413
v 0.00019122 0.07980097 -0.23801152
v -0.04262229 0.08237163 -0.21628009
v -0.02809099 0.08086056 -0.22838786
v -0.03985024 0.08132136 -0.18416074
v -0.03744024 0.08022547 -0.16945910
v -0.56370088 0.06668659 -0.23511641
v -0.56471108 0.07914305 -0.23473016
v -0.58263728 0.07669879 -0.23499428
v -0.58645486 0.08048401 -0.23607932
v 0.55046611 -0.08269713 -0.10987528
v 0.52109338 -0.07542425 -0.10620699
v 0.53754268 -0.07766153 -0.10198668
v 0.58640256 -0.06337166 -0.10733442
v 0.58521668 0.06519005 -0.23866381
v 0.58037066 0.07762209 -0.23726441
v 0.56260895 0.08138269 -0.23744493
v 0.56057289 0.07745258 -0.23514094
v -0.03884018 0.07775505 -0.20341530
v -0.02957706 0.07708107 -0.22268793
v -0.01588042 0.07908519 -0.23511645
v -0.03602300 0.06970979 -0.18345786
v -0.04115779 0.08177657 -0.20708692
v -0.02044737 0.08191885 -0.24235663
v -0.61427409 0.06911955 -0.19460554
v -0.61669492 0.06933655 -0.20101336
v -0.61700842 0.07925664 -0.20771657
v -0.61099231 0.06884215 -0.18381510
v -0.61518264 0.06605224 -0.21533479
v -0.60500641 0.07077293 -0.17719296
v -0.60811841 0.07804440 -0.22755476
v -0.59519384 0.07696793 -0.17240018
v 0.53840913 0.07819434 -0.21014263
v 0.54034714 0.07066446 -0.20881516
v 0.55009433 0.06540808 -0.22706210
v 0.54720223 0.08014224 -0.22617145
v 0.55805667 0.06571115 -0.23442949
v 0.54070753 0.07166432 -0.19008191
v 0.54067431 0.08303108 -0.17737934
v 0.54631217 0.07599833 -0.17677506
v 0.55562635 0.08399960 -0.16603997
v 0.55782446 0.06688531 -0.19067920
v 0.60404746 0.06489235 -0.20289860
v 0.55932193 0.06250696 -0.21467018
v 0.58856461 0.06675978 -0.18848038
v 0.59425465 0.06304669 -0.23011421
v 0.61199570 0.06528048 -0.21271014
v 0.61035248 0.07081154 -0.18262504
v 0.54898134 0.06524886 -0.20927947
v 0.55131643 0.07021756 -0.18148625
v 0.58775601 0.07023745 -0.17815783
v 0.57205530 0.06491800 -0.23916051
v 0.60959315 0.06587903 -0.22884943
v 0.61688620 0.07025220 -0.19693863
v 0.60277297 0.06595911 -0.23415699
v 0.56052680 0.07689735 -0.16981875
v 0.58765275 0.07744843 -0.17021442
v 0.60488297 0.07637309 -0.17591060
v 0.59086479 0.08416379 -0.16639883
v 0.61750398 0.08355034 -0.18913597
v 0.61853594 0.07951184 -0.21066758
v 0.61757364 0.06921861 -0.21385585
v 0.60942899 0.07888741 -0.22636303
v 0.04023439 0.08216275 -0.19028278
v 0.03590996 0.07827274 -0.21355661
v 0.02776682 0.06844202 -0.22426995
v 0.02595122 0.08071734 -0.22869782
v 0.01595367 0.06717374 -0.23434830
v 0.03899524 0.08227676 -0.21389019
v 0.02888539 0.06630171 -0.21823334
v 0.01535237 0.07998770 -0.23542113
v -0.00022905 0.06874591 -0.23820390
v -0.00195922 0.06770752 -0.25290438
v 0.00030941 0.08055039 -0.25179891
v 0.01603708 0.06788881 -0.24983731
v -0.00025802 0.05256765 -0.24906932
v 0.02035788 0.04716194 -0.24037926
v -0.00081556 0.04253654 -0.24363332
v 0.02097292 0.02728423 -0.22701925
v 0.03292434 0.04634311 -0.23106813
v -0.00051173 0.01379145 -0.22126033
v 0.01856611 0.00139880 -0.20513133
v 0.02014734 -0.02401781 -0.17901651
v 0.03230530 -0.02371909 -0.16915595
v 0.02293460 -0.04300089 -0.15739268
v 0.01937522 -0.05731338 -0.14423799
v 0.00113006 -0.04622382 -0.16153242
v 0.00065872 -0.07040930 -0.13482496
v 0.01471896 -0.07453629 -0.12536337
v 0.00144848 -0.08175725 -0.11900750
v 0.02562026 -0.06754974 -0.12611749
v -0.01707993 0.00382216 -0.20799778
v -0.01238679 -0.02267827 -0.18280824
v -0.01776828 0.02614528 -0.22718434
v 0.03357134 -0.04672759 -0.14247698
v 0.02215754 -0.07823761 -0.11166751
v 0.00760968 -0.08291139 -0.11177189
v -0.01768402 -0.05358232 -0.14838992
v -0.01802215 -0.07570010 -0.12132868
v -0.02264331 -0.02986743 -0.17070472
v -0.02311501 -0.00919350 -0.19181093
v -0.02138099 0.04930146 -0.24077744
v -0.01517907 -0.08135378 -0.11220497
v -0.02712452 0.02899362 -0.22422186
v -0.03395980 0.01743361 -0.20809929
v -0.03115306 -0.03396214 -0.15923771
v -0.03095542 -0.05657998 -0.13337182
v -0.03705592 0.04554247 -0.22676375
v -0.02734516 -0.07570867 -0.10784619
v -0.00399043 -0.08159138 -0.10552306
v 0.01010115 -0.08097347 -0.10618945
v 0.01194616 -0.08221779 -0.09337914
v -0.01696406 -0.07752067 -0.10361006
v -0.00197895 -0.08309029 -0.08037301
v 0.01319212 -0.08104780 -0.08068473
v -0.55214957 0.07961200 -0.22927273
v -0.55864482 0.08196294 -0.24149653
v -0.54296730 0.07964282 -0.22188848
v -0.61919713 0.08155390 -0.20891986
v -0.60984554 0.08120944 -0.22853451
v -0.62036548 0.08170977 -0.22403876
v -0.60754909 0.07994918 -0.24128707
v -0.63077455 0.08023046 -0.20679412
v -0.59621124 0.08253340 -0.24052306
v -0.62342483 0.07952223 -0.22791642
v 0.55314285 0.08031235 -0.24635817
v 0.53593163 0.07046442 -0.23683642
v 0.53386700 0.08053734 -0.22759651
v 0.52665926 0.08009531 -0.20981214
v 0.52283334 0.07120192 -0.21045711
v 0.52772545 0.08193082 -0.19556270
v 0.58107798 0.08212921 -0.25015646
v 0.59937435 0.07970133 -0.24879299
v 0.59454094 0.08140825 -0.23475321
v 0.58944967 0.08420921 -0.24182466
v 0.61035375 0.08479548 -0.23505116
v 0.61004427 0.08340912 -0.22784376
v 0.61974229 0.08415847 -0.21385687
v 0.62272402 0.08520000 -0.22475593
v 0.62128661 0.08440474 -0.18322411
v 0.60995934 0.08384034 -0.17633108
v 0.54850706 0.08413790 -0.16536603
v 0.55156315 0.08265569 -0.23929032
v 0.53822597 0.08129286 -0.21940952
v 0.53516476 0.08231194 -0.19160028
v 0.60890423 0.08215723 -0.16492245
v 0.53898391 0.08175959 -0.17051979
v -0.51902528 -0.07216408 -0.10562781
v -0.52409522 -0.08068327 -0.11239593
v -0.52963549 -0.07709801 -0.10583409
v -0.55337217 -0.07842576 -0.10457549
v -0.56537405 -0.07774614 -0.10528459
v -0.57089562 -0.07267880 -0.10118637
v -0.57826096 -0.07365010 -0.10681376
v 0.58187871 -0.03526567 -0.08504809
v 0.61779620 0.00336461 -0.15197002
v 0.61030923 -0.01981413 -0.13649569
v 0.61927551 0.00628277 -0.16662682
v 0.62591718 0.03129063 -0.17861004
v 0.62947099 0.04435551 -0.20548535
v 0.63575113 0.06481897 -0.21205692
v 0.63113676 0.05606132 -0.18515725
v 0.63536302 0.07054753 -0.20333119
v 0.62530072 0.03671228 -0.17067626
v 0.60905646 -0.01484760 -0.12607102
v 0.59632740 -0.04564682 -0.10600233
v 0.61765489 0.01299458 -0.14732497
v 0.59756194 -0.04616621 -0.11940990
v 0.61045862 -0.01604624 -0.15734805
v 0.62315301 0.04161897 -0.16320518
v 0.59681369 -0.02938457 -0.10193376
v 0.63034882 0.07600283 -0.18766810
v 0.61473901 0.01735179 -0.14013785
v 0.60524412 -0.00530681 -0.11770852
v 0.58772144 -0.04310532 -0.08924938
v 0.58875809 -0.05202479 -0.09532530
v 0.58506679 -0.05505364 -0.08369983
v 0.61995655 0.05108658 -0.15894340
v 0.60553469 0.01134018 -0.12299900
v 0.61358970 0.04448322 -0.14676319
v 0.59146424 -0.02203650 -0.09544088
v 0.62116934 0.07400692 -0.17082357
v 0.62412386 0.08191576 -0.18160679
v 0.62991703 0.08377236 -0.20645774
v 0.58327643 -0.00384106 -0.09482732
v 0.62909837 0.08110738 -0.22611535
v 0.60302600 -0.03409936 -0.13993585
v 0.63300084 0.06317563 -0.22596588
v 0.58259797 -0.06190568 -0.10142129
v 0.57591257 -0.06774446 -0.08471113
v 0.62938533 0.06501404 -0.23240358
v -0.58064239 0.06753140 -0.18730233
v -0.54851900 0.06522204 -0.21315714
v -0.60218617 0.06446746 -0.21501847
v -0.55419719 0.06715627 -0.18830898
v -0.55866306 0.07019249 -0.17462131
v -0.54839877 0.06547429 -0.22548888
v -0.60880064 0.06497624 -0.22791860
v -0.57157108 0.07169082 -0.17289771
v -0.55169328 0.07091065 -0.17683195
v -0.59494602 0.06600381 -0.23400526
v -0.54165887 0.06959711 -0.21607704
v -0.54591255 0.08344305 -0.17350337
v -0.53872115 0.06994953 -0.20463704
v -0.54099158 0.07098250 -0.18862888
vt 0.44690645 0.05626792
vt 0.39877361 0.05675244
vt 0.26249024 0.05648506
vt 0.62216020 0.42413557
vt 0.26150325 0.05037272
vt 0.51749730 0.42305315
vt 0.15727107 0.05106932
vt 0.33883131 0.54599059
vt 0.16427988 0.05683279
vt 0.49899599 0.05052584
vt 0.02312377 0.50589621
vt 0.27158695 0.17097187
vt 0.29396975 0.33040810
vt 0.43048361 0.17044765
vt 0.45318934 0.32982755
vt 0.50958264 0.05612987
vt 0.54402733 0.16737175
vt 0.56990111 0.05588859
vt 0.64146769 0.15202183
vt 0.65702242 0.05616438
vt 0.70440286 0.16658628
vt 0.77239692 0.05672657
vt 0.79711634 0.17065978
vt 0.81987458 0.32944238
vt 0.84469390 0.05205703
vt 0.89715439 0.05637950
vt 0.94775909 0.17368543
vt 0.97045815 0.32900941
vt 0.96654099 0.05075043
vt 0.21042226 0.97995281
vt 0.07337379 0.16853607
vt 0.02321105 0.32923234
vt 0.52073514 0.84595442
vt 0.00219323 0.17570758
vt 0.29199731 0.79161692
vt 0.04140723 0.05615181
vt 0.11653405 0.04958528
vt 0.36807573 0.79218334
vt 0.13521516 0.07698989
vt 0.24926208 0.11823666
vt 0.13045199 0.04668987
vt 0.00273702 0.05042315
vt 0.25282598 0.79127359
vt 0.82950389 0.04332817
vt 0.35296890 0.50589621
vt 0.14576164 0.03902251
vt 0.33883131 0.57900941
vt 0.84503031 0.75309759
vt 0.14060046 0.01933366
vt 0.13197878 0.01555228
vt 0.12901956 0.03033888
vt 0.13192667 0.00469279
vt 0.58322364 0.93902582
vt 0.14912647 0.00984895
vt 0.83293182 0.75461739
vt 0.84046984 0.73410231
vt 0.15361907 0.03322792
vt 0.84162498 0.04045415
vt 0.08246937 0.87654811
vt 0.84337533 0.02768642
vt 0.36200830 0.93317550
vt 0.83364284 0.01956773
vt 0.82196134 0.02628607
vt 0.34338182 0.49881554
vt 0.81953406 0.04466742
vt 0.36196005 0.91701901
vt 0.83515996 0.00438809
vt 0.37349659 0.91374230
vt 0.84662771 0.00273025
vt 0.85019171 0.03205866
vt 0.81620669 0.00608170
vt 0.34413418 0.93148792
vt 0.26624548 0.68912637
vt 0.12997580 0.01841450
vt 0.44146305 0.33526766
vt 0.54500669 0.35514838
vt 0.40125495 0.40922391
vt 0.57001621 0.40957487
vt 0.67067426 0.34900320
vt 0.73046666 0.40971690
vt 0.72082323 0.33538043
vt 0.78839815 0.33626109
vt 0.88205469 0.37817532
vt 0.94521642 0.41215080
vt 0.96579939 0.33515799
vt 0.98056781 0.37895197
vt 0.26070684 0.33616030
vt 0.25443867 0.37493795
vt 0.03700827 0.17453712
vt 0.05821833 0.33056235
vt 0.08686969 0.37676835
vt 0.02214892 0.40987861
vt 0.52066684 0.92620617
vt 0.27225876 0.40982813
vt 0.51643085 0.32081348
vt 0.50568515 0.41516781
vt 0.27122483 0.32044226
vt 0.75184768 0.41458315
vt 0.87834221 0.17202735
vt 0.90107560 0.32953596
vt 0.07782385 0.32167363
vt 0.94595814 0.41536731
vt 0.60083592 0.17073560
vt 0.62362945 0.33068681
vt 0.16481008 0.17207432
vt 0.18673499 0.33009595
vt 0.02218247 0.33447647
vt 0.52027738 0.85174322
vt 0.59052718 0.31651026
vt 0.45604569 0.31675911
vt 0.49080965 0.20464218
vt 0.18254563 0.31630093
vt 0.16765432 0.21166557
vt 0.53675777 0.80267501
vt 0.19663016 0.20443189
vt 0.27474800 0.20380878
vt 0.32485059 0.31594467
vt 0.38464314 0.20340818
vt 0.43827328 0.20397437
vt 0.52536511 0.22592503
vt 0.12342197 0.20520836
vt 0.09738530 0.79834908
vt 0.14465462 0.19813693
vt 0.03456371 0.32429242
vt 0.98938531 0.41627359
vt 0.26060155 0.89270240
vt 0.06072518 0.20365924
vt 0.59413326 0.20417786
vt 0.70642668 0.31605434
vt 0.76857829 0.20335013
vt 0.83337647 0.31663448
vt 0.85404867 0.20204276
vt 0.87056535 0.21691298
vt 0.88713139 0.23119438
vt 0.35867980 0.87753397
vt 0.89321625 0.19840604
vt 0.95280337 0.20371479
vt 0.95773977 0.31811619
vt 0.99816674 0.31474435
vt 0.98966902 0.19825268
vt 0.99952877 0.19502658
vt 0.46886688 0.93278301
vt 0.25177291 0.87853771
vt 0.88789117 0.20403737
vt 0.12094044 0.65710944
vt 0.36406457 0.87853771
vt 0.99926758 0.32429242
vt 0.52031398 0.93278301
vt 0.02286425 0.41627359
vt 0.10530064 0.19745356
vt 0.13689196 0.80155206
vt 0.94356173 0.32343495
vt 0.07848240 0.41485143
vt 0.94886810 0.19736820
vt 0.30270809 0.87557870
vt 0.78328776 0.32107353
vt 0.23850594 0.41473210
vt 0.02810689 0.41863209
vt 0.49559075 0.19813770
vt 0.96385151 0.85025370
vt 0.36993402 0.94580740
vt 0.51340097 0.50589621
vt 0.84684443 0.19727880
vt 0.05548403 0.80325073
vt 0.85110223 0.19357014
vt 0.05439307 0.79661250
vt 0.53020132 0.20745933
vt 0.96519798 0.75553006
vt 0.68310815 0.19741917
vt 0.67399532 0.50408638
vt 0.67279249 0.20356911
vt 0.55640370 0.19755250
vt 0.80436784 0.50355637
vt 0.85307133 0.18280810
vt 0.05483292 0.78491217
vt 0.14643334 0.19259012
vt 0.54471457 0.74870187
vt 0.40076616 0.83645415
vt 0.88121116 0.19914043
vt 0.64891613 0.55339420
vt 0.86665106 0.19731694
vt 0.64913321 0.51592529
vt 0.03985730 0.79161310
vt 0.10109297 0.80590612
vt 0.13994241 0.19762337
vt 0.39828101 0.82471979
vt 0.18549177 0.19194078
vt 0.33892107 0.42561948
vt 0.27237609 0.60890794
vt 0.84507322 0.18887240
vt 0.05884763 0.80811942
vt 0.13574074 0.49805534
vt 0.12202435 0.42266619
vt 0.40177667 0.19754684
vt 0.18358685 0.42392093
vt 0.52303416 0.04984587
vt 0.04707545 0.50278783
vt 0.04550585 0.42617643
vt 0.31917402 0.50013518
vt 0.28074712 0.19762987
vt 0.24319433 0.42263025
vt 0.33168289 0.42349797
vt 0.19240783 0.19752961
vt 0.80990392 0.04938722
vt 0.33327100 0.50548661
vt 0.02503605 0.49085081
vt 0.23149781 0.56741232
vt 0.27251244 0.50492638
vt 0.74899322 0.05098897
vt 0.33485526 0.44924933
vt 0.26477063 0.62739551
vt 0.71018934 0.49695325
vt 0.60657138 0.50401580
vt 0.75321519 0.19712502
vt 0.55732298 0.42860115
vt 0.52195901 0.49990684
vt 0.44316122 0.05003995
vt 0.80410540 0.42249000
vt 0.30189925 0.05012476
vt 0.66262311 0.42393029
vt 0.82235593 0.45470846
vt 0.84001589 0.50716811
vt 0.45975599 0.05021000
vt 0.82070684 0.42099059
vt 0.50659758 0.42955828
vt 0.33694628 0.57561088
vt 0.84684259 0.74911940
vt 0.82761860 0.43868202
vt 0.83524263 0.52418703
vt 0.53701133 0.19828522
vt 0.82365274 0.50589621
vt 0.85360682 0.46906096
vt 0.96626729 0.04688376
vt 0.20725790 0.88561320
vt 0.20911303 0.97776729
vt 0.12906183 0.88457519
vt 0.88809985 0.05022025
vt 0.20876451 0.80833852
vt 0.20876531 0.90105432
vt 0.10516220 0.84405404
vt 0.09669401 0.87653655
vt 0.04130574 0.19571060
vt 0.20118618 0.80111754
vt 0.09278039 0.88561320
vt 0.85178512 0.05075365
vt 0.09143531 0.87130326
vt 0.85082358 0.04054725
vt 0.09867030 0.85385048
vt 0.86067063 0.03731120
vt 0.38410428 0.79041678
vt 0.10234183 0.82765782
vt 0.39300990 0.80730999
vt 0.46909285 0.85084236
vt 0.00047125 0.04765207
vt 0.25117815 0.79536843
vt 0.46988633 0.92755681
vt 0.00215184 0.08682728
vt 0.48485282 0.84551889
vt 0.99010366 0.33492017
vt 0.26010567 0.97349417
vt 0.20876531 0.88306051
vt 0.21020260 0.97413331
vt 0.99009711 0.41025126
vt 0.26013711 0.89892149
vt 0.03440151 0.19629073
vt 0.20810655 0.79981226
vt 0.20939448 0.89268869
vt 0.98895454 0.32908690
vt 0.96626443 0.17570758
vt 0.26060322 0.97995281
vt 0.34103552 0.79330969
vt 0.08984741 0.05177438
vt 0.33123410 0.87607503
vt 0.92051232 0.19820833
vt 0.35708493 0.85821986
vt 0.36165786 0.86508155
vt 0.12139529 0.67273873
vt 0.35649109 0.82918072
vt 0.46795475 0.89353603
vt 0.25245383 0.83870757
vt 0.35830221 0.83550090
vt 0.11527820 0.69872206
vt 0.12111423 0.04220408
vt 0.37276155 0.79789203
vt 0.57651478 0.64842737
vt 0.57877541 0.61304402
vt 0.58931392 0.64661765
vt 0.55480599 0.62349933
vt 0.61065769 0.63452899
vt 0.55545515 0.65083778
vt 0.52949119 0.63206208
vt 0.61660689 0.65990800
vt 0.62849885 0.64054281
vt 0.62193894 0.62481040
vt 0.60083264 0.60374087
vt 0.52923858 0.59822500
vt 0.51491392 0.60923183
vt 0.62097752 0.59413767
vt 0.63357157 0.61622834
vt 0.57746321 0.58974755
vt 0.56107765 0.58158004
vt 0.59580135 0.58088803
vt 0.53202903 0.58235514
vt 0.63907695 0.64911354
vt 0.63397050 0.66272140
vt 0.54450369 0.66084838
vt 0.51486719 0.64379454
vt 0.52935052 0.66954070
vt 0.57563525 0.67616898
vt 0.59453934 0.68378139
vt 0.61624855 0.67792195
vt 0.63299310 0.68974727
vt 0.64476961 0.63640362
vt 0.64346337 0.60916102
vt 0.58658946 0.56485850
vt 0.34785408 0.72287738
vt 0.64558470 0.58676469
vt 0.70984960 0.96458048
vt 0.40763432 0.72075939
vt 0.54083222 0.56546068
vt 0.30256635 0.71904117
vt 0.35795292 0.89268869
vt 0.50949270 0.61507440
vt 0.64400423 0.66025025
vt 0.51569331 0.66650003
vt 0.64295799 0.68537307
vt 0.54749167 0.68689036
vt 0.56666589 0.69727319
vt 0.61335433 0.70476812
vt 0.48997837 0.71816039
vt 0.53096801 0.69360864
vt 0.40804413 0.73980200
vt 0.59070015 0.71002626
vt 0.46780598 0.72592950
vt 0.38106668 0.90435284
vt 0.51287740 0.67446887
vt 0.64991826 0.61357492
vt 0.72010678 0.97240478
vt 0.74644244 0.97240478
vt 0.65281922 0.68195933
vt 0.53298777 0.73081160
vt 0.89317435 0.79348761
vt 0.89100707 0.82259798
vt 0.92106342 0.79293835
vt 0.91936183 0.82147914
vt 0.94071829 0.79420012
vt 0.94305462 0.82365477
vt 0.96067184 0.79181737
vt 0.95920479 0.81674451
vt 0.91635293 0.83861780
vt 0.89085281 0.84107578
vt 0.94002950 0.84832340
vt 0.90766454 0.85253811
vt 0.87409842 0.86241770
vt 0.95471120 0.85314113
vt 0.96179050 0.84951758
vt 0.36804900 0.94221699
vt 0.50456899 0.20996785
vt 0.96571249 0.82426512
vt 0.51796389 0.21633911
vt 0.96654099 0.78874868
vt 0.90545368 0.86659867
vt 0.02924907 0.42876184
vt 0.96611613 0.85778332
vt 0.21386248 0.52174598
vt 0.36804900 0.95636791
vt 0.93696791 0.86819351
vt 0.94268364 0.88797170
vt 0.18837319 0.52991140
vt 0.94580072 0.77209187
vt 0.89815831 0.76909798
vt 0.92261577 0.76064193
vt 0.95922232 0.76496398
vt 0.95452267 0.75027341
vt 0.86103266 0.44767272
vt 0.93885213 0.75364274
vt 0.89746660 0.75650549
vt 0.93792403 0.73357326
vt 0.87861979 0.45393300
vt 0.73886323 0.59561872
vt 0.44533458 0.89548999
vt 0.74602854 0.55768245
vt 0.74340951 0.60300326
vt 0.44533458 0.94150537
vt 0.31998116 0.95069295
vt 0.74337220 0.64695853
vt 0.74669743 0.63901335
vt 0.30527434 0.94250375
vt 0.75002378 0.65377069
vt 0.29861322 0.94013840
vt 0.74782431 0.67010772
vt 0.99858624 0.16615105
vt 0.74706095 0.53340298
vt 0.04698597 0.55752897
vt 0.76471698 0.50825471
vt 0.06512450 0.53652072
vt 0.76302058 0.52150494
vt 0.13147974 0.95477569
vt 0.77674979 0.52472723
vt 0.44721961 0.64162266
vt 0.13153334 0.98834682
vt 0.99627763 0.00117922
vt 0.78934968 0.52599502
vt 0.70067579 0.73292953
vt 0.73903799 0.56778377
vt 0.03070786 0.56357223
vt 0.73720324 0.63193256
vt 0.72332245 0.59178609
vt 0.71991074 0.56062251
vt 0.02906906 0.61202759
vt 0.69169015 0.58337682
vt 0.71930730 0.62191743
vt 0.20006198 0.62382078
vt 0.67175090 0.57977951
vt 0.65449536 0.54433632
vt 0.02686145 0.77712637
vt 0.69676375 0.60819548
vt 0.65415519 0.51487464
vt 0.03960576 0.77875030
vt 0.73399413 0.65658492
vt 0.21831965 0.64695865
vt 0.67001510 0.60532063
vt 0.15098394 0.65815914
vt 0.74518734 0.67806596
vt 0.99728256 0.17570758
vt 0.23089314 0.66394144
vt 0.15913644 0.71057349
vt 0.17391832 0.68752414
vt 0.18498509 0.70479763
vt 0.15192789 0.69549066
vt 0.20210493 0.68813455
vt 0.20371163 0.71027684
vt 0.22086267 0.68779731
vt 0.13618945 0.71705580
vt 0.22497138 0.71180981
vt 0.23753771 0.69522613
vt 0.16352883 0.72642976
vt 0.18807440 0.72489649
vt 0.20864201 0.71970206
vt 0.24242030 0.71443039
vt 0.13334525 0.69664878
vt 0.21681462 0.67062277
vt 0.19407089 0.66562748
vt 0.14803417 0.68127644
vt 0.69006521 0.62831414
vt 0.17331529 0.65693617
vt 0.55278039 0.97051889
vt 0.12485106 0.71236479
vt 0.13029657 0.72881597
vt 0.14712019 0.73994547
vt 0.21167056 0.73524392
vt 0.17395052 0.73827976
vt 0.22522835 0.73972851
vt 0.18687737 0.75026625
vt 0.12745646 0.74845707
vt 0.15849707 0.75502855
vt 0.23796169 0.74264151
vt 0.84714776 0.69252062
vt 0.14974889 0.77240568
vt 0.87783408 0.70252323
vt 0.18040182 0.77193290
vt 0.82055801 0.67712820
vt 0.12281968 0.77053022
vt 0.12482493 0.68301922
vt 0.12031874 0.69617856
vt 0.11557290 0.71320009
vt 0.36599082 0.80915904
vt 0.11353746 0.04128730
vt 0.10697455 0.72393942
vt 0.65181953 0.59162605
vt 0.13226363 0.67048192
vt 0.19352637 0.65546000
vt 0.88616991 0.19713056
vt 0.64899558 0.56625587
vt 0.12394994 0.65368062
vt 0.31633490 0.64145535
vt 0.33209658 0.63385206
vt 0.32556331 0.66167903
vt 0.34511757 0.65912980
vt 0.34917679 0.63077515
vt 0.36044055 0.64394760
vt 0.31265634 0.67053384
vt 0.29896149 0.65279603
vt 0.36986840 0.66034603
vt 0.37519985 0.62289697
vt 0.69272518 0.85092121
vt 0.69388980 0.89568412
vt 0.38799191 0.65450317
vt 0.29479066 0.68258971
vt 0.28384244 0.66837060
vt 0.28276494 0.65223598
vt 0.33153474 0.68405741
vt 0.36991626 0.67803526
vt 0.34338602 0.68663257
vt 0.27925840 0.69610906
vt 0.27397785 0.68057317
vt 0.35628644 0.69792902
vt 0.30163684 0.69960505
vt 0.32762823 0.70722401
vt 0.37900624 0.69730318
vt 0.34092927 0.91958869
vt 0.26967081 0.69789159
vt 0.29429844 0.63656688
vt 0.27427644 0.64911163
vt 0.70323277 0.94741440
vt 0.40236756 0.70036417
vt 0.61451942 0.56695312
vt 0.37562042 0.72053707
vt 0.51511633 0.57635337
vt 0.27707762 0.71889055
vt 0.63488287 0.57645380
vt 0.39633060 0.71974736
vt 0.34835169 0.90233624
vt 0.50690407 0.58846033
vt 0.26780778 0.72287738
vt 0.31944686 0.61850953
vt 0.33451673 0.46634609
vt 0.26012158 0.64057362
vt 0.26487076 0.65466458
vt 0.33977380 0.93985850
vt 0.26917043 0.67698365
vt 0.33802554 0.48977709
vt 0.81308997 0.04486817
vt 0.25400564 0.66125423
vt 0.35261223 0.61124659
vt 0.63514042 0.86672586
vt 0.36967880 0.59874773
vt 0.57582706 0.86663634
vt 0.31081933 0.60694993
vt 0.60270798 0.85853577
vt 0.33718461 0.59316039
vt 0.57954818 0.72448426
vt 0.43668818 0.83554620
vt 0.60290223 0.71344340
vt 0.46051398 0.83230805
vt 0.61004853 0.72830033
vt 0.57589233 0.75048375
vt 0.62933058 0.71880454
vt 0.48658505 0.84233010
vt 0.59772575 0.75584561
vt 0.62737721 0.73816103
vt 0.55021191 0.74865037
vt 0.40597248 0.84166038
vt 0.56242073 0.77812552
vt 0.75629342 0.84181917
vt 0.63939035 0.73508394
vt 0.58318609 0.78249842
vt 0.62021631 0.76258957
vt 0.54333490 0.77126056
vt 0.74324471 0.81729847
vt 0.63427836 0.76914114
vt 0.61036152 0.78598869
vt 0.54612857 0.80786282
vt 0.56034094 0.80593449
vt 0.62103665 0.79752672
vt 0.58706319 0.80328375
vt 0.54144853 0.80785483
vt 0.73042035 0.81014150
vt 0.63378894 0.79844737
vt 0.53930652 0.76992995
vt 0.15431799 0.20896208
vt 0.58132672 0.81844789
vt 0.54865342 0.83356303
vt 0.60711014 0.82451183
vt 0.56266475 0.83195180
vt 0.18156759 0.19807756
vt 0.53811538 0.84023398
vt 0.54276615 0.83736420
vt 0.58449823 0.84714794
vt 0.55766505 0.85295409
vt 0.54289204 0.85680020
vt 0.18325870 0.17806602
vt 0.27818781 0.61469477
vt 0.54764032 0.87340093
vt 0.28393072 0.62641358
vt 0.53936642 0.87617922
vt 0.27648467 0.63606411
vt 0.05020996 0.71669549
vt 0.05894513 0.76001418
vt 0.05607327 0.67876548
vt 0.04973742 0.77371532
vt 0.04552989 0.65042216
vt 0.04951110 0.58052075
vt 0.05701448 0.61723721
vt 0.04077642 0.62764317
vt 0.04019490 0.69164932
vt 0.04061886 0.57670134
vt 0.73758924 0.54000741
vt 0.67016697 0.51202267
vt 0.04014789 0.73854005
vt 0.06175754 0.54956263
vt 0.06387930 0.70610785
vt 0.06331466 0.78982431
vt 0.06331808 0.63117146
vt 0.07253958 0.77168697
vt 0.81043977 0.70605534
vt 0.07414740 0.67909211
vt 0.77339804 0.70080298
vt 0.78119779 0.51181710
vt 0.07775683 0.51061320
vt 0.70738363 0.71551973
vt 0.06976213 0.80579722
vt 0.82572573 0.70818043
vt 0.06729109 0.82510883
vt 0.83454770 0.70568985
vt 0.51484108 0.44073701
vt 0.84444535 0.72496027
vt 0.07190767 0.85259432
vt 0.69095081 0.55251336
vt 0.02731082 0.68520170
vt 0.66837859 0.54637003
vt 0.02708342 0.74222285
vt 0.16406368 0.55015415
vt 0.16267502 0.57825035
vt 0.14858004 0.56430715
vt 0.18118513 0.57400531
vt 0.18270923 0.54898208
vt 0.19254512 0.56837487
vt 0.13688371 0.53913337
vt 0.12435936 0.56378680
vt 0.12005378 0.54415452
vt 0.11199810 0.56032306
vt 0.13643661 0.58358276
vt 0.20833771 0.56566954
vt 0.11018672 0.52850068
vt 0.09971944 0.55025887
vt 0.16926126 0.53417522
vt 0.10006294 0.57366896
vt 0.10708522 0.58879155
vt 0.20004271 0.59132546
vt 0.16803111 0.60176712
vt 0.21490479 0.59066325
vt 0.21372423 0.59903103
vt 0.41199583 0.47051883
vt 0.12785755 0.60946685
vt 0.77521205 0.92800730
vt 0.09314951 0.55002195
vt 0.37451404 0.47240502
vt 0.09183492 0.59233809
vt 0.42683518 0.48146725
vt 0.14249589 0.62111199
vt 0.95454645 0.87756109
vt 0.20055500 0.52852863
vt 0.14439765 0.52246511
vt 0.21455860 0.56366497
vt 0.21894665 0.54424447
vt 0.22804345 0.57010782
vt 0.02847015 0.47483361
vt 0.22682247 0.55481488
vt 0.21680836 0.58331954
vt 0.87997234 0.88571107
vt 0.12691182 0.50825471
vt 0.91331851 0.88446665
vt 0.15998195 0.51331812
vt 0.77747226 0.86971831
vt 0.86003768 0.88797170
vt 0.10706910 0.51087266
vt 0.88621891 0.50490499
vt 0.91343617 0.49064153
vt 0.90529794 0.51307034
vt 0.93799734 0.49432009
vt 0.93335408 0.51728433
vt 0.95971751 0.51272315
vt 0.95564348 0.49095130
vt 0.88655657 0.52457595
vt 0.86900520 0.51418000
vt 0.90708834 0.53026694
vt 0.87565339 0.49138290
vt 0.86446881 0.48864019
vt 0.86964130 0.53355640
vt 0.85665685 0.52842259
vt 0.93905675 0.53400487
vt 0.94999373 0.54715252
vt 0.89479554 0.54217994
vt 0.96777391 0.53621197
vt 0.92233634 0.54847938
vt 0.84307259 0.93570626
vt 0.97186720 0.51585555
vt 0.85083652 0.54869711
vt 0.87859136 0.55446905
vt 0.84878373 0.50092340
vt 0.84307259 0.88494527
vt 0.96065295 0.48302507
vt 0.90739501 0.47606122
vt 0.95045203 0.46757227
vt 0.93126750 0.47439605
vt 0.82259339 0.49874234
vt 0.85297877 0.47756958
vt 0.88644260 0.46688581
vt 0.84201604 0.51362717
vt 0.84647048 0.54201484
vt 0.94284010 0.56412572
vt 0.91408944 0.45636523
vt 0.53870887 0.18852258
vt 0.96128464 0.72759432
vt 0.85760462 0.47421074
vt 0.43896452 0.60259432
vt 0.91066426 0.57208413
vt 0.83364415 0.97250479
vt 0.98144287 0.54398966
vt 0.37355578 0.59692162
vt 0.97535676 0.55800241
vt 0.90292680 0.73620152
vt 0.91330081 0.44221699
vt 0.36920178 0.56791073
vt 0.98501736 0.57878262
vt 0.83469570 0.42859089
vt 0.52470183 0.56631964
vt 0.82893497 0.53798449
vt 0.51572382 0.54984528
vt 0.82964820 0.56420732
vt 0.76876622 0.73657143
vt 0.78362167 0.75136530
vt 0.75769198 0.74730623
vt 0.77513891 0.72293478
vt 0.79004318 0.71584088
vt 0.79990423 0.73824239
vt 0.74291402 0.72270453
vt 0.73759127 0.74603260
vt 0.71822250 0.72828281
vt 0.81571567 0.72171497
vt 0.07775683 0.78703892
vt 0.81795526 0.73648220
vt 0.80893523 0.75453693
vt 0.72771406 0.70413393
vt 0.75247300 0.70798361
vt 0.07019316 0.54123181
vt 0.71819377 0.69238001
vt 0.06935219 0.73183680
vt 0.79495108 0.69262397
vt 0.71452427 0.74472147
vt 0.73400819 0.76439184
vt 0.75270820 0.75955135
vt 0.07014197 0.64257514
vt 0.75877869 0.68987298
vt 0.82355696 0.75924236
vt 0.06807799 0.59398162
vt 0.73933482 0.68514150
vt 0.76684445 0.77212608
vt 0.70578909 0.75894785
vt 0.71422160 0.77189428
vt 0.60620779 0.95075768
vt 0.82643044 0.75229979
vt 0.81001222 0.76580697
vt 0.77649593 0.78210026
vt 0.72747636 0.78343731
vt 0.75031286 0.79399097
vt 0.80067056 0.78554398
vt 0.70663357 0.79048860
vt 0.94009364 0.59260750
vt 0.82042712 0.58860654
vt 0.81995457 0.78480536
vt 0.91815895 0.59180385
vt 0.72569764 0.79896361
vt 0.88617074 0.60087299
vt 0.75748426 0.81152576
vt 0.84754878 0.60655183
vt 0.79554671 0.81250000
vt 0.82817411 0.60848236
vt 0.81450361 0.80824476
vt 0.82101309 0.71807712
vt 0.07433844 0.79698080
vt 0.60650331 0.97051889
vt 0.82704890 0.73274565
vt 0.83067715 0.71569777
vt 0.07189328 0.81855613
vt 0.94858122 0.67764175
vt 0.97352779 0.05350482
vt 0.95874220 0.63944626
vt 0.94622886 0.63912016
vt 0.94980979 0.70057100
vt 0.97920537 0.02962410
vt 0.95863825 0.61172038
vt 0.94593215 0.62436086
vt 0.94677937 0.59667337
vt 0.70011902 0.78440952
vt 0.98975044 0.00591034
vt 0.95900095 0.57665092
vt 0.69698399 0.74747509
vt 0.93906403 0.66049582
vt 0.93878084 0.64243585
vt 0.93891770 0.61620933
vt 0.70322871 0.81250000
vt 0.94121391 0.68526936
vt 0.94399059 0.70306617
vt 0.24550684 0.75784427
vt 0.95094424 0.72098297
vt 0.24741621 0.73376709
vt 0.92555696 0.64940637
vt 0.92850351 0.68160033
vt 0.91827685 0.62022358
vt 0.91437614 0.65286392
vt 0.89697897 0.62557822
vt 0.88529539 0.65756929
vt 0.87264955 0.62999982
vt 0.90833825 0.68452823
vt 0.85344797 0.63477284
vt 0.85885048 0.66495001
vt 0.83946598 0.63692951
vt 0.87096995 0.59780234
vt 0.77240920 0.80759490
vt 0.81935984 0.63099968
vt 0.82205516 0.64895034
vt 0.84026462 0.66759521
vt 0.88229442 0.68245953
vt 0.81467324 0.61430871
vt 0.92462176 0.69961137
vt 0.22714607 0.77240568
vt 0.90677768 0.71205205
vt 0.20931819 0.76378202
vt 0.81226313 0.64453310
vt 0.57894361 0.92334908
vt 0.80459857 0.84102482
vt 0.80522096 0.85797375
vt 0.81552213 0.85258359
vt 0.79480135 0.85635817
vt 0.79214013 0.86656332
vt 0.81734252 0.82966244
vt 0.82449561 0.85380459
vt 0.80442309 0.82947886
vt 0.78959548 0.84329474
vt 0.82893014 0.83697593
vt 0.67858160 0.85023582
vt 0.81225407 0.82193398
vt 0.87206531 0.78715920
vt 0.82923120 0.87711579
vt 0.79404074 0.88447851
vt 0.80161303 0.91402370
vt 0.82106602 0.91885000
vt 0.78707200 0.89032465
vt 0.43900862 0.68750000
vt 0.82930458 0.91917729
vt 0.68755889 0.76697654
vt 0.81005836 0.94995350
vt 0.47918266 0.68422347
vt 0.80081451 0.82362771
vt 0.87244624 0.81635886
vt 0.82741672 0.93561691
vt 0.68717939 0.74890584
vt 0.82212001 0.94715321
vt 0.49245995 0.68750000
vt 0.68747920 0.73047936
vt 0.83262950 0.90501463
vt 0.68496358 0.78311235
vt 0.78815860 0.91342914
vt 0.44856060 0.68193680
vt 0.82274199 0.82314050
vt 0.87136877 0.76022851
vt 0.78888428 0.83692354
vt 0.86977696 0.84944469
vt 0.78240991 0.95142466
vt 0.79160905 0.97098786
vt 0.78128994 0.96350968
vt 0.08493188 0.57647371
vt 0.79785293 0.99490178
vt 0.36208990 0.51497513
vt 0.07304430 0.61092979
vt 0.80401081 0.98865265
vt 0.81994706 0.99616933
vt 0.36259514 0.56334305
vt 0.99104619 0.57062364
vt 0.80878669 0.96871006
vt 0.47970080 0.65687221
vt 0.68049365 0.69693398
vt 0.84068424 0.92769343
vt 0.82965028 0.95274800
vt 0.67730874 0.74447912
vt 0.83658731 0.86580247
vt 0.67732495 0.82086360
vt 0.83396089 0.83721566
vt 0.86720902 0.73207998
vt 0.94891059 0.44783413
vt 0.42228600 0.61730015
vt 0.39581466 0.89607352
vt 0.42160988 0.63860387
vt 0.98549986 0.04366136
vt 0.40986666 0.63444185
vt 0.40754849 0.64162266
vt 0.97885364 0.07509053
vt 0.36429924 0.90165579
vt 0.50659758 0.63319600
vt 0.34622166 0.92293769
vt 0.35739973 0.92339408
vt 0.82965785 0.00849617
vt 0.39092141 0.91346246
vt 0.51815873 0.69875914
vt 0.39727232 0.75697988
vt 0.00141376 0.88975871
vt 0.67059380 0.91815531
vt 0.67918986 0.91161013
vt 0.71648717 0.93058854
vt 0.68284637 0.88342178
vt 0.68013501 0.87867749
vt 0.67884922 0.78895324
vt 0.68005341 0.75360167
vt 0.82133806 0.96547633
vt 0.67996740 0.72319680
vt 0.83128482 0.86906719
vt 0.68527293 0.82088900
vt 0.83912325 0.90972769
vt 0.67546535 0.78433126
vt 0.82437283 0.98122358
vt 0.67436379 0.72021490
vt 0.29095325 0.95979822
vt 0.28673813 0.95757806
vt 0.28284684 0.94064933
vt 0.42819357 0.97765511
vt 0.29819810 0.96326894
vt 0.40709239 0.98231131
vt 0.27745947 0.96242946
vt 0.43302727 0.96840918
vt 0.30432272 0.96344340
vt 0.39248711 0.63675505
vt 0.26845354 0.94165319
vt 0.43880180 0.95323008
vt 0.31256220 0.95856297
vt 0.02230017 0.97264457
vt 0.02303725 0.95975763
vt 0.01119243 0.94434333
vt 0.70947075 0.90616947
vt 0.00966161 0.96842957
vt 0.68277639 0.85259432
vt 0.00538419 0.93522912
vt 0.67240936 0.87273377
vt 0.03475020 0.95587063
vt 0.71244937 0.82855886
vt 0.04572530 0.96267349
vt 0.04364528 0.94809723
vt 0.72473437 0.81775063
vt 0.05325165 0.93432677
vt 0.03348209 0.92866200
vt 0.02422641 0.85542607
vt 0.01824746 0.92809677
vt 0.03412239 0.87971365
vt 0.00684476 0.87394631
vt 0.01757699 0.84290797
vt 0.03802107 0.84317267
vt 0.08058435 0.88023508
vt 0.02213293 0.94385082
vt 0.03950846 0.93868917
vt 0.04116406 0.88058776
vt 0.00184215 0.91162664
vt 0.67092597 0.89663273
vt 0.00694019 0.84795463
vt 0.67076921 0.96187669
vt 0.08058435 0.96108490
vt 0.02832989 0.83235449
vt 0.07915491 0.90572262
vt 0.00354192 0.85983515
vt 0.67063057 0.94776851
vt 0.04812815 0.92476320
vt 0.04818477 0.88016719
vt 0.04423141 0.85123932
vt 0.07845896 0.86419189
vt 0.74913937 0.84094632
vt 0.05325165 0.87402451
vt 0.07729884 0.83372641
vt 0.76084530 0.89532030
vt 0.07066160 0.89094961
vt 0.07193264 0.92689794
vt 0.01669205 0.83136791
vt 0.07884247 0.93327790
vt 0.67957866 0.96344340
vt 0.07181527 0.95671040
vt 0.43402451 0.66751456
vt 0.78103089 0.87471122
vt 0.44970965 0.66522515
vt 0.79335296 0.93599570
vt 0.45921049 0.67975539
vt 0.78949016 0.94872946
vt 0.46138975 0.65760517
vt 0.46939576 0.68000656
vt 0.80090779 0.95021290
vt 0.78022480 0.91896945
vt 0.44868457 0.65683961
vt 0.79280800 0.92619002
vt 0.45567754 0.68588859
vt 0.79727560 0.96251261
vt 0.46961388 0.65755892
vt 0.48026696 0.67614388
vt 0.68755889 0.69920826
vt 0.36997378 0.54051906
vt 0.80794764 0.99882078
vt 0.36145145 0.53722256
vt 0.37035069 0.51017803
vt 0.08047962 0.62146229
vt 0.37960473 0.53754348
vt 0.38510600 0.50389659
vt 0.38652891 0.53830445
vt 0.40025270 0.50295448
vt 0.38858721 0.47981036
vt 0.10421201 0.61129999
vt 0.40926462 0.53777289
vt 0.42200953 0.50607175
vt 0.44559932 0.50279933
vt 0.45002088 0.47947586
vt 0.16554919 0.61785543
vt 0.46427000 0.49767399
vt 0.47682914 0.50406897
vt 0.46377981 0.53447634
vt 0.48680842 0.53497303
vt 0.49324080 0.51217949
vt 0.49897823 0.53399491
vt 0.49026969 0.49211240
vt 0.20587152 0.61851650
vt 0.41970766 0.56506526
vt 0.44335556 0.55724090
vt 0.40082577 0.56586975
vt 0.47310701 0.47625017
vt 0.18817765 0.61012650
vt 0.50228608 0.49872249
vt 0.21789749 0.61477137
vt 0.50357533 0.52417701
vt 0.47333890 0.56553292
vt 0.49563551 0.56520516
vt 0.45230341 0.57488590
vt 0.43305051 0.57572162
vt 0.38390511 0.57204163
vt 0.50234133 0.56102014
vt 0.40047818 0.58235353
vt 0.41299382 0.59670156
vt 0.93641382 0.57900941
vt 0.45964703 0.59104836
vt 0.88988239 0.57878262
vt 0.48214093 0.59028840
vt 0.86769247 0.57055074
vt 0.39057818 0.60259432
vt 0.95837188 0.56674659
vt 0.50313735 0.58416229
vt 0.84712654 0.56063676
vt 0.50754958 0.54401398
vt 0.50731331 0.51902992
vt 0.22652936 0.62146229
vt 0.51642823 0.51645160
vt 0.23203611 0.60458469
vt 0.50792968 0.56810236
vt 0.83973730 0.56463391
vt 0.48210514 0.04455441
vt 0.84307259 0.42184204
vt 0.52532834 0.54202473
vt 0.00612630 0.50391012
vt 0.01580743 0.49899930
vt 0.52544767 0.51468116
vt 0.23704053 0.58751273
vt 0.99184960 0.02772510
vt 0.43052456 0.63991249
vt 0.98254865 0.03002018
vt 0.99858624 0.01793313
vt 0.78416091 0.53930706
vt 0.43820432 0.64019257
vt 0.76356173 0.67806602
vt 0.98574215 0.14210260
vt 0.28240660 0.93514150
vt 0.97653157 0.11465991
vt 0.39161170 0.64268869
vt 0.26837826 0.93553841
vt 0.97629386 0.13325739
vt 0.96936852 0.10255706
vt 0.95838535 0.68873668
vt 0.98358530 0.16086191
vt 0.24266773 0.68757319
vt 0.97329271 0.08636236
vt 0.97280085 0.13542354
vt 0.95900095 0.72287738
vt 0.25212064 0.71663707
vt 0.70885623 0.93914312
vt 0.69703263 0.92271119
vt 0.39485484 0.67717361
vt 0.70103270 0.90368825
vt 0.69846696 0.87463456
vt 0.69227147 0.87535775
vt 0.38191846 0.64058888
vt 0.70066184 0.85236925
vt 0.64608860 0.87617922
vt 0.38062048 0.60840112
vt 0.72363693 0.96083426
vt 0.73415154 0.97287738
vt 0.65362865 0.64976841
vt 0.73528653 0.94620311
vt 0.68118119 0.93550342
vt 0.73054051 0.95400453
vt 0.74422789 0.95838511
vt 0.74595296 0.94752061
vt 0.68277639 0.96315336
vt 0.06866997 0.95801729
vt 0.75535965 0.93359816
vt 0.06833176 0.93068069
vt 0.75417197 0.95175368
vt 0.76487052 0.88875169
vt 0.75933790 0.86997086
vt 0.07240930 0.86701965
vt 0.72003192 0.81242937
vt 0.63555235 0.82130927
vt 0.70964462 0.92783701
vt 0.70482361 0.89280909
vt 0.01610973 0.97995281
vt 0.70603061 0.84882861
vt 0.03602747 0.97572166
vt 0.63940668 0.71966636
vt 0.76216239 0.84980440
vt 0.49658462 0.84316039
vt 0.71259946 0.81614447
vt 0.63584375 0.83943683
vt 0.60029393 0.94955093
vt 0.14928544 0.00182170
vt 0.82991016 0.75843662
vt 0.59732020 0.93067086
vt 0.81008482 0.59598815
vt 0.83032608 0.78135258
vt 0.14180160 0.00365347
vt 0.59322518 0.94230306
vt 0.12673157 0.00681889
vt 0.57785141 0.93870687
vt 0.57015634 0.93639547
vt 0.56603885 0.94593972
vt 0.11538891 0.00967860
vt 0.11668974 0.74913090
vt 0.56140816 0.93570322
vt 0.81566554 0.69220454
vt 0.12062693 0.75206840
vt 0.14002952 0.18693310
vt 0.40202838 0.81938773
vt 0.45332772 0.76580763
vt 0.43471718 0.76218688
vt 0.46076000 0.75006628
vt 0.47877419 0.76053971
vt 0.49631879 0.74000174
vt 0.50949442 0.75341427
vt 0.49408171 0.77737951
vt 0.50865126 0.76954901
vt 0.47820508 0.77607441
vt 0.43297103 0.78034598
vt 0.40800470 0.77621561
vt 0.45621029 0.78150862
vt 0.41283232 0.75820011
vt 0.56683928 0.71580189
vt 0.44465643 0.73829788
vt 0.47737610 0.79082096
vt 0.41447520 0.79776806
vt 0.50476348 0.79507554
vt 0.45509022 0.79561967
vt 0.43374962 0.80153865
vt 0.40090823 0.80188090
vt 0.39443922 0.93985850
vt 0.39912128 0.78416276
vt 0.39221212 0.79572260
vt 0.47993809 0.80720943
vt 0.44397023 0.81342399
vt 0.47095597 0.81770974
vt 0.41450280 0.81565809
vt 0.49618736 0.81721884
vt 0.76767200 0.88796759
vt 0.50502276 0.81213295
vt 0.76372576 0.92977440
vt 0.51684088 0.78118277
vt 0.56512499 0.73952198
vt 0.42143670 0.84316039
vt 0.75798857 0.95988142
vt 0.52402955 0.75347382
vt 0.54947376 0.71119648
vt 0.42750871 0.74250287
vt 0.63844568 0.71580189
vt 0.51449150 0.73418880
vt 0.38857037 0.92384589
vt 0.86202645 0.00117922
vt 0.39509106 0.76492554
vt 0.85774463 0.02990961
vt 0.38407162 0.77972299
vt 0.64145154 0.70470387
vt 0.51886100 0.72762811
vt 0.42661366 0.92804098
vt 0.41096112 0.87363136
vt 0.40766597 0.96082234
vt 0.42686555 0.88609588
vt 0.43522224 0.89459258
vt 0.40282124 0.87197113
vt 0.43407634 0.61579829
vt 0.39891464 0.97060466
vt 0.39202946 0.61438680
vt 0.26814327 0.96344340
vt 0.43649650 0.91434944
vt 0.43447635 0.88420618
vt 0.39538172 0.94733077
vt 0.40189877 0.61569917
vt 0.40949950 0.85980093
vt 0.44168058 0.62240160
vt 0.13996230 0.99882078
vt 0.75148249 0.53550881
vt 0.44176728 0.87042618
vt 0.13377999 0.92570752
vt 0.41752821 0.85731131
vt 0.13945955 0.98070985
vt 0.42818433 0.86388022
vt 0.13996230 0.95383251
f 23/33 72/108 156/258
f 72/108 154/253 156/258
f 156/257 154/254 29/42
f 154/253 155/256 167/279
f 23/32 64/92 72/107
f 72/108 64/93 154/253
f 154/253 64/93 155/256
f 155/256 100/142 167/279
f 64/93 102/148 100/142
f 64/93 100/142 155/256
f 102/147 98/139 100/141
f 98/139 99/140 100/141
f 23/32 63/91 64/92
f 23/32 62/90 63/91
f 64/92 104/153 102/149
f 64/92 63/91 104/153
f 99/140 105/154 100/141
f 99/140 96/137 105/154
f 102/147 97/138 98/139
f 97/138 96/137 98/139
f 98/139 96/137 99/140
f 102/147 104/152 97/138
f 96/137 163/274 105/154
f 97/138 94/134 96/137
f 96/137 95/136 163/274
f 275/433 278/436 277/435
f 277/435 278/436 282/440
f 275/433 284/442 268/426
f 275/433 268/426 278/436
f 268/426 706/1061 278/436
f 278/436 706/1061 282/440
f 706/1061 708/1065 282/440
f 281/439 277/435 291/451
f 273/431 275/433 274/432
f 281/439 274/432 277/435
f 291/451 277/435 293/453
f 273/431 284/442 275/433
f 274/432 275/433 277/435
f 277/435 282/440 293/453
f 293/453 282/440 297/457
f 282/440 533/788 297/457
f 266/421 268/426 284/442
f 282/440 708/1065 533/788
f 268/425 250/392 706/1060
f 250/392 704/1057 706/1060
f 704/1057 708/1063 706/1060
f 271/429 274/432 280/438
f 280/438 274/432 291/451
f 274/432 281/439 291/451
f 271/429 273/431 274/432
f 285/443 284/442 273/431
f 285/443 306/472 266/421
f 285/443 266/421 284/442
f 533/788 532/786 297/457
f 533/787 523/771 532/785
f 266/420 247/386 268/424
f 268/424 247/386 250/391
f 247/386 249/389 250/391
f 250/391 249/389 702/1051
f 250/392 702/1052 704/1057
f 104/152 91/131 97/138
f 94/134 95/136 96/137
f 279/437 280/438 292/452
f 269/427 271/429 279/437
f 279/437 271/429 280/438
f 269/427 270/428 271/429
f 292/452 280/438 294/454
f 280/438 291/451 294/454
f 294/454 291/451 552/810
f 270/428 285/443 273/431
f 270/428 273/431 271/429
f 291/451 293/453 552/810
f 552/810 297/457 551/808
f 551/808 297/457 532/786
f 306/472 261/413 266/421
f 609/905 608/904 612/910
f 266/420 257/407 247/386
f 247/386 248/387 249/389
f 610/906 703/1056 702/1053
f 702/1052 703/1054 704/1057
f 704/1057 705/1058 708/1063
f 272/430 270/428 269/427
f 286/444 270/428 272/430
f 299/461 294/454 552/810
f 286/444 287/446 270/428
f 287/446 285/443 270/428
f 285/443 287/446 306/472
f 287/445 264/417 261/412
f 306/472 287/446 261/413
f 612/909 611/907 777/1173
f 612/909 777/1173 781/1178
f 261/412 257/407 266/420
f 703/1054 707/1062 705/1058
f 704/1057 703/1054 705/1058
f 97/138 91/131 94/134
f 276/434 269/427 279/437
f 276/434 279/437 290/450
f 290/450 279/437 296/456
f 272/430 269/427 276/434
f 279/437 292/452 296/456
f 272/430 283/441 286/444
f 292/452 294/454 296/456
f 296/456 294/454 299/461
f 286/444 267/423 287/446
f 781/1179 784/1184 614/913
f 257/407 244/380 247/386
f 247/386 246/383 248/387
f 289/449 276/434 290/450
f 276/434 283/441 272/430
f 286/444 305/471 267/423
f 262/414 264/417 267/422
f 267/422 264/417 287/445
f 261/412 258/408 257/407
f 244/380 246/383 247/386
f 614/913 593/878 703/1055
f 703/1054 593/879 707/1062
f 707/1062 521/768 705/1058
f 289/449 288/448 276/434
f 289/449 290/450 295/455
f 290/450 296/456 298/459
f 295/455 290/450 298/459
f 288/448 283/441 276/434
f 283/441 305/471 286/444
f 262/414 260/411 264/417
f 264/417 260/411 261/412
f 260/411 258/408 261/412
f 611/907 775/1171 777/1173
f 782/1181 775/1171 611/907
f 613/911 782/1181 611/907
f 615/915 782/1181 613/911
f 521/769 522/770 520/767
f 784/1184 592/877 614/913
f 258/408 244/380 257/407
f 614/913 592/877 593/878
f 288/448 289/449 737/1120
f 288/448 301/464 283/441
f 95/136 94/134 101/144
f 301/464 305/471 283/441
f 543/798 299/460 549/805
f 305/470 307/474 267/422
f 267/422 307/474 262/414
f 736/1115 288/447 737/1118
f 168/282 302/465 303/466
f 303/466 302/465 288/448
f 165/277 301/464 302/465
f 168/282 165/277 302/465
f 302/465 301/464 288/448
f 301/464 307/475 305/471
f 777/1173 780/1176 781/1178
f 780/1176 590/874 784/1183
f 781/1178 780/1176 784/1183
f 784/1184 590/873 592/877
f 593/879 700/1047 707/1062
f 707/1062 700/1047 521/768
f 737/1118 735/1114 736/1115
f 304/469 168/282 303/466
f 304/469 303/466 736/1117
f 165/277 101/145 307/475
f 101/144 116/179 307/473
f 165/277 307/475 301/464
f 403/611 402/609 260/411
f 262/414 403/611 260/411
f 260/411 402/609 258/408
f 775/1171 776/1172 777/1173
f 777/1173 776/1172 780/1176
f 782/1181 779/1175 775/1171
f 258/408 259/409 256/405
f 258/408 256/405 244/380
f 590/873 591/875 592/877
f 244/380 245/382 246/383
f 592/877 591/875 593/878
f 593/879 591/876 700/1047
f 300/462 548/804 547/803
f 101/144 93/133 116/179
f 116/180 263/415 307/474
f 263/415 403/611 307/474
f 307/474 403/611 262/414
f 402/609 259/409 258/408
f 775/1171 778/1174 776/1172
f 779/1175 778/1174 775/1171
f 256/405 251/393 244/380
f 244/380 251/393 245/382
f 71/106 60/87 62/90
f 553/811 300/462 547/803
f 62/90 61/88 63/91
f 104/152 106/156 91/131
f 94/134 93/133 101/144
f 783/1182 778/1174 779/1175
f 259/410 390/587 256/406
f 700/1047 524/772 521/768
f 63/91 61/88 104/153
f 403/612 391/590 402/610
f 402/610 391/590 389/586
f 402/610 389/586 388/585
f 402/610 388/585 259/410
f 388/585 390/587 259/410
f 780/1177 699/1046 590/873
f 245/381 786/1189 779/1175
f 590/873 699/1046 591/875
f 256/405 390/588 251/393
f 251/393 786/1188 245/382
f 591/876 699/1045 700/1047
f 34/51 734/1112 47/74
f 93/133 117/181 116/179
f 117/182 265/418 263/415
f 116/180 117/182 263/415
f 263/415 265/418 391/589
f 263/416 391/590 403/612
f 783/1182 788/1193 778/1174
f 778/1174 788/1193 776/1172
f 786/1189 788/1193 783/1182
f 780/1177 701/1050 699/1046
f 524/773 527/778 526/775
f 699/1045 701/1048 700/1047
f 255/402 527/777 524/772
f 700/1047 255/402 524/772
f 91/131 93/133 94/134
f 788/1193 787/1191 776/1172
f 776/1172 787/1191 785/1185
f 776/1172 785/1185 780/1176
f 388/585 386/583 390/587
f 785/1186 701/1050 780/1177
f 390/587 386/583 251/394
f 251/393 252/395 786/1188
f 252/395 253/397 786/1188
f 701/1048 255/402 700/1047
f 93/133 114/174 117/181
f 117/183 384/581 265/419
f 265/419 384/581 391/590
f 385/582 386/583 388/585
f 788/1194 253/398 787/1192
f 386/583 392/591 251/394
f 253/398 254/401 787/1192
f 787/1192 254/401 785/1187
f 254/400 701/1050 785/1186
f 251/394 392/591 252/396
f 254/399 255/403 701/1049
f 93/133 92/132 114/174
f 117/183 114/175 384/581
f 391/590 381/578 389/586
f 381/578 383/580 385/582
f 385/582 383/580 386/583
f 386/583 387/584 392/591
f 253/397 252/395 254/399
f 254/399 252/395 398/599
f 254/399 398/599 255/403
f 732/1107 731/1104 733/1111
f 92/132 109/165 114/174
f 384/581 382/579 381/578
f 104/153 65/94 106/157
f 382/579 393/592 383/580
f 109/165 108/163 120/190
f 92/132 108/163 109/165
f 393/592 397/597 499/734
f 500/736 490/723 505/743
f 519/766 399/602 400/604
f 505/743 489/721 517/761
f 91/131 92/132 93/133
f 60/87 61/88 62/90
f 71/106 8/13 60/87
f 61/88 65/94 104/153
f 92/132 134/214 108/163
f 92/132 90/130 134/214
f 91/131 90/130 92/132
f 106/156 89/129 91/131
f 91/131 89/129 90/130
f 90/130 111/169 134/214
f 90/130 112/171 111/169
f 61/88 50/77 65/94
f 60/87 48/75 61/88
f 65/94 50/77 106/157
f 8/13 48/75 60/87
f 89/129 88/128 90/130
f 90/130 88/128 112/171
f 106/156 73/109 89/129
f 73/109 88/128 89/129
f 112/171 113/172 111/169
f 50/77 66/96 106/157
f 106/156 66/95 73/109
f 61/88 48/75 50/77
f 8/13 9/15 48/75
f 112/171 88/128 113/172
f 88/128 143/230 113/172
f 48/75 49/76 50/77
f 73/109 83/120 88/128
f 88/128 83/120 143/230
f 441/660 442/661 443/662
f 83/120 110/167 143/230
f 451/670 447/666 446/665
f 451/670 446/665 455/674
f 449/668 439/658 447/666
f 447/666 439/658 446/665
f 439/658 441/660 446/665
f 446/665 441/660 448/667
f 446/665 448/667 455/674
f 449/668 463/684 440/659
f 449/668 440/659 439/658
f 439/658 440/659 441/660
f 455/674 448/667 457/676
f 448/667 453/672 457/676
f 441/660 443/662 448/667
f 448/667 443/662 453/672
f 453/672 454/673 457/676
f 440/659 442/661 441/660
f 463/684 465/686 440/659
f 440/659 465/686 442/661
f 442/661 445/664 444/663
f 442/661 444/663 443/662
f 443/662 444/663 453/672
f 453/672 444/663 454/673
f 465/686 464/685 442/661
f 444/663 456/675 454/673
f 464/685 445/664 442/661
f 444/663 458/678 456/675
f 464/685 462/683 445/664
f 445/664 462/683 458/678
f 445/664 458/678 444/663
f 462/682 586/865 458/677
f 452/671 450/669 447/666
f 447/666 451/670 452/671
f 73/109 75/111 83/120
f 451/670 455/674 460/680
f 450/669 449/668 447/666
f 460/680 455/674 473/698
f 450/669 467/689 449/668
f 455/674 457/676 473/698
f 467/689 463/684 449/668
f 473/698 457/676 470/692
f 457/676 454/673 470/692
f 467/689 471/693 463/684
f 471/693 465/686 463/684
f 454/673 691/1028 470/692
f 454/673 456/675 691/1028
f 471/693 464/685 465/686
f 471/693 589/872 464/685
f 458/678 474/700 456/675
f 464/685 589/872 462/683
f 563/822 588/868 462/682
f 589/870 563/822 462/682
f 462/682 588/868 606/900
f 462/682 606/900 586/865
f 459/679 469/691 452/671
f 452/671 451/670 459/679
f 451/670 460/680 459/679
f 459/679 460/680 690/1026
f 461/681 450/669 452/671
f 461/681 466/688 450/669
f 50/77 51/78 66/96
f 466/688 472/696 450/669
f 460/680 473/698 689/1024
f 472/696 243/379 450/669
f 472/696 240/375 243/379
f 243/379 467/689 450/669
f 473/698 470/692 688/1022
f 243/379 471/693 467/689
f 243/379 476/704 471/693
f 691/1028 456/675 475/702
f 471/693 476/704 589/872
f 605/898 565/826 575/843
f 575/843 565/826 570/832
f 602/894 587/867 606/901
f 606/900 587/866 586/865
f 586/865 587/866 607/902
f 586/865 607/902 458/677
f 607/902 474/699 458/677
f 692/1030 459/679 690/1026
f 468/690 461/681 469/691
f 139/222 461/681 468/690
f 139/222 466/688 461/681
f 143/232 472/696 466/688
f 143/230 110/167 472/694
f 689/1023 473/697 683/1016
f 240/374 241/376 243/378
f 473/697 688/1021 684/1017
f 241/376 476/703 243/378
f 241/376 238/372 476/703
f 238/372 242/377 476/703
f 691/1027 475/701 685/1018
f 476/703 242/377 589/871
f 242/377 577/848 589/871
f 475/702 474/700 477/706
f 577/847 563/822 589/870
f 692/1029 690/1025 682/1015
f 110/168 240/374 472/695
f 110/168 239/373 240/374
f 570/832 568/829 573/838
f 605/898 560/819 565/826
f 565/826 556/815 568/829
f 565/826 568/829 570/832
f 603/895 604/897 587/867
f 110/168 231/361 239/373
f 240/374 236/370 241/376
f 241/376 236/370 238/372
f 238/372 237/371 242/377
f 573/838 568/829 574/840
f 560/819 556/815 565/826
f 242/377 237/371 577/848
f 564/824 559/818 563/822
f 577/847 564/824 563/822
f 587/867 604/897 607/903
f 474/699 607/902 584/859
f 479/711 478/709 696/1037
f 49/76 51/78 50/77
f 83/120 231/360 110/167
f 231/361 221/348 239/373
f 239/373 221/348 240/374
f 221/348 236/370 240/374
f 236/370 217/344 238/372
f 217/344 237/371 238/372
f 568/829 571/834 574/840
f 237/371 215/342 577/848
f 577/848 215/342 564/825
f 686/1019 680/1013 693/1031
f 221/348 219/346 236/370
f 236/370 219/346 217/344
f 217/344 215/342 237/371
f 568/829 556/815 567/828
f 574/841 571/835 655/980
f 559/818 554/813 556/815
f 574/842 655/981 604/897
f 655/981 585/864 604/897
f 564/824 561/820 559/818
f 604/896 585/862 607/902
f 583/858 657/983 584/859
f 607/902 583/858 584/859
f 680/1013 694/1032 693/1031
f 66/95 74/110 73/109
f 73/109 74/110 75/111
f 568/829 567/828 571/834
f 554/813 555/814 556/815
f 564/825 215/342 572/837
f 477/705 657/984 656/982
f 9/15 70/104 48/75
f 83/120 230/358 231/360
f 231/361 222/349 221/348
f 222/349 220/347 221/348
f 221/348 220/347 219/346
f 217/344 216/343 215/342
f 567/828 653/976 571/834
f 555/814 567/828 556/815
f 571/835 651/972 655/980
f 655/980 651/972 654/979
f 655/980 654/979 585/863
f 564/824 572/836 561/820
f 585/862 654/978 580/852
f 585/862 580/852 607/902
f 607/902 580/852 583/858
f 231/361 230/359 222/349
f 219/346 220/347 218/345
f 219/346 218/345 217/344
f 217/344 218/345 216/343
f 653/976 651/973 571/834
f 555/814 566/827 567/828
f 215/342 216/343 572/837
f 554/813 557/816 555/814
f 572/836 562/821 561/820
f 583/858 582/855 657/983
f 695/1035 433/647 698/1044
f 75/111 107/159 230/358
f 83/120 75/111 230/358
f 555/814 558/817 566/827
f 561/820 562/821 554/813
f 580/852 582/855 583/858
f 679/1012 423/632 694/1033
f 107/160 229/356 230/359
f 229/356 228/355 222/349
f 222/349 225/352 220/347
f 218/345 220/347 223/350
f 218/345 223/350 216/343
f 216/343 223/350 224/351
f 653/976 649/968 651/973
f 224/351 578/850 216/343
f 216/343 578/850 572/837
f 651/972 649/969 650/971
f 651/972 650/971 654/979
f 572/836 578/849 562/821
f 654/978 650/970 580/852
f 580/852 581/853 582/855
f 220/347 225/352 223/350
f 558/817 569/830 566/827
f 566/827 569/830 653/976
f 653/977 576/846 649/969
f 648/967 650/971 649/969
f 648/967 652/975 650/971
f 650/970 652/974 579/851
f 650/970 579/851 580/852
f 580/852 579/851 581/853
f 423/632 431/645 435/650
f 223/350 225/352 226/353
f 224/351 226/353 227/354
f 569/830 576/845 653/976
f 576/846 648/967 649/969
f 558/817 562/821 647/966
f 558/817 647/966 569/830
f 562/821 578/849 438/655
f 438/655 647/966 562/821
f 429/642 235/368 234/367
f 647/965 648/967 576/846
f 569/831 647/965 576/846
f 647/966 438/655 652/974
f 647/965 652/975 648/967
f 652/974 438/655 426/636
f 426/636 581/853 579/851
f 652/974 426/636 579/851
f 437/654 430/644 436/652
f 75/111 74/110 82/119
f 75/111 122/194 107/159
f 75/111 82/119 122/194
f 70/104 54/81 48/75
f 48/75 54/81 49/76
f 74/110 81/118 82/119
f 82/119 81/118 122/194
f 49/76 52/79 51/78
f 74/110 80/117 81/118
f 66/95 80/117 74/110
f 51/78 67/98 66/96
f 66/95 67/97 80/117
f 54/81 52/79 49/76
f 81/118 127/200 122/194
f 51/78 53/80 67/98
f 52/79 53/80 51/78
f 127/201 123/195 122/193
f 52/79 54/81 53/80
f 81/118 79/116 127/200
f 70/104 17/24 54/81
f 81/118 80/117 79/116
f 54/81 55/82 53/80
f 80/117 76/112 79/116
f 79/116 128/203 127/200
f 17/24 55/82 54/81
f 67/97 76/112 80/117
f 79/116 78/115 128/203
f 79/116 76/112 78/115
f 55/82 56/83 53/80
f 78/115 374/566 128/203
f 17/24 68/100 55/82
f 53/80 69/102 67/98
f 67/97 69/101 76/112
f 340/518 333/504 341/519
f 326/496 320/490 325/495
f 132/211 380/577 333/504
f 340/518 132/211 333/504
f 326/496 321/491 320/490
f 320/490 319/489 325/495
f 333/504 321/491 326/496
f 333/504 380/577 321/491
f 380/576 378/571 379/574
f 380/577 379/575 321/491
f 320/490 321/491 315/483
f 320/490 315/483 319/489
f 379/575 332/503 321/491
f 321/491 332/503 315/483
f 319/489 315/483 314/482
f 315/483 332/503 308/476
f 315/483 308/476 314/482
f 379/575 339/516 332/503
f 332/503 339/516 308/476
f 314/482 308/476 310/478
f 343/524 341/519 342/521
f 331/502 342/521 326/496
f 331/501 595/882 46/72
f 331/501 46/72 342/520
f 326/496 325/495 331/502
f 343/524 340/518 341/519
f 341/519 333/504 342/521
f 325/495 319/489 328/498
f 132/211 119/189 378/573
f 132/211 378/573 380/577
f 319/489 322/492 328/498
f 379/574 378/571 377/570
f 377/570 346/528 379/574
f 379/575 346/529 339/516
f 314/482 310/478 322/492
f 310/478 311/479 322/492
f 339/516 309/477 308/476
f 308/476 309/477 310/478
f 310/478 309/477 311/479
f 309/477 339/516 312/480
f 309/477 312/480 311/479
f 331/502 325/495 336/510
f 325/495 202/321 336/510
f 328/498 329/499 202/321
f 76/112 77/113 78/115
f 119/187 374/566 378/572
f 374/567 375/568 378/571
f 371/563 377/570 378/571
f 378/571 375/568 371/563
f 328/498 322/492 329/499
f 322/492 324/494 329/499
f 377/570 376/569 346/528
f 322/492 311/479 324/494
f 376/569 347/530 346/528
f 346/529 347/531 339/516
f 311/479 323/493 324/494
f 311/479 312/480 313/481
f 311/479 313/481 316/484
f 311/479 316/484 323/493
f 347/531 344/525 339/516
f 339/516 344/525 312/480
f 344/525 317/485 312/480
f 312/480 317/485 313/481
f 313/481 713/1072 316/484
f 313/481 317/485 713/1072
f 336/509 202/320 188/303
f 78/115 77/113 374/566
f 374/567 367/557 375/568
f 375/568 367/557 371/563
f 371/563 373/565 377/570
f 324/494 327/497 329/499
f 377/570 373/565 376/569
f 324/494 323/493 327/497
f 347/531 345/527 344/525
f 316/484 318/488 323/493
f 347/530 730/1103 345/526
f 344/525 345/527 317/485
f 316/484 713/1072 318/488
f 345/527 714/1075 317/485
f 317/486 714/1073 712/1070
f 317/486 712/1070 713/1071
f 713/1071 712/1070 318/487
f 338/513 594/880 595/882
f 188/303 202/320 186/301
f 77/114 367/557 374/567
f 367/557 363/553 371/563
f 363/553 364/554 371/563
f 371/563 364/554 373/565
f 373/565 364/554 370/562
f 329/499 327/497 200/316
f 373/565 370/562 376/569
f 376/569 370/562 372/564
f 327/497 323/493 330/500
f 376/569 372/564 347/530
f 347/530 372/564 730/1103
f 323/493 710/1068 330/500
f 323/493 318/488 710/1068
f 318/487 711/1069 710/1067
f 345/526 730/1103 714/1074
f 714/1073 711/1069 712/1070
f 318/487 712/1070 711/1069
f 594/880 43/66 595/882
f 711/1069 709/1066 710/1067
f 725/1092 622/926 714/1073
f 730/1102 725/1092 714/1073
f 714/1073 622/926 728/1097
f 714/1073 728/1097 711/1069
f 711/1069 728/1097 727/1095
f 711/1069 727/1095 726/1094
f 56/83 57/84 53/80
f 53/80 57/84 69/102
f 364/554 366/556 370/562
f 370/562 366/556 372/564
f 372/564 725/1093 730/1103
f 621/925 632/939 617/918
f 616/917 619/921 727/1096
f 711/1069 726/1094 709/1066
f 594/880 44/68 43/66
f 369/560 360/549 367/557
f 77/114 369/560 367/557
f 367/557 360/549 363/553
f 366/556 365/555 372/564
f 372/564 365/555 725/1093
f 621/925 633/940 632/939
f 617/918 632/939 618/919
f 623/928 633/940 621/925
f 725/1092 624/929 622/926
f 727/1095 619/920 726/1094
f 363/553 360/549 356/544
f 363/553 356/544 364/554
f 356/544 358/547 364/554
f 364/554 358/547 366/556
f 358/547 362/552 366/556
f 366/556 362/552 365/555
f 632/939 627/933 618/919
f 633/940 625/931 632/939
f 623/928 639/951 633/940
f 618/919 620/923 619/921
f 365/555 368/559 725/1093
f 619/922 620/924 601/893
f 619/920 600/891 726/1094
f 594/880 212/335 44/68
f 369/560 115/177 360/549
f 625/931 627/933 632/939
f 627/933 635/942 618/919
f 618/919 635/942 620/923
f 620/924 635/943 601/893
f 77/113 76/112 369/561
f 369/561 85/123 115/176
f 115/177 355/542 360/549
f 360/549 355/542 356/544
f 356/544 355/542 351/537
f 356/544 351/537 358/547
f 358/547 353/540 362/552
f 627/933 629/935 635/942
f 362/552 361/551 365/555
f 365/555 361/551 368/559
f 368/558 357/545 725/1092
f 725/1092 357/545 624/929
f 600/891 718/1081 726/1094
f 726/1094 718/1081 709/1066
f 212/335 772/1164 44/68
f 76/112 84/121 369/561
f 369/561 84/121 85/123
f 355/542 768/1156 351/537
f 358/547 351/537 353/540
f 353/540 359/548 362/552
f 362/552 359/548 361/551
f 635/943 599/890 601/893
f 368/558 361/550 357/545
f 357/545 642/955 624/929
f 601/893 599/890 600/892
f 718/1081 715/1076 709/1066
f 212/335 597/885 772/1164
f 85/123 118/185 738/1121
f 625/931 628/934 626/932
f 625/931 626/932 627/933
f 627/933 626/932 629/935
f 629/935 598/888 635/942
f 633/940 634/941 628/934
f 633/940 628/934 625/931
f 640/952 634/941 639/951
f 639/951 634/941 633/940
f 597/885 759/1144 772/1164
f 153/252 760/1146 758/1143
f 738/1122 758/1143 355/543
f 355/543 758/1143 764/1150
f 355/543 764/1150 768/1157
f 599/890 717/1080 600/892
f 600/891 717/1079 718/1081
f 68/100 58/85 55/82
f 768/1156 348/532 351/537
f 351/537 350/536 353/540
f 629/935 638/949 598/888
f 353/540 354/541 359/548
f 640/952 631/937 634/941
f 642/956 641/953 640/952
f 598/889 717/1080 599/890
f 359/548 354/541 357/546
f 359/548 357/546 361/551
f 55/82 58/85 56/83
f 351/537 348/532 350/536
f 348/532 349/534 350/536
f 353/540 350/536 354/541
f 626/932 630/936 629/935
f 629/935 636/944 638/949
f 640/952 641/953 631/937
f 598/889 638/950 717/1080
f 717/1079 719/1082 718/1081
f 719/1082 716/1077 715/1076
f 718/1081 719/1082 715/1076
f 629/935 630/936 636/944
f 350/536 352/538 354/541
f 631/937 626/932 628/934
f 634/941 631/937 628/934
f 354/541 352/538 357/546
f 717/1080 638/950 646/963
f 357/546 352/538 729/1099
f 642/955 357/545 724/1090
f 717/1080 646/963 720/1084
f 717/1079 720/1083 719/1082
f 350/536 349/534 352/538
f 631/937 637/947 626/932
f 626/932 637/947 630/936
f 729/1100 723/1089 357/545
f 357/545 723/1089 724/1090
f 719/1082 214/339 716/1077
f 637/947 645/961 630/936
f 630/936 645/961 636/944
f 645/962 646/964 636/946
f 631/938 724/1091 643/959
f 645/962 644/960 646/964
f 729/1100 766/1152 723/1089
f 723/1089 643/958 724/1090
f 644/960 720/1085 646/964
f 644/960 721/1087 720/1085
f 720/1083 721/1086 719/1082
f 643/959 644/960 637/948
f 637/948 644/960 645/962
f 643/959 721/1087 644/960
f 643/958 723/1089 721/1086
f 721/1086 723/1089 722/1088
f 721/1086 722/1088 719/1082
f 719/1082 722/1088 769/1158
f 719/1082 769/1158 214/339
f 84/121 103/150 85/123
f 214/340 774/1169 206/326
f 723/1089 766/1152 767/1154
f 723/1089 767/1154 722/1088
f 767/1154 769/1158 722/1088
f 58/85 59/86 56/83
f 56/83 59/86 57/84
f 84/121 87/127 103/150
f 68/100 20/28 58/85
f 76/112 69/101 84/121
f 69/101 87/127 84/121
f 87/127 149/242 103/150
f 69/101 86/124 87/127
f 59/86 86/125 57/84
f 57/84 86/125 69/102
f 20/28 161/268 58/85
f 161/268 59/86 58/85
f 86/124 149/242 87/127
f 59/86 161/268 86/125
f 86/124 160/265 149/242
f 24/36 156/257 29/42
f 62/89 23/34 22/31
f 22/31 23/34 156/257
f 22/31 156/257 24/36
f 154/255 167/280 163/273
f 163/273 167/280 105/155
f 167/280 100/143 105/155
f 29/43 154/255 162/271
f 22/31 24/36 25/37
f 162/271 154/255 163/273
f 24/36 29/42 162/272
f 71/105 62/89 22/31
f 162/271 163/273 164/275
f 552/810 293/453 297/457
f 523/771 533/787 708/1064
f 523/771 708/1064 705/1059
f 26/39 22/31 25/37
f 551/807 532/785 535/790
f 531/784 532/785 523/771
f 608/904 609/905 610/906
f 610/906 609/905 612/910
f 249/390 610/906 702/1053
f 541/796 552/809 551/807
f 535/790 532/785 531/784
f 531/784 523/771 520/767
f 612/910 608/904 611/908
f 612/910 781/1180 614/914
f 520/767 523/771 705/1059
f 613/912 611/908 249/390
f 613/912 249/390 248/388
f 249/390 611/908 608/904
f 249/390 608/904 610/906
f 610/906 612/910 614/914
f 703/1056 610/906 614/914
f 164/275 163/273 95/135
f 299/460 552/809 541/796
f 549/805 299/460 541/796
f 541/796 551/807 535/790
f 528/780 531/784 520/767
f 615/916 613/912 248/388
f 298/459 296/456 299/461
f 537/792 541/796 535/790
f 535/790 531/784 528/780
f 528/780 520/767 522/770
f 615/916 248/388 246/385
f 520/767 705/1059 521/769
f 737/1120 289/449 295/455
f 166/278 162/271 164/275
f 298/458 299/460 543/798
f 539/794 549/805 541/796
f 539/794 541/796 537/792
f 537/792 535/790 534/789
f 534/789 535/790 528/780
f 529/781 528/780 522/770
f 71/105 22/31 26/39
f 24/35 162/271 25/38
f 25/38 162/271 166/278
f 300/463 295/455 298/459
f 168/281 166/278 164/275
f 168/281 164/275 165/276
f 548/804 298/458 543/798
f 165/276 164/275 95/135
f 543/798 549/805 539/794
f 534/789 528/780 529/781
f 737/1120 295/455 300/463
f 25/38 166/278 304/467
f 300/462 298/458 548/804
f 304/467 166/278 168/281
f 303/466 288/448 736/1117
f 101/146 165/276 95/135
f 529/781 522/770 525/774
f 782/1181 615/915 246/384
f 539/794 537/792 538/793
f 537/792 534/789 536/791
f 536/791 534/789 529/781
f 782/1181 246/384 245/381
f 735/1114 737/1118 553/812
f 553/811 737/1119 300/462
f 169/284 25/38 304/467
f 169/283 304/468 736/1116
f 547/803 548/804 544/799
f 544/799 548/804 543/798
f 544/799 543/798 542/797
f 542/797 543/798 539/794
f 542/797 539/794 540/795
f 540/795 539/794 538/793
f 538/793 537/792 536/791
f 536/791 529/781 530/782
f 530/782 529/781 525/774
f 779/1175 782/1181 245/381
f 522/770 521/769 524/773
f 525/774 522/770 524/773
f 28/41 25/37 169/283
f 169/283 736/1116 734/1112
f 734/1113 736/1115 735/1114
f 553/811 547/803 546/802
f 28/41 169/283 34/51
f 34/51 169/283 734/1112
f 734/1113 735/1114 553/812
f 546/802 547/803 544/799
f 540/795 538/793 514/755
f 514/755 538/793 536/791
f 513/753 536/791 530/782
f 513/754 530/783 511/749
f 511/750 530/782 526/775
f 526/775 530/782 525/774
f 524/773 526/775 525/774
f 783/1182 779/1175 786/1189
f 26/39 25/37 28/41
f 550/806 553/811 546/802
f 47/74 734/1112 33/50
f 33/50 734/1112 35/52
f 35/53 734/1113 553/812
f 544/799 542/797 515/757
f 515/757 542/797 540/795
f 514/755 536/791 513/753
f 34/51 47/74 33/50
f 28/41 34/51 33/50
f 733/1111 35/53 553/812
f 546/802 544/799 516/759
f 516/759 544/799 515/757
f 515/757 540/795 545/800
f 545/800 540/795 514/755
f 389/586 385/582 388/585
f 504/741 513/754 511/749
f 504/741 511/749 526/776
f 788/1194 786/1190 253/398
f 503/740 526/776 527/779
f 31/46 28/41 32/49
f 32/49 28/41 33/50
f 550/806 546/802 516/759
f 32/49 33/50 35/52
f 32/49 35/52 733/1110
f 545/801 514/756 509/747
f 509/747 514/756 513/754
f 509/747 513/754 508/746
f 504/741 508/746 513/754
f 503/740 504/741 526/776
f 26/39 28/41 5/7
f 6/9 26/39 5/7
f 732/1108 553/811 550/806
f 5/7 28/41 31/46
f 732/1107 733/1111 553/812
f 550/806 516/759 512/751
f 510/748 516/760 515/758
f 510/748 515/758 545/801
f 510/748 545/801 507/745
f 507/745 545/801 509/747
f 497/732 509/747 508/746
f 389/586 381/578 385/582
f 255/404 503/740 527/779
f 5/8 31/47 141/226
f 732/1108 550/806 512/751
f 36/54 32/49 733/1110
f 36/54 733/1110 731/1105
f 512/752 516/760 510/748
f 507/745 509/747 502/739
f 391/590 384/581 381/578
f 502/739 509/747 497/732
f 497/732 508/746 504/741
f 386/583 383/580 387/584
f 496/731 497/732 504/741
f 496/731 504/741 503/740
f 496/731 503/740 255/404
f 398/601 496/731 255/404
f 500/736 732/1109 512/752
f 37/56 141/227 31/48
f 31/46 32/49 36/54
f 37/57 31/46 36/54
f 505/742 731/1104 732/1107
f 381/578 382/579 383/580
f 498/733 502/739 497/732
f 487/719 498/733 497/732
f 387/584 383/580 395/594
f 486/718 487/719 488/720
f 487/719 497/732 488/720
f 488/720 497/732 496/731
f 387/584 395/594 501/737
f 387/584 501/737 392/591
f 501/738 492/725 494/728
f 492/725 486/718 488/720
f 392/591 501/737 494/727
f 494/728 492/725 488/720
f 494/728 488/720 398/601
f 398/601 488/720 496/731
f 392/591 494/727 252/396
f 252/396 494/727 398/600
f 401/607 141/227 37/56
f 505/743 732/1109 500/736
f 500/736 512/752 506/744
f 37/56 36/55 518/764
f 518/764 36/55 731/1106
f 518/763 731/1104 505/742
f 506/744 512/752 510/748
f 506/744 510/748 507/745
f 109/166 120/191 394/593
f 109/166 394/593 114/175
f 506/744 507/745 481/713
f 114/175 394/593 382/579
f 481/713 507/745 502/739
f 384/581 114/175 382/579
f 482/714 481/713 502/739
f 482/714 502/739 498/733
f 482/714 498/733 487/719
f 486/718 482/714 487/719
f 383/580 393/592 395/594
f 395/594 393/592 499/734
f 395/594 499/734 501/737
f 499/735 493/726 492/725
f 501/738 499/735 492/725
f 492/725 493/726 486/718
f 5/6 141/225 401/606
f 401/607 37/56 400/605
f 400/605 37/56 519/765
f 519/765 37/56 518/764
f 500/736 506/744 491/724
f 120/191 401/608 400/604
f 399/603 519/765 518/764
f 399/603 518/764 517/761
f 517/761 518/764 505/743
f 120/191 400/604 399/602
f 401/608 120/191 108/164
f 120/191 399/602 394/593
f 394/593 399/602 517/762
f 394/593 517/762 489/722
f 394/593 489/722 396/595
f 491/724 506/744 481/713
f 382/579 394/593 396/595
f 382/579 396/595 495/729
f 382/579 495/729 393/592
f 483/715 481/713 480/712
f 480/712 481/713 482/714
f 393/592 495/729 397/597
f 483/715 480/712 486/718
f 397/598 483/715 493/726
f 480/712 482/714 486/718
f 499/735 397/598 493/726
f 493/726 483/715 486/718
f 5/6 401/606 136/216
f 490/723 500/736 491/724
f 489/721 505/743 490/723
f 490/723 491/724 485/717
f 489/721 490/723 485/717
f 136/216 401/606 108/162
f 485/717 491/724 481/713
f 489/721 485/717 484/716
f 396/596 489/721 484/716
f 484/716 485/717 481/713
f 484/716 481/713 483/715
f 495/730 396/596 484/716
f 495/730 484/716 397/598
f 397/598 484/716 483/715
f 71/105 26/39 6/9
f 135/215 5/6 136/216
f 136/216 108/162 134/213
f 8/12 71/105 27/40
f 3/3 6/9 5/7
f 71/105 6/9 3/3
f 3/3 5/7 4/5
f 4/4 5/6 135/215
f 71/105 3/3 27/40
f 135/215 136/216 134/213
f 135/215 134/213 133/212
f 133/212 134/213 111/170
f 4/4 135/215 133/212
f 3/3 4/5 138/219
f 138/220 4/4 133/212
f 8/12 27/40 3/3
f 3/3 138/219 137/217
f 2/2 8/12 3/3
f 2/2 3/3 137/217
f 9/14 8/12 2/2
f 133/212 111/170 113/173
f 137/218 138/220 133/212
f 137/218 133/212 113/173
f 1/1 2/2 137/217
f 1/1 137/217 140/223
f 9/14 2/2 1/1
f 10/16 9/14 1/1
f 140/224 137/218 139/221
f 139/221 137/218 113/173
f 139/221 113/173 466/687
f 466/687 113/173 143/231
f 475/702 456/675 474/700
f 461/681 452/671 469/691
f 690/1026 460/680 689/1024
f 688/1022 470/692 691/1028
f 687/1020 688/1021 691/1027
f 588/869 605/899 575/844
f 588/869 575/844 602/894
f 588/869 602/894 606/901
f 478/707 140/224 142/228
f 469/691 459/679 692/1030
f 140/224 139/221 142/228
f 142/229 139/222 468/690
f 468/690 469/691 142/229
f 690/1025 689/1023 681/1014
f 683/1016 473/697 684/1017
f 684/1017 688/1021 675/1006
f 675/1006 688/1021 687/1020
f 687/1020 691/1027 685/1018
f 575/844 570/833 573/839
f 575/844 573/839 603/895
f 563/823 605/899 588/869
f 560/819 605/898 563/822
f 602/894 575/844 603/895
f 587/867 602/894 603/895
f 1/1 140/223 697/1038
f 697/1039 140/224 478/707
f 686/1019 692/1029 682/1015
f 142/229 469/691 478/709
f 478/709 469/691 696/1037
f 696/1037 469/691 692/1030
f 682/1015 690/1025 681/1014
f 681/1014 689/1023 683/1016
f 675/1006 687/1020 677/1008
f 677/1008 687/1020 685/1018
f 685/1018 475/701 477/705
f 603/895 573/839 574/842
f 477/706 474/700 584/861
f 696/1036 692/1029 686/1019
f 681/1014 683/1016 676/1007
f 676/1007 683/1016 684/1017
f 684/1017 675/1006 676/1007
f 556/815 560/819 559/818
f 559/818 560/819 563/822
f 603/895 574/842 604/897
f 7/10 1/1 697/1038
f 479/710 696/1036 693/1031
f 693/1031 696/1036 686/1019
f 686/1019 682/1015 673/1003
f 671/1001 682/1015 681/1014
f 675/1006 677/1008 664/993
f 664/993 677/1008 661/989
f 677/1008 685/1018 661/989
f 661/989 685/1018 659/987
f 659/987 685/1018 477/705
f 659/987 477/705 656/982
f 10/16 1/1 7/10
f 680/1013 686/1019 673/1003
f 697/1040 478/708 479/710
f 671/1001 673/1003 682/1015
f 670/1000 671/1001 681/1014
f 670/1000 681/1014 676/1007
f 670/1000 676/1007 675/1006
f 670/1000 675/1006 664/993
f 554/813 559/818 561/820
f 477/705 584/860 657/984
f 697/1040 479/710 695/1034
f 695/1034 479/710 693/1031
f 7/11 697/1041 698/1042
f 698/1043 697/1040 695/1034
f 695/1034 693/1031 694/1032
f 673/1003 671/1001 672/1002
f 671/1001 670/1000 669/999
f 670/1000 664/993 665/994
f 662/990 664/993 661/989
f 659/987 656/982 658/985
f 658/985 656/982 582/856
f 582/856 656/982 657/984
f 680/1013 673/1003 679/1011
f 679/1011 673/1003 672/1002
f 669/999 670/1000 666/995
f 666/995 670/1000 665/994
f 665/994 664/993 662/990
f 662/990 661/989 660/988
f 660/988 661/989 659/987
f 660/988 659/987 658/985
f 70/103 9/14 11/17
f 679/1011 694/1032 680/1013
f 672/1002 671/1001 669/999
f 669/999 666/995 668/998
f 653/976 567/828 566/827
f 558/817 555/814 557/816
f 557/816 554/813 562/821
f 7/11 698/1042 130/206
f 130/207 698/1044 433/647
f 695/1035 694/1033 423/632
f 433/647 695/1035 423/632
f 679/1011 672/1002 674/1004
f 424/633 679/1012 674/1005
f 674/1004 672/1002 669/999
f 222/349 230/359 229/356
f 428/640 665/994 662/990
f 660/988 658/985 427/638
f 658/986 582/857 581/854
f 11/17 9/14 10/16
f 423/632 679/1012 424/633
f 434/649 130/207 433/647
f 433/647 423/632 435/650
f 674/1004 669/999 678/1009
f 678/1009 669/999 668/998
f 668/998 666/995 667/996
f 222/349 228/355 225/352
f 667/996 666/995 428/640
f 666/995 665/994 428/640
f 428/640 662/990 425/634
f 662/990 660/988 663/991
f 663/991 660/988 427/638
f 558/817 557/816 562/821
f 427/639 658/986 581/854
f 7/11 130/206 124/197
f 433/647 435/650 431/645
f 424/633 674/1005 421/630
f 434/649 433/647 432/646
f 433/647 431/645 432/646
f 421/630 674/1005 678/1010
f 233/365 434/649 432/646
f 107/161 233/366 229/357
f 678/1009 668/998 667/996
f 229/356 233/364 228/355
f 425/634 662/990 663/991
f 224/351 223/350 226/353
f 224/351 227/354 578/850
f 130/206 434/648 125/198
f 423/632 424/633 421/630
f 431/645 423/632 415/624
f 415/624 423/632 421/630
f 434/648 233/363 125/198
f 432/646 431/645 415/624
f 421/630 678/1010 422/631
f 233/365 432/646 415/624
f 233/365 415/624 429/643
f 228/355 233/364 429/642
f 422/631 678/1010 667/997
f 228/355 429/642 234/367
f 422/631 667/997 428/641
f 225/352 228/355 234/367
f 422/631 428/641 425/635
f 225/352 234/367 232/362
f 226/353 225/352 232/362
f 420/629 425/635 663/992
f 227/354 226/353 232/362
f 427/639 420/629 663/992
f 578/850 227/354 438/656
f 124/197 130/206 125/198
f 409/618 415/624 421/630
f 125/198 233/363 107/158
f 409/618 421/630 407/616
f 407/616 421/630 422/631
f 429/643 415/624 235/369
f 415/624 409/618 408/617
f 235/369 415/624 408/617
f 407/616 422/631 405/614
f 234/367 235/368 437/653
f 405/614 422/631 414/623
f 414/623 422/631 425/635
f 232/362 234/367 437/653
f 414/623 425/635 420/629
f 232/362 437/653 436/651
f 227/354 232/362 436/651
f 419/628 420/629 427/639
f 227/354 436/651 438/656
f 419/628 427/639 581/854
f 426/637 419/628 581/854
f 409/618 407/616 408/617
f 408/617 407/616 404/613
f 404/613 407/616 405/614
f 235/369 408/617 418/627
f 418/627 408/617 404/613
f 437/654 235/369 418/627
f 404/613 405/614 406/615
f 406/615 405/614 414/623
f 437/654 418/627 430/644
f 418/627 404/613 410/619
f 430/644 418/627 410/619
f 406/615 414/623 411/620
f 411/620 414/623 420/629
f 411/620 420/629 413/622
f 436/652 430/644 410/619
f 436/652 410/619 416/625
f 413/622 420/629 419/628
f 436/652 416/625 438/657
f 417/626 413/622 419/628
f 416/625 413/622 417/626
f 417/626 419/628 426/637
f 416/625 417/626 426/637
f 438/657 416/625 426/637
f 404/613 406/615 410/619
f 410/619 406/615 411/620
f 412/621 410/619 411/620
f 416/625 410/619 412/621
f 412/621 411/620 413/622
f 416/625 412/621 413/622
f 10/16 7/10 124/196
f 125/198 107/158 122/193
f 12/18 10/16 124/196
f 124/197 125/198 122/193
f 11/17 10/16 12/18
f 124/197 122/193 121/192
f 14/20 12/18 124/196
f 13/19 11/17 12/18
f 121/192 122/193 123/195
f 13/19 12/18 14/20
f 70/103 11/17 15/21
f 15/21 11/17 13/19
f 14/20 124/196 131/209
f 131/208 124/197 121/192
f 15/21 13/19 14/20
f 126/199 121/192 123/195
f 131/208 121/192 126/199
f 17/23 70/103 15/21
f 126/199 123/195 127/201
f 16/22 14/20 131/209
f 15/21 14/20 16/22
f 126/199 127/201 128/202
f 17/23 15/21 16/22
f 16/22 131/209 129/204
f 129/205 131/208 126/199
f 129/205 126/199 128/202
f 129/205 128/202 340/517
f 340/517 128/202 132/210
f 18/25 17/23 16/22
f 343/522 129/205 340/517
f 333/504 326/496 342/521
f 132/210 128/202 119/188
f 119/187 128/203 374/566
f 319/489 314/482 322/492
f 18/25 16/22 129/204
f 129/205 343/522 42/64
f 343/524 342/521 46/73
f 325/495 328/498 202/321
f 595/882 331/501 338/513
f 338/515 331/502 336/510
f 42/65 343/523 41/63
f 41/63 343/523 46/71
f 129/205 42/64 30/45
f 30/44 42/65 41/63
f 338/514 336/509 181/296
f 596/884 41/63 46/71
f 596/883 46/72 595/882
f 181/296 336/509 188/303
f 203/323 338/514 182/297
f 182/297 338/514 181/296
f 202/321 329/499 200/316
f 186/301 202/320 200/315
f 327/497 330/500 335/508
f 594/880 338/513 203/322
f 18/25 129/204 30/44
f 40/62 30/44 41/63
f 40/62 41/63 596/884
f 596/883 595/882 43/66
f 188/303 186/301 181/296
f 327/497 335/508 200/316
f 330/500 710/1068 334/506
f 337/512 330/500 334/506
f 18/25 30/44 38/58
f 30/44 40/62 39/60
f 40/61 596/883 43/66
f 181/296 186/301 185/300
f 186/301 200/315 185/300
f 185/300 200/315 187/302
f 187/302 200/315 335/507
f 335/508 330/500 337/512
f 623/928 621/925 622/927
f 621/925 617/918 728/1098
f 728/1098 617/918 616/917
f 334/505 710/1067 709/1066
f 622/927 621/925 728/1098
f 728/1098 616/917 727/1096
f 38/58 30/44 39/60
f 39/60 40/62 43/67
f 182/297 181/296 176/291
f 181/296 185/300 171/286
f 616/917 617/918 618/919
f 623/928 622/927 624/930
f 616/917 618/919 619/921
f 594/881 203/323 192/307
f 203/323 182/297 192/307
f 150/245 18/25 38/58
f 192/307 182/297 176/291
f 151/247 38/58 39/60
f 39/60 43/67 44/69
f 181/296 173/288 176/291
f 173/288 181/296 171/286
f 185/300 187/302 180/295
f 171/286 185/300 180/295
f 180/295 187/302 183/298
f 187/302 335/507 183/298
f 335/507 337/511 183/298
f 337/512 334/506 201/319
f 623/928 624/930 639/951
f 201/318 334/505 709/1066
f 212/336 594/881 192/307
f 150/244 38/59 151/246
f 151/247 39/60 45/70
f 39/60 44/69 45/70
f 619/922 601/893 600/892
f 68/99 17/23 18/25
f 212/336 192/307 205/325
f 205/325 192/307 193/308
f 192/307 176/291 191/306
f 193/308 192/307 191/306
f 773/1167 45/70 44/69
f 175/290 176/291 173/288
f 180/295 183/298 179/294
f 179/294 183/298 184/299
f 183/298 337/511 184/299
f 184/299 337/511 199/314
f 199/314 337/511 201/317
f 201/318 709/1066 715/1076
f 150/244 151/246 148/241
f 152/249 151/247 45/70
f 148/241 151/246 152/248
f 152/249 45/70 773/1167
f 773/1167 44/69 772/1165
f 191/306 176/291 175/290
f 175/290 173/288 170/285
f 173/288 171/286 170/285
f 170/285 171/286 172/287
f 174/289 171/286 180/295
f 199/314 201/317 213/337
f 639/951 624/930 642/956
f 213/338 201/318 715/1076
f 85/123 738/1121 115/176
f 355/543 115/178 738/1122
f 172/287 171/286 174/289
f 180/295 179/294 174/289
f 598/889 599/890 635/943
f 640/952 639/951 642/956
f 597/886 212/336 205/325
f 597/886 205/325 210/331
f 148/241 152/248 147/240
f 210/331 205/325 193/308
f 152/250 773/1168 760/1146
f 153/252 152/250 760/1146
f 147/240 152/248 153/251
f 773/1168 772/1166 760/1146
f 760/1146 772/1166 759/1145
f 147/240 153/251 118/184
f 118/186 153/252 738/1122
f 738/1122 153/252 758/1143
f 178/293 179/294 184/299
f 184/299 199/314 198/313
f 199/314 213/337 198/313
f 210/331 193/308 207/327
f 207/327 193/308 191/306
f 760/1146 759/1145 758/1143
f 191/306 175/290 194/309
f 758/1143 754/1139 764/1150
f 175/290 170/285 194/309
f 194/309 170/285 172/287
f 172/287 174/289 177/292
f 174/289 179/294 178/293
f 178/293 184/299 189/304
f 189/304 184/299 198/313
f 213/338 715/1076 716/1077
f 150/244 148/241 145/236
f 145/236 148/241 147/240
f 759/1145 597/887 749/1133
f 749/1133 597/887 751/1135
f 751/1135 597/887 210/332
f 758/1143 759/1145 749/1133
f 758/1143 749/1133 754/1139
f 207/327 191/306 194/309
f 207/327 194/309 208/328
f 768/1157 764/1150 348/533
f 177/292 174/289 178/293
f 190/305 178/293 189/304
f 198/313 213/337 716/1078
f 751/1135 210/332 770/1161
f 770/1160 210/331 207/327
f 770/1160 207/327 208/328
f 764/1150 754/1139 757/1142
f 194/309 172/287 195/310
f 348/533 764/1150 757/1142
f 348/533 757/1142 762/1148
f 195/310 172/287 177/292
f 195/310 177/292 196/311
f 348/533 762/1148 349/535
f 177/292 178/293 190/305
f 204/324 189/304 198/313
f 641/954 642/957 724/1091
f 204/324 198/313 716/1078
f 68/99 18/25 19/26
f 19/26 150/245 145/237
f 147/240 118/184 103/151
f 103/151 118/184 85/122
f 749/1133 751/1135 740/1124
f 740/1124 751/1135 770/1161
f 754/1139 749/1133 748/1132
f 748/1132 749/1133 740/1124
f 770/1160 208/328 752/1136
f 757/1142 754/1139 748/1132
f 208/328 194/309 195/310
f 208/328 195/310 211/333
f 196/311 177/292 190/305
f 190/305 189/304 204/324
f 646/963 638/950 636/945
f 631/938 641/954 724/1091
f 204/324 716/1078 214/340
f 19/26 18/25 150/245
f 145/236 147/240 103/151
f 740/1124 770/1161 752/1137
f 752/1136 208/328 211/333
f 757/1142 748/1132 756/1141
f 762/1148 757/1142 756/1141
f 195/310 196/311 209/329
f 762/1148 756/1141 763/1149
f 349/535 762/1148 763/1149
f 196/311 190/305 197/312
f 352/539 349/535 763/1149
f 206/326 204/324 214/340
f 637/948 631/938 643/959
f 748/1132 740/1124 739/1123
f 740/1124 752/1137 741/1125
f 739/1123 740/1124 741/1125
f 741/1125 752/1137 211/334
f 756/1141 748/1132 750/1134
f 750/1134 748/1132 739/1123
f 209/329 211/333 195/310
f 763/1149 756/1141 761/1147
f 209/329 196/311 197/312
f 763/1149 761/1147 765/1151
f 206/326 190/305 204/324
f 197/312 190/305 206/326
f 352/539 763/1149 765/1151
f 729/1101 352/539 765/1151
f 729/1101 765/1151 766/1153
f 750/1134 739/1123 747/1131
f 739/1123 741/1125 742/1126
f 747/1131 739/1123 742/1126
f 756/1141 750/1134 753/1138
f 741/1125 211/334 743/1127
f 211/334 209/330 743/1127
f 753/1138 750/1134 747/1131
f 761/1147 756/1141 753/1138
f 209/329 197/312 771/1162
f 774/1169 197/312 206/326
f 774/1170 214/341 769/1159
f 742/1126 741/1125 743/1127
f 747/1131 742/1126 745/1129
f 745/1129 742/1126 744/1128
f 742/1126 743/1127 744/1128
f 743/1127 209/330 771/1163
f 753/1138 747/1131 745/1129
f 761/1147 753/1138 745/1129
f 761/1147 745/1129 755/1140
f 774/1169 771/1162 197/312
f 765/1151 761/1147 755/1140
f 766/1153 765/1151 755/1140
f 766/1153 755/1140 767/1155
f 745/1129 744/1128 746/1130
f 744/1128 743/1127 771/1163
f 755/1140 745/1129 746/1130
f 746/1130 744/1128 769/1159
f 769/1159 744/1128 771/1163
f 771/1163 774/1170 769/1159
f 755/1140 746/1130 767/1155
f 767/1155 746/1130 769/1159
f 19/26 145/237 21/29
f 68/99 19/26 20/27
f 144/234 145/236 103/151
f 20/27 19/26 21/29
f 21/29 145/237 144/233
f 144/234 103/151 146/238
f 146/238 103/151 149/243
f 161/269 20/27 21/29
f 146/238 149/243 160/266
f 157/260 161/270 158/262
f 158/262 161/270 21/30
f 158/262 21/30 144/235
f 157/260 158/262 159/264
f 158/261 144/234 146/238
f 161/268 157/259 159/263
f 86/125 161/268 159/263
f 159/264 158/262 146/239
f 86/126 159/264 146/239
f 86/126 146/239 160/267

