# SceneSmith visual LOD; original UVs retained
v -1.1 -0.025 0
v -0.5582869 -0.025 0
v -0.5582869 -0.025 2.1
v -1.1 -0.025 0
v -1.1 0.025 0
v -0.5582869 -0.025 0
v -1.1 -0.025 2.5
v -1.1 -0.025 0
v -1.1 -0.025 2.5
v -1.1 0.025 2.5
v 0.3417131 -0.025 2.1
v -0.5582869 0.025 0
v -1.1 0.025 0
v -1.1 0.025 0
v -1.1 0.025 2.5
v -0.5582869 0.025 0
v -0.5582869 0.025 2.1
v -1.1 -0.025 2.5
v 1.1 0.025 2.5
v -1.1 0.025 2.5
v 1.1 0.025 2.5
v 1.1 -0.025 0
v 1.1 -0.025 2.5
v 0.3417131 -0.025 0
v 1.1 -0.025 0
v 0.3417131 -0.025 0
v 0.3417131 0.025 0
v 1.1 -0.025 0
v 1.1 0.025 0
v 1.1 -0.025 2.5
v 1.1 -0.025 2.5
v 1.1 0.025 0
v 1.1 0.025 0
v 0.3417131 0.025 0
v 0.3417131 0.025 2.1
v 1.1 0.025 2.5
v -0.5582869 -0.025 0
v -0.5582869 0.025 0
v -0.5582869 -0.025 2.1
v -0.5582869 0.025 2.1
v 0.3417131 -0.025 2.1
v -0.5582869 -0.025 2.1
v -0.5582869 0.025 2.1
v 0.3417131 0.025 2.1
v 0.3417131 -0.025 0
v 0.3417131 -0.025 2.1
v 0.3417131 0.025 0
v 0.3417131 0.025 2.1
vt -2.2 0
vt -1.116574 0
vt -1.116574 4.2
vt -2.2 -0.04999995
vt -2.2 0.05000001
vt -1.116574 -0.04999995
vt -2.2 5
vt -0.05 0
vt -0.05 5
vt 0.05 5
vt 0.6834261 4.2
vt -1.116574 0.05000001
vt 0.05 0
vt -2.2 0
vt -2.2 5
vt -1.116574 0
vt -1.116574 4.2
vt -2.2 -0.04999995
vt 2.2 0.05000001
vt -2.2 0.05000001
vt 2.2 5
vt 2.2 0
vt 2.2 5
vt 0.6834261 0
vt 2.2 -0.04999995
vt 0.6834261 -0.04999995
vt 0.6834261 0.05000001
vt -0.05 0
vt 0.05 0
vt -0.05 5
vt 2.2 -0.04999995
vt 2.2 0.05000001
vt 2.2 0
vt 0.6834261 0
vt 0.6834261 4.2
vt 0.05 5
vt -0.05 0
vt 0.05 0
vt -0.05 4.2
vt -1.116574 0.05000001
vt 0.6834261 -0.04999995
vt -1.116574 -0.04999995
vt 0.05 4.2
vt 0.05 4.2
vt -0.05 0
vt -0.05 4.2
vt 0.05 0
vt 0.6834261 0.05000001
vn 0 -1 0
vn 0 -1 0
vn 0 -1 0
vn 0 0 -1
vn 0 0 -1
vn 0 0 -1
vn 0 -1 0
vn -1 0 0
vn -1 0 0
vn -1 0 0
vn 0 -1 0
vn 0 0 -1
vn -1 0 0
vn 0 1 0
vn 0 1 0
vn 0 1 0
vn 0 1 0
vn 0 0 1
vn 0 0 1
vn 0 0 1
vn 0 1 0
vn 0 -1 0
vn 0 -1 0
vn 0 -1 0
vn 0 0 -1
vn 0 0 -1
vn 0 0 -1
vn 1 0 0
vn 1 0 0
vn 1 0 0
vn 0 0 1
vn 0 0 -1
vn 0 1 0
vn 0 1 0
vn 0 1 0
vn 1 0 0
vn 1 0 0
vn 1 0 0
vn 1 0 0
vn 0 0 -1
vn 0 0 -1
vn 0 0 -1
vn 1 0 0
vn -1 0 0
vn -1 0 0
vn -1 0 0
vn -1 0 0
vn 0 0 -1
f 1/1/1 2/2/2 3/3/3
f 4/4/4 5/5/5 6/6/6
f 1/1/1 3/3/3 7/7/7
f 8/8/8 9/9/9 10/10/10
f 7/7/7 3/3/3 11/11/11
f 5/5/5 12/12/12 6/6/6
f 8/8/8 10/10/10 13/13/13
f 14/14/14 15/15/15 16/16/16
f 15/15/15 17/17/17 16/16/16
f 18/18/18 19/19/19 20/20/20
f 15/15/15 21/21/21 17/17/17
f 22/22/22 23/23/23 24/24/24
f 25/25/25 26/26/26 27/27/27
f 28/28/28 29/29/29 30/30/30
f 7/7/7 11/11/11 23/23/23
f 18/18/18 31/31/31 19/19/19
f 23/23/23 11/11/11 24/24/24
f 25/25/25 27/27/27 32/32/32
f 33/33/33 34/34/34 35/35/35
f 21/21/21 35/35/35 17/17/17
f 30/30/30 29/29/29 36/36/36
f 33/33/33 35/35/35 21/21/21
f 37/37/37 38/38/38 39/39/39
f 40/40/40 41/41/41 42/42/42
f 39/39/39 38/38/38 43/43/43
f 44/44/44 45/45/45 46/46/46
f 45/45/45 44/44/44 47/47/47
f 40/40/40 48/48/48 41/41/41
