# SceneSmith visual LOD; original UVs retained
v -1.775 -0.025 0
v 1.775 -0.025 0
v -0.08645692 -0.025 0.9
v -0.08645692 -0.025 2.1
v -1.775 -0.025 0
v -1.775 0.025 0
v 1.775 -0.025 0
v -1.775 -0.025 2.5
v -1.775 -0.025 0
v -1.775 -0.025 2.5
v -1.775 0.025 2.5
v 0.9135431 -0.025 2.1
v -1.775 0.025 0
v -1.775 0.025 0
v -1.775 0.025 2.5
v -0.08645692 0.025 0.9
v 0.9135431 0.025 0.9
v -1.775 -0.025 2.5
v 1.775 0.025 2.5
v -1.775 0.025 2.5
v -0.08645692 0.025 2.1
v 1.775 0.025 2.5
v 0.9135431 -0.025 0.9
v 1.775 -0.025 2.5
v 1.775 -0.025 0
v 1.775 0.025 0
v 1.775 -0.025 2.5
v 1.775 -0.025 2.5
v 1.775 0.025 0
v 1.775 0.025 0
v 0.9135431 0.025 2.1
v 1.775 0.025 2.5
v -0.08645692 0.025 0.9
v -0.08645692 -0.025 2.1
v -0.08645692 -0.025 0.9
v -0.08645692 0.025 2.1
v -0.08645692 -0.025 0.9
v 0.9135431 -0.025 0.9
v 0.9135431 0.025 0.9
v -0.08645692 0.025 2.1
v 0.9135431 -0.025 2.1
v -0.08645692 -0.025 2.1
v 0.9135431 0.025 2.1
v 0.9135431 -0.025 0.9
v 0.9135431 -0.025 2.1
v -0.08645692 0.025 0.9
v 0.9135431 0.025 2.1
v 0.9135431 0.025 0.9
vt -3.55 0
vt 3.55 0
vt -0.1729138 1.8
vt -0.1729138 4.2
vt -3.55 -0.04999995
vt -3.55 0.05000001
vt 3.55 -0.04999995
vt -3.55 5
vt -0.05 0
vt -0.05 5
vt 0.05 5
vt 1.827086 4.2
vt 0.05 0
vt -3.55 0
vt -3.55 5
vt -0.1729138 1.8
vt 1.827086 1.8
vt -3.55 -0.04999995
vt 3.55 0.05000001
vt -3.55 0.05000001
vt -0.1729138 4.2
vt 3.55 5
vt 1.827086 1.8
vt 3.55 5
vt -0.05 0
vt 0.05 0
vt -0.05 5
vt 3.55 -0.04999995
vt 3.55 0.05000001
vt 3.55 0
vt 1.827086 4.2
vt 0.05 5
vt 0.05 1.8
vt -0.05 4.2
vt -0.05 1.8
vt 0.05 4.2
vt -0.1729138 -0.04999995
vt 1.827086 -0.04999995
vt 1.827086 0.05000001
vt -0.1729138 0.05000001
vt 1.827086 -0.04999995
vt -0.1729138 -0.04999995
vt 0.05 4.2
vt -0.05 1.8
vt -0.05 4.2
vt -0.1729138 0.05000001
vt 1.827086 0.05000001
vt 0.05 1.8
vn 0 -1 0
vn 0 -1 0
vn 0 -1 0
vn 0 -1 0
vn 0 0 -1
vn 0 0 -1
vn 0 0 -1
vn 0 -1 0
vn -1 0 0
vn -1 0 0
vn -1 0 0
vn 0 -1 0
vn -1 0 0
vn 0 1 0
vn 0 1 0
vn 0 1 0
vn 0 1 0
vn 0 0 1
vn 0 0 1
vn 0 0 1
vn 0 1 0
vn 0 1 0
vn 0 -1 0
vn 0 -1 0
vn 1 0 0
vn 1 0 0
vn 1 0 0
vn 0 0 1
vn 0 0 -1
vn 0 1 0
vn 0 1 0
vn 1 0 0
vn 1 0 0
vn 1 0 0
vn 1 0 0
vn 1 0 0
vn 0 0 1
vn 0 0 1
vn 0 0 1
vn 0 0 -1
vn 0 0 -1
vn 0 0 -1
vn -1 0 0
vn -1 0 0
vn -1 0 0
vn 0 0 1
vn 0 0 -1
vn -1 0 0
f 1/1/1 2/2/2 3/3/3
f 1/1/1 3/3/3 4/4/4
f 5/5/5 6/6/6 7/7/7
f 1/1/1 4/4/4 8/8/8
f 9/9/9 10/10/10 11/11/11
f 8/8/8 4/4/4 12/12/12
f 9/9/9 11/11/11 13/13/13
f 14/14/14 15/15/15 16/16/16
f 14/14/14 16/16/16 17/17/17
f 18/18/18 19/19/19 20/20/20
f 15/15/15 21/21/21 16/16/16
f 15/15/15 22/22/22 21/21/21
f 2/2/2 23/23/23 3/3/3
f 2/2/2 24/24/24 23/23/23
f 25/25/25 26/26/26 27/27/27
f 8/8/8 12/12/12 24/24/24
f 18/18/18 28/28/28 19/19/19
f 24/24/24 12/12/12 23/23/23
f 6/6/6 29/29/29 7/7/7
f 14/14/14 17/17/17 30/30/30
f 30/30/30 17/17/17 31/31/31
f 22/22/22 31/31/31 21/21/21
f 27/27/27 26/26/26 32/32/32
f 30/30/30 31/31/31 22/22/22
f 33/33/33 34/34/34 35/35/35
f 36/36/36 34/34/34 33/33/33
f 37/37/37 38/38/38 39/39/39
f 40/40/40 41/41/41 42/42/42
f 43/43/43 44/44/44 45/45/45
f 39/39/39 46/46/46 37/37/37
f 40/40/40 47/47/47 41/41/41
f 44/44/44 43/43/43 48/48/48
