# SceneSmith visual LOD; original UVs retained
v 0.005 -0.25 0.45
v -0.005 -0.25 0.45
v 0.005 -0.25 -0.45
v 0.005 0.25 -0.45
v 0.005 -0.25 0.45
v 0.005 -0.25 -0.45
v -0.005 -0.25 -0.45
v -0.005 -0.25 -0.45
v 0.005 0.25 -0.45
v 0.005 -0.25 -0.45
v 0.005 -0.25 0.45
v -0.005 0.25 0.45
v -0.005 -0.25 0.45
v 0.005 0.25 0.45
v 0.005 0.25 0.45
v -0.005 -0.25 0.45
v -0.005 0.25 0.45
v -0.005 -0.25 -0.45
v -0.005 0.25 -0.45
v -0.005 0.25 -0.45
v -0.005 0.25 -0.45
v 0.005 0.25 0.45
v 0.005 0.25 -0.45
v -0.005 0.25 0.45
v 0.025 -0.3 -0.5
v 0.025 -0.25 -0.45
v 0.025 -0.25 0.45
v 0.025 0.25 -0.45
v 0.025 -0.3 -0.5
v -0.025 -0.3 -0.5
v 0.025 0.3 -0.5
v 0.025 -0.3 0.5
v 0.025 -0.3 -0.5
v 0.025 -0.3 0.5
v -0.025 -0.3 0.5
v 0.025 0.3 0.5
v -0.025 -0.3 -0.5
v -0.025 -0.3 -0.5
v -0.025 -0.3 0.5
v -0.025 -0.25 -0.45
v -0.025 0.3 -0.5
v -0.025 -0.25 0.45
v 0.025 -0.3 0.5
v -0.025 0.3 0.5
v -0.025 -0.3 0.5
v -0.025 0.25 0.45
v 0.025 0.3 -0.5
v 0.025 0.3 -0.5
v -0.025 0.3 -0.5
v 0.025 0.3 0.5
v 0.025 0.25 0.45
v 0.025 0.3 0.5
v -0.025 0.3 -0.5
v -0.025 0.25 -0.45
v -0.025 0.3 0.5
v -0.025 0.3 0.5
v -0.025 -0.25 -0.45
v 0.025 -0.25 0.45
v 0.025 -0.25 -0.45
v -0.025 -0.25 0.45
v 0.025 0.25 0.45
v 0.025 -0.25 0.45
v -0.025 0.25 -0.45
v -0.025 -0.25 -0.45
v 0.025 -0.25 -0.45
v -0.025 -0.25 0.45
v 0.025 0.25 -0.45
v -0.025 0.25 0.45
v 0.025 0.25 -0.45
v 0.025 0.25 0.45
v -0.025 0.25 -0.45
v -0.025 0.25 0.45
vt 0.5645833 0.3482143
vt 0.5645833 0.3482143
vt 0.5645833 0.3482143
vt 0.5645833 0.3482143
vt 0.5645833 0.3482143
vt 0.5645833 0.3482143
vt 0.5645833 0.3482143
vt 0.5645833 0.3482143
vt 0.5645833 0.3482143
vt 0.5645833 0.3482143
vt 0.5645833 0.3482143
vt 0.5645833 0.3482143
vt 0.5645833 0.3482143
vt 0.5645833 0.3482143
vt 0.5645833 0.3482143
vt 0.5645833 0.3482143
vt 0.5645833 0.3482143
vt 0.5645833 0.3482143
vt 0.5645833 0.3482143
vt 0.5645833 0.3482143
vt 0.5645833 0.3482143
vt 0.5645833 0.3482143
vt 0.5645833 0.3482143
vt 0.5645833 0.3482143
vt 0.1645833 0.3482143
vt 0.1645833 0.3482143
vt 0.1645833 0.3482143
vt 0.1645833 0.3482143
vt 0.1645833 0.3482143
vt 0.1645833 0.3482143
vt 0.1645833 0.3482143
vt 0.1645833 0.3482143
vt 0.1645833 0.3482143
vt 0.1645833 0.3482143
vt 0.1645833 0.3482143
vt 0.1645833 0.3482143
vt 0.1645833 0.3482143
vt 0.1645833 0.3482143
vt 0.1645833 0.3482143
vt 0.1645833 0.3482143
vt 0.1645833 0.3482143
vt 0.1645833 0.3482143
vt 0.1645833 0.3482143
vt 0.1645833 0.3482143
vt 0.1645833 0.3482143
vt 0.1645833 0.3482143
vt 0.1645833 0.3482143
vt 0.1645833 0.3482143
vt 0.1645833 0.3482143
vt 0.1645833 0.3482143
vt 0.1645833 0.3482143
vt 0.1645833 0.3482143
vt 0.1645833 0.3482143
vt 0.1645833 0.3482143
vt 0.1645833 0.3482143
vt 0.1645833 0.3482143
vt 0.1645833 0.3482143
vt 0.1645833 0.3482143
vt 0.1645833 0.3482143
vt 0.1645833 0.3482143
vt 0.1645833 0.3482143
vt 0.1645833 0.3482143
vt 0.1645833 0.3482143
vt 0.1645833 0.3482143
vt 0.1645833 0.3482143
vt 0.1645833 0.3482143
vt 0.1645833 0.3482143
vt 0.1645833 0.3482143
vt 0.1645833 0.3482143
vt 0.1645833 0.3482143
vt 0.1645833 0.3482143
vt 0.1645833 0.3482143
vn 0 -1 0
vn 0 -1 0
vn 0 -1 0
vn 1 0 0
vn 1 0 0
vn 1 0 0
vn 0 -1 0
vn 0 0 -1
vn 0 0 -1
vn 0 0 -1
vn 0 0 1
vn 0 0 1
vn 0 0 1
vn 1 0 0
vn 0 0 1
vn -1 0 0
vn -1 0 0
vn -1 0 0
vn 0 0 -1
vn -1 0 0
vn 0 1 0
vn 0 1 0
vn 0 1 0
vn 0 1 0
vn 1 0 0
vn 1 0 0
vn 1 0 0
vn 1 0 0
vn 0 0 -1
vn 0 0 -1
vn 0 0 -1
vn 1 0 0
vn 0 -1 0
vn 0 -1 0
vn 0 -1 0
vn 1 0 0
vn 0 -1 0
vn -1 0 0
vn -1 0 0
vn -1 0 0
vn -1 0 0
vn -1 0 0
vn 0 0 1
vn 0 0 1
vn 0 0 1
vn -1 0 0
vn 1 0 0
vn 0 1 0
vn 0 1 0
vn 0 1 0
vn 1 0 0
vn 0 0 1
vn 0 0 -1
vn -1 0 0
vn -1 0 0
vn 0 1 0
vn 0 1 0
vn 0 1 0
vn 0 1 0
vn 0 0 -1
vn 0 0 -1
vn 0 0 -1
vn 0 0 1
vn 0 0 1
vn 0 0 1
vn 0 1 0
vn 0 0 1
vn 0 -1 0
vn 0 -1 0
vn 0 -1 0
vn 0 -1 0
vn 0 0 -1
f 1/1/1 2/2/2 3/3/3
f 4/4/4 5/5/5 6/6/6
f 3/3/3 2/2/2 7/7/7
f 8/8/8 9/9/9 10/10/10
f 11/11/11 12/12/12 13/13/13
f 14/14/14 5/5/5 4/4/4
f 15/15/15 12/12/12 11/11/11
f 16/16/16 17/17/17 18/18/18
f 19/19/19 9/9/9 8/8/8
f 18/18/18 17/17/17 20/20/20
f 21/21/21 22/22/22 23/23/23
f 24/24/24 22/22/22 21/21/21
f 25/25/25 26/26/26 27/27/27
f 25/25/25 28/28/28 26/26/26
f 29/29/29 30/30/30 31/31/31
f 25/25/25 27/27/27 32/32/32
f 33/33/33 34/34/34 35/35/35
f 32/32/32 27/27/27 36/36/36
f 33/33/33 35/35/35 37/37/37
f 38/38/38 39/39/39 40/40/40
f 38/38/38 40/40/40 41/41/41
f 39/39/39 42/42/42 40/40/40
f 43/43/43 44/44/44 45/45/45
f 39/39/39 46/46/46 42/42/42
f 25/25/25 47/47/47 28/28/28
f 47/47/47 36/36/36 28/28/28
f 48/48/48 49/49/49 50/50/50
f 36/36/36 27/27/27 51/51/51
f 43/43/43 52/52/52 44/44/44
f 36/36/36 51/51/51 28/28/28
f 30/30/30 53/53/53 31/31/31
f 41/41/41 40/40/40 54/54/54
f 41/41/41 54/54/54 46/46/46
f 39/39/39 55/55/55 46/46/46
f 50/50/50 49/49/49 56/56/56
f 41/41/41 46/46/46 55/55/55
f 57/57/57 58/58/58 59/59/59
f 60/60/60 61/61/61 62/62/62
f 63/63/63 64/64/64 65/65/65
f 58/58/58 57/57/57 66/66/66
f 65/65/65 67/67/67 63/63/63
f 68/68/68 69/69/69 70/70/70
f 69/69/69 68/68/68 71/71/71
f 60/60/60 72/72/72 61/61/61
