# SceneSmith visual LOD; original UVs retained
v -2.325 -0.025 0
v -1.467515 -0.025 0.9
v -1.467515 -0.025 2.1
v 2.325 -0.025 0
v -2.325 -0.025 0
v -2.325 0.025 0
v 2.325 -0.025 0
v -1.467515 -0.025 0.9
v -0.2675153 -0.025 0.9
v -0.2675153 0.025 0.9
v -2.325 -0.025 2.5
v -2.325 -0.025 0
v -2.325 -0.025 2.5
v -2.325 0.025 2.5
v -1.467515 -0.025 0.9
v -1.467515 0.025 0.9
v -1.467515 -0.025 2.1
v -0.2675153 -0.025 0.9
v 0.4246447 -0.025 2.1
v -0.2675153 -0.025 2.1
v 2.325 -0.025 2.5
v -0.2675153 -0.025 0.9
v -0.2675153 -0.025 2.1
v -0.2675153 0.025 2.1
v -1.467515 -0.025 2.1
v -1.467515 0.025 2.1
v -0.2675153 -0.025 2.1
v -2.325 0.025 0
v -2.325 0.025 0
v -1.467515 0.025 0.9
v -0.2675153 0.025 0.9
v -2.325 0.025 2.5
v -1.467515 0.025 0.9
v 2.325 0.025 0
v -1.467515 0.025 2.1
v -1.467515 0.025 2.1
v -0.2675153 0.025 0.9
v -0.2675153 0.025 2.1
v -2.325 -0.025 2.5
v 2.325 0.025 2.5
v -2.325 0.025 2.5
v -0.2675153 0.025 2.1
v 0.4246447 0.025 0.9
v 2.325 0.025 2.5
v 0.4246447 -0.025 0.9
v 1.624645 -0.025 0.9
v 2.325 -0.025 0
v 2.325 0.025 0
v 2.325 -0.025 2.5
v 2.325 -0.025 2.5
v 1.624645 -0.025 2.1
v 2.325 0.025 0
v 1.624645 0.025 0.9
v 0.4246447 0.025 2.1
v 2.325 0.025 2.5
v 1.624645 0.025 2.1
v 0.4246447 -0.025 0.9
v 1.624645 -0.025 0.9
v 1.624645 0.025 0.9
v 0.4246447 -0.025 0.9
v 0.4246447 0.025 0.9
v 0.4246447 -0.025 2.1
v 0.4246447 -0.025 2.1
v 0.4246447 0.025 2.1
v 1.624645 -0.025 2.1
v 1.624645 -0.025 0.9
v 1.624645 -0.025 2.1
v 1.624645 0.025 2.1
v 0.4246447 0.025 0.9
v 0.4246447 0.025 2.1
v 1.624645 0.025 0.9
v 1.624645 0.025 2.1
vt -4.65 0
vt -2.935031 1.8
vt -2.935031 4.2
vt 4.65 0
vt -4.65 -0.04999995
vt -4.65 0.05000001
vt 4.65 -0.04999995
vt -2.935031 -0.04999995
vt -0.5350306 -0.04999995
vt -0.5350306 0.05000001
vt -4.65 5
vt -0.05 0
vt -0.05 5
vt 0.05 5
vt -0.05 1.8
vt 0.05 1.8
vt -0.05 4.2
vt -0.5350306 1.8
vt 0.8492894 4.2
vt -0.5350306 4.2
vt 4.65 5
vt -0.05 1.8
vt -0.05 4.2
vt 0.05 4.2
vt -2.935031 -0.04999995
vt -2.935031 0.05000001
vt -0.5350306 -0.04999995
vt 0.05 0
vt -4.65 0
vt -2.935031 1.8
vt -0.5350306 1.8
vt -4.65 5
vt -2.935031 0.05000001
vt 4.65 0
vt 0.05 4.2
vt -2.935031 4.2
vt 0.05 1.8
vt -0.5350306 0.05000001
vt -4.65 -0.04999995
vt 4.65 0.05000001
vt -4.65 0.05000001
vt -0.5350306 4.2
vt 0.8492894 1.8
vt 4.65 5
vt 0.8492894 1.8
vt 3.249289 1.8
vt -0.05 0
vt 0.05 0
vt -0.05 5
vt 4.65 -0.04999995
vt 3.249289 4.2
vt 4.65 0.05000001
vt 3.249289 1.8
vt 0.8492894 4.2
vt 0.05 5
vt 3.249289 4.2
vt 0.8492894 -0.04999995
vt 3.249289 -0.04999995
vt 3.249289 0.05000001
vt -0.05 1.8
vt 0.05 1.8
vt -0.05 4.2
vt 0.8492894 -0.04999995
vt 0.8492894 0.05000001
vt 3.249289 -0.04999995
vt -0.05 1.8
vt -0.05 4.2
vt 0.05 4.2
vt 0.8492894 0.05000001
vt 0.05 4.2
vt 0.05 1.8
vt 3.249289 0.05000001
vn 0 -1 0
vn 0 -1 0
vn 0 -1 0
vn 0 -1 0
vn 0 0 -1
vn 0 0 -1
vn 0 0 -1
vn 0 0 1
vn 0 0 1
vn 0 0 1
vn 0 -1 0
vn -1 0 0
vn -1 0 0
vn -1 0 0
vn 1 0 0
vn 1 0 0
vn 1 0 0
vn 0 -1 0
vn 0 -1 0
vn 0 -1 0
vn 0 -1 0
vn -1 0 0
vn -1 0 0
vn -1 0 0
vn 0 0 -1
vn 0 0 -1
vn 0 0 -1
vn -1 0 0
vn 0 1 0
vn 0 1 0
vn 0 1 0
vn 0 1 0
vn 0 0 1
vn 0 1 0
vn 1 0 0
vn 0 1 0
vn -1 0 0
vn 0 0 -1
vn 0 0 1
vn 0 0 1
vn 0 0 1
vn 0 1 0
vn 0 1 0
vn 0 1 0
vn 0 -1 0
vn 0 -1 0
vn 1 0 0
vn 1 0 0
vn 1 0 0
vn 0 0 1
vn 0 -1 0
vn 0 0 -1
vn 0 1 0
vn 0 1 0
vn 1 0 0
vn 0 1 0
vn 0 0 1
vn 0 0 1
vn 0 0 1
vn 1 0 0
vn 1 0 0
vn 1 0 0
vn 0 0 -1
vn 0 0 -1
vn 0 0 -1
vn -1 0 0
vn -1 0 0
vn -1 0 0
vn 0 0 1
vn 1 0 0
vn -1 0 0
vn 0 0 -1
f 1/1/1 2/2/2 3/3/3
f 1/1/1 4/4/4 2/2/2
f 5/5/5 6/6/6 7/7/7
f 8/8/8 9/9/9 10/10/10
f 1/1/1 3/3/3 11/11/11
f 12/12/12 13/13/13 14/14/14
f 15/15/15 16/16/16 17/17/17
f 18/18/18 19/19/19 20/20/20
f 11/11/11 3/3/3 21/21/21
f 22/22/22 23/23/23 24/24/24
f 25/25/25 26/26/26 27/27/27
f 12/12/12 14/14/14 28/28/28
f 29/29/29 30/30/30 31/31/31
f 29/29/29 32/32/32 30/30/30
f 8/8/8 10/10/10 33/33/33
f 29/29/29 31/31/31 34/34/34
f 17/17/17 16/16/16 35/35/35
f 30/30/30 32/32/32 36/36/36
f 22/22/22 24/24/24 37/37/37
f 27/27/27 26/26/26 38/38/38
f 39/39/39 40/40/40 41/41/41
f 31/31/31 42/42/42 43/43/43
f 32/32/32 44/44/44 36/36/36
f 2/2/2 4/4/4 18/18/18
f 18/18/18 4/4/4 45/45/45
f 4/4/4 46/46/46 45/45/45
f 4/4/4 21/21/21 46/46/46
f 47/47/47 48/48/48 49/49/49
f 18/18/18 45/45/45 19/19/19
f 3/3/3 20/20/20 21/21/21
f 20/20/20 19/19/19 21/21/21
f 39/39/39 50/50/50 40/40/40
f 21/21/21 51/51/51 46/46/46
f 21/21/21 19/19/19 51/51/51
f 6/6/6 52/52/52 7/7/7
f 31/31/31 43/43/43 34/34/34
f 34/34/34 43/43/43 53/53/53
f 34/34/34 53/53/53 44/44/44
f 42/42/42 54/54/54 43/43/43
f 36/36/36 44/44/44 42/42/42
f 42/42/42 44/44/44 54/54/54
f 49/49/49 48/48/48 55/55/55
f 44/44/44 53/53/53 56/56/56
f 44/44/44 56/56/56 54/54/54
f 57/57/57 58/58/58 59/59/59
f 60/60/60 61/61/61 62/62/62
f 63/63/63 64/64/64 65/65/65
f 66/66/66 67/67/67 68/68/68
f 59/59/59 69/69/69 57/57/57
f 62/62/62 61/61/61 70/70/70
f 66/66/66 68/68/68 71/71/71
f 64/64/64 72/72/72 65/65/65
