# SceneSmith visual LOD; original UVs retained
v -2 -0.025 0
v -1.561565 -0.025 0
v -1.561565 -0.025 2.1
v -2 -0.025 0
v -2 0.025 0
v -1.561565 -0.025 0
v -1.561565 -0.025 0
v -1.561565 0.025 0
v -1.561565 -0.025 2.1
v -0.6615651 -0.025 0
v 0.2817131 -0.025 0
v 0.2817131 -0.025 2.1
v -0.6615651 -0.025 0
v -0.6615651 0.025 0
v 0.2817131 -0.025 0
v -2 -0.025 2.5
v -0.6615651 -0.025 2.1
v -2 -0.025 0
v -2 -0.025 2.5
v -2 0.025 2.5
v -1.561565 -0.025 2.1
v -1.561565 0.025 2.1
v -0.6615651 -0.025 2.1
v 2 -0.025 2.5
v -0.6615651 -0.025 0
v -0.6615651 -0.025 2.1
v -0.6615651 0.025 2.1
v -1.561565 0.025 0
v -2 0.025 0
v -2 0.025 0
v -2 0.025 2.5
v -1.561565 0.025 0
v 0.2817131 0.025 0
v -0.6615651 0.025 0
v -0.6615651 0.025 0
v -0.6615651 0.025 2.1
v 0.2817131 0.025 0
v -1.561565 0.025 2.1
v -1.561565 0.025 2.1
v -0.6615651 0.025 2.1
v -2 -0.025 2.5
v 2 0.025 2.5
v -2 0.025 2.5
v 0.2817131 0.025 2.1
v 2 0.025 2.5
v 2 -0.025 0
v 1.181713 -0.025 0
v 2 -0.025 0
v 1.181713 -0.025 0
v 1.181713 0.025 0
v 2 -0.025 0
v 2 0.025 0
v 2 -0.025 2.5
v 2 -0.025 2.5
v 1.181713 -0.025 2.1
v 2 0.025 0
v 2 0.025 0
v 1.181713 0.025 0
v 1.181713 0.025 2.1
v 2 0.025 2.5
v 0.2817131 -0.025 0
v 0.2817131 0.025 0
v 0.2817131 -0.025 2.1
v 0.2817131 -0.025 2.1
v 0.2817131 0.025 2.1
v 1.181713 -0.025 2.1
v 1.181713 -0.025 0
v 1.181713 -0.025 2.1
v 1.181713 0.025 2.1
v 1.181713 0.025 0
v 0.2817131 0.025 2.1
v 1.181713 0.025 2.1
vt -4 0
vt -3.12313 0
vt -3.12313 4.2
vt -4 -0.04999995
vt -4 0.05000001
vt -3.12313 -0.04999995
vt -0.05 0
vt 0.05 0
vt -0.05 4.2
vt -1.32313 0
vt 0.5634262 0
vt 0.5634262 4.2
vt -1.32313 -0.04999995
vt -1.32313 0.05000001
vt 0.5634262 -0.04999995
vt -4 5
vt -1.32313 4.2
vt -0.05 0
vt -0.05 5
vt 0.05 5
vt -3.12313 -0.04999995
vt -3.12313 0.05000001
vt -1.32313 -0.04999995
vt 4 5
vt -0.05 0
vt -0.05 4.2
vt 0.05 4.2
vt -3.12313 0.05000001
vt 0.05 0
vt -4 0
vt -4 5
vt -3.12313 0
vt 0.5634262 0.05000001
vt 0.05 0
vt -1.32313 0
vt -1.32313 4.2
vt 0.5634262 0
vt 0.05 4.2
vt -3.12313 4.2
vt -1.32313 0.05000001
vt -4 -0.04999995
vt 4 0.05000001
vt -4 0.05000001
vt 0.5634262 4.2
vt 4 5
vt 4 0
vt 2.363426 0
vt 4 -0.04999995
vt 2.363426 -0.04999995
vt 2.363426 0.05000001
vt -0.05 0
vt 0.05 0
vt -0.05 5
vt 4 -0.04999995
vt 2.363426 4.2
vt 4 0.05000001
vt 4 0
vt 2.363426 0
vt 2.363426 4.2
vt 0.05 5
vt -0.05 0
vt 0.05 0
vt -0.05 4.2
vt 0.5634262 -0.04999995
vt 0.5634262 0.05000001
vt 2.363426 -0.04999995
vt -0.05 0
vt -0.05 4.2
vt 0.05 4.2
vt 0.05 0
vt 0.05 4.2
vt 2.363426 0.05000001
vn 0 -1 0
vn 0 -1 0
vn 0 -1 0
vn 0 0 -1
vn 0 0 -1
vn 0 0 -1
vn 1 0 0
vn 1 0 0
vn 1 0 0
vn 0 -1 0
vn 0 -1 0
vn 0 -1 0
vn 0 0 -1
vn 0 0 -1
vn 0 0 -1
vn 0 -1 0
vn 0 -1 0
vn -1 0 0
vn -1 0 0
vn -1 0 0
vn 0 0 -1
vn 0 0 -1
vn 0 0 -1
vn 0 -1 0
vn -1 0 0
vn -1 0 0
vn -1 0 0
vn 0 0 -1
vn -1 0 0
vn 0 1 0
vn 0 1 0
vn 0 1 0
vn 0 0 -1
vn -1 0 0
vn 0 1 0
vn 0 1 0
vn 0 1 0
vn 1 0 0
vn 0 1 0
vn 0 0 -1
vn 0 0 1
vn 0 0 1
vn 0 0 1
vn 0 1 0
vn 0 1 0
vn 0 -1 0
vn 0 -1 0
vn 0 0 -1
vn 0 0 -1
vn 0 0 -1
vn 1 0 0
vn 1 0 0
vn 1 0 0
vn 0 0 1
vn 0 -1 0
vn 0 0 -1
vn 0 1 0
vn 0 1 0
vn 0 1 0
vn 1 0 0
vn 1 0 0
vn 1 0 0
vn 1 0 0
vn 0 0 -1
vn 0 0 -1
vn 0 0 -1
vn -1 0 0
vn -1 0 0
vn -1 0 0
vn -1 0 0
vn 1 0 0
vn 0 0 -1
f 1/1/1 2/2/2 3/3/3
f 4/4/4 5/5/5 6/6/6
f 7/7/7 8/8/8 9/9/9
f 10/10/10 11/11/11 12/12/12
f 13/13/13 14/14/14 15/15/15
f 1/1/1 3/3/3 16/16/16
f 3/3/3 17/17/17 16/16/16
f 18/18/18 19/19/19 20/20/20
f 21/21/21 22/22/22 23/23/23
f 10/10/10 12/12/12 17/17/17
f 16/16/16 17/17/17 24/24/24
f 25/25/25 26/26/26 27/27/27
f 6/6/6 5/5/5 28/28/28
f 18/18/18 20/20/20 29/29/29
f 30/30/30 31/31/31 32/32/32
f 14/14/14 33/33/33 15/15/15
f 25/25/25 27/27/27 34/34/34
f 35/35/35 36/36/36 37/37/37
f 9/9/9 8/8/8 38/38/38
f 32/32/32 31/31/31 39/39/39
f 23/23/23 22/22/22 40/40/40
f 41/41/41 42/42/42 43/43/43
f 36/36/36 44/44/44 37/37/37
f 39/39/39 31/31/31 45/45/45
f 39/39/39 45/45/45 36/36/36
f 46/46/46 24/24/24 47/47/47
f 48/48/48 49/49/49 50/50/50
f 51/51/51 52/52/52 53/53/53
f 17/17/17 12/12/12 24/24/24
f 41/41/41 54/54/54 42/42/42
f 24/24/24 55/55/55 47/47/47
f 24/24/24 12/12/12 55/55/55
f 48/48/48 50/50/50 56/56/56
f 57/57/57 58/58/58 59/59/59
f 36/36/36 45/45/45 44/44/44
f 53/53/53 52/52/52 60/60/60
f 57/57/57 59/59/59 45/45/45
f 45/45/45 59/59/59 44/44/44
f 61/61/61 62/62/62 63/63/63
f 64/64/64 65/65/65 66/66/66
f 67/67/67 68/68/68 69/69/69
f 70/70/70 67/67/67 69/69/69
f 63/63/63 62/62/62 71/71/71
f 65/65/65 72/72/72 66/66/66
