# SceneSmith visual LOD; original UVs retained
v -1.1 -0.025 0
v -0.6327762 -0.025 1.5
v -0.6327762 -0.025 2.1
v 1.1 -0.025 0
v -1.1 -0.025 0
v -1.1 0.025 0
v 1.1 -0.025 0
v -1.1 -0.025 2.6
v -0.03277623 -0.025 2.1
v -1.1 -0.025 0
v -1.1 -0.025 2.6
v -1.1 0.025 2.6
v 1.1 -0.025 2.6
v -1.1 0.025 0
v -1.1 0.025 0
v -0.6327762 0.025 1.5
v -0.03277623 0.025 1.5
v -1.1 0.025 2.6
v -0.6327762 0.025 2.1
v -0.03277623 0.025 2.1
v -1.1 -0.025 2.6
v 1.1 0.025 2.6
v -1.1 0.025 2.6
v 1.1 0.025 2.6
v -0.03277623 -0.025 1.5
v 1.1 -0.025 0
v 1.1 0.025 0
v 1.1 -0.025 2.6
v 1.1 -0.025 2.6
v 1.1 0.025 0
v 1.1 0.025 0
v 1.1 0.025 2.6
v -0.6327762 -0.025 1.5
v -0.6327762 0.025 1.5
v -0.6327762 -0.025 2.1
v -0.6327762 -0.025 1.5
v -0.03277623 -0.025 1.5
v -0.03277623 0.025 1.5
v -0.03277623 0.025 2.1
v -0.03277623 -0.025 1.5
v -0.03277623 -0.025 2.1
v -0.6327762 0.025 2.1
v -0.03277623 -0.025 2.1
v -0.6327762 -0.025 2.1
v -0.6327762 0.025 2.1
v -0.6327762 0.025 1.5
v -0.03277623 0.025 1.5
v -0.03277623 0.025 2.1
vt -2.2 0
vt -1.265552 3
vt -1.265552 4.2
vt 2.2 0
vt -2.2 -0.04999995
vt -2.2 0.05000001
vt 2.2 -0.04999995
vt -2.2 5.2
vt -0.06555246 4.2
vt -0.05 0
vt -0.05 5.2
vt 0.05 5.2
vt 2.2 5.2
vt 0.05 0
vt -2.2 0
vt -1.265552 3
vt -0.06555246 3
vt -2.2 5.2
vt -1.265552 4.2
vt -0.06555246 4.2
vt -2.2 -0.04999995
vt 2.2 0.05000001
vt -2.2 0.05000001
vt 2.2 5.2
vt -0.06555246 3
vt -0.05 0
vt 0.05 0
vt -0.05 5.2
vt 2.2 -0.04999995
vt 2.2 0.05000001
vt 2.2 0
vt 0.05 5.2
vt -0.05 3
vt 0.05 3
vt -0.05 4.2
vt -1.265552 -0.04999995
vt -0.06555246 -0.04999995
vt -0.06555246 0.05000001
vt 0.05 4.2
vt -0.05 3
vt -0.05 4.2
vt -1.265552 0.05000001
vt -0.06555246 -0.04999995
vt -1.265552 -0.04999995
vt 0.05 4.2
vt -1.265552 0.05000001
vt 0.05 3
vt -0.06555246 0.05000001
vn 0 -1 0
vn 0 -1 0
vn 0 -1 0
vn 0 -1 0
vn 0 0 -1
vn 0 0 -1
vn 0 0 -1
vn 0 -1 0
vn 0 -1 0
vn -1 0 0
vn -1 0 0
vn -1 0 0
vn 0 -1 0
vn -1 0 0
vn 0 1 0
vn 0 1 0
vn 0 1 0
vn 0 1 0
vn 0 1 0
vn 0 1 0
vn 0 0 1
vn 0 0 1
vn 0 0 1
vn 0 1 0
vn 0 -1 0
vn 1 0 0
vn 1 0 0
vn 1 0 0
vn 0 0 1
vn 0 0 -1
vn 0 1 0
vn 1 0 0
vn 1 0 0
vn 1 0 0
vn 1 0 0
vn 0 0 1
vn 0 0 1
vn 0 0 1
vn -1 0 0
vn -1 0 0
vn -1 0 0
vn 0 0 -1
vn 0 0 -1
vn 0 0 -1
vn 1 0 0
vn 0 0 1
vn -1 0 0
vn 0 0 -1
f 1/1/1 2/2/2 3/3/3
f 1/1/1 4/4/4 2/2/2
f 5/5/5 6/6/6 7/7/7
f 1/1/1 3/3/3 8/8/8
f 8/8/8 3/3/3 9/9/9
f 10/10/10 11/11/11 12/12/12
f 8/8/8 9/9/9 13/13/13
f 10/10/10 12/12/12 14/14/14
f 15/15/15 16/16/16 17/17/17
f 15/15/15 18/18/18 16/16/16
f 18/18/18 19/19/19 16/16/16
f 18/18/18 20/20/20 19/19/19
f 21/21/21 22/22/22 23/23/23
f 15/15/15 17/17/17 24/24/24
f 18/18/18 24/24/24 20/20/20
f 4/4/4 25/25/25 2/2/2
f 26/26/26 27/27/27 28/28/28
f 13/13/13 9/9/9 25/25/25
f 21/21/21 29/29/29 22/22/22
f 4/4/4 13/13/13 25/25/25
f 6/6/6 30/30/30 7/7/7
f 15/15/15 24/24/24 31/31/31
f 24/24/24 17/17/17 20/20/20
f 28/28/28 27/27/27 32/32/32
f 33/33/33 34/34/34 35/35/35
f 36/36/36 37/37/37 38/38/38
f 39/39/39 40/40/40 41/41/41
f 42/42/42 43/43/43 44/44/44
f 35/35/35 34/34/34 45/45/45
f 38/38/38 46/46/46 36/36/36
f 47/47/47 40/40/40 39/39/39
f 42/42/42 48/48/48 43/43/43
