# SceneSmith visual LOD; original UVs retained
v -0.02441631 0.1478769 0.0274135
v 0.00026649 0.1501447 0.02648376
v -0.02570092 0.1477087 0.0003774
v 0.00026649 0.1501447 0.02648376
v -0.00048114 0.1506381 0.00171788
v 0.00026649 0.1501447 0.02648376
v 0.06507047 0.1346276 0.02713284
v -0.00048114 0.1506381 0.00171788
v 0.06285324 0.1359622 0.00049441
v -0.02441631 0.1478769 0.0274135
v 0.06507047 0.1346276 0.02713284
v 0.00026649 0.1501447 0.02648376
v -0.08883464 0.1206266 0.02747924
v -0.02441631 0.1478769 0.0274135
v -0.08957745 0.1199493 0.00053651
v 0.06507047 0.1346276 0.02713284
v 0.08281392 0.1240257 0.00051511
v 0.06285324 0.1359622 0.00049441
v 0.06507047 0.1346276 0.02713284
v 0.09357145 0.1154672 0.02747704
v -0.0407754 0.1141839 1.470285
v -0.0000173 0.1194519 1.472592
v 0.02615479 0.1185455 1.463405
v 0.00090645 0.11995 1.283376
v -0.03884234 0.1138678 1.28387
v -0.08883464 0.1206266 0.02747924
v 0.09357145 0.1154672 0.02747704
v 0.04461965 0.1121065 1.284069
v 0.00090645 0.11995 1.283376
v 0.1022967 0.1083394 0.00054642
v 0.08281392 0.1240257 0.00051511
v -0.0000173 0.1194519 1.472592
v 0.03439309 0.1155945 1.471425
v 0.02615479 0.1185455 1.463405
v 0.03439309 0.1155945 1.471425
v 0.04451893 0.113017 1.463565
v 0.02615479 0.1185455 1.463405
v 0.02615479 0.1185455 1.463405
v 0.04451893 0.113017 1.463565
v 0.04444149 0.1126889 1.31789
v 0.04444149 0.1126889 1.31789
v 0.1085498 0.1023584 0.02436141
v 0.1022967 0.1083394 0.00054642
v -0.06583796 0.1008247 1.470506
v -0.07345846 0.09261312 1.472726
v -0.0407754 0.1141839 1.470285
v -0.0751532 0.09347906 1.284267
v -0.03884234 0.1138678 1.28387
v -0.03884234 0.1138678 1.28387
v -0.05866918 0.09580832 1.286651
v -0.0407754 0.1141839 1.470285
v 0.00679363 0.1113967 1.470958
v -0.0000173 0.1194519 1.472592
v 0.00679363 0.1113967 1.470958
v 0.0284627 0.1069176 1.469898
v 0.03439309 0.1155945 1.471425
v 0.05519608 0.1067387 1.470917
v 0.04451893 0.113017 1.463565
v -0.1183053 0.09201293 0.02739017
v -0.1438134 0.04184984 0.02759843
v -0.08883464 0.1206266 0.02747924
v -0.0281524 0.106697 1.470048
v 0.0284627 0.1069176 1.469898
v 0.05631765 0.09632313 1.470207
v 0.03439309 0.1155945 1.471425
v 0.04451893 0.113017 1.463565
v 0.05519608 0.1067387 1.470917
v 0.04444149 0.1126889 1.31789
v 0.04444149 0.1126889 1.31789
v 0.06559128 0.1007947 1.283904
v 0.04444149 0.1126889 1.31789
v 0.04461965 0.1121065 1.284069
v 0.07078244 0.09641695 1.471658
v 0.05519608 0.1067387 1.470917
v 0.09357145 0.1154672 0.02747704
v 0.1176856 0.09164499 0.02702316
v 0.1085498 0.1023584 0.02436141
v 0.1085498 0.1023584 0.02436141
v 0.1304685 0.07225144 0.00052528
v 0.1022967 0.1083394 0.00054642
v -0.07832829 0.07842164 1.466752
v -0.0281524 0.106697 1.470048
v 0.07078244 0.09641695 1.471658
v -0.08962459 0.08164188 1.469821
v -0.07345846 0.09261312 1.472726
v 0.08084334 0.08891249 1.284207
v 0.1085498 0.1023584 0.02436141
v 0.1176856 0.09164499 0.02702316
v -0.0751532 0.09347906 1.284267
v -0.09010545 0.07917693 1.284927
v -0.1018196 0.06487284 1.470011
v -0.07345846 0.09261312 1.472726
v 0.05631765 0.09632313 1.470207
v 0.09014302 0.07596911 1.473006
v 0.09014302 0.07596911 1.473006
v 0.07078244 0.09641695 1.471658
v 0.1003937 0.06750947 1.469845
v -0.1438134 0.04184984 0.02759843
v -0.1183053 0.09201293 0.02739017
v -0.1249996 0.08269683 0.00059667
v -0.07629824 0.08115703 1.30988
v -0.09560944 0.05866773 1.285963
v -0.05866918 0.09580832 1.286651
v 0.08117315 0.07745203 1.471073
v 0.09014302 0.07596911 1.473006
v 0.09014302 0.07596911 1.473006
v 0.1067873 0.05460842 1.283847
v 0.08084334 0.08891249 1.284207
v 0.1344685 0.06396215 0.02734921
v 0.1176856 0.09164499 0.02702316
v -0.09037778 0.06340484 1.47048
v -0.07345846 0.09261312 1.472726
v -0.07345846 0.09261312 1.472726
v -0.07513777 0.0814763 1.396379
v -0.09560944 0.05866773 1.285963
v -0.07629824 0.08115703 1.30988
v 0.08117315 0.07745203 1.471073
v 0.1015614 0.04482105 1.470919
v 0.09014302 0.07596911 1.473006
v 0.1176856 0.09164499 0.02702316
v 0.1344685 0.06396215 0.02734921
v -0.1018196 0.06487284 1.470011
v -0.1131503 0.04324935 1.470384
v -0.07832829 0.07842164 1.466752
v -0.09037778 0.06340484 1.47048
v -0.09560944 0.05866773 1.285963
v -0.1061708 0.03649009 1.286418
v -0.1117767 0.04508192 1.284583
v -0.09560944 0.05866773 1.285963
v -0.09979253 0.0670734 1.284466
v -0.1026441 0.04203801 1.466692
v 0.1146156 0.036394 1.47147
v 0.1067873 0.05460842 1.283847
v 0.1003937 0.06750947 1.469845
v -0.1061708 0.03649009 1.286418
v 0.01020462 0.01852135 0.02756146
v 0.09014302 0.07596911 1.473006
v 0.1146156 0.036394 1.47147
v -0.1131503 0.04324935 1.470384
v -0.118368 0.0219861 1.471627
v 0.1015614 0.04482105 1.470919
v 0.1187583 0.00032291 1.472684
v 0.1146156 0.036394 1.47147
v 0.1344685 0.06396215 0.02734921
v 0.1493048 0.00141269 0.02711051
v -0.09037778 0.06340484 1.47048
v -0.1093444 0.02538425 1.471127
v -0.1026441 0.04203801 1.466692
v -0.1097258 0.02448681 1.287183
v 0.1171147 0.02487582 1.283967
v 0.1493048 0.00141269 0.02711051
v 0.1469722 0.02800724 0.00217238
v 0.1344685 0.06396215 0.02734921
v -0.1093444 0.02538425 1.471127
v -0.1061708 0.03649009 1.286418
v -0.1097258 0.02448681 1.287183
v 0.00162877 0.02885142 1.425648
v 0.00058472 0.03037823 1.375684
v -0.01292555 0.02518545 1.423342
v 0.1015614 0.04482105 1.470919
v 0.1086006 0.02500632 1.471216
v -0.02250852 0.01087368 1.431758
v 0.00162877 0.02885142 1.425648
v -0.01292555 0.02518545 1.423342
v 0.00235891 0.02039977 1.436405
v 0.00162877 0.02885142 1.425648
v -0.00980397 0.01184012 0.02748573
v 0.01020462 0.01852135 0.02756146
v 0.00235891 0.02039977 1.436405
v 0.01734452 0.01880767 1.430616
v 0.00162877 0.02885142 1.425648
v -0.01680093 0.01838825 1.2843
v 0.01679986 0.01847671 1.284888
v -0.00348093 0.02444837 1.276909
v 0.00473779 0.01455941 1.267915
v 0.00162877 0.02885142 1.425648
v 0.01734452 0.01880767 1.430616
v 0.00058472 0.03037823 1.375684
v 0.01020462 0.01852135 0.02756146
v 0.01257703 -0.00254413 0.02756716
v -0.03338999 0.0027406 1.380078
v -0.00272934 0.01524404 1.344336
v -0.015576 0.00410144 1.343186
v -0.02559961 0.00130396 1.284779
v -0.00009285 0.01699528 1.286174
v -0.00009285 0.01699528 1.286174
v 0.00235891 0.02039977 1.436405
v 0.01670099 0.01205807 1.437222
v 0.01734452 0.01880767 1.430616
v 0.02833202 0.00401413 1.362489
v 0.1146156 0.036394 1.47147
v 0.1207429 0.00220848 1.319973
v -0.1122824 0.00856917 1.286293
v -0.1151617 0.00054421 1.285036
v -0.1026441 0.04203801 1.466692
v -0.1093444 0.02538425 1.471127
v -0.1122824 0.00856917 1.286293
v -0.1097258 0.02448681 1.287183
v -0.02981927 0.00288831 1.425273
v -0.02250852 0.01087368 1.431758
v -0.01834443 -0.00195836 1.43821
v 0.00235891 0.02039977 1.436405
v -0.00272934 0.01524404 1.344336
v -0.00459678 0.0143641 1.299918
v -0.00272934 0.01524404 1.344336
v 0.00313797 0.01530598 1.342013
v -0.00459678 0.0143641 1.299918
v 0.01068691 0.01108072 1.286058
v -0.00009285 0.01699528 1.286174
v -0.00336727 0.01529096 1.269614
v 0.00473779 0.01455941 1.267915
v -0.00596065 0.01327468 1.255323
v -0.00596065 0.01327468 1.255323
v -0.00318888 0.01289189 1.210589
v 0.00268018 0.01331997 0.2517291
v 0.00292895 0.01263374 0.02847515
v -0.00302217 0.01343014 0.1301541
v 0.00292895 0.01263374 0.02847515
v 0.01020462 0.01852135 0.02756146
v -0.00980397 0.01184012 0.02748573
v 0.01020462 0.01852135 0.02756146
v 0.00292895 0.01263374 0.02847515
v 0.01003893 0.00926474 0.02814108
v -0.00009285 0.01699528 1.286174
v 0.01068691 0.01108072 1.286058
v 0.01679986 0.01847671 1.284888
v 0.00313797 0.01530598 1.342013
v 0.01679986 0.01847671 1.284888
v 0.02366965 -0.00344317 1.277072
v 0.01670099 0.01205807 1.437222
v 0.02877321 0.00201857 1.431075
v 0.03536722 0.00268614 1.387411
v -0.02250852 0.01087368 1.431758
v -0.02981927 0.00288831 1.425273
v -0.01834443 -0.00195836 1.43821
v -0.0145115 0.00579201 1.28814
v -0.015576 0.00410144 1.343186
v -0.01348868 0.00643422 1.267992
v -0.00336727 0.01529096 1.269614
v -0.00596065 0.01327468 1.255323
v -0.01314924 0.00044564 0.02747261
v -0.00980397 0.01184012 0.02748573
v -0.00459678 0.0143641 1.299918
v -0.00009285 0.01699528 1.286174
v -0.00009285 0.01699528 1.286174
v -0.00914076 0.00974654 0.5178422
v -0.00318888 0.01289189 1.210589
v -0.00410531 0.01281971 0.8999332
v -0.00410531 0.01281971 0.8999332
v -0.00426904 0.01267007 0.5871753
v -0.00914076 0.00974654 0.5178422
v -0.00426904 0.01267007 0.5871753
v -0.00938942 0.00991009 0.2567976
v -0.00416007 0.01273134 0.2921728
v -0.00416007 0.01273134 0.2921728
v -0.00399929 0.01301016 0.1531425
v -0.00938942 0.00991009 0.2567976
v -0.00399929 0.01301016 0.1531425
v -0.00302217 0.01343014 0.1301541
v -0.00938942 0.00991009 0.2567976
v -0.00302217 0.01343014 0.1301541
v -0.00410206 0.01304836 0.08782689
v -0.00318888 0.01289189 1.210589
v 0.0025464 0.01276392 0.6781868
v -0.00410531 0.01281971 0.8999332
v -0.00410531 0.01281971 0.8999332
v 0.0025464 0.01276392 0.6781868
v 0.0025464 0.01276392 0.6781868
v 0.00268018 0.01331997 0.2517291
v -0.00416007 0.01273134 0.2921728
v -0.00416007 0.01273134 0.2921728
v 0.00268018 0.01331997 0.2517291
v -0.00399929 0.01301016 0.1531425
v -0.00302217 0.01343014 0.1301541
v -0.00410206 0.01304836 0.08782689
v -0.00410206 0.01304836 0.08782689
v 0.00292895 0.01263374 0.02847515
v -0.00774833 0.01073027 0.03016891
v 0.02307831 -0.01362325 1.432474
v 0.01670099 0.01205807 1.437222
v 0.01670099 0.01205807 1.437222
v 0.01261808 0.00656604 1.266918
v 0.00826765 0.01013785 1.085521
v 0.00826765 0.01013785 1.085521
v 0.0025464 0.01276392 0.6781868
v 0.00826765 0.01013785 1.085521
v 0.0091384 0.00980313 0.03956395
v 0.0133402 0.00436889 0.05314872
v 0.0133402 0.00436889 0.05314872
v 0.01003893 0.00926474 0.02814108
v 0.0091384 0.00980313 0.03956395
v 0.0091384 0.00980313 0.03956395
v 0.01003893 0.00926474 0.02814108
v 0.01615056 0.00045981 1.343069
v 0.00313797 0.01530598 1.342013
v 0.01068691 0.01108072 1.286058
v 0.01462068 -0.00851507 1.286117
v 0.01679986 0.01847671 1.284888
v 0.01003893 0.00926474 0.02814108
v 0.01257703 -0.00254413 0.02756716
v 0.01020462 0.01852135 0.02756146
v 0.01615056 0.00045981 1.343069
v 0.01679986 0.01847671 1.284888
v 0.02534169 -0.00048954 1.284816
v 0.02877321 0.00201857 1.431075
v 0.02534169 -0.00048954 1.284816
v 0.02877321 0.00201857 1.431075
v 0.1086006 0.02500632 1.471216
v 0.1098073 -0.00847376 1.471296
v 0.1187583 0.00032291 1.472684
v 0.1202293 -0.00050636 1.470346
v 0.1202293 -0.00050636 1.470346
v 0.1207429 0.00220848 1.319973
v 0.1207429 0.00220848 1.319973
v 0.1192749 0.00116277 1.283284
v 0.1171147 0.02487582 1.283967
v -0.00961559 -0.00822528 0.02754721
v -0.01314924 0.00044564 0.02747261
v -0.01348868 0.00643422 1.267992
v -0.00596065 0.01327468 1.255323
v -0.0138198 0.0002804 1.109204
v -0.01391645 0.00173384 0.7367238
v 0.01615056 0.00045981 1.343069
v 0.01462068 -0.00851507 1.286117
v 0.01068691 0.01108072 1.286058
v 0.01261808 0.00656604 1.266918
v 0.0133402 0.00436889 0.05314872
v 0.01257703 -0.00254413 0.02756716
v 0.01257703 -0.00254413 0.02756716
v 0.04520867 -0.1421861 0.02772293
v 0.0055302 -0.0116075 1.219614
v 0.00839628 -0.00810701 1.007339
v 0.01186777 -0.00324227 1.171185
v 0.00839628 -0.00810701 1.007339
v 0.00313013 -0.0120012 0.200769
v 0.00313013 -0.0120012 0.200769
v 0.00904172 -0.00832457 0.02764369
v 0.01210545 -0.01008821 1.341831
v 0.0068084 -0.01250423 1.269442
v 0.01186777 -0.00324227 1.171185
v 0.01257703 -0.00254413 0.02756716
v 0.00904172 -0.00832457 0.02764369
v 0.02833202 0.00401413 1.362489
v 0.01210545 -0.01008821 1.341831
v 0.01615056 0.00045981 1.343069
v 0.02877321 0.00201857 1.431075
v 0.02966 -0.01549922 1.414935
v 0.03536722 0.00268614 1.387411
v 0.14699 -0.02678025 0.00026874
v 0.1469722 0.02800724 0.00217238
v -0.1062671 -0.03185605 1.470597
v -0.1067854 -0.03489234 1.2867
v -0.01695673 -0.01858343 1.431961
v -0.01834443 -0.00195836 1.43821
v -0.00198726 -0.01226977 0.9794995
v 0.00251322 -0.0116169 0.9233072
v -0.00198726 -0.01226977 0.9794995
v 0.00027845 -0.01200276 0.6250848
v 0.00251322 -0.0116169 0.9233072
v 0.00155284 -0.01143009 0.4771563
v 0.00027845 -0.01200276 0.6250848
v -0.00227451 -0.01243505 0.4303081
v 0.00155284 -0.01143009 0.4771563
v -0.00227451 -0.01243505 0.4303081
v 0.00313013 -0.0120012 0.200769
v 0.00313013 -0.0120012 0.200769
v -0.00227451 -0.01243505 0.4303081
v -0.00206818 -0.01261311 0.08461473
v 0.00188333 -0.01539055 1.289819
v 0.01747516 -0.01805456 1.284626
v 0.01462068 -0.00851507 1.286117
v 0.00904172 -0.00832457 0.02764369
v 0.01462068 -0.00851507 1.286117
v 0.01747516 -0.01805456 1.284626
v 0.03536722 0.00268614 1.387411
v 0.02307831 -0.01362325 1.432474
v 0.02966 -0.01549922 1.414935
v 0.1202293 -0.00050636 1.470346
v 0.1192749 0.00116277 1.283284
v 0.1207429 0.00220848 1.319973
v -0.1213552 -0.00005237 1.462254
v -0.1168808 -0.03173417 1.471046
v -0.1062671 -0.03185605 1.470597
v -0.1093444 0.02538425 1.471127
v -0.1122824 0.00856917 1.286293
v -0.1151617 0.00054421 1.285036
v 0.02030526 -0.02696896 1.379104
v 0.03536722 0.00268614 1.387411
v 0.1098073 -0.00847376 1.471296
v 0.1064671 -0.02414384 1.47063
v 0.1475525 -0.02296003 0.02674039
v -0.01695673 -0.01858343 1.431961
v -0.00249951 -0.03082886 1.425108
v 0.01567701 -0.02126691 1.432424
v 0.01567701 -0.02126691 1.432424
v 0.02966 -0.01549922 1.414935
v 0.01567701 -0.02126691 1.432424
v 0.1121513 -0.04103597 1.283912
v 0.1206423 -0.08592259 0.02745678
v 0.1475525 -0.02296003 0.02674039
v -0.1107865 -0.04655978 1.284454
v -0.09582989 -0.05814897 1.286315
v 0.1083744 -0.05152753 1.470549
v 0.1475525 -0.02296003 0.02674039
v 0.1345219 -0.06348242 0.00053098
v 0.14699 -0.02678025 0.00026874
v -0.1168808 -0.03173417 1.471046
v -0.1084793 -0.05435522 1.470752
v -0.09647714 -0.05719249 1.470159
v -0.1062671 -0.03185605 1.470597
v -0.1427937 -0.04435138 0.02740157
v -0.09647714 -0.05719249 1.470159
v -0.1067854 -0.03489234 1.2867
v -0.1062671 -0.03185605 1.470597
v 0.1064671 -0.02414384 1.47063
v 0.08271881 -0.07527181 1.471588
v 0.09980727 -0.0661198 1.284468
v -0.09582989 -0.05814897 1.286315
v 0.08910502 -0.08188453 1.470453
v 0.1083744 -0.05152753 1.470549
v 0.13376 -0.06669728 0.00190939
v -0.07870568 -0.08106584 1.470719
v -0.09647714 -0.05719249 1.470159
v 0.08910502 -0.08188453 1.470453
v 0.09980727 -0.0661198 1.284468
v -0.0820826 -0.09036155 1.470307
v -0.0630218 -0.1057692 1.471692
v -0.07870568 -0.08106584 1.470719
v -0.07970347 -0.08030051 1.284915
v 0.05892658 -0.09426475 1.469456
v 0.04869494 -0.1135665 1.471411
v 0.08271881 -0.07527181 1.471588
v 0.08271881 -0.07527181 1.471588
v 0.08910502 -0.08188453 1.470453
v 0.07737009 -0.09225313 1.284115
v 0.1206423 -0.08592259 0.02745678
v 0.1043701 -0.1060368 0.00184045
v 0.13376 -0.06669728 0.00190939
v -0.04908079 -0.1018579 1.465441
v -0.1184192 -0.09008405 0.02731627
v -0.1021556 -0.1079727 0.02733601
v 0.1182438 -0.09069633 0.00026339
v 0.13376 -0.06669728 0.00190939
v -0.07870568 -0.08106584 1.470719
v -0.06885091 -0.1325969 0.02747845
v -0.04908079 -0.1018579 1.465441
v -0.05240926 -0.1010054 1.285746
v 0.1043701 -0.1060368 0.00184045
v 0.1206423 -0.08592259 0.02745678
v -0.01974308 -0.1117504 1.468349
v -0.04908079 -0.1018579 1.465441
v -0.04908079 -0.1018579 1.465441
v -0.01973934 -0.1119207 1.31295
v 0.01813204 -0.1111911 1.470597
v 0.05892658 -0.09426475 1.469456
v 0.04241742 -0.1055878 1.286485
v 0.01813204 -0.1111911 1.470597
v 0.05892658 -0.09426475 1.469456
v -0.02854724 -0.1095903 1.46528
v -0.02854724 -0.1095903 1.46528
v 0.04241742 -0.1055878 1.286485
v 0.02295748 -0.1123439 1.289401
v -0.1021556 -0.1079727 0.02733601
v -0.06885091 -0.1325969 0.02747845
v -0.04494437 -0.1157265 1.470886
v -0.01974308 -0.1117504 1.468349
v -0.01973934 -0.1119207 1.31295
v -0.00257677 -0.1236025 1.284309
v -0.01973934 -0.1119207 1.31295
v -0.02854724 -0.1095903 1.46528
v -0.01974308 -0.1117504 1.468349
v 0.02295748 -0.1123439 1.289401
v 0.00104555 -0.1166617 1.284653
v 0.01813204 -0.1111911 1.470597
v 0.01813204 -0.1111911 1.470597
v 0.02295748 -0.1123439 1.289401
v 0.04241742 -0.1055878 1.286485
v 0.00104555 -0.1166617 1.284653
v -0.01973934 -0.1119207 1.31295
v 0.02295748 -0.1123439 1.289401
v 0.00104555 -0.1166617 1.284653
v 0.00104555 -0.1166617 1.284653
v 0.03656483 -0.1167815 1.284156
v 0.00344309 -0.1237563 1.470698
v 0.00344309 -0.1237563 1.470698
v 0.03842431 -0.1176267 1.470398
v 0.00344309 -0.1237563 1.470698
v -0.00257677 -0.1236025 1.284309
v -0.00075171 -0.1506381 0.02747704
v 0.04520867 -0.1421861 0.02772293
v 0.06285324 0.1359622 0.00049441
v -0.02570092 0.1477087 0.0003774
v -0.08957745 0.1199493 0.00053651
v -0.02570092 0.1477087 0.0003774
v -0.02441631 0.1478769 0.0274135
v 0.1304685 0.07225144 0.00052528
v -0.03884234 0.1138678 1.28387
v -0.01956487 0.1138537 1.284009
v -0.03884234 0.1138678 1.28387
v 0.00090645 0.11995 1.283376
v -0.01956487 0.1138537 1.284009
v 0.01073749 0.1138741 1.285634
v -0.01956487 0.1138537 1.284009
v 0.00090645 0.11995 1.283376
v 0.01073749 0.1138741 1.285634
v 0.03342329 0.1077879 1.286782
v 0.04461965 0.1121065 1.284069
v 0.06559128 0.1007947 1.283904
v 0.06285324 0.1359622 0.00049441
v 0.08281392 0.1240257 0.00051511
v -0.1183053 0.09201293 0.02739017
v -0.08883464 0.1206266 0.02747924
v -0.08957745 0.1199493 0.00053651
v 0.01073749 0.1138741 1.285634
v -0.0281524 0.106697 1.470048
v 0.00679363 0.1113967 1.470958
v -0.0281524 0.106697 1.470048
v 0.0284627 0.1069176 1.469898
v 0.03342329 0.1077879 1.286782
v 0.0703713 0.0866418 1.289111
v 0.03342329 0.1077879 1.286782
v 0.08281392 0.1240257 0.00051511
v 0.1022967 0.1083394 0.00054642
v 0.05631765 0.09632313 1.470207
v 0.0284627 0.1069176 1.469898
v 0.03342329 0.1077879 1.286782
v -0.1183053 0.09201293 0.02739017
v -0.1249996 0.08269683 0.00059667
v -0.0751532 0.09347906 1.284267
v -0.07832829 0.07842164 1.466752
v -0.05866918 0.09580832 1.286651
v -0.1226541 -0.0839358 0.00063544
v 0.0703713 0.0866418 1.289111
v 0.05631765 0.09632313 1.470207
v 0.08969221 0.06591067 1.289723
v 0.0703713 0.0866418 1.289111
v 0.1067873 0.05460842 1.283847
v -0.1018196 0.06487284 1.470011
v -0.08962459 0.08164188 1.469821
v -0.09010545 0.07917693 1.284927
v -0.07513777 0.0814763 1.396379
v -0.07629824 0.08115703 1.30988
v -0.07513777 0.0814763 1.396379
v 0.08117315 0.07745203 1.471073
v 0.06559128 0.1007947 1.283904
v 0.08084334 0.08891249 1.284207
v -0.09979253 0.0670734 1.284466
v -0.09010545 0.07917693 1.284927
v -0.0751532 0.09347906 1.284267
v -0.09979253 0.0670734 1.284466
v -0.0751532 0.09347906 1.284267
v -0.1472686 0.02604354 0.00048239
v -0.08957745 0.1199493 0.00053651
v -0.1249996 0.08269683 0.00059667
v -0.1472686 0.02604354 0.00048239
v -0.09979253 0.0670734 1.284466
v -0.1249996 0.08269683 0.00059667
v -0.07513777 0.0814763 1.396379
v -0.1117767 0.04508192 1.284583
v 0.1060258 0.02511575 1.46638
v 0.1060258 0.02511575 1.46638
v 0.08969221 0.06591067 1.289723
v 0.111583 0.03141532 1.28441
v -0.118368 0.0219861 1.471627
v -0.1117767 0.04508192 1.284583
v -0.1176438 0.02565998 1.284803
v 0.1091933 0.02513343 1.287237
v 0.111583 0.03141532 1.28441
v 0.1091933 0.02513343 1.287237
v 0.1081566 0.02100283 1.317255
v 0.111583 0.03141532 1.28441
v 0.1067873 0.05460842 1.283847
v 0.1171147 0.02487582 1.283967
v -0.1122824 0.00856917 1.286293
v -0.1097258 0.02448681 1.287183
v -0.00272934 0.01524404 1.344336
v 0.00058472 0.03037823 1.375684
v 0.1086006 0.02500632 1.471216
v 0.1060258 0.02511575 1.46638
v -0.1213552 -0.00005237 1.462254
v -0.118368 0.0219861 1.471627
v -0.1179269 -0.0256989 1.284658
v -0.1176438 0.02565998 1.284803
v -0.02371173 0.00023122 1.354016
v -0.02559961 0.00130396 1.284779
v -0.01680093 0.01838825 1.2843
v -0.00348093 0.02444837 1.276909
v -0.00336727 0.01529096 1.269614
v -0.00348093 0.02444837 1.276909
v 0.1081566 0.02100283 1.317255
v 0.1091933 0.02513343 1.287237
v 0.1120739 0.00260495 1.286478
v 0.1120739 0.00260495 1.286478
v 0.1091933 0.02513343 1.287237
v 0.111583 0.03141532 1.28441
v -0.1176438 0.02565998 1.284803
v -0.1151617 0.00054421 1.285036
v -0.03338999 0.0027406 1.380078
v -0.01348868 0.00643422 1.267992
v -0.00399929 0.01301016 0.1531425
v -0.00302217 0.01343014 0.1301541
v -0.00774833 0.01073027 0.03016891
v 0.00292895 0.01263374 0.02847515
v -0.00980397 0.01184012 0.02748573
v 0.01261808 0.00656604 1.266918
v 0.1060258 0.02511575 1.46638
v 0.1081566 0.02100283 1.317255
v 0.1098073 -0.00847376 1.471296
v 0.1192749 0.00116277 1.283284
v 0.111583 0.03141532 1.28441
v 0.1171147 0.02487582 1.283967
v -0.1179269 -0.0256989 1.284658
v -0.1176438 0.02565998 1.284803
v -0.1151617 0.00054421 1.285036
v -0.03377071 0.00237632 1.405655
v -0.00914076 0.00974654 0.5178422
v -0.01314924 0.00044564 0.02747261
v -0.00914076 0.00974654 0.5178422
v -0.00410206 0.01304836 0.08782689
v -0.00774833 0.01073027 0.03016891
v -0.00774833 0.01073027 0.03016891
v -0.00980397 0.01184012 0.02748573
v -0.01314924 0.00044564 0.02747261
v 0.1098073 -0.00847376 1.471296
v 0.1086006 0.02500632 1.471216
v 0.1120739 0.00260495 1.286478
v 0.1081566 0.02100283 1.317255
v 0.1120739 0.00260495 1.286478
v 0.111583 0.03141532 1.28441
v 0.1192749 0.00116277 1.283284
v -0.03386949 -0.00180856 1.382692
v -0.03377071 0.00237632 1.405655
v -0.03338999 0.0027406 1.380078
v -0.03338999 0.0027406 1.380078
v -0.03386949 -0.00180856 1.382692
v -0.02559961 0.00130396 1.284779
v -0.01804134 -0.01850696 1.284474
v -0.01412154 -0.00569167 1.28914
v -0.015576 0.00410144 1.343186
v -0.0145115 0.00579201 1.28814
v -0.0145115 0.00579201 1.28814
v -0.01804134 -0.01850696 1.284474
v -0.0145115 0.00579201 1.28814
v -0.01391645 0.00173384 0.7367238
v -0.0128877 -0.00177196 0.1193265
v -0.0128877 -0.00177196 0.1193265
v -0.00967164 -0.00762975 0.03906112
v -0.1427937 -0.04435138 0.02740157
v -0.1438134 0.04184984 0.02759843
v -0.1472686 0.02604354 0.00048239
v -0.03377071 0.00237632 1.405655
v -0.03386949 -0.00180856 1.382692
v -0.02437327 -0.01709225 1.413553
v -0.02371173 0.00023122 1.354016
v -0.01335707 -0.0071946 1.344193
v -0.02371173 0.00023122 1.354016
v -0.01335707 -0.0071946 1.344193
v -0.01335707 -0.0071946 1.344193
v -0.01348868 0.00643422 1.267992
v -0.00837186 -0.01173112 1.266618
v -0.0138198 0.0002804 1.109204
v -0.00837186 -0.01173112 1.266618
v -0.00837186 -0.01173112 1.266618
v -0.01048142 -0.00772006 1.095901
v -0.01048142 -0.00772006 1.095901
v -0.01031218 -0.00751674 1.017043
v -0.01031218 -0.00751674 1.017043
v -0.01026806 -0.00767378 0.7555819
v -0.01026806 -0.00767378 0.7555819
v -0.01026806 -0.00767378 0.7555819
v -0.01024563 -0.00744935 0.6303267
v -0.01024563 -0.00744935 0.6303267
v -0.01029169 -0.00772138 0.4179769
v -0.01029169 -0.00772138 0.4179769
v -0.01029169 -0.00772138 0.4179769
v -0.01023536 -0.00776054 0.2192673
v -0.01023536 -0.00776054 0.2192673
v -0.0128877 -0.00177196 0.1193265
v -0.01023726 -0.00780982 0.09624648
v -0.01023726 -0.00780982 0.09624648
v -0.00961559 -0.00822528 0.02754721
v 0.01186777 -0.00324227 1.171185
v 0.00839628 -0.00810701 1.007339
v 0.0133402 0.00436889 0.05314872
v 0.02366965 -0.00344317 1.277072
v 0.1097197 -0.02875626 1.284978
v 0.1345219 -0.06348242 0.00053098
v 0.1469722 0.02800724 0.00217238
v 0.14699 -0.02678025 0.00026874
v -0.1456839 -0.03366547 0.00190408
v -0.1456839 -0.03366547 0.00190408
v -0.1472686 0.02604354 0.00048239
v -0.1179269 -0.0256989 1.284658
v -0.1151617 0.00054421 1.285036
v -0.1107865 -0.04655978 1.284454
v -0.01695673 -0.01858343 1.431961
v -0.02437327 -0.01709225 1.413553
v -0.01412154 -0.00569167 1.28914
v -0.00186417 -0.02582919 1.28406
v -0.00671748 -0.01461479 1.270234
v -0.00837186 -0.01173112 1.266618
v -0.01048142 -0.00772006 1.095901
v -0.01048142 -0.00772006 1.095901
v -0.01031218 -0.00751674 1.017043
v -0.00198726 -0.01226977 0.9794995
v -0.01031218 -0.00751674 1.017043
v -0.01026806 -0.00767378 0.7555819
v -0.01024563 -0.00744935 0.6303267
v -0.01029169 -0.00772138 0.4179769
v -0.01029169 -0.00772138 0.4179769
v -0.01023536 -0.00776054 0.2192673
v -0.01023536 -0.00776054 0.2192673
v -0.01023726 -0.00780982 0.09624648
v -0.01023726 -0.00780982 0.09624648
v -0.00967164 -0.00762975 0.03906112
v -0.00961559 -0.00822528 0.02754721
v -0.00206818 -0.01261311 0.08461473
v 0.00027845 -0.01200276 0.6250848
v 0.00027845 -0.01200276 0.6250848
v 0.0055302 -0.0116075 1.219614
v 0.01186777 -0.00324227 1.171185
v 0.02366965 -0.00344317 1.277072
v 0.01747516 -0.01805456 1.284626
v 0.02366965 -0.00344317 1.277072
v 0.1064671 -0.02414384 1.47063
v 0.1015242 -0.03960828 1.466133
v 0.1120739 0.00260495 1.286478
v 0.1192749 0.00116277 1.283284
v 0.1097197 -0.02875626 1.284978
v -0.1168808 -0.03173417 1.471046
v -0.1107865 -0.04655978 1.284454
v -0.00260632 -0.03377884 1.384017
v -0.03386949 -0.00180856 1.382692
v -0.01335707 -0.0071946 1.344193
v -0.01412154 -0.00569167 1.28914
v 0.00188333 -0.01539055 1.289819
v 0.0011935 -0.01552752 1.343675
v -0.00671748 -0.01461479 1.270234
v 0.0068084 -0.01250423 1.269442
v -0.00186417 -0.02582919 1.28406
v -0.00671748 -0.01461479 1.270234
v 0.0055302 -0.0116075 1.219614
v 0.0011935 -0.01552752 1.343675
v 0.0068084 -0.01250423 1.269442
v 0.0055302 -0.0116075 1.219614
v 0.0068084 -0.01250423 1.269442
v -0.01804134 -0.01850696 1.284474
v 0.0036302 -0.02127206 1.353805
v 0.0011935 -0.01552752 1.343675
v 0.0036302 -0.02127206 1.353805
v 0.0011935 -0.01552752 1.343675
v 0.02307831 -0.01362325 1.432474
v -0.0024859 -0.0340468 1.400051
v -0.01695673 -0.01858343 1.431961
v -0.00249951 -0.03082886 1.425108
v -0.00249951 -0.03082886 1.425108
v -0.00310425 -0.03121559 1.371766
v -0.00310425 -0.03121559 1.371766
v 0.0036302 -0.02127206 1.353805
v 0.06784133 -0.1325706 0.00041336
v 0.1121513 -0.04103597 1.283912
v 0.1097197 -0.02875626 1.284978
v -0.1114259 -0.04710012 1.285707
v -0.1179269 -0.0256989 1.284658
v -0.00249951 -0.03082886 1.425108
v 0.02030526 -0.02696896 1.379104
v -0.0024859 -0.0340468 1.400051
v -0.0024859 -0.0340468 1.400051
v -0.00260632 -0.03377884 1.384017
v -0.00260632 -0.03377884 1.384017
v -0.00310425 -0.03121559 1.371766
v -0.00310425 -0.03121559 1.371766
v 0.0036302 -0.02127206 1.353805
v 0.0952514 -0.05797476 1.286222
v 0.1097197 -0.02875626 1.284978
v 0.1121513 -0.04103597 1.283912
v -0.1427937 -0.04435138 0.02740157
v -0.1456839 -0.03366547 0.00190408
v -0.1226541 -0.0839358 0.00063544
v -0.1084793 -0.05435522 1.470752
v -0.1168808 -0.03173417 1.471046
v -0.1114259 -0.04710012 1.285707
v -0.1179269 -0.0256989 1.284658
v -0.1107865 -0.04655978 1.284454
v 0.1015242 -0.03960828 1.466133
v 0.0952514 -0.05797476 1.286222
v -0.101919 -0.06549011 1.284961
v 0.1182438 -0.09069633 0.00026339
v -0.1114259 -0.04710012 1.285707
v -0.1107865 -0.04655978 1.284454
v -0.101919 -0.06549011 1.284961
v 0.07737009 -0.09225313 1.284115
v 0.1121513 -0.04103597 1.283912
v 0.1121513 -0.04103597 1.283912
v 0.09980727 -0.0661198 1.284468
v -0.101919 -0.06549011 1.284961
v -0.1107865 -0.04655978 1.284454
v -0.09582989 -0.05814897 1.286315
v -0.1084793 -0.05435522 1.470752
v -0.0820826 -0.09036155 1.470307
v -0.07970347 -0.08030051 1.284915
v 0.08271881 -0.07527181 1.471588
v 0.05892658 -0.09426475 1.469456
v 0.07970154 -0.07788213 1.285414
v 0.0952514 -0.05797476 1.286222
v 0.1345219 -0.06348242 0.00053098
v 0.13376 -0.06669728 0.00190939
v 0.07970154 -0.07788213 1.285414
v 0.05892658 -0.09426475 1.469456
v -0.1184192 -0.09008405 0.02731627
v -0.1427937 -0.04435138 0.02740157
v -0.1226541 -0.0839358 0.00063544
v -0.07970347 -0.08030051 1.284915
v -0.05240926 -0.1010054 1.285746
v 0.07737009 -0.09225313 1.284115
v 0.07970154 -0.07788213 1.285414
v -0.06788138 -0.1015554 1.285007
v -0.05221616 -0.1115416 1.284316
v -0.06788138 -0.1015554 1.285007
v -0.05221616 -0.1115416 1.284316
v -0.09000948 -0.1189741 0.00064403
v 0.07737009 -0.09225313 1.284115
v 0.0637973 -0.1034939 1.284372
v 0.04869494 -0.1135665 1.471411
v -0.1021556 -0.1079727 0.02733601
v -0.1184192 -0.09008405 0.02731627
v -0.1226541 -0.0839358 0.00063544
v -0.0630218 -0.1057692 1.471692
v -0.06788138 -0.1015554 1.285007
v -0.05221616 -0.1115416 1.284316
v -0.05240926 -0.1010054 1.285746
v 0.0637973 -0.1034939 1.284372
v -0.1021556 -0.1079727 0.02733601
v -0.09000948 -0.1189741 0.00064403
v 0.03656483 -0.1167815 1.284156
v 0.0637973 -0.1034939 1.284372
v 0.1182438 -0.09069633 0.00026339
v 0.1043701 -0.1060368 0.00184045
v -0.04494437 -0.1157265 1.470886
v -0.0489464 -0.1143272 1.31496
v -0.0489464 -0.1143272 1.31496
v -0.05221616 -0.1115416 1.284316
v -0.0489464 -0.1143272 1.31496
v 0.03656483 -0.1167815 1.284156
v 0.0637973 -0.1034939 1.284372
v -0.04494437 -0.1157265 1.470886
v -0.0489464 -0.1143272 1.31496
v -0.00257677 -0.1236025 1.284309
v -0.0489464 -0.1143272 1.31496
v -0.05221616 -0.1115416 1.284316
v -0.09000948 -0.1189741 0.00064403
v 0.01968362 -0.1484402 0.00043371
v 0.00104555 -0.1166617 1.284653
v 0.03656483 -0.1167815 1.284156
v -0.00257677 -0.1236025 1.284309
v 0.04869494 -0.1135665 1.471411
v 0.03842431 -0.1176267 1.470398
v -0.00257677 -0.1236025 1.284309
v 0.04520867 -0.1421861 0.02772293
v 0.06784133 -0.1325706 0.00041336
v -0.06885091 -0.1325969 0.02747845
v -0.09000948 -0.1189741 0.00064403
v -0.049565 -0.1412252 0.00042336
v -0.06885091 -0.1325969 0.02747845
v -0.049565 -0.1412252 0.00042336
v 0.04520867 -0.1421861 0.02772293
v 0.01968362 -0.1484402 0.00043371
v 0.06784133 -0.1325706 0.00041336
v -0.00075171 -0.1506381 0.02747704
v -0.049565 -0.1412252 0.00042336
v -0.00075171 -0.1506381 0.02747704
v -0.00208933 -0.1503216 0.01149861
v -0.00075171 -0.1506381 0.02747704
v -0.00208933 -0.1503216 0.01149861
v -0.00208933 -0.1503216 0.01149861
v 0.01968362 -0.1484402 0.00043371
v -0.00208933 -0.1503216 0.01149861
v 0.01968362 -0.1484402 0.00043371
vt 0.108737 0.9351503
vt 0.09008529 0.9343247
vt 0.1094612 0.8985816
vt 0.09008529 0.9343247
vt 0.09037275 0.9008006
vt 0.3792386 0.4188149
vt 0.3795976 0.3310049
vt 0.3603081 0.4201128
vt 0.3592236 0.3343304
vt 0.1788662 0.217072
vt 0.1296678 0.2983164
vt 0.1627143 0.2329121
vt 0.1614476 0.9349471
vt 0.108737 0.9351503
vt 0.1622119 0.8985256
vt 0.3795976 0.3310049
vt 0.359275 0.3038343
vt 0.3592236 0.3343304
vt 0.3795976 0.3310049
vt 0.3800105 0.2860072
vt 0.7851283 0.878993
vt 0.7871482 0.9336202
vt 0.7799718 0.9682002
vt 0.6455224 0.9346471
vt 0.6458455 0.8817493
vt 0.2298891 0.1983083
vt 0.120353 0.3403355
vt 0.6458762 0.9934211
vt 0.6455224 0.9346471
vt 0.3594111 0.2709952
vt 0.359275 0.3038343
vt 0.7871482 0.9336202
vt 0.7860131 0.9796434
vt 0.7799718 0.9682002
vt 0.7860131 0.9796434
vt 0.7801018 0.9934211
vt 0.7799718 0.9682002
vt 0.7799718 0.9682002
vt 0.7801018 0.9934211
vt 0.6712094 0.9932534
vt 0.6712094 0.9932534
vt 0.3776737 0.2598869
vt 0.3594111 0.2709952
vt 0.7852889 0.8415241
vt 0.8373285 0.4557967
vt 0.8539577 0.4131832
vt 0.646004 0.8267021
vt 0.6458455 0.8817493
vt 0.03891258 0.3943448
vt 0.05000789 0.3645903
vt 0.8539577 0.4131832
vt 0.8514575 0.3504604
vt 0.8576759 0.3595463
vt 0.8514575 0.3504604
vt 0.8480756 0.3224549
vt 0.6273987 0.9990602
vt 0.6266751 0.9691393
vt 0.6212366 0.9856083
vt 0.2600839 0.2071593
vt 0.2969941 0.2422518
vt 0.2298891 0.1983083
vt 0.8474466 0.3960445
vt 0.8480756 0.3224549
vt 0.8400959 0.2864344
vt 0.8552189 0.3142481
vt 0.6212366 0.9856083
vt 0.6266751 0.9691393
vt 0.5125623 0.9871991
vt 0.5125623 0.9871991
vt 0.4870588 0.9553429
vt 0.5125623 0.9871991
vt 0.4872776 0.9868685
vt 0.840745 0.2667647
vt 0.8487597 0.2868658
vt 0.3800105 0.2860072
vt 0.380064 0.2415414
vt 0.3776737 0.2598869
vt 0.06990006 0.9423731
vt 0.09775276 0.9743798
vt 0.06343284 0.9742751
vt 0.8633601 0.5609769
vt 0.8474466 0.3960445
vt 0.6271822 0.9443647
vt 0.7847558 0.8010999
vt 0.7873135 0.8268399
vt 0.4871722 0.9297462
vt 0.06990006 0.9423731
vt 0.0804156 0.9388305
vt 0.646004 0.8267021
vt 0.646364 0.7994266
vt 0.8166223 0.4939688
vt 0.7873135 0.8268399
vt 0.8400959 0.2864344
vt 0.8253307 0.2417948
vt 0.8253307 0.2417948
vt 0.840745 0.2667647
vt 0.6254534 0.8889924
vt 0.3552336 0.8881579
vt 0.3128998 0.8881508
vt 0.3213928 0.8523008
vt 0.4594045 0.6053755
vt 0.07090679 0.3066376
vt 0.4427415 0.5745387
vt 0.8262288 0.2538468
vt 0.8253307 0.2417948
vt 0.8253307 0.2417948
vt 0.4865858 0.8724809
vt 0.4871722 0.9297462
vt 0.1171546 0.4265364
vt 0.1156716 0.3840916
vt 0.8149585 0.4768832
vt 0.8373285 0.4557967
vt 0.8373285 0.4557967
vt 0.9158381 0.5667292
vt 0.9981757 0.5270572
vt 0.9802649 0.5655297
vt 0.8262288 0.2538468
vt 0.8021857 0.2267224
vt 0.8253307 0.2417948
vt 0.0804156 0.9388305
vt 0.1045571 0.9383461
vt 0.8166223 0.4939688
vt 0.155479 0.6015685
vt 0.8633601 0.5609769
vt 0.8605804 0.5356839
vt 0.07090679 0.3066376
vt 0.9978537 0.4950442
vt 0.07751219 0.2820109
vt 0.07090679 0.3066376
vt 0.0640998 0.3039913
vt 0.8634003 0.5033259
vt 0.6264362 0.8436274
vt 0.4865858 0.8724809
vt 0.6254534 0.8889924
vt 0.9978537 0.4950442
vt 0.2125622 0.3826566
vt 0.8253307 0.2417948
vt 0.7962623 0.2084823
vt 0.7999432 0.5080344
vt 0.7837966 0.5140978
vt 0.8021857 0.2267224
vt 0.7693206 0.2029139
vt 0.7962623 0.2084823
vt 0.1171546 0.4265364
vt 0.1345842 0.505215
vt 0.8605804 0.5356839
vt 0.8597816 0.4799916
vt 0.8634003 0.5033259
vt 0.997301 0.4787742
vt 0.4863972 0.8306623
vt 0.1529043 0.9381694
vt 0.133124 0.9718619
vt 0.1045571 0.9383461
vt 0.786333 0.501426
vt 0.08485642 0.2864903
vt 0.09277683 0.278416
vt 0.2809168 0.8418259
vt 0.2809168 0.7740957
vt 0.2699928 0.837106
vt 0.3013364 0.8166702
vt 0.7876168 0.2169912
vt 0.2575386 0.8493707
vt 0.2809168 0.8418259
vt 0.2699928 0.837106
vt 0.2787953 0.8599624
vt 0.2809168 0.8418259
vt 0.2276426 0.3748704
vt 0.2125622 0.3826566
vt 0.8231942 0.8835405
vt 0.8291808 0.8649185
vt 0.8329183 0.8897176
vt 0.5143923 0.7219394
vt 0.00279353 0.1433358
vt 0.00844755 0.1677384
vt 0.01623543 0.1541742
vt 0.8329183 0.8897176
vt 0.8291808 0.8649185
vt 0.8701305 0.8899051
vt 0.2125622 0.3826566
vt 0.2200254 0.4071877
vt 0.2473568 0.7804263
vt 0.2717256 0.7303272
vt 0.2580722 0.7287943
vt 0.5063659 0.7004507
vt 0.5073939 0.7406964
vt 0.5073939 0.7406964
vt 0.8231942 0.8835405
vt 0.8224947 0.8609419
vt 0.8291808 0.8649185
vt 0.8802847 0.8381364
vt 0.6264362 0.8436274
vt 0.5130756 0.7996156
vt 0.1033143 0.2689223
vt 0.1082462 0.2619866
vt 0.8634003 0.5033259
vt 0.8597816 0.4799916
vt 0.9979898 0.4577944
vt 0.997301 0.4787742
vt 0.2491249 0.8409462
vt 0.7975997 0.3732278
vt 0.7946202 0.3538316
vt 0.8178857 0.3579555
vt 0.2717256 0.7303272
vt 0.2696778 0.6707305
vt 0.8957313 0.8833203
vt 0.896835 0.8750969
vt 0.9290749 0.8843243
vt 0.9397173 0.8620946
vt 0.9397655 0.8787904
vt 0.0157713 0.1643758
vt 0.01623543 0.1541742
vt 0.0255639 0.1665348
vt 0.0255639 0.1665348
vt 0.05684141 0.1626772
vt 0.7710232 0.1527007
vt 0.9386162 0.1507641
vt 0.8623562 0.1597996
vt 0.2195449 0.383634
vt 0.2125622 0.3826566
vt 0.2276426 0.3748704
vt 0.2125622 0.3826566
vt 0.2195449 0.383634
vt 0.2166265 0.3925068
vt 0.5073939 0.7406964
vt 0.4995785 0.7495245
vt 0.5022123 0.7615352
vt 0.896835 0.8750969
vt 0.00279353 0.1433358
vt 0.00821789 0.1087323
vt 0.8224947 0.8609419
vt 0.82679 0.8377069
vt 0.8603933 0.8298872
vt 0.7975997 0.3732278
vt 0.6276162 0.2336926
vt 0.7946202 0.3538316
vt 0.2595255 0.6553355
vt 0.2580722 0.7287943
vt 0.9296366 0.04017079
vt 0.9295148 0.05690187
vt 0.9204947 0.05240947
vt 0.2345221 0.3846855
vt 0.2276426 0.3748704
vt 0.2696778 0.6707305
vt 0.2736766 0.6525061
vt 0.2736766 0.6525061
vt 0.3733993 0.05342162
vt 0.8886542 0.05538505
vt 0.6610404 0.05866647
vt 0.6610404 0.05866647
vt 0.42595 0.06067431
vt 0.3733993 0.05342162
vt 0.5194259 0.1629816
vt 0.1746707 0.05580407
vt 0.2016425 0.06369621
vt 0.2016425 0.06369621
vt 0.09575734 0.06513584
vt 0.1746707 0.05580407
vt 0.09575734 0.06513584
vt 0.07824768 0.06672931
vt 0.1746707 0.05580407
vt 0.07824768 0.06672931
vt 0.04630284 0.06542122
vt 0.05684141 0.1626772
vt 0.4512771 0.1541545
vt 0.2856332 0.163808
vt 0.2856332 0.163808
vt 0.4512771 0.1541545
vt 0.4512771 0.1541545
vt 0.7710232 0.1527007
vt 0.7406721 0.1620928
vt 0.7406721 0.1620928
vt 0.7710232 0.1527007
vt 0.8450738 0.1612725
vt 0.8623562 0.1597996
vt 0.8941672 0.1607554
vt 0.8941672 0.1607554
vt 0.9386162 0.1507641
vt 0.9374875 0.1652919
vt 0.8113076 0.3039168
vt 0.8212777 0.3359809
vt 0.8212777 0.3359809
vt 0.01732788 0.1402418
vt 0.1486299 0.1471525
vt 0.1486299 0.1471525
vt 0.4512771 0.1541545
vt 0.1486299 0.1471525
vt 0.9303529 0.1414393
vt 0.9201164 0.1322931
vt 0.9201164 0.1322931
vt 0.9404023 0.1268797
vt 0.9303529 0.1414393
vt 0.9303529 0.1414393
vt 0.9389255 0.1402711
vt 0.9347181 0.9404917
vt 0.896835 0.8750969
vt 0.4995785 0.7495245
vt 0.4852623 0.7413789
vt 0.5022123 0.7615352
vt 0.2166265 0.3925068
vt 0.2200254 0.4071877
vt 0.2125622 0.3826566
vt 0.8967994 0.8463663
vt 0.5022123 0.7615352
vt 0.4866312 0.7592217
vt 0.8233867 0.3130407
vt 0.00373134 0.1126702
vt 0.82679 0.8377069
vt 0.7876168 0.2169912
vt 0.7627038 0.2151798
vt 0.6273987 0.7954064
vt 0.6253597 0.7941729
vt 0.6253597 0.7941729
vt 0.6156716 0.7137539
vt 0.5130756 0.7996156
vt 0.4856077 0.7991768
vt 0.4863972 0.8306623
vt 0.2360344 0.3966979
vt 0.2345221 0.3846855
vt 0.9296366 0.04017079
vt 0.9204947 0.05240947
vt 0.8157312 0.03378439
vt 0.5386548 0.0391928
vt 0.9347181 0.9404917
vt 0.9806852 0.9547395
vt 0.9397173 0.8620946
vt 0.01782356 0.1173342
vt 0.9207879 0.1201778
vt 0.9403087 0.110382
vt 0.2200254 0.4071877
vt 0.259291 0.5823712
vt 0.04979844 0.09185076
vt 0.2014853 0.09778303
vt 0.08329617 0.105367
vt 0.2014853 0.09778303
vt 0.8088753 0.09037334
vt 0.8088753 0.09037334
vt 0.9402905 0.1011309
vt 0.9350796 0.9568381
vt 0.01628039 0.0916205
vt 0.08329617 0.105367
vt 0.2200254 0.4071877
vt 0.2246433 0.4107761
vt 0.919107 0.9255992
vt 0.9350796 0.9568381
vt 0.9347181 0.9404917
vt 0.8667725 0.924854
vt 0.8800756 0.9447318
vt 0.9000271 0.9214839
vt 0.1742187 0.9737628
vt 0.133124 0.9718619
vt 0.8604158 0.4048305
vt 0.9975826 0.4001284
vt 0.7851812 0.3365325
vt 0.7946202 0.3538316
vt 0.2563554 0.1888209
vt 0.2640668 0.08870709
vt 0.2563554 0.1888209
vt 0.5199127 0.1893638
vt 0.2640668 0.08870709
vt 0.5996996 0.08841431
vt 0.5199127 0.1893638
vt 0.6655344 0.1888286
vt 0.5996996 0.08841431
vt 0.6655344 0.1888286
vt 0.8359321 0.2013828
vt 0.8359321 0.2013828
vt 0.6655344 0.1888286
vt 0.9221321 0.1972565
vt 0.9773256 0.975347
vt 0.477948 0.7385144
vt 0.9806852 0.9547395
vt 0.2246433 0.4107761
vt 0.4852623 0.7413789
vt 0.477948 0.7385144
vt 0.9000271 0.9214839
vt 0.8664691 0.9474199
vt 0.8800756 0.9447318
vt 0.6179495 0.5159093
vt 0.616632 0.762142
vt 0.6156716 0.7137539
vt 0.1224782 0.6123085
vt 0.09865125 0.6006103
vt 0.7434104 0.4972367
vt 0.786333 0.501426
vt 0.9979898 0.4577944
vt 0.999467 0.4471823
vt 0.9042876 0.9635246
vt 0.9000271 0.9214839
vt 0.7627038 0.2151798
vt 0.7509801 0.2194127
vt 0.1711398 0.9383339
vt 0.7851812 0.3365325
vt 0.6620754 0.2315764
vt 0.8027409 0.3035715
vt 0.8027409 0.3035715
vt 0.8800756 0.9447318
vt 0.8664122 0.9618902
vt 0.6486242 0.7611883
vt 0.1891972 0.5780897
vt 0.1459417 0.5303246
vt 0.6412809 0.7960526
vt 0.6308944 0.7790738
vt 0.6571329 0.5158468
vt 0.1711398 0.9383339
vt 0.2033053 0.9730795
vt 0.1742187 0.9737628
vt 0.7433031 0.5127642
vt 0.7262564 0.5016851
vt 0.8606352 0.3691983
vt 0.7434104 0.4972367
vt 0.3329456 0.3361009
vt 0.8606352 0.3691983
vt 0.9975826 0.4001284
vt 0.8604158 0.4048305
vt 0.9475551 0.8138722
vt 0.7124892 0.2488632
vt 0.669431 0.7604915
vt 0.9977525 0.3664502
vt 0.7072908 0.239579
vt 0.7302918 0.2146649
vt 0.2057101 0.9709811
vt 0.7071403 0.4606727
vt 0.7247719 0.4841819
vt 0.6839701 0.5161216
vt 0.669431 0.7604915
vt 0.6994159 0.4660137
vt 0.6886903 0.4399215
vt 0.8600325 0.3305604
vt 0.9987503 0.3308021
vt 0.6983806 0.2802823
vt 0.6832177 0.2924659
vt 0.7124892 0.2488632
vt 0.7124892 0.2488632
vt 0.6839701 0.5161216
vt 0.6950896 0.7611241
vt 0.1891972 0.5780897
vt 0.2425373 0.9703467
vt 0.2057101 0.9709811
vt 0.8638975 0.283319
vt 0.33742 0.4037189
vt 0.3350474 0.435202
vt 0.2270896 0.9727602
vt 0.2057101 0.9709811
vt 0.7071403 0.4606727
vt 0.3250927 0.4867049
vt 0.8638975 0.283319
vt 0.9978912 0.2861676
vt 0.7448135 0.4157778
vt 0.7649254 0.450188
vt 0.6860664 0.3823414
vt 0.8638975 0.283319
vt 0.8638975 0.283319
vt 0.9773591 0.2415414
vt 0.849649 0.814949
vt 0.8828692 0.8130006
vt 0.8670176 0.5722364
vt 0.6853223 0.3328581
vt 0.6983806 0.2802823
vt 0.8640083 0.2545843
vt 0.8640083 0.2545843
vt 0.8670176 0.5722364
vt 0.8517157 0.5761976
vt 0.3350474 0.435202
vt 0.3250927 0.4867049
vt 0.681329 0.4161054
vt 0.6860664 0.3823414
vt 0.8199905 0.6079511
vt 0.5695945 0.6752623
vt 0.8199905 0.6079511
vt 0.8144984 0.8085884
vt 0.821252 0.8125521
vt 0.8517157 0.5761976
vt 0.8352444 0.5697899
vt 0.849649 0.814949
vt 0.6853223 0.3328581
vt 0.8517157 0.5761976
vt 0.5763513 0.6125592
vt 0.8352444 0.5697899
vt 0.8199905 0.6079511
vt 0.8517157 0.5761976
vt 0.8352444 0.5697899
vt 0.5741313 0.6687809
vt 0.5687543 0.6230742
vt 0.6753731 0.3521552
vt 0.6753731 0.3521552
vt 0.7306287 0.5165829
vt 0.7571264 0.5164906
vt 0.7606956 0.7614886
vt 0.2910331 0.5571273
vt 0.259291 0.5823712
vt 0.4230831 0.515656
vt 0.4793062 0.5782334
vt 0.5311252 0.5801516
vt 0.4793062 0.5782334
vt 0.1788662 0.217072
vt 0.3971858 0.4026132
vt 0.03891258 0.3943448
vt 0.04135787 0.419421
vt 0.03891258 0.3943448
vt 0.03936206 0.4474288
vt 0.04135787 0.419421
vt 0.3891316 0.571762
vt 0.4113611 0.5697746
vt 0.03936206 0.4474288
vt 0.3891316 0.571762
vt 0.3716504 0.5734155
vt 0.05065239 0.5028657
vt 0.06162367 0.5279809
vt 0.4230831 0.515656
vt 0.4132974 0.4904769
vt 0.1922201 0.9351504
vt 0.1614476 0.9349471
vt 0.1622119 0.8985256
vt 0.3891316 0.571762
vt 0.4176958 0.8156576
vt 0.391375 0.8167585
vt 0.4176958 0.8156576
vt 0.3749429 0.8152742
vt 0.3716504 0.5734155
vt 0.3401238 0.5770888
vt 0.3716504 0.5734155
vt 0.4132974 0.4904769
vt 0.4050023 0.4610865
vt 0.3527851 0.8156576
vt 0.3749429 0.8152742
vt 0.3716504 0.5734155
vt 0.1922201 0.9351504
vt 0.2009595 0.8989828
vt 0.04882314 0.3425404
vt 0.4610874 0.8118745
vt 0.4427415 0.5745387
vt 0.6168801 0.3551438
vt 0.3401238 0.5770888
vt 0.3527851 0.8156576
vt 0.3191436 0.5778921
vt 0.3401238 0.5770888
vt 0.1008031 0.5734087
vt 0.1737479 0.602144
vt 0.1892324 0.6024625
vt 0.1871098 0.8458732
vt 0.4581238 0.7191594
vt 0.4594045 0.6053755
vt 0.4581238 0.7191594
vt 0.3297428 0.8169635
vt 0.06162367 0.5279809
vt 0.07221394 0.5457642
vt 0.0640998 0.3039913
vt 0.05677249 0.3195285
vt 0.04882314 0.3425404
vt 0.0640998 0.3039913
vt 0.04882314 0.3425404
vt 0.5993304 0.4998055
vt 0.5311252 0.5801516
vt 0.3213928 0.8523008
vt 0.3672685 0.8518245
vt 0.1755276 0.846355
vt 0.5666379 0.5551346
vt 0.9158381 0.5667292
vt 0.156827 0.8460958
vt 0.2865186 0.8103331
vt 0.2865186 0.8103331
vt 0.3191436 0.5778921
vt 0.289091 0.5706406
vt 0.1390563 0.5998768
vt 0.156827 0.8460958
vt 0.1416655 0.8457517
vt 0.2855518 0.5750074
vt 0.6636319 0.4802631
vt 0.2855518 0.5750074
vt 0.283049 0.6143768
vt 0.1187591 0.575579
vt 0.1008031 0.5734087
vt 0.1242348 0.5817669
vt 0.1033143 0.2689223
vt 0.09277683 0.278416
vt 0.8957313 0.8833203
vt 0.2809168 0.7740957
vt 0.2857694 0.8173696
vt 0.2865186 0.8103331
vt 0.1224782 0.6123085
vt 0.1390563 0.5998768
vt 0.1030709 0.8458515
vt 0.1416655 0.8457517
vt 0.2512747 0.7430204
vt 0.9429638 0.03180391
vt 0.9412696 0.05257946
vt 0.93461 0.06479985
vt 0.0157713 0.1643758
vt 0.00844755 0.1677384
vt 0.9813311 0.6119236
vt 0.9845416 0.5725871
vt 0.96768 0.5712399
vt 0.6428804 0.4904171
vt 0.6597019 0.4868854
vt 0.6636319 0.4802631
vt 0.09004119 0.2679889
vt 0.1082462 0.2619866
vt 0.2473568 0.7804263
vt 0.9296366 0.04017079
vt 0.8450738 0.1612725
vt 0.8623562 0.1597996
vt 0.9374875 0.1652919
vt 0.9386162 0.1507641
vt 0.9397655 0.1677384
vt 0.01732788 0.1402418
vt 0.9845416 0.8082554
vt 0.9813311 0.6119236
vt 0.9593444 0.8150778
vt 0.1423241 0.5805757
vt 0.1187591 0.575579
vt 0.1242348 0.5817669
vt 0.126155 0.2490602
vt 0.09004119 0.2679889
vt 0.1082462 0.2619866
vt 0.2468017 0.8144581
vt 0.3733993 0.05342162
vt 0.00053305 0.04496068
vt 0.3733993 0.05342162
vt 0.04630284 0.06542122
vt 0.00328045 0.0596959
vt 0.00328045 0.0596959
vt 0.00073758 0.06043434
vt 0.00053305 0.04496068
vt 0.9593444 0.8150778
vt 0.9842209 0.815267
vt 0.96768 0.5712399
vt 0.9813311 0.6119236
vt 0.6428804 0.4904171
vt 0.6636319 0.4802631
vt 0.6403497 0.4808812
vt 0.6315625 0.2907559
vt 0.6273987 0.2609118
vt 0.6284369 0.2950709
vt 0.6284369 0.2950709
vt 0.6315625 0.2907559
vt 0.9429638 0.03180391
vt 0.9402957 0.0091964
vt 0.6472559 0.4179506
vt 0.6371635 0.3477449
vt 0.6384624 0.4195757
vt 0.6384624 0.4195757
vt 0.4905873 0.6964286
vt 0.6384624 0.4195757
vt 0.5386548 0.0391928
vt 0.06997375 0.03965354
vt 0.06997375 0.03965354
vt 0.00947561 0.03304625
vt 0.4205757 0.8881508
vt 0.3552336 0.8881579
vt 0.3672685 0.8518245
vt 0.6273987 0.2609118
vt 0.6315625 0.2907559
vt 0.6435518 0.2495582
vt 0.6361991 0.3303894
vt 0.6461112 0.3437886
vt 0.6361991 0.3303894
vt 0.6461112 0.3437886
vt 0.6461112 0.3437886
vt 0.9296366 0.04017079
vt 0.9279456 0.01491141
vt 0.8157312 0.03378439
vt 0.9279456 0.01491141
vt 0.9279456 0.01491141
vt 0.8059881 0.02238214
vt 0.8059881 0.02238214
vt 0.7476369 0.02324772
vt 0.7476369 0.02324772
vt 0.42272 0.1743868
vt 0.5528686 0.02549708
vt 0.5528686 0.02549708
vt 0.4585381 0.02674931
vt 0.516038 0.1738722
vt 0.2973662 0.02851599
vt 0.2973662 0.02851599
vt 0.2973662 0.02851599
vt 0.1460034 0.02985036
vt 0.1460034 0.02985036
vt 0.06997375 0.03965354
vt 0.05241599 0.03084731
vt 0.05241599 0.03084731
vt 0.00118059 0.0327971
vt 0.08329617 0.105367
vt 0.2014853 0.09778303
vt 0.9207879 0.1201778
vt 0.00821789 0.1087323
vt 0.9444255 0.568609
vt 0.4366349 0.2384987
vt 0.3993445 0.3407818
vt 0.4167883 0.2754308
vt 0.4123991 0.8539677
vt 0.6170442 0.4277921
vt 0.5993304 0.4998055
vt 0.126155 0.2490602
vt 0.1082462 0.2619866
vt 0.1423241 0.2502991
vt 0.6472061 0.2241842
vt 0.6435518 0.2495582
vt 0.6472559 0.4179506
vt 0.4798799 0.7106889
vt 0.929388 0.01125973
vt 0.04398634 0.1831518
vt 0.1698517 0.1769667
vt 0.1698517 0.1769667
vt 0.2284206 0.1763316
vt 0.2563554 0.1888209
vt 0.2284206 0.1763316
vt 0.42272 0.1743868
vt 0.516038 0.1738722
vt 0.6747714 0.1768579
vt 0.6747714 0.1768579
vt 0.8224089 0.1814338
vt 0.8224089 0.1814338
vt 0.9137053 0.1846631
vt 0.9137053 0.1846631
vt 0.9560106 0.1867428
vt 0.9650521 0.1875884
vt 0.9221321 0.1972565
vt 0.4880997 0.08630395
vt 0.4880997 0.08630395
vt 0.04979844 0.09185076
vt 0.08329617 0.105367
vt 0.00821789 0.1087323
vt 0.00461607 0.09095711
vt 0.00821789 0.1087323
vt 0.9475551 0.8138722
vt 0.9354733 0.8080322
vt 0.6428804 0.4904171
vt 0.6403497 0.4808812
vt 0.6205012 0.5028959
vt 0.09865125 0.6006103
vt 0.6412809 0.7960526
vt 0.6651936 0.2861888
vt 0.6315625 0.2907559
vt 0.6461112 0.3437886
vt 0.6472559 0.4179506
vt 0.6623039 0.4148067
vt 0.659834 0.3447747
vt 0.04153624 0.1852522
vt 0.04206866 0.2039474
vt 0.0282516 0.1900649
vt 0.04153624 0.1852522
vt 0.07864927 0.2011442
vt 0.9338301 0.9747227
vt 0.04206866 0.2039474
vt 0.07864927 0.2011442
vt 0.01628039 0.0916205
vt 0.9402957 0.0091964
vt 0.6641027 0.331885
vt 0.659834 0.3447747
vt 0.9249741 0.9767305
vt 0.9338301 0.9747227
vt 0.8664691 0.9474199
vt 0.6648278 0.2648978
vt 0.6472061 0.2241842
vt 0.6620754 0.2315764
vt 0.6620754 0.2315764
vt 0.6639199 0.3029801
vt 0.6639199 0.3029801
vt 0.6641027 0.331885
vt 0.503202 0.1926692
vt 0.6111436 0.5035741
vt 0.6205012 0.5028959
vt 0.08632155 0.8444312
vt 0.1030709 0.8458515
vt 0.8705754 0.9897348
vt 0.9042876 0.9635246
vt 0.8896461 0.9934211
vt 0.8896461 0.9934211
vt 0.9015831 0.9934019
vt 0.9015831 0.9934019
vt 0.9110333 0.9922473
vt 0.9110333 0.9922473
vt 0.9249741 0.9767305
vt 0.6020609 0.530839
vt 0.6205012 0.5028959
vt 0.6111436 0.5035741
vt 0.3094458 0.9839372
vt 0.3011727 0.9504265
vt 0.3426374 0.9487179
vt 0.08059771 0.6009465
vt 0.09865125 0.6006103
vt 0.08632155 0.8444312
vt 0.1030709 0.8458515
vt 0.08651425 0.8463926
vt 0.9354733 0.8080322
vt 0.9204064 0.5712349
vt 0.07080265 0.8454002
vt 0.4560984 0.2149484
vt 0.08632155 0.8444312
vt 0.08651425 0.8463926
vt 0.07080265 0.8454002
vt 0.5800131 0.563706
vt 0.6111436 0.5035741
vt 0.6111436 0.5035741
vt 0.5951111 0.5270658
vt 0.6261936 0.7892273
vt 0.6412809 0.7960526
vt 0.6308944 0.7790738
vt 0.08059771 0.6009465
vt 0.04707899 0.601464
vt 0.6123462 0.7639764
vt 0.9054882 0.8160588
vt 0.8828692 0.8130006
vt 0.5901262 0.556558
vt 0.6020609 0.530839
vt 0.4366349 0.2384987
vt 0.6167377 0.4671053
vt 0.9016697 0.5704313
vt 0.8828692 0.8130006
vt 0.3481841 0.9838097
vt 0.3094458 0.9839372
vt 0.3426374 0.9487179
vt 0.6123462 0.7639764
vt 0.5934854 0.7336466
vt 0.5800131 0.563706
vt 0.5901262 0.556558
vt 0.03348562 0.8453621
vt 0.5856863 0.7360853
vt 0.5950869 0.754015
vt 0.5856863 0.7360853
vt 0.6057037 0.2954549
vt 0.5800131 0.563706
vt 0.5740748 0.5843701
vt 0.7224065 0.5151644
vt 0.3662055 0.983849
vt 0.3481841 0.9838097
vt 0.3426374 0.9487179
vt 0.02876071 0.5995681
vt 0.03348562 0.8453621
vt 0.5856863 0.7360853
vt 0.5934854 0.7336466
vt 0.7082277 0.7608606
vt 0.3662055 0.983849
vt 0.3783973 0.9487244
vt 0.5687543 0.6230742
vt 0.5740748 0.5843701
vt 0.4560984 0.2149484
vt 0.4701133 0.2035284
vt 0.01332623 0.6004958
vt 0.0163278 0.8059285
vt 0.0163278 0.8059285
vt 0.01958636 0.846355
vt 0.0163278 0.8059285
vt 0.7308499 0.7614405
vt 0.7082277 0.7608606
vt 0.7937801 0.5165829
vt 0.7962706 0.7216654
vt 0.7606956 0.7614886
vt 0.7962706 0.7216654
vt 0.7990405 0.762142
vt 0.6057037 0.2954549
vt 0.5407 0.2001673
vt 0.5741313 0.6687809
vt 0.5687543 0.6230742
vt 0.5695945 0.6752623
vt 0.7224065 0.5151644
vt 0.7306287 0.5165829
vt 0.7606956 0.7614886
vt 0.7643806 0.3245187
vt 0.7436034 0.3563372
vt 0.3971469 0.9840226
vt 0.3783973 0.9487244
vt 0.5852844 0.2467241
vt 0.3971469 0.9840226
vt 0.4128907 0.948442
vt 0.7643806 0.3245187
vt 0.7443247 0.2889794
vt 0.7436034 0.3563372
vt 0.4500569 0.9839372
vt 0.4128907 0.948442
vt 0.4500569 0.9839372
vt 0.4490117 0.9629263
vt 0.7649254 0.262495
vt 0.75296 0.2603383
vt 0.75296 0.2603383
vt 0.7443247 0.2889794
vt 0.4490117 0.9629263
vt 0.4653518 0.9485208
vn -0.09101023 0.9957697 0.01263765
vn -0.09101023 0.9957697 0.01263765
vn -0.143107 0.989624 -0.01283296
vn -0.09721714 0.9950029 0.02275981
vn -0.09721714 0.9950029 0.02275981
vn 0.08673777 0.9959775 0.02248257
vn 0.379435 0.925203 0.0053342
vn 0.07992336 0.9966484 0.01744509
vn 0.3675255 0.9298759 0.01599414
vn 0.006677165 0.3162575 0.9486499
vn 0.03763818 0.07388856 0.996556
vn 0.006677165 0.3162575 0.9486499
vn -0.5390313 0.8421731 -0.01377594
vn -0.2323348 0.9726172 0.006022569
vn -0.5466301 0.8373528 -0.005979229
vn 0.4824204 0.8759319 0.003728467
vn 0.5363443 0.843931 0.01073377
vn 0.4824204 0.8759319 0.003728467
vn 0.5279592 0.8490683 0.01849368
vn 0.6622489 0.7484865 0.03455932
vn -0.2602489 0.9655407 -0.001297254
vn -0.06943364 0.8351724 0.5455878
vn 0.1038491 0.9945813 0.004837094
vn -0.08790738 0.995804 -0.02543097
vn -0.2372922 0.9711396 -0.02408956
vn -0.006202558 0.00567824 0.9999647
vn 0.002601562 0.001077752 0.999996
vn 0.2725494 0.9620228 -0.01512993
vn 0.09139959 0.9955913 -0.02107275
vn 0.655911 0.7547931 0.008251318
vn 0.5831541 0.8123487 -0.004576274
vn 0.07997181 0.8332551 0.5470745
vn 0.1892697 0.9684805 0.1619336
vn 0.1892697 0.9684805 0.1619336
vn 0.2873509 0.9561489 0.05664589
vn 0.2873509 0.9561489 0.05664589
vn 0.2873509 0.9561489 0.05664589
vn 0.2882843 0.9575421 -0.002309962
vn 0.2882843 0.9575421 -0.002309962
vn 0.2882843 0.9575421 -0.002309962
vn 0.2775752 0.9605296 -0.01829927
vn 0.6620598 0.7493136 0.01435024
vn 0.6620598 0.7493136 0.01435024
vn -0.5124682 0.854391 0.08597903
vn 0.05189282 -0.09045104 0.994548
vn -0.2238224 0.5534576 0.8022395
vn -0.5426493 0.8390182 -0.03975296
vn -0.3337637 0.9426053 -0.009858081
vn -0.09897577 0.1770528 -0.979212
vn 0.09967956 -0.3049422 -0.94714
vn -0.1199004 0.4203491 0.8994057
vn 0.03427495 -0.5014636 0.8644996
vn 0.001955154 0.04776118 0.9988568
vn -0.04597232 -0.3639317 0.9302904
vn 0.01801931 -0.4437142 0.8959872
vn 0.3876202 0.8988222 0.2046198
vn 0.3876202 0.8988222 0.2046198
vn 0.3876202 0.8988222 0.2046198
vn -0.00934228 0.00650944 0.9999352
vn -0.0004910916 -0.0002024975 0.9999999
vn -0.00934228 0.00650944 0.9999352
vn 0.1187756 -0.4743258 0.8723001
vn -0.1525975 -0.4104294 0.8990337
vn -0.168444 -0.3789932 0.90994
vn 0.1127966 0.3666065 0.9235132
vn 0.4608846 0.8874573 -0.00224386
vn 0.4656195 0.8816562 0.0766861
vn 0.4608846 0.8874573 -0.00224386
vn 0.4559956 0.8899811 -0.00130408
vn 0.4742911 0.8797845 -0.0320494
vn 0.4536757 0.8910728 -0.01295406
vn 0.4536757 0.8910728 -0.01295406
vn 0.3063284 0.5197851 0.7974876
vn 0.3063284 0.5197851 0.7974876
vn 0.6513066 0.6518883 0.388383
vn 0.6513066 0.6518883 0.388383
vn 0.6513066 0.6518883 0.388383
vn 0.7305161 0.6825912 -0.02038109
vn 0.8483045 0.515458 0.1211715
vn 0.7305161 0.6825912 -0.02038109
vn 0.7057973 -0.6499605 0.281783
vn 0.1392805 -0.3656052 0.9202901
vn 0.5717495 0.8036419 0.1651129
vn -0.707694 0.7065117 -0.003226856
vn -0.49915 0.7742878 0.3890086
vn 0.6146675 0.7882406 -0.02933902
vn 0.7601218 0.6497502 0.006297422
vn 0.7601218 0.6497502 0.006297422
vn -0.62695 0.7789504 -0.0130396
vn -0.6916057 0.7214839 -0.03379845
vn -0.6017149 0.3905296 0.6967251
vn -0.4869245 0.5642807 0.6667022
vn -0.2733928 -0.3385129 0.9003696
vn -0.2851287 -0.34568 0.8939837
vn 0.2493317 0.2968596 0.9217961
vn 0.2493317 0.2968596 0.9217961
vn 0.8006959 0.5989893 0.009895314
vn -0.9358222 0.3521512 0.01504464
vn -0.8355564 0.549115 0.01783475
vn -0.8355564 0.549115 0.01783475
vn 0.6236748 -0.7805516 -0.0420588
vn 0.07446007 -0.1387364 -0.9875262
vn 0.4488742 -0.8923486 -0.04717992
vn -0.2459354 -0.2762503 0.9290864
vn -0.2459354 -0.2762503 0.9290864
vn 0.4396293 0.4470446 0.7790232
vn 0.8704746 0.4918047 -0.02005539
vn 0.7210425 0.6924729 -0.02406389
vn 0.07162052 0.05515034 0.9959061
vn 0.07162052 0.05515034 0.9959061
vn 0.4013086 -0.2835814 0.870938
vn -0.1056015 0.09544444 0.9898175
vn 0.2329659 -0.2207045 0.9471095
vn 0.7445459 -0.6675289 -0.007524949
vn 0.8261356 -0.5613862 -0.0484311
vn 0.7445459 -0.6675289 -0.007524949
vn -0.2288387 -0.1255805 0.9653302
vn -0.2446915 -0.182125 0.9523427
vn -0.2288387 -0.1255805 0.9653302
vn 0.822768 0.568377 0.0007162918
vn 0.8837835 0.4672018 0.02547935
vn -0.610564 0.3887609 0.689983
vn -0.9092196 0.4162491 0.007520276
vn 0.763713 -0.6454337 -0.01255863
vn 0.8459385 -0.5328135 -0.0223103
vn 0.6194524 -0.4209711 -0.6626175
vn 0.9321399 -0.3595402 -0.04296692
vn -0.06209727 0.02854011 -0.9976619
vn 0.1982927 -0.07528121 -0.9772475
vn 0.1982927 -0.07528121 -0.9772475
vn 0.8849015 -0.4654387 -0.01778164
vn 0.9617738 0.2737485 0.007273172
vn 0.9064018 0.4215828 -0.02652686
vn 0.8836136 0.4681729 0.006410193
vn 0.9292197 -0.3672434 -0.04102388
vn 0.0002026062 -0.002101855 0.9999978
vn -0.1980595 -0.1152015 0.9733967
vn 0.5985911 0.2806972 0.7502651
vn -0.4184627 0.2119374 0.8831599
vn -0.328718 0.03275778 0.9438598
vn -0.3591039 -0.1207391 0.9254547
vn 0.05641179 -0.001484293 0.9984065
vn 0.3352314 0.1001543 0.9367972
vn 0.01077404 0.009401267 0.9998978
vn 0.09422021 -0.00535308 0.995537
vn 0.8138525 -0.5810478 -0.005237139
vn 0.7642746 -0.4550565 0.4569551
vn 0.9621649 -0.2511027 0.1057642
vn 0.957916 -0.2855655 -0.02914403
vn 0.9617876 0.2720358 -0.03100171
vn 0.9956927 0.09271175 0.0008354984
vn 0.9624833 0.2708877 0.0156762
vn 0.9227524 0.3849512 0.01845269
vn 0.2105191 -0.1014726 0.9723091
vn 0.3245848 -0.155564 -0.9329762
vn 0.3245848 -0.155564 -0.9329762
vn -0.2724088 0.9326027 0.2367397
vn -0.2817058 0.9174821 -0.2808353
vn -0.6488808 0.7358251 0.1936886
vn -0.9364218 -0.242661 0.2534361
vn -0.3404541 -0.09778833 0.9351622
vn -0.7732666 0.5001377 0.3897704
vn -0.2830234 0.8707826 0.4020393
vn -0.2830234 0.8707826 0.4020393
vn -0.1433805 0.7734652 0.6174088
vn -0.1433805 0.7734652 0.6174088
vn -0.001770656 -0.00603185 0.9999802
vn -0.001770656 -0.00603185 0.9999802
vn 0.3031377 0.7592281 0.5759169
vn 0.3031377 0.7592281 0.5759169
vn 0.3031377 0.7592281 0.5759169
vn -0.1117911 0.16024 0.9807273
vn 0.50635 0.8606079 -0.05444076
vn 0.04988138 0.9473933 -0.316161
vn 0.6317372 0.6697164 -0.3903691
vn 0.389626 0.9003493 0.1938112
vn 0.5809806 0.744912 0.327975
vn 0.3885712 0.9161646 -0.09825946
vn -0.002937597 -0.00006025061 0.9999957
vn -0.002937597 -0.00006025061 0.9999957
vn -0.9270051 0.3749535 -0.008458604
vn -0.3087884 0.8399327 -0.4462766
vn -0.7792541 0.46627 -0.4187545
vn -0.2154238 0.1395952 0.9664915
vn -0.08610909 0.1442184 0.9857922
vn 0.01324005 0.1969385 0.9803265
vn 0.3345421 0.6426316 0.6892794
vn 0.3345421 0.6426316 0.6892794
vn 0.3345421 0.6426316 0.6892794
vn 0.796199 0.5084079 -0.328007
vn 0.9716387 0.2360299 0.01442727
vn 0.9927994 0.1197875 0.0005932843
vn 0.5599679 -0.07156175 -0.825418
vn 0.5599679 -0.07156175 -0.825418
vn 0.9621608 -0.2678345 0.05011328
vn 0.9944357 -0.05483608 0.08994798
vn 0.997849 -0.05505411 -0.03558573
vn 0.9871286 -0.1567879 -0.03154021
vn -0.8128582 0.4014162 0.4220505
vn -0.5239941 0.3622339 0.7708545
vn -0.112231 0.004874093 0.9936702
vn 0.1786259 0.3952804 0.9010251
vn -0.3898628 0.9185598 0.06522869
vn -0.5006826 0.8627973 -0.069984
vn 0.004518683 0.9992657 0.03804695
vn 0.004518683 0.9992657 0.03804695
vn 0.006813362 0.9989261 -0.04582843
vn 0.4800296 0.8732514 0.08368751
vn 0.1649381 0.8361191 0.5231638
vn -0.01981185 0.9904898 -0.1361522
vn 0.06965362 0.9930081 -0.09530634
vn -0.01981185 0.9904898 -0.1361522
vn -0.0174091 0.9998021 -0.00963402
vn -0.0174091 0.9998021 -0.00963402
vn 0.4022863 0.9155132 -0.001171823
vn 0.4285796 0.9034436 0.01045038
vn 0.008299105 0.9999569 -0.004158123
vn -0.0909682 0.2615352 0.9608976
vn -0.0909682 0.2615352 0.9608976
vn -0.0909682 0.2615352 0.9608976
vn 0.07565217 0.06096647 0.9952687
vn 0.07565217 0.06096647 0.9952687
vn 0.07565217 0.06096647 0.9952687
vn 0.06663318 0.1019794 0.9925524
vn 0.06663318 0.1019794 0.9925524
vn 0.06663318 0.1019794 0.9925524
vn 0.5020301 0.8302563 -0.2421574
vn 0.6915575 0.6786512 -0.2473474
vn 0.8220446 0.05271186 -0.5669781
vn 0.5364039 0.5636031 0.6281897
vn 0.7887385 0.448064 0.4208683
vn 0.8817359 0.4717434 -0.0001171556
vn -0.6525971 0.1605328 0.7405041
vn -0.9548814 0.03505892 0.294911
vn -0.6525971 0.1605328 0.7405041
vn -0.6951721 0.716717 -0.05524933
vn -0.8450884 0.5278991 0.08454745
vn -0.7485079 0.6569847 -0.09003899
vn -0.3062055 0.6866961 -0.6593077
vn -0.7485079 0.6569847 -0.09003899
vn 0.00307528 -0.002054289 0.9999931
vn 0.00307528 -0.002054289 0.9999931
vn -0.5577738 0.8296473 -0.02395392
vn -0.5577738 0.8296473 -0.02395392
vn -0.4662837 0.861099 0.2027019
vn -0.5005774 0.8656908 -0.001329812
vn -0.4597618 0.8880401 0.001940105
vn -0.4545632 0.8907142 0.0007123213
vn -0.4588644 0.8885059 -0.0008503547
vn -0.4778973 0.8784153 0.0008798561
vn -0.4608302 0.8874802 0.003797379
vn -0.04073534 0.9991629 -0.00376877
vn -0.4704215 0.8824415 -0.0008364395
vn -0.4928873 0.8700907 -0.002091088
vn -0.4810946 0.8766679 0.001201768
vn -0.4810946 0.8766679 0.001201768
vn -0.4810946 0.8766679 0.001201768
vn -0.4757386 0.8795769 -0.004152056
vn -0.4757386 0.8795769 -0.004152056
vn -0.4933483 0.8698318 0.0003601172
vn -0.4806758 0.8768876 0.004354144
vn -0.4806758 0.8768876 0.004354144
vn 0.05536477 0.9982617 -0.02020796
vn 0.4190371 0.9079691 -0.0004038571
vn -0.00872722 0.9999617 0.0005849525
vn -0.03232296 0.9994767 -0.001221052
vn -0.03232296 0.9994767 -0.001221052
vn -0.01235486 0.9999236 -0.0001059103
vn 0.4050636 0.9142885 0.0003179571
vn -0.05517492 0.9984756 -0.001464651
vn -0.07449945 0.9972192 0.001913732
vn -0.07449945 0.9972192 0.001913732
vn -0.07449945 0.9972192 0.001913732
vn 0.00774525 0.9999275 -0.009216674
vn 0.00774525 0.9999275 -0.009216674
vn -0.04648649 0.9988313 -0.01322738
vn -0.1888179 0.977741 -0.09148951
vn -0.1888179 0.977741 -0.09148951
vn 0.63054 -0.1616522 0.7591363
vn 0.09510503 0.1163838 0.9886404
vn 0.1349381 0.0519154 0.9894931
vn 0.673137 0.7392117 -0.02127461
vn 0.4337988 0.9010032 0.003432387
vn 0.4288896 0.9033569 0.0000382506
vn 0.4009595 0.9160939 0.00182178
vn 0.7892641 0.6140432 0.003627751
vn 0.4436058 0.8962077 -0.005047888
vn 0.8130465 0.5818983 -0.01870359
vn 0.7362522 0.6753749 0.042442
vn 0.9666111 0.2145638 -0.1400908
vn 0.7362522 0.6753749 0.042442
vn 0.4084731 0.9127063 -0.01081599
vn 0.4084731 0.9127063 -0.01081599
vn 0.9805292 0.1955386 0.01808803
vn 0.4965984 0.8601789 0.1161132
vn 0.1096742 0.06627893 0.9917554
vn 0.1318714 -0.0155282 0.9911452
vn 0.1096742 0.06627893 0.9917554
vn 0.430513 0.04872856 0.9012681
vn 0.430513 0.04872856 0.9012681
vn 0.430513 0.04872856 0.9012681
vn 0.7071837 0.3155995 -0.6326833
vn 0.1591444 0.06795361 0.9849139
vn 0.1591444 0.06795361 0.9849139
vn 0.5961959 0.2750205 0.754264
vn 0.9593211 0.239102 0.1501106
vn 0.7425131 0.4625652 0.4844664
vn -0.3690044 -0.01109002 0.9293615
vn -0.3690044 -0.01109002 0.9293615
vn 0.8557817 0.07420127 0.5119882
vn 0.8557817 0.07420127 0.5119882
vn 0.9935831 0.1125381 0.01130174
vn 0.9953871 -0.09593986 0.0002239534
vn 0.9948685 0.09185231 -0.04242445
vn 0.9948685 0.09185231 -0.04242445
vn 0.9948685 0.09185231 -0.04242445
vn -0.0069914 0.00575392 0.999959
vn 0.007021849 -0.00007241256 0.9999753
vn -0.993851 0.1103021 -0.009673025
vn -0.6823501 0.7309459 -0.01079365
vn -0.9993926 0.03472207 0.002970954
vn -0.9365819 0.3504411 -0.002314142
vn 0.9298265 -0.3633938 0.05803131
vn 0.9256378 -0.243287 0.289838
vn 0.7903343 0.6005435 0.1213226
vn 0.9909819 0.1333235 -0.01340194
vn 0.9978001 -0.05110057 0.04223524
vn 0.8527068 -0.5218335 -0.02410107
vn -0.002510822 -0.0002412194 0.9999968
vn -0.00001783316 0.004605195 0.9999894
vn 0.7595825 -0.6502826 -0.01292336
vn 0.7882792 -0.615315 -0.001850983
vn 0.7605823 -0.649182 0.008794325
vn 0.491727 -0.8707473 0.001944108
vn 0.5008796 -0.865517 -0.0002392636
vn 0.4958543 -0.8683871 0.00569476
vn 0.2132084 -0.9770061 -0.001077064
vn 0.5562534 -0.8257936 0.09299011
vn 0.7213514 -0.691877 -0.03095518
vn 0.9511065 -0.308722 -0.009337477
vn 0.009477828 0.007441888 0.9999274
vn 0.009477828 0.007441888 0.9999274
vn 0.916127 0.0412159 -0.3987638
vn 0.8602391 -0.2798788 -0.4262119
vn 0.7884378 -0.2773802 -0.5490229
vn 0.9096393 -0.06367516 0.4104897
vn 0.955292 -0.2692563 0.1221401
vn 0.9806351 -0.195345 0.01397029
vn 0.9876966 -0.1563742 0.00157884
vn 0.9759701 0.1218142 -0.1806755
vn 0.9740127 0.2134378 0.07578675
vn 0.9580386 0.2849045 -0.03148929
vn -0.6023893 -0.3243867 0.729315
vn -0.6023893 -0.3243867 0.729315
vn 0.2299505 -0.9731917 -0.004545294
vn 0.5114875 -0.8592907 0.00008215656
vn 0.1418324 -0.9898907 -0.0001415856
vn -0.2215627 -0.9704564 -0.09552119
vn 0.4639449 -0.8858634 -0.001073441
vn 0.4347795 -0.9005354 -0.001665424
vn -0.05290398 -0.9985395 -0.01095379
vn -0.3906084 -0.9205564 0.0009462627
vn 0.4354972 -0.9001609 0.007243067
vn 0.09180961 -0.9957761 -0.001012044
vn 0.1232043 -0.9923791 0.002113401
vn 0.1024824 -0.9947345 -0.0008640913
vn 0.1425897 -0.9897816 0.0007952831
vn 0.1095641 -0.9939791 0.00112791
vn 0.3271604 -0.9445702 -0.02744624
vn 0.09694418 -0.1252979 0.9873714
vn 0.6831417 -0.680564 0.2648585
vn -0.0209217 -0.01862454 0.9996076
vn 0.1791083 -0.0993722 0.9787979
vn 0.1791083 -0.0993722 0.9787979
vn 0.9738685 -0.1814046 -0.1366469
vn 0.8439595 -0.275702 0.4601314
vn 0.9198902 -0.3181372 0.2293269
vn 0.9948004 -0.1017659 0.003967131
vn 0.9960227 -0.08080069 -0.03754976
vn 0.9952277 -0.09299822 -0.02954918
vn -0.9948284 -0.1014967 -0.003850483
vn -0.8663144 -0.117641 0.4854483
vn 0.4594885 0.09446628 0.8831457
vn 0.3077114 -0.01778357 0.9513136
vn 0.9931011 -0.1063831 -0.04932276
vn 0.9003311 0.2052812 -0.3837492
vn 0.6713375 -0.7408841 -0.01991854
vn 0.971074 -0.2374726 -0.02494262
vn -0.3167681 0.02721827 0.9481124
vn -0.3167681 0.02721827 0.9481124
vn 0.9981427 -0.05268818 0.03058033
vn -0.2904634 -0.6169166 0.7314677
vn -0.3509934 -0.7373782 0.5771284
vn 0.165369 -0.6418548 0.7487828
vn 0.2149177 -0.5161579 0.8290907
vn 0.7565436 -0.6480508 0.08758958
vn 0.249748 -0.8414113 0.4792213
vn 0.9648616 -0.2603807 -0.03527096
vn 0.01027562 -0.004194732 0.9999384
vn 0.2707704 -0.03407702 0.9620406
vn 0.117789 0.06867312 -0.9906613
vn 0.08437072 -0.05099215 -0.9951288
vn 0.885208 -0.4649831 0.01405296
vn 0.9702269 -0.2417767 0.01427481
vn 0.8163878 -0.3799425 -0.4349191
vn 0.9737528 -0.1918781 0.1224266
vn -0.596219 -0.2384504 0.7665927
vn -0.5692604 -0.2217172 0.791697
vn 0.6836632 0.5443326 0.4861138
vn 0.3305713 0.105498 0.9378661
vn -0.007628065 -0.002373885 0.9999681
vn 0.8816786 0.4702111 0.03929812
vn 0.9430081 0.33057 -0.03819858
vn 0.9566957 0.28934 0.03187083
vn -0.9462517 0.2391293 0.2177725
vn -0.192917 0.1658428 0.9670984
vn 0.8673753 -0.4973158 -0.01836158
vn 0.8215577 0.5697829 -0.01975752
vn 0.3168275 -0.284937 0.9046719
vn 0.4617975 -0.2205565 0.8591263
vn 0.9045512 -0.4109114 0.1137493
vn 0.3735708 0.3124981 0.8733784
vn 0.4221749 0.3117316 0.8512295
vn 0.789941 -0.6131726 0.003560701
vn 0.787815 -0.615285 -0.02778363
vn -0.4534964 -0.4943765 0.7415746
vn -0.06529359 -0.1117004 0.9915946
vn 0.6503263 0.7333116 0.1983174
vn 0.6418083 0.7584708 -0.1131551
vn -0.400964 0.4693585 0.7867214
vn 0.1183561 -0.1622249 0.97963
vn -0.2533075 0.2189281 0.9422875
vn -0.2108562 0.1924674 0.958382
vn 0.7215095 -0.6923274 0.01033839
vn 0.6672577 -0.7446803 -0.01477657
vn 0.8106464 -0.5109885 0.2859077
vn 0.74774 -0.6639128 -0.01022699
vn 0.9253779 -0.3789538 0.008353475
vn 0.5537772 0.8326179 0.008839972
vn -0.01259804 -0.01035021 0.9998671
vn -0.01259804 -0.01035021 0.9998671
vn 0.8120861 -0.5835084 -0.005832267
vn 0.8450429 -0.5346985 0.0002178945
vn 0.2842452 0.3394986 0.89663
vn -0.00864466 -0.008007153 0.9999306
vn 0.5618773 0.8271953 0.006461839
vn 0.4418759 0.8967153 -0.02544234
vn 0.6596782 -0.7515219 -0.006282656
vn 0.6494817 -0.5761204 0.4962446
vn 0.1797502 0.2092441 0.9612007
vn 0.4157832 0.9020149 0.1161613
vn 0.3773951 0.9259712 0.01225742
vn 0.2711441 0.9625271 -0.004736603
vn -0.2307833 0.9729414 -0.01114098
vn -0.541153 0.840916 -0.003696965
vn -0.4634935 0.8854948 -0.0327531
vn -0.07020545 0.3017152 0.9508097
vn -0.09435223 0.3244198 0.9411958
vn 0.4099021 0.7237961 0.5550671
vn 0.3151685 0.9489999 0.008241356
vn -0.3844661 0.9228161 -0.02441881
vn -0.3059837 0.9511624 -0.04079302
vn -0.01182592 -0.01021095 0.9998779
vn -0.01182592 -0.01021095 0.9998779
vn -0.1535538 -0.3363956 0.9291174
vn 0.1318841 0.7905709 0.5980002
vn 0.09445308 0.9955022 -0.00734626
vn 0.01862562 0.06868818 -0.9974643
vn 0.1052791 0.9943913 -0.01011694
vn 0.1574086 0.9875336 -0.000113105
vn 0.07005066 0.9958728 0.05770866
vn -0.1121544 0.9934154 -0.0233946
vn 0.07827266 0.9048681 -0.4184341
vn -0.1384881 0.9902953 0.0116741
vn -0.02500135 0.2793417 0.9598662
vn -0.1217567 0.9465016 -0.2988481
vn -0.2945428 0.5833977 -0.7568961
vn -0.1217567 0.9465016 -0.2988481
vn 0.09513261 0.9949347 -0.03247786
vn -0.1002066 0.9213999 -0.3754742
vn -0.1002066 0.9213999 -0.3754742
vn -0.01124978 0.4216228 -0.9067015
vn -0.01124978 0.4216228 -0.9067015
vn 0.006079757 -0.3973008 0.9176683
vn 0.05308586 -0.5467041 0.8356414
vn 0.2546329 -0.9669126 0.01555945
vn -0.0436121 -0.9986453 0.02838272
vn 0.07664402 -0.9967057 -0.02652174
vn -0.0005265517 -0.02621926 0.9996561
vn -0.0005265517 -0.02621926 0.9996561
vn -0.006575305 -0.0112755 -0.9999148
vn -0.003831004 -0.1045226 -0.9945151
vn 0.006947148 -0.01373821 -0.9998815
vn 0.001712628 -0.02995783 -0.9995497
vn -0.002912141 0.02205529 0.9997525
vn -0.01061918 -0.006615507 -0.9999217
vn 0.007190766 -0.001168446 -0.9999735
vn 0.007190766 -0.001168446 -0.9999735
vn 0.007040715 -0.1266374 -0.9919241
vn 0.007040715 -0.1266374 -0.9919241
vn 0.007040715 -0.1266374 -0.9919241
vn 0.009934095 -0.5510537 -0.8344107
vn 0.3364279 -0.8872712 -0.3155411
vn 0.004209514 -0.1172516 -0.9930933
vn -0.07088427 -0.4335701 -0.8983276
vn -0.07088427 -0.4335701 -0.8983276
vn 0.01189549 0.01957529 -0.9997376
vn -0.03605949 -0.07892372 -0.9962283
vn -0.005220733 -0.01046436 -0.9999316
vn -0.005220733 -0.01046436 -0.9999316
vn -0.773538 0.6337422 0.003147727
vn -0.6327564 0.7743024 0.008671394
vn -0.5960726 0.8029218 -0.003750556
vn 0.03923635 -0.9977854 -0.05370964
vn 0.3258508 -0.9448764 -0.03209135
vn 0.05656479 -0.997688 0.03767111
vn 0.2219622 -0.9748476 -0.02012046
vn -0.195209 -0.9807276 -0.008183257
vn -0.2780475 -0.9585369 -0.0624223
vn -0.5403159 -0.7701932 -0.3389119
vn -0.2986379 -0.7626629 -0.5737252
vn -0.007172169 -0.01090392 -0.9999148
vn -0.007172169 -0.01090392 -0.9999148
vn -0.4004014 -0.9158217 0.0308127
vn -0.3165072 -0.9485749 -0.005371118
vn -0.407662 -0.9120923 -0.04358248
vn -0.8058732 0.5920709 -0.004517328
vn -0.8058732 0.5920709 -0.004517328
vn 0.09178057 -0.07565036 -0.9929015
vn 0.6572963 -0.7536266 -0.002912413
vn 0.5557089 -0.8298676 -0.05007414
vn 0.003656511 0.000898244 -0.9999929
vn -0.5658033 -0.8243131 -0.01935197
vn -0.5801969 -0.8137777 0.03372516
vn -0.7839603 -0.6188333 -0.04951382
vn -0.5572808 -0.7750115 -0.2979853
vn -0.1868919 -0.1009782 -0.977177
vn -0.8083984 0.5881624 0.02360071
vn -0.77671 0.6298529 -0.002646359
vn -0.7800865 0.6252344 -0.0233869
vn 0.6046246 -0.7964938 -0.005171756
vn 0.6046246 -0.7964938 -0.005171756
vn 0.640474 -0.767977 0.002104229
vn -0.8446191 -0.5195072 0.1293479
vn 0.09224208 0.09309939 -0.9913747
vn 0.09224208 0.09309939 -0.9913747
vn -0.3116456 0.2839708 -0.9067731
vn -0.3116456 0.2839708 -0.9067731
vn -0.3116456 0.2839708 -0.9067731
vn 0.05402699 -0.05791956 -0.9968582
vn 0.05402699 -0.05791956 -0.9968582
vn 0.01759109 -0.001138141 -0.9998446
vn 0.02717979 -0.0336915 -0.9990627
vn -0.8500628 0.5266088 0.008743638
vn -0.9846596 0.1727164 0.0247879
vn -0.8501499 0.5260979 -0.02159087
vn -0.02186437 0.02133597 -0.9995332
vn 0.7365584 -0.6763626 0.003906261
vn -0.9058942 0.4234591 -0.00616046
vn -0.9472257 -0.2779541 0.1597026
vn -0.9593355 -0.2817413 -0.01723926
vn -0.8432426 -0.5363179 -0.03612341
vn -0.7580731 -0.4180224 -0.5005822
vn -0.9919884 0.1238357 0.0249742
vn -0.9416549 0.3365116 -0.006778895
vn -0.9569994 0.2887839 -0.02749698
vn -0.9656569 -0.2508017 -0.06786221
vn -0.5049121 -0.204171 -0.8386763
vn -0.9575144 -0.2821169 -0.05980076
vn -0.970526 -0.2370494 -0.04343894
vn -0.142325 -0.05342204 -0.9883773
vn -0.142325 -0.05342204 -0.9883773
vn -0.142325 -0.05342204 -0.9883773
vn 0.6821594 -0.06889692 -0.7279505
vn 0.6821594 -0.06889692 -0.7279505
vn 0.05649286 0.8715215 -0.4870923
vn -0.2461049 0.9131991 -0.3248074
vn -0.7833315 -0.4703437 0.4064094
vn -0.7833315 -0.4703437 0.4064094
vn -0.9944177 0.105497 -0.001953311
vn -0.9866948 0.160389 0.02662159
vn -0.9959724 -0.07326829 -0.05167966
vn -0.9938748 0.1081544 -0.0227062
vn -0.7829312 0.381733 -0.4912215
vn -0.9526768 0.2691818 -0.141238
vn -0.7391995 0.5746975 -0.3511508
vn -0.4733192 0.7787028 -0.4118142
vn 0.07149881 0.6220316 -0.7797209
vn 0.07149881 0.6220316 -0.7797209
vn -0.9908285 -0.1249614 -0.05141531
vn -0.9908285 -0.1249614 -0.05141531
vn -0.9908285 -0.1249614 -0.05141531
vn -0.6880035 -0.06361336 -0.7229139
vn -0.6880035 -0.06361336 -0.7229139
vn -0.6880035 -0.06361336 -0.7229139
vn -0.04447751 -0.01365067 -0.9989171
vn -0.04447751 -0.01365067 -0.9989171
vn -0.9093599 0.4150109 -0.02881858
vn -0.6097533 0.6426667 -0.4638754
vn -0.07404587 0.9971409 0.01506969
vn -0.07404587 0.9971409 0.01506969
vn -0.0898174 0.8941526 0.4386614
vn -0.0898174 0.8941526 0.4386614
vn -0.0898174 0.8941526 0.4386614
vn 0.6320816 0.6714152 -0.386878
vn -0.9910113 -0.1323482 -0.01950569
vn -0.9971262 -0.0757579 -0.0004641328
vn -0.979407 -0.02259015 0.2006282
vn -0.05154226 0.02404846 -0.9983812
vn -0.05154226 0.02404846 -0.9983812
vn -0.05154226 0.02404846 -0.9983812
vn 0.1150776 0.002169314 -0.9933541
vn 0.1150776 0.002169314 -0.9933541
vn 0.1150776 0.002169314 -0.9933541
vn -0.8990145 0.4287463 0.08916065
vn -0.8483152 0.5294867 -0.002268025
vn -0.890126 0.4517812 0.05974425
vn -0.8534794 0.5211088 0.004298417
vn -0.53597 0.8442143 -0.006201877
vn -0.9085796 0.4112515 -0.07317947
vn -0.7307639 0.2137962 0.6482865
vn -0.7307639 0.2137962 0.6482865
vn -0.7307639 0.2137962 0.6482865
vn -0.9865401 -0.03517916 0.1596907
vn -0.9865401 -0.03517916 0.1596907
vn -0.9940619 -0.04986992 -0.0967151
vn -0.9953926 -0.0913901 -0.02900612
vn -0.416411 -0.07214865 -0.9063092
vn -0.416411 -0.07214865 -0.9063092
vn -0.416411 -0.07214865 -0.9063092
vn -0.9951763 0.09717943 -0.01342964
vn -0.9951763 0.09717943 -0.01342964
vn -0.9951763 0.09717943 -0.01342964
vn -0.9558869 0.0678345 -0.285795
vn -0.8555337 -0.4670523 -0.2234377
vn -0.9350215 -0.02641868 -0.3536054
vn -0.8871837 -0.4386421 -0.1431721
vn -0.9774362 -0.2104225 -0.01845768
vn -0.9974716 0.06749149 -0.02225388
vn -0.9978296 0.06584097 0.001052052
vn -0.9064268 0.1447425 0.3967872
vn -0.150121 -0.09573166 0.9840219
vn -0.8972924 0.1380196 0.4193054
vn -0.9767799 -0.2142328 -0.002310276
vn -0.998676 0.05143666 -0.0006884951
vn -0.9682204 -0.2499672 0.008098877
vn -0.9348198 -0.3251391 -0.1428165
vn -0.9785729 -0.2043428 0.02528073
vn -0.9804889 0.1962931 0.01051325
vn -0.9906323 0.1365561 0.0003517966
vn -0.9933146 -0.1127396 0.02481944
vn -0.9082401 -0.4181904 0.01472199
vn -0.8210208 -0.5708534 -0.00714795
vn -0.8236141 -0.362822 -0.4359128
vn -0.5897431 -0.616875 -0.5212181
vn -0.7651862 -0.3704124 -0.5265784
vn -0.7651862 -0.3704124 -0.5265784
vn -0.9216934 -0.3860714 0.03781768
vn -0.9469219 0.0274614 -0.3202885
vn -0.7833139 -0.6213071 -0.01991703
vn -0.9408659 -0.3387454 -0.004781401
vn -0.7345774 -0.6746428 -0.07247913
vn -0.85806 -0.5135202 -0.005472817
vn -0.8643912 -0.5028161 0.001968766
vn -0.8668492 -0.4985605 -0.003145793
vn -0.8668492 -0.4985605 -0.003145793
vn -0.8937377 -0.4485872 0.001550577
vn -0.5668606 -0.8238136 -0.0005532074
vn -0.9012089 -0.4333712 0.003444356
vn -0.8962879 -0.4434717 -0.0009551075
vn -0.8962879 -0.4434717 -0.0009551075
vn -0.5813736 -0.8136341 -0.002064459
vn -0.9040306 -0.4274263 0.005959394
vn -0.9176649 -0.3973545 0.0007640289
vn -0.9069217 -0.4212992 -0.0001740672
vn -0.9069217 -0.4212992 -0.0001740672
vn -0.9154154 -0.4025104 0.0001753768
vn -0.9154154 -0.4025104 0.0001753768
vn -0.9154154 -0.4025104 0.0001753768
vn -0.9089202 -0.4168555 -0.009774723
vn -0.8893475 -0.3600096 0.281876
vn 0.7574551 -0.6528229 0.009169837
vn 0.7801946 -0.6255134 0.005415687
vn 0.9998044 0.01968369 -0.001950396
vn 0.5962696 -0.229571 -0.7692592
vn -0.9873022 0.08066154 -0.1368507
vn -0.009085641 0.006001756 -0.9999407
vn 0.6287819 0.3052176 -0.7151752
vn -0.08113359 -0.002714456 -0.9966995
vn -0.9847314 -0.173945 0.006873793
vn -0.4092408 -0.1509783 -0.8998486
vn 0.08230976 0.003234752 -0.9966015
vn 0.01024053 0.01330974 -0.999859
vn 0.01024053 0.01330974 -0.999859
vn 0.01024053 0.01330974 -0.999859
vn -0.7688982 -0.4692992 0.4342279
vn -0.6780179 -0.7320272 0.06654228
vn -0.5792647 -0.4913998 0.650368
vn -0.0307297 -0.2032091 0.978653
vn -0.6112185 -0.4842251 -0.6260495
vn -0.3024313 -0.953029 -0.01646244
vn -0.5991913 -0.8006018 -0.002544716
vn -0.600197 -0.7998452 -0.003350324
vn -0.600197 -0.7998452 -0.003350324
vn -0.3875816 -0.9218292 -0.003369717
vn -0.5737448 -0.8190328 0.0014372
vn -0.5552055 -0.8317117 -0.00158967
vn -0.5552055 -0.8317117 -0.00158967
vn -0.559362 -0.8288921 0.007212689
vn -0.5683207 -0.8228071 0.000001044847
vn -0.5683207 -0.8228071 0.000001044847
vn -0.6107568 -0.7918169 0.001457576
vn -0.5635812 -0.8260569 -0.002490443
vn -0.5755934 -0.8176942 -0.008268014
vn -0.5524607 -0.8334553 -0.01180827
vn -0.3755372 -0.8547293 0.358343
vn 0.1895139 -0.981835 -0.009190188
vn 0.4373354 -0.8992904 -0.00381756
vn 0.4216555 -0.906727 0.007271788
vn 0.7078316 -0.7057741 -0.02928103
vn 0.7078316 -0.7057741 -0.02928103
vn 0.5917588 -0.439661 -0.6756625
vn 0.5698166 -0.7740864 -0.2758609
vn 0.7691402 -0.4824224 -0.4191561
vn -0.9683071 0.200049 0.1495384
vn -0.9661729 0.2566375 -0.02543714
vn -0.3920359 0.07329125 -0.9170257
vn -0.3920359 0.07329125 -0.9170257
vn -0.3920359 0.07329125 -0.9170257
vn -0.9888062 -0.1467647 0.02687794
vn 0.3181339 0.05365754 -0.9465261
vn -0.4838668 -0.8751407 -0.001320811
vn -0.8460043 -0.5326201 -0.02434331
vn -0.6837308 -0.7255052 0.07845034
vn -0.8002416 -0.5986189 -0.03561974
vn -0.1157852 -0.9926136 -0.03622335
vn -0.1222101 -0.9920218 0.03094221
vn -0.092564 -0.6860397 -0.7216519
vn 0.3011242 -0.6535175 -0.6944343
vn -0.01576072 -0.9120038 -0.4098788
vn -0.08732847 -0.986811 -0.1363006
vn 0.2352674 -0.9716987 -0.02123572
vn 0.2418095 -0.9697419 0.03359757
vn 0.3160931 -0.9483941 -0.02517589
vn 0.3160931 -0.9483941 -0.02517589
vn 0.3900165 -0.6488097 -0.6534012
vn -0.5353889 -0.6411296 -0.5498287
vn -0.1827662 -0.8734335 -0.451343
vn -0.1827662 -0.8734335 -0.451343
vn 0.2782971 -0.7983338 -0.5340543
vn 0.3046246 -0.7952266 -0.5242314
vn 0.7025053 -0.563127 0.4351716
vn -0.5109394 -0.8595522 -0.01052799
vn -0.4972067 -0.7890007 0.3609203
vn -0.4972067 -0.7890007 0.3609203
vn -0.5169451 -0.8273615 0.2196379
vn -0.5254239 -0.8025072 -0.2826869
vn -0.3980708 -0.8102928 -0.4300759
vn -0.01575031 -0.8181779 -0.5747494
vn -0.01548628 0.03879 -0.9991274
vn -0.193855 0.04664893 -0.9799204
vn -0.193855 0.04664893 -0.9799204
vn -0.955898 -0.2919442 -0.0320565
vn -0.9626098 -0.2703792 -0.01666007
vn 0.2173246 -0.9408572 0.2599187
vn 0.3850483 -0.922128 -0.037654
vn 0.1888949 -0.9799957 0.06266633
vn 0.1812964 -0.9832675 -0.01779473
vn 0.1812964 -0.9832675 -0.01779473
vn 0.1397212 -0.9680513 -0.2082177
vn 0.1397212 -0.9680513 -0.2082177
vn 0.1700276 -0.9483667 -0.2677521
vn 0.236015 -0.8472883 -0.4758145
vn -0.3720791 0.1818853 -0.910206
vn -0.1719882 0.05131236 -0.9837617
vn -0.1719882 0.05131236 -0.9837617
vn -0.9575338 -0.288063 -0.0121909
vn -0.9575338 -0.288063 -0.0121909
vn -0.8470279 -0.5315182 -0.00567367
vn -0.9009051 -0.4340005 -0.003678432
vn -0.9558142 -0.293969 0.001221434
vn -0.8053733 -0.2704971 -0.5274516
vn -0.8053733 -0.2704971 -0.5274516
vn -0.8053733 -0.2704971 -0.5274516
vn -0.9096798 0.4144083 -0.02735591
vn -0.8068801 0.5881912 -0.0545497
vn -0.7870809 -0.6157034 -0.03758874
vn -0.08478971 0.07624235 -0.9934776
vn -0.7544502 -0.3679824 -0.5435015
vn -0.7544502 -0.3679824 -0.5435015
vn -0.7544502 -0.3679824 -0.5435015
vn -0.1371929 0.1112361 -0.9842787
vn -0.2237595 0.1282168 -0.9661739
vn 0.2130745 -0.1263314 -0.9688342
vn 0.2130745 -0.1263314 -0.9688342
vn -0.1728492 -0.1072267 -0.9790943
vn 0.12186 0.08632627 -0.9887861
vn 0.3409891 0.2967605 -0.8919976
vn -0.8639011 -0.502888 0.02790054
vn -0.7277172 -0.685341 0.02711831
vn 0.06814072 0.06961502 -0.995244
vn -0.7082762 0.5924933 0.3837923
vn -0.5399482 0.8273879 0.1545485
vn -0.1412934 0.1286124 -0.9815778
vn -0.09685741 0.147686 -0.9842802
vn 0.5667682 -0.3303189 -0.7547603
vn 0.5105247 -0.3326044 0.7929305
vn -0.6668989 0.7449173 -0.01854623
vn -0.5913892 0.806373 -0.004624902
vn -0.8344993 -0.5509817 0.005489188
vn -0.908553 -0.4164725 0.03289451
vn -0.8344993 -0.5509817 0.005489188
vn 0.06791101 0.0700459 -0.9952295
vn 0.1320021 0.1357448 -0.9819108
vn -0.1928612 0.119333 -0.9739426
vn -0.1928612 0.119333 -0.9739426
vn -0.6487037 -0.7603569 -0.03226294
vn 0.08080002 0.09581212 -0.9921146
vn -0.2034466 -0.2536808 -0.9456508
vn -0.2034466 -0.2536808 -0.9456508
vn 0.0005320972 0.002847444 -0.9999958
vn -0.0916947 0.08798578 -0.9918924
vn -0.0916947 0.08798578 -0.9918924
vn 0.5140385 -0.8577609 0.003268271
vn -0.7399034 -0.6726784 0.006833311
vn -0.7399034 -0.6726784 0.006833311
vn -0.7983568 -0.6020647 -0.01201892
vn -0.5026209 -0.8644516 0.009783034
vn -0.6497638 -0.7594103 -0.03321085
vn 0.01619836 0.1348209 -0.9907376
vn 0.01619836 0.1348209 -0.9907376
vn 0.6370769 -0.7700315 -0.03441763
vn -0.6523774 -0.7577025 0.01704462
vn -0.7047731 -0.7093238 -0.01244004
vn -0.0706076 0.1607301 -0.9844696
vn -0.0706076 0.1607301 -0.9844696
vn 0.4928345 -0.5176144 -0.6994209
vn 0.4928345 -0.5176144 -0.6994209
vn -0.4815781 -0.8761172 0.02238517
vn -0.4977074 -0.867345 0.0001410065
vn -0.5116169 -0.8592086 -0.002968948
vn -0.509424 -0.8601854 -0.0238365
vn -0.509424 -0.8601854 -0.0238365
vn 0.3004111 -0.9476785 -0.1079749
vn 0.5516394 -0.8338241 -0.02076884
vn -0.2797201 -0.9599202 0.01760409
vn -0.3755596 -0.9267981 -0.0005005493
vn -0.08615429 -0.9962177 -0.01129998
vn -0.4047659 -0.9135514 -0.03985457
vn -0.4047659 -0.9135514 -0.03985457
vn 0.001011265 0.001333015 -0.9999986
vn 0.001534158 0.02193737 -0.9997582
vn -0.01376068 0.05659628 -0.9983023
vn -0.01376068 0.05659628 -0.9983023
vn -0.01376068 0.05659628 -0.9983023
vn 0.3877472 -0.9217503 0.005332253
vn 0.285023 -0.9585055 0.005390415
vn -0.08865019 -0.9959828 -0.01263019
vn 0.3766813 -0.926337 -0.003315324
vn 0.4983187 -0.8669137 -0.01178937
vn -0.5515177 -0.8341498 -0.004728838
vn -0.5364249 -0.8419095 0.05862242
vn 0.02045638 0.08949894 -0.9957768
vn -0.4001501 -0.9164484 0.00154477
vn -0.406853 -0.9134628 0.007513902
vn 0.2505421 -0.9680212 -0.01279021
vn 0.2039342 -0.9789706 -0.005239086
vn 0.4160171 -0.9091536 -0.01921949
vn -0.1087651 -0.9939388 -0.01599242
vn -0.2769003 -0.9608972 0.001651346
vn -0.1127831 -0.9935669 -0.01023588
vn -0.1127831 -0.9935669 -0.01023588
vn 0.1169038 -0.9927066 -0.02944688
vn 0.1169038 -0.9927066 -0.02944688
vn 0.09208965 -0.9956795 0.0119099
vn 0.09208965 -0.9956795 0.0119099
vn 0.08282498 -0.9965431 -0.006467481
vn 0.08282498 -0.9965431 -0.006467481
f 1/1/1 2/2/2 3/3/3
f 4/4/4 5/5/5 3/3/3
f 6/6/6 7/7/7 8/8/8
f 7/7/7 9/9/9 8/8/8
f 10/10/10 11/11/11 12/12/12
f 13/13/13 14/14/14 3/3/3
f 13/13/13 3/3/3 15/15/15
f 16/16/16 17/17/17 18/18/18
f 19/19/19 20/20/20 17/17/17
f 21/21/21 22/22/22 23/23/23
f 23/23/23 24/24/24 21/21/21
f 24/24/24 25/25/25 21/21/21
f 11/11/11 26/26/26 27/27/27
f 23/23/23 28/28/28 29/29/29
f 20/20/20 30/30/30 31/31/31
f 32/32/32 33/33/33 34/34/34
f 35/35/35 36/36/36 37/37/37
f 38/38/38 39/39/39 40/40/40
f 23/23/23 41/41/41 28/28/28
f 20/20/20 42/42/42 43/43/43
f 44/44/44 45/45/45 46/46/46
f 44/44/44 21/21/21 47/47/47
f 47/47/47 21/21/21 48/48/48
f 49/49/49 50/50/50 47/47/47
f 51/51/51 52/52/52 53/53/53
f 53/53/53 54/54/54 55/55/55
f 56/56/56 57/57/57 58/58/58
f 59/59/59 60/60/60 61/61/61
f 51/51/51 62/62/62 52/52/52
f 63/63/63 64/64/64 53/53/53
f 53/53/53 64/64/64 65/65/65
f 66/66/66 67/67/67 68/68/68
f 69/69/69 67/67/67 70/70/70
f 71/71/71 70/70/70 72/72/72
f 65/65/65 73/73/73 74/74/74
f 75/75/75 76/76/76 77/77/77
f 78/78/78 79/79/79 80/80/80
f 81/81/81 82/82/82 51/51/51
f 45/45/45 81/81/81 51/51/51
f 67/67/67 83/83/83 70/70/70
f 84/84/84 85/85/85 44/44/44
f 84/84/84 44/44/44 47/47/47
f 83/83/83 86/86/86 70/70/70
f 87/87/87 88/88/88 79/79/79
f 84/84/84 89/89/89 90/90/90
f 84/84/84 91/91/91 92/92/92
f 65/65/65 93/93/93 94/94/94
f 65/65/65 95/95/95 96/96/96
f 83/83/83 97/97/97 86/86/86
f 98/98/98 99/99/99 100/100/100
f 101/101/101 102/102/102 103/103/103
f 93/93/93 104/104/104 105/105/105
f 83/83/83 106/106/106 97/97/97
f 97/97/97 107/107/107 108/108/108
f 27/27/27 109/109/109 110/110/110
f 91/91/91 111/111/111 112/112/112
f 113/113/113 111/111/111 81/81/81
f 114/114/114 115/115/115 116/116/116
f 117/117/117 118/118/118 119/119/119
f 120/120/120 121/121/121 79/79/79
f 122/122/122 123/123/123 111/111/111
f 124/124/124 125/125/125 115/115/115
f 126/126/126 127/127/127 128/128/128
f 129/129/129 128/128/128 130/130/130
f 125/125/125 131/131/131 115/115/115
f 132/132/132 133/133/133 134/134/134
f 131/131/131 135/135/135 115/115/115
f 26/26/26 136/136/136 27/27/27
f 137/137/137 138/138/138 134/134/134
f 139/139/139 140/140/140 111/111/111
f 141/141/141 142/142/142 137/137/137
f 137/137/137 142/142/142 143/143/143
f 144/144/144 27/27/27 145/145/145
f 146/146/146 147/147/147 148/148/148
f 131/131/131 149/149/149 135/135/135
f 132/132/132 150/150/150 133/133/133
f 151/151/151 152/152/152 79/79/79
f 153/153/153 151/151/151 79/79/79
f 140/140/140 154/154/154 111/111/111
f 155/155/155 156/156/156 128/128/128
f 157/157/157 158/158/158 159/159/159
f 160/160/160 161/161/161 142/142/142
f 162/162/162 163/163/163 164/164/164
f 162/162/162 165/165/165 166/166/166
f 26/26/26 167/167/167 168/168/168
f 169/169/169 170/170/170 171/171/171
f 172/172/172 173/173/173 174/174/174
f 174/174/174 173/173/173 175/175/175
f 176/176/176 177/177/177 178/178/178
f 179/179/179 180/180/180 27/27/27
f 181/181/181 159/159/159 158/158/158
f 158/158/158 182/182/182 183/183/183
f 184/184/184 185/185/185 172/172/172
f 172/172/172 186/186/186 173/173/173
f 187/187/187 188/188/188 189/189/189
f 177/177/177 190/190/190 178/178/178
f 191/191/191 192/192/192 150/150/150
f 193/193/193 194/194/194 128/128/128
f 195/195/195 196/196/196 197/197/197
f 195/195/195 197/197/197 198/198/198
f 199/199/199 162/162/162 159/159/159
f 200/200/200 201/201/201 202/202/202
f 183/183/183 203/203/203 204/204/204
f 205/205/205 206/206/206 204/204/204
f 207/207/207 208/208/208 209/209/209
f 210/210/210 211/211/211 212/212/212
f 213/213/213 211/211/211 214/214/214
f 215/215/215 216/216/216 217/217/217
f 218/218/218 219/219/219 220/220/220
f 221/221/221 222/222/222 223/223/223
f 224/224/224 225/225/225 226/226/226
f 178/178/178 190/190/190 227/227/227
f 228/228/228 229/229/229 175/175/175
f 230/230/230 231/231/231 177/177/177
f 177/177/177 232/232/232 190/190/190
f 233/233/233 234/234/234 235/235/235
f 204/204/204 236/236/236 237/237/237
f 238/238/238 239/239/239 240/240/240
f 26/26/26 241/241/241 242/242/242
f 243/243/243 244/244/244 236/236/236
f 236/236/236 245/245/245 184/184/184
f 246/246/246 247/247/247 248/248/248
f 246/246/246 249/249/249 250/250/250
f 251/251/251 252/252/252 253/253/253
f 253/253/253 252/252/252 254/254/254
f 255/255/255 256/256/256 257/257/257
f 258/258/258 259/259/259 260/260/260
f 261/261/261 262/262/262 260/260/260
f 263/263/263 264/264/264 265/265/265
f 266/266/266 267/267/267 250/250/250
f 268/268/268 269/269/269 252/252/252
f 252/252/252 269/269/269 270/270/270
f 271/271/271 272/272/272 273/273/273
f 274/274/274 216/216/216 275/275/275
f 276/276/276 277/277/277 278/278/278
f 201/201/201 279/279/279 280/280/280
f 202/202/202 201/201/201 281/281/281
f 211/211/211 282/282/282 263/263/263
f 282/282/282 283/283/283 263/263/263
f 263/263/263 284/284/284 264/264/264
f 285/285/285 286/286/286 287/287/287
f 286/286/286 288/288/288 287/287/287
f 268/268/268 287/287/287 269/269/269
f 215/215/215 287/287/287 216/216/216
f 289/289/289 290/290/290 291/291/291
f 216/216/216 292/292/292 293/293/293
f 227/227/227 294/294/294 208/208/208
f 295/295/295 208/208/208 207/207/207
f 296/296/296 297/297/297 298/298/298
f 299/299/299 300/300/300 301/301/301
f 190/190/190 302/302/302 227/227/227
f 303/303/303 297/297/297 304/304/304
f 230/230/230 279/279/279 305/305/305
f 228/228/228 306/306/306 229/229/229
f 177/177/177 307/307/307 232/232/232
f 308/308/308 309/309/309 142/142/142
f 310/310/310 311/311/311 191/191/191
f 191/191/191 312/312/312 313/313/313
f 314/314/314 315/315/315 316/316/316
f 26/26/26 317/317/317 318/318/318
f 319/319/319 320/320/320 321/321/321
f 320/320/320 322/322/322 321/321/321
f 323/323/323 324/324/324 325/325/325
f 286/286/286 326/326/326 288/288/288
f 327/327/327 328/328/328 290/290/290
f 329/329/329 330/330/330 27/27/27
f 331/331/331 332/332/332 333/333/333
f 328/328/328 334/334/334 335/335/335
f 336/336/336 337/337/337 328/328/328
f 323/323/323 338/338/338 324/324/324
f 326/326/326 339/339/339 340/340/340
f 341/341/341 342/342/342 330/330/330
f 343/343/343 344/344/344 345/345/345
f 346/346/346 347/347/347 348/348/348
f 151/151/151 349/349/349 350/350/350
f 196/196/196 351/351/351 197/197/197
f 351/351/351 352/352/352 197/197/197
f 234/234/234 353/353/353 354/354/354
f 331/331/331 355/355/355 356/356/356
f 357/357/357 358/358/358 359/359/359
f 360/360/360 361/361/361 362/362/362
f 363/363/363 364/364/364 365/365/365
f 366/366/366 367/367/367 368/368/368
f 369/369/369 370/370/370 371/371/371
f 372/372/372 317/317/317 330/330/330
f 373/373/373 374/374/374 306/306/306
f 343/343/343 375/375/375 344/344/344
f 376/376/376 377/377/377 346/346/346
f 378/378/378 379/379/379 380/380/380
f 381/381/381 382/382/382 140/140/140
f 140/140/140 383/383/383 384/384/384
f 385/385/385 352/352/352 386/386/386
f 60/60/60 317/317/317 26/26/26
f 347/347/347 387/387/387 388/388/388
f 389/389/389 390/390/390 142/142/142
f 151/151/151 391/391/391 349/349/349
f 392/392/392 393/393/393 201/201/201
f 201/201/201 393/393/393 394/394/394
f 201/201/201 395/395/395 279/279/279
f 396/396/396 397/397/397 387/387/387
f 375/375/375 387/387/387 344/344/344
f 27/27/27 330/330/330 145/145/145
f 398/398/398 379/379/379 378/378/378
f 145/145/145 399/399/399 400/400/400
f 401/401/401 352/352/352 402/402/402
f 142/142/142 403/403/403 378/378/378
f 378/378/378 403/403/403 398/398/398
f 330/330/330 399/399/399 145/145/145
f 404/404/404 405/405/405 406/406/406
f 140/140/140 407/407/407 408/408/408
f 140/140/140 408/408/408 383/383/383
f 408/408/408 409/409/409 410/410/410
f 60/60/60 411/411/411 317/317/317
f 412/412/412 413/413/413 414/414/414
f 415/415/415 416/416/416 142/142/142
f 398/398/398 403/403/403 417/417/417
f 413/413/413 412/412/412 418/418/418
f 416/416/416 419/419/419 142/142/142
f 419/419/419 420/420/420 142/142/142
f 404/404/404 421/421/421 405/405/405
f 408/408/408 422/422/422 423/423/423
f 403/403/403 424/424/424 425/425/425
f 408/408/408 426/426/426 427/427/427
f 408/408/408 427/427/427 422/422/422
f 428/428/428 429/429/429 412/412/412
f 412/412/412 429/429/429 418/418/418
f 430/430/430 431/431/431 432/432/432
f 433/433/433 431/431/431 419/419/419
f 425/425/425 434/434/434 435/435/435
f 436/436/436 437/437/437 438/438/438
f 428/428/428 439/439/439 429/429/429
f 440/440/440 441/441/441 411/411/411
f 437/437/437 442/442/442 443/443/443
f 444/444/444 427/427/427 439/439/439
f 411/411/411 445/445/445 317/317/317
f 429/429/429 446/446/446 447/447/447
f 317/317/317 445/445/445 330/330/330
f 330/330/330 448/448/448 449/449/449
f 427/427/427 450/450/450 451/451/451
f 452/452/452 453/453/453 447/447/447
f 454/454/454 455/455/455 456/456/456
f 457/457/457 431/431/431 458/458/458
f 450/450/450 459/459/459 451/451/451
f 452/452/452 460/460/460 453/453/453
f 454/454/454 461/461/461 462/462/462
f 463/463/463 464/464/464 411/411/411
f 427/427/427 465/465/465 466/466/466
f 467/467/467 468/468/468 447/447/447
f 469/469/469 470/470/470 471/471/471
f 471/471/471 472/472/472 469/469/469
f 467/467/467 473/473/473 468/468/468
f 466/466/466 465/465/465 431/431/431
f 474/474/474 472/472/472 471/471/471
f 466/466/466 431/431/431 475/475/475
f 476/476/476 477/477/477 478/478/478
f 479/479/479 480/480/480 481/481/481
f 482/482/482 477/477/477 483/483/483
f 465/465/465 484/484/484 431/431/431
f 485/485/485 486/486/486 431/431/431
f 487/487/487 488/488/488 486/486/486
f 445/445/445 489/489/489 490/490/490
f 491/491/491 492/492/492 8/8/8
f 493/493/493 494/494/494 491/491/491
f 11/11/11 495/495/495 26/26/26
f 493/493/493 491/491/491 496/496/496
f 50/50/50 497/497/497 498/498/498
f 499/499/499 500/500/500 501/501/501
f 502/502/502 503/503/503 504/504/504
f 505/505/505 504/504/504 506/506/506
f 504/504/504 507/507/507 508/508/508
f 496/496/496 509/509/509 510/510/510
f 511/511/511 512/512/512 513/513/513
f 514/514/514 515/515/515 103/103/103
f 514/514/514 103/103/103 503/503/503
f 516/516/516 517/517/517 514/514/514
f 518/518/518 516/516/516 514/514/514
f 519/519/519 518/518/518 514/514/514
f 520/520/520 521/521/521 504/504/504
f 520/520/520 504/504/504 508/508/508
f 496/496/496 522/522/522 523/523/523
f 524/524/524 525/525/525 526/526/526
f 527/527/527 513/513/513 528/528/528
f 102/102/102 529/529/529 50/50/50
f 515/515/515 530/530/530 531/531/531
f 532/532/532 493/493/493 496/496/496
f 524/524/524 526/526/526 533/533/533
f 534/534/534 533/533/533 535/535/535
f 536/536/536 508/508/508 537/537/537
f 538/538/538 539/539/539 540/540/540
f 541/541/541 542/542/542 531/531/531
f 530/530/530 543/543/543 531/531/531
f 544/544/544 534/534/534 535/535/535
f 545/545/545 546/546/546 133/133/133
f 547/547/547 548/548/548 549/549/549
f 550/550/550 551/551/551 102/102/102
f 552/552/552 553/553/553 532/532/532
f 535/535/535 536/536/536 537/537/537
f 98/98/98 554/554/554 555/555/555
f 538/538/538 540/540/540 556/556/556
f 552/552/552 557/557/557 553/553/553
f 558/558/558 124/124/124 115/115/115
f 538/538/538 556/556/556 123/123/123
f 123/123/123 556/556/556 559/559/559
f 118/118/118 544/544/544 560/560/560
f 561/561/561 544/544/544 562/562/562
f 562/562/562 537/537/537 563/563/563
f 564/564/564 123/123/123 565/565/565
f 564/564/564 565/565/565 566/566/566
f 567/567/567 562/562/562 568/568/568
f 561/561/561 562/562/562 569/569/569
f 570/570/570 561/561/561 569/569/569
f 571/571/571 572/572/572 573/573/573
f 574/574/574 128/128/128 575/575/575
f 576/576/576 577/577/577 227/227/227
f 578/578/578 160/160/160 579/579/579
f 580/580/580 581/581/581 582/582/582
f 582/582/582 581/581/581 583/583/583
f 181/181/181 158/158/158 584/584/584
f 584/584/584 158/158/158 183/183/183
f 585/585/585 586/586/586 587/587/587
f 588/588/588 589/589/589 175/175/175
f 590/590/590 591/591/591 592/592/592
f 593/593/593 594/594/594 595/595/595
f 596/596/596 128/128/128 597/597/597
f 199/199/199 159/159/159 598/598/598
f 585/585/585 587/587/587 599/599/599
f 599/599/599 587/587/587 239/239/239
f 600/600/600 215/215/215 601/601/601
f 602/602/602 603/603/603 604/604/604
f 605/605/605 175/175/175 229/229/229
f 606/606/606 607/607/607 608/608/608
f 609/609/609 610/610/610 611/611/611
f 612/612/612 613/613/613 614/614/614
f 199/199/199 598/598/598 615/615/615
f 320/320/320 247/247/247 246/246/246
f 320/320/320 246/246/246 322/322/322
f 322/322/322 616/616/616 617/617/617
f 618/618/618 253/253/253 617/617/617
f 617/617/617 260/260/260 619/619/619
f 617/617/617 619/619/619 620/620/620
f 621/621/621 622/622/622 623/623/623
f 624/624/624 625/625/625 606/606/606
f 626/626/626 608/608/608 627/627/627
f 628/628/628 629/629/629 630/630/630
f 631/631/631 632/632/632 633/633/633
f 634/634/634 584/584/584 635/635/635
f 636/636/636 599/599/599 637/637/637
f 638/638/638 639/639/639 640/640/640
f 641/641/641 184/184/184 642/642/642
f 638/638/638 643/643/643 642/642/642
f 644/644/644 617/617/617 645/645/645
f 646/646/646 617/617/617 647/647/647
f 648/648/648 649/649/649 650/650/650
f 651/651/651 652/652/652 653/653/653
f 635/635/635 654/654/654 655/655/655
f 656/656/656 639/639/639 657/657/657
f 639/639/639 638/638/638 658/658/658
f 637/637/637 659/659/659 660/660/660
f 659/659/659 661/661/661 662/662/662
f 663/663/663 661/661/661 664/664/664
f 665/665/665 661/661/661 666/666/666
f 667/667/667 661/661/661 668/668/668
f 661/661/661 322/322/322 669/669/669
f 670/670/670 644/644/644 671/671/671
f 672/672/672 644/644/644 673/673/673
f 644/644/644 645/645/645 674/674/674
f 675/675/675 645/645/645 676/676/676
f 677/677/677 678/678/678 679/679/679
f 646/646/646 647/647/647 680/680/680
f 647/647/647 617/617/617 681/681/681
f 682/682/682 683/683/683 326/326/326
f 326/326/326 332/332/332 684/684/684
f 684/684/684 332/332/332 328/328/328
f 339/339/339 326/326/326 685/685/685
f 608/608/608 626/626/626 686/686/686
f 687/687/687 496/496/496 688/688/688
f 687/687/687 688/688/688 689/689/689
f 648/648/648 650/650/650 690/690/690
f 691/691/691 692/692/692 532/532/532
f 693/693/693 694/694/694 695/695/695
f 696/696/696 234/234/234 697/697/697
f 697/697/697 234/234/234 651/651/651
f 698/698/698 642/642/642 699/699/699
f 637/637/637 660/660/660 700/700/700
f 701/701/701 702/702/702 362/362/362
f 362/362/362 703/703/703 704/704/704
f 701/701/701 362/362/362 705/705/705
f 362/362/362 706/706/706 668/668/668
f 357/357/357 362/362/362 358/358/358
f 707/707/707 708/708/708 362/362/362
f 362/362/362 672/672/672 709/709/709
f 362/362/362 710/710/710 711/711/711
f 362/362/362 712/712/712 713/713/713
f 367/367/367 713/713/713 368/368/368
f 714/714/714 715/715/715 716/716/716
f 717/717/717 714/714/714 337/337/337
f 337/337/337 714/714/714 716/716/716
f 331/331/331 356/356/356 332/332/332
f 334/334/334 359/359/359 718/718/718
f 334/334/334 719/719/719 360/360/360
f 334/334/334 360/360/360 335/335/335
f 336/336/336 717/717/717 337/337/337
f 338/338/338 369/369/369 324/324/324
f 339/339/339 720/720/720 721/721/721
f 339/339/339 722/722/722 723/723/723
f 723/723/723 724/724/724 306/306/306
f 725/725/725 608/608/608 726/726/726
f 726/726/726 608/608/608 686/686/686
f 727/727/727 728/728/728 729/729/729
f 730/730/730 381/381/381 582/582/582
f 731/731/731 386/386/386 352/352/352
f 732/732/732 733/733/733 655/655/655
f 734/734/734 735/735/735 736/736/736
f 736/736/736 735/735/735 699/699/699
f 737/737/737 734/734/734 736/736/736
f 736/736/736 699/699/699 370/370/370
f 738/738/738 739/739/739 740/740/740
f 741/741/741 701/701/701 742/742/742
f 742/742/742 701/701/701 355/355/355
f 743/743/743 736/736/736 338/338/338
f 744/744/744 741/741/741 745/745/745
f 740/740/740 746/746/746 723/723/723
f 697/697/697 733/733/733 732/732/732
f 699/699/699 747/747/747 738/738/738
f 748/748/748 655/655/655 749/749/749
f 750/750/750 751/751/751 344/344/344
f 752/752/752 397/397/397 377/377/377
f 750/750/750 344/344/344 387/387/387
f 753/753/753 697/697/697 732/732/732
f 754/754/754 697/697/697 755/755/755
f 756/756/756 697/697/697 753/753/753
f 757/757/757 732/732/732 655/655/655
f 758/758/758 655/655/655 759/759/759
f 532/532/532 496/496/496 760/760/760
f 761/761/761 762/762/762 379/379/379
f 763/763/763 730/730/730 764/764/764
f 397/397/397 765/765/765 766/766/766
f 765/765/765 767/767/767 766/766/766
f 768/768/768 769/769/769 766/766/766
f 770/770/770 771/771/771 766/766/766
f 766/766/766 772/772/772 773/773/773
f 774/774/774 775/775/775 776/776/776
f 777/777/777 778/778/778 779/779/779
f 780/780/780 781/781/781 763/763/763
f 782/782/782 783/783/783 784/784/784
f 416/416/416 415/415/415 785/785/785
f 785/785/785 686/686/686 786/786/786
f 780/780/780 763/763/763 787/787/787
f 760/760/760 496/496/496 687/687/687
f 760/760/760 687/687/687 788/788/788
f 789/789/789 790/790/790 791/791/791
f 792/792/792 774/774/774 793/793/793
f 792/792/792 794/794/794 795/795/795
f 399/399/399 438/438/438 404/404/404
f 796/796/796 797/797/797 798/798/798
f 799/799/799 787/787/787 800/800/800
f 796/796/796 798/798/798 801/801/801
f 802/802/802 785/785/785 803/803/803
f 803/803/803 785/785/785 786/786/786
f 804/804/804 805/805/805 792/792/792
f 788/788/788 806/806/806 807/807/807
f 786/786/786 808/808/808 809/809/809
f 810/810/810 811/811/811 812/812/812
f 796/796/796 813/813/813 814/814/814
f 809/809/809 808/808/808 456/456/456
f 815/815/815 477/477/477 816/816/816
f 800/800/800 787/787/787 817/817/817
f 796/796/796 814/814/814 818/818/818
f 819/819/819 796/796/796 820/820/820
f 821/821/821 532/532/532 760/760/760
f 477/477/477 822/822/822 823/823/823
f 824/824/824 435/435/435 434/434/434
f 825/825/825 826/826/826 827/827/827
f 828/828/828 800/800/800 829/829/829
f 830/830/830 831/831/831 468/468/468
f 824/824/824 832/832/832 435/435/435
f 833/833/833 827/827/827 834/834/834
f 835/835/835 477/477/477 836/836/836
f 760/760/760 837/837/837 838/838/838
f 839/839/839 828/828/828 840/840/840
f 841/841/841 828/828/828 829/829/829
f 829/829/829 842/842/842 843/843/843
f 824/824/824 844/844/844 845/845/845
f 846/846/846 847/847/847 848/848/848
f 849/849/849 850/850/850 848/848/848
f 851/851/851 760/760/760 852/852/852
f 853/853/853 854/854/854 855/855/855
f 856/856/856 857/857/857 844/844/844
f 487/487/487 846/846/846 858/858/858
f 844/844/844 486/486/486 488/488/488
f 448/448/448 859/859/859 860/860/860
f 861/861/861 833/833/833 862/862/862
f 863/863/863 851/851/851 852/852/852
f 864/864/864 862/862/862 865/865/865
f 866/866/866 867/867/867 868/868/868
f 869/869/869 864/864/864 870/870/870
f 871/871/871 870/870/870 872/872/872
f 873/873/873 874/874/874 866/866/866
f 866/866/866 875/875/875 876/876/876
f 877/877/877 870/870/870 878/878/878
