# SceneSmith visual LOD; original UVs retained
v -1.625 -0.025 2.6
v -1.625 0.025 2.6
v -1.625 -0.025 0
v 1.625 -0.025 0
v -1.625 -0.025 2.6
v -1.625 -0.025 0
v -1.625 0.025 0
v -1.625 0.025 0
v 1.625 -0.025 0
v -1.625 -0.025 0
v -1.625 -0.025 2.6
v 1.625 0.025 2.6
v -1.625 0.025 2.6
v 1.625 -0.025 2.6
v 1.625 -0.025 2.6
v -1.625 0.025 2.6
v 1.625 0.025 2.6
v -1.625 0.025 0
v 1.625 0.025 0
v 1.625 0.025 0
v 1.625 0.025 0
v 1.625 -0.025 2.6
v 1.625 -0.025 0
v 1.625 0.025 2.6
vt -0.05 5.2
vt 0.05 5.2
vt -0.05 0
vt 3.25 0
vt -3.25 5.2
vt -3.25 0
vt 0.05 0
vt -3.25 0.05000001
vt 3.25 -0.04999995
vt -3.25 -0.04999995
vt -3.25 -0.04999995
vt 3.25 0.05000001
vt -3.25 0.05000001
vt 3.25 5.2
vt 3.25 -0.04999995
vt -3.25 5.2
vt 3.25 5.2
vt -3.25 0
vt 3.25 0.05000001
vt 3.25 0
vt 0.05 0
vt -0.05 5.2
vt -0.05 0
vt 0.05 5.2
vn -1 0 0
vn -1 0 0
vn -1 0 0
vn 0 -1 0
vn 0 -1 0
vn 0 -1 0
vn -1 0 0
vn 0 0 -1
vn 0 0 -1
vn 0 0 -1
vn 0 0 1
vn 0 0 1
vn 0 0 1
vn 0 -1 0
vn 0 0 1
vn 0 1 0
vn 0 1 0
vn 0 1 0
vn 0 0 -1
vn 0 1 0
vn 1 0 0
vn 1 0 0
vn 1 0 0
vn 1 0 0
f 1/1/1 2/2/2 3/3/3
f 4/4/4 5/5/5 6/6/6
f 3/3/3 2/2/2 7/7/7
f 8/8/8 9/9/9 10/10/10
f 11/11/11 12/12/12 13/13/13
f 14/14/14 5/5/5 4/4/4
f 15/15/15 12/12/12 11/11/11
f 16/16/16 17/17/17 18/18/18
f 19/19/19 9/9/9 8/8/8
f 18/18/18 17/17/17 20/20/20
f 21/21/21 22/22/22 23/23/23
f 24/24/24 22/22/22 21/21/21
