# SceneSmith visual LOD; original UVs retained
v -1.75 -0.025 0
v -0.6295816 -0.025 0
v -0.6295816 -0.025 2.1
v -1.75 -0.025 0
v -1.75 0.025 0
v -0.6295816 -0.025 0
v -1.75 -0.025 2.6
v -1.75 -0.025 0
v -1.75 -0.025 2.6
v -1.75 0.025 2.6
v 1.75 -0.025 2.6
v -0.6295816 0.025 0
v -1.75 0.025 0
v -1.75 0.025 0
v -1.75 0.025 2.6
v -0.6295816 0.025 0
v -0.6295816 0.025 2.1
v -1.75 -0.025 2.6
v 1.75 0.025 2.6
v -1.75 0.025 2.6
v 1.75 0.025 2.6
v 1.75 -0.025 0
v 0.2704184 -0.025 0
v 0.2704184 0.025 0
v 1.75 -0.025 0
v 0.2704184 -0.025 0
v 1.75 -0.025 0
v 1.75 0.025 0
v 1.75 -0.025 2.6
v 0.2704184 -0.025 2.1
v 1.75 -0.025 2.6
v 1.75 0.025 0
v 0.2704184 0.025 0
v 0.2704184 0.025 2.1
v 1.75 0.025 0
v 1.75 0.025 2.6
v -0.6295816 -0.025 0
v -0.6295816 0.025 0
v -0.6295816 -0.025 2.1
v -0.6295816 0.025 2.1
v 0.2704184 -0.025 2.1
v -0.6295816 -0.025 2.1
v -0.6295816 0.025 2.1
v 0.2704184 0.025 2.1
v 0.2704184 0.025 2.1
v 0.2704184 -0.025 0
v 0.2704184 -0.025 2.1
v 0.2704184 0.025 0
vt -3.5 0
vt -1.259163 0
vt -1.259163 4.2
vt -3.5 -0.04999995
vt -3.5 0.05000001
vt -1.259163 -0.04999995
vt -3.5 5.2
vt -0.05 0
vt -0.05 5.2
vt 0.05 5.2
vt 3.5 5.2
vt -1.259163 0.05000001
vt 0.05 0
vt -3.5 0
vt -3.5 5.2
vt -1.259163 0
vt -1.259163 4.2
vt -3.5 -0.04999995
vt 3.5 0.05000001
vt -3.5 0.05000001
vt 3.5 5.2
vt 3.5 -0.04999995
vt 0.5408368 -0.04999995
vt 0.5408368 0.05000001
vt 3.5 0
vt 0.5408368 0
vt -0.05 0
vt 0.05 0
vt -0.05 5.2
vt 0.5408368 4.2
vt 3.5 -0.04999995
vt 3.5 0
vt 0.5408368 0
vt 0.5408368 4.2
vt 3.5 0.05000001
vt 0.05 5.2
vt -0.05 0
vt 0.05 0
vt -0.05 4.2
vt -1.259163 0.05000001
vt 0.5408368 -0.04999995
vt -1.259163 -0.04999995
vt 0.05 4.2
vt 0.5408368 0.05000001
vt 0.05 4.2
vt -0.05 0
vt -0.05 4.2
vt 0.05 0
vn 0 -1 0
vn 0 -1 0
vn 0 -1 0
vn 0 0 -1
vn 0 0 -1
vn 0 0 -1
vn 0 -1 0
vn -1 0 0
vn -1 0 0
vn -1 0 0
vn 0 -1 0
vn 0 0 -1
vn -1 0 0
vn 0 1 0
vn 0 1 0
vn 0 1 0
vn 0 1 0
vn 0 0 1
vn 0 0 1
vn 0 0 1
vn 0 1 0
vn 0 0 -1
vn 0 0 -1
vn 0 0 -1
vn 0 -1 0
vn 0 -1 0
vn 1 0 0
vn 1 0 0
vn 1 0 0
vn 0 -1 0
vn 0 0 1
vn 0 1 0
vn 0 1 0
vn 0 1 0
vn 0 0 -1
vn 1 0 0
vn 1 0 0
vn 1 0 0
vn 1 0 0
vn 0 0 -1
vn 0 0 -1
vn 0 0 -1
vn 1 0 0
vn 0 0 -1
vn -1 0 0
vn -1 0 0
vn -1 0 0
vn -1 0 0
f 1/1/1 2/2/2 3/3/3
f 4/4/4 5/5/5 6/6/6
f 1/1/1 3/3/3 7/7/7
f 8/8/8 9/9/9 10/10/10
f 7/7/7 3/3/3 11/11/11
f 5/5/5 12/12/12 6/6/6
f 8/8/8 10/10/10 13/13/13
f 14/14/14 15/15/15 16/16/16
f 15/15/15 17/17/17 16/16/16
f 18/18/18 19/19/19 20/20/20
f 15/15/15 21/21/21 17/17/17
f 22/22/22 23/23/23 24/24/24
f 25/25/25 11/11/11 26/26/26
f 27/27/27 28/28/28 29/29/29
f 11/11/11 30/30/30 26/26/26
f 11/11/11 3/3/3 30/30/30
f 18/18/18 31/31/31 19/19/19
f 32/32/32 33/33/33 34/34/34
f 22/22/22 24/24/24 35/35/35
f 21/21/21 34/34/34 17/17/17
f 29/29/29 28/28/28 36/36/36
f 32/32/32 34/34/34 21/21/21
f 37/37/37 38/38/38 39/39/39
f 40/40/40 41/41/41 42/42/42
f 39/39/39 38/38/38 43/43/43
f 40/40/40 44/44/44 41/41/41
f 45/45/45 46/46/46 47/47/47
f 46/46/46 45/45/45 48/48/48
