# SceneSmith visual LOD; original UVs retained
v -0.4026771 0.1930994 1.202126
v -0.4026771 -0.2085541 1.202126
v -0.3925984 0.1930994 1.202126
v -0.3925984 -0.2085541 1.202126
v -0.3915747 -0.2085541 1.201102
v -0.3915747 0.1930997 0.00102375
v -0.3915747 0.1930994 1.201102
v -0.3915747 -0.2085537 0.00102362
v -0.3925984 0.1930997 1.3e-7
v -0.3925984 -0.2085537 0
v -0.4026771 0.1930997 1.3e-7
v -0.4026771 -0.2085537 0
v -0.4037007 0.1930994 1.201102
v -0.4037007 0.1930997 0.00102375
v -0.4037007 -0.2085537 0.00102362
v -0.4037007 -0.2085541 1.201102
v -0.4026771 -0.2095777 1.201102
v -0.3925984 -0.2095774 0.00102362
v -0.3925984 -0.2095777 1.201102
v -0.4026771 -0.2095774 0.00102362
v -0.4026771 0.194123 1.201102
v -0.3925984 0.194123 1.201102
v -0.3925984 0.1941234 0.00102375
v -0.4026771 0.1941234 0.00102375
v -0.4037007 -0.2085541 1.201102
v -0.4026771 -0.2095777 1.201102
v -0.4026771 -0.2085541 1.202126
v -0.3925984 -0.2095777 1.201102
v -0.3915747 -0.2085541 1.201102
v -0.3925984 -0.2085541 1.202126
v -0.3915747 -0.2085537 0.00102362
v -0.3925984 -0.2095774 0.00102362
v -0.3925984 -0.2085537 0
v -0.4026771 -0.2085537 0
v -0.4026771 -0.2095774 0.00102362
v -0.4037007 -0.2085537 0.00102362
v -0.4026771 0.194123 1.201102
v -0.4037007 0.1930994 1.201102
v -0.4026771 0.1930994 1.202126
v -0.3925984 0.194123 1.201102
v -0.3925984 0.1930994 1.202126
v -0.3915747 0.1930994 1.201102
v -0.3925984 0.1941234 0.00102375
v -0.3915747 0.1930997 0.00102375
v -0.3925984 0.1930997 1.3e-7
v -0.4037007 0.1930997 0.00102375
v -0.4026771 0.1941234 0.00102375
v -0.4026771 0.1930997 1.3e-7
v -0.4026771 -0.2095777 1.201102
v -0.3925984 -0.2095777 1.201102
v -0.4026771 -0.2085541 1.202126
v -0.3925984 -0.2085541 1.202126
v -0.3915747 0.1930994 1.201102
v -0.3925984 -0.2085541 1.202126
v -0.3915747 -0.2085541 1.201102
v -0.3925984 0.1930994 1.202126
v -0.3925984 -0.2085541 1.202126
v -0.3915747 0.1930994 1.201102
v -0.4026771 0.194123 1.201102
v -0.3925984 0.1930994 1.202126
v -0.3925984 0.194123 1.201102
v -0.4026771 0.1930994 1.202126
v -0.4037007 0.1930994 1.201102
v -0.4037007 -0.2085541 1.201102
v -0.4026771 0.1930994 1.202126
v -0.4026771 0.1930994 1.202126
v -0.4037007 -0.2085541 1.201102
v -0.4026771 -0.2085541 1.202126
v -0.3925984 -0.2095774 0.00102362
v -0.3915747 -0.2085541 1.201102
v -0.3925984 -0.2095777 1.201102
v -0.3925984 -0.2095774 0.00102362
v -0.3915747 -0.2085537 0.00102362
v -0.3915747 -0.2085541 1.201102
v -0.3925984 0.1930997 1.3e-7
v -0.3915747 -0.2085537 0.00102362
v -0.3925984 -0.2085537 0
v -0.3915747 0.1930997 0.00102375
v -0.3925984 0.194123 1.201102
v -0.3915747 0.1930997 0.00102375
v -0.3925984 0.1941234 0.00102375
v -0.3925984 0.194123 1.201102
v -0.3915747 0.1930994 1.201102
v -0.3915747 0.1930997 0.00102375
v -0.3925984 -0.2085537 0
v -0.3925984 -0.2095774 0.00102362
v -0.4026771 -0.2095774 0.00102362
v -0.4026771 -0.2085537 0
v -0.4037007 0.1930997 0.00102375
v -0.4026771 -0.2085537 0
v -0.4037007 -0.2085537 0.00102362
v -0.4026771 0.1930997 1.3e-7
v -0.4026771 0.1941234 0.00102375
v -0.3925984 0.1941234 0.00102375
v -0.4026771 0.1930997 1.3e-7
v -0.3925984 0.1930997 1.3e-7
v -0.4037007 -0.2085537 0.00102362
v -0.4026771 -0.2095774 0.00102362
v -0.4026771 -0.2095777 1.201102
v -0.4037007 -0.2085537 0.00102362
v -0.4026771 -0.2095777 1.201102
v -0.4037007 -0.2085541 1.201102
v -0.4037007 0.1930994 1.201102
v -0.4026771 0.194123 1.201102
v -0.4026771 0.1941234 0.00102375
v -0.4037007 0.1930994 1.201102
v -0.4026771 0.1941234 0.00102375
v -0.4037007 0.1930997 0.00102375
v -0.4026771 0.1930993 1.214213
v -0.4026771 -0.2085541 1.214212
v 0.4026771 0.1930993 1.214213
v 0.4026771 -0.2085541 1.214212
v 0.4037007 -0.2085541 1.213228
v 0.4037007 0.1930994 1.20311
v 0.4037007 0.1930993 1.213228
v 0.4037007 -0.2085541 1.203149
v 0.4026771 0.1930994 1.202126
v 0.4026771 -0.2085541 1.202126
v -0.4026771 0.1930994 1.202126
v -0.4026771 -0.2085541 1.202126
v -0.4037007 0.1930993 1.213228
v -0.4037007 0.1930994 1.20315
v -0.4037007 -0.2085541 1.203149
v -0.4037007 -0.2085541 1.213228
v -0.4026771 -0.2095778 1.213228
v 0.4026771 -0.2095777 1.203149
v 0.4026771 -0.2095778 1.213228
v -0.4026771 -0.2095777 1.203149
v -0.4026771 0.194123 1.213228
v 0.4026771 0.194123 1.213228
v 0.4026771 0.194123 1.20311
v -0.4026771 0.194123 1.213228
v 0.4026771 0.194123 1.20311
v -0.4026771 0.194123 1.20315
v -0.4037007 -0.2085541 1.213228
v -0.4026771 -0.2095778 1.213228
v -0.4026771 -0.2085541 1.214212
v 0.4026771 -0.2085541 1.214212
v 0.4026771 -0.2095778 1.213228
v 0.4037007 -0.2085541 1.213228
v 0.4026771 -0.2095777 1.203149
v 0.4026771 -0.2085541 1.202126
v 0.4037007 -0.2085541 1.203149
v -0.4026771 -0.2085541 1.202126
v -0.4026771 -0.2095777 1.203149
v -0.4037007 -0.2085541 1.203149
v -0.4026771 0.194123 1.213228
v -0.4037007 0.1930993 1.213228
v -0.4026771 0.1930993 1.214213
v 0.4026771 0.1930993 1.214213
v 0.4037007 0.1930993 1.213228
v 0.4026771 0.194123 1.213228
v 0.4037007 0.1930994 1.20311
v 0.4026771 0.1930994 1.202126
v 0.4026771 0.194123 1.20311
v -0.4037007 0.1930994 1.20315
v -0.4026771 0.194123 1.20315
v -0.4026771 0.1930994 1.202126
v -0.4026771 -0.2095778 1.213228
v 0.4026771 -0.2095778 1.213228
v -0.4026771 -0.2085541 1.214212
v 0.4026771 -0.2085541 1.214212
v 0.4026771 -0.2085541 1.214212
v 0.4037007 -0.2085541 1.213228
v 0.4037007 0.1930993 1.213228
v 0.4026771 -0.2085541 1.214212
v 0.4037007 0.1930993 1.213228
v 0.4026771 0.1930993 1.214213
v -0.4026771 0.194123 1.213228
v 0.4026771 0.1930993 1.214213
v 0.4026771 0.194123 1.213228
v -0.4026771 0.194123 1.213228
v -0.4026771 0.1930993 1.214213
v 0.4026771 0.1930993 1.214213
v -0.4037007 0.1930993 1.213228
v -0.4037007 -0.2085541 1.213228
v -0.4026771 0.1930993 1.214213
v -0.4026771 0.1930993 1.214213
v -0.4037007 -0.2085541 1.213228
v -0.4026771 -0.2085541 1.214212
v 0.4026771 -0.2095778 1.213228
v 0.4026771 -0.2095777 1.203149
v 0.4037007 -0.2085541 1.213228
v 0.4037007 -0.2085541 1.213228
v 0.4026771 -0.2095777 1.203149
v 0.4037007 -0.2085541 1.203149
v 0.4037007 -0.2085541 1.203149
v 0.4026771 -0.2085541 1.202126
v 0.4026771 0.1930994 1.202126
v 0.4037007 -0.2085541 1.203149
v 0.4026771 0.1930994 1.202126
v 0.4037007 0.1930994 1.20311
v 0.4026771 0.194123 1.213228
v 0.4037007 0.1930994 1.20311
v 0.4026771 0.194123 1.20311
v 0.4037007 0.1930993 1.213228
v -0.4026771 -0.2095777 1.203149
v 0.4026771 -0.2085541 1.202126
v 0.4026771 -0.2095777 1.203149
v -0.4026771 -0.2085541 1.202126
v -0.4037007 0.1930994 1.20315
v -0.4026771 -0.2085541 1.202126
v -0.4037007 -0.2085541 1.203149
v -0.4026771 0.1930994 1.202126
v -0.4026771 0.194123 1.20315
v 0.4026771 0.194123 1.20311
v -0.4026771 0.1930994 1.202126
v -0.4026771 0.1930994 1.202126
v 0.4026771 0.194123 1.20311
v 0.4026771 0.1930994 1.202126
v -0.4037007 -0.2085541 1.203149
v -0.4026771 -0.2095777 1.203149
v -0.4026771 -0.2095778 1.213228
v -0.4037007 -0.2085541 1.203149
v -0.4026771 -0.2095778 1.213228
v -0.4037007 -0.2085541 1.213228
v -0.4037007 0.1930993 1.213228
v -0.4026771 0.194123 1.213228
v -0.4026771 0.194123 1.20315
v -0.4037007 0.1930993 1.213228
v -0.4026771 0.194123 1.20315
v -0.4037007 0.1930994 1.20315
v 0.3925984 0.1930994 1.202126
v 0.3925984 -0.2085541 1.202126
v 0.4026771 0.1930994 1.202126
v 0.4026771 -0.2085541 1.202126
v 0.4037007 -0.2085541 1.201102
v 0.4037007 0.1930997 0.00102375
v 0.4037007 0.1930994 1.201102
v 0.4037007 -0.2085537 0.00102362
v 0.4026771 0.1930997 1.3e-7
v 0.4026771 -0.2085537 0
v 0.3925984 0.1930997 1.3e-7
v 0.3925984 -0.2085537 0
v 0.3915747 0.1930994 1.201102
v 0.3915747 0.1930997 0.00102375
v 0.3915747 -0.2085537 0.00102362
v 0.3915747 -0.2085541 1.201102
v 0.3925984 -0.2095777 1.201102
v 0.4026771 -0.2095774 0.00102362
v 0.4026771 -0.2095777 1.201102
v 0.3925984 -0.2095774 0.00102362
v 0.3925984 0.194123 1.201102
v 0.4026771 0.194123 1.201102
v 0.4026771 0.1941234 0.00102375
v 0.3925984 0.1941234 0.00102375
v 0.3925984 -0.2085541 1.202126
v 0.3915747 -0.2085541 1.201102
v 0.3925984 -0.2095777 1.201102
v 0.4026771 -0.2085541 1.202126
v 0.4026771 -0.2095777 1.201102
v 0.4037007 -0.2085541 1.201102
v 0.4026771 -0.2095774 0.00102362
v 0.4026771 -0.2085537 0
v 0.4037007 -0.2085537 0.00102362
v 0.3915747 -0.2085537 0.00102362
v 0.3925984 -0.2085537 0
v 0.3925984 -0.2095774 0.00102362
v 0.3925984 0.1930994 1.202126
v 0.3925984 0.194123 1.201102
v 0.3915747 0.1930994 1.201102
v 0.4026771 0.1930994 1.202126
v 0.4037007 0.1930994 1.201102
v 0.4026771 0.194123 1.201102
v 0.4037007 0.1930997 0.00102375
v 0.4026771 0.1930997 1.3e-7
v 0.4026771 0.1941234 0.00102375
v 0.3925984 0.1941234 0.00102375
v 0.3925984 0.1930997 1.3e-7
v 0.3915747 0.1930997 0.00102375
v 0.3925984 -0.2095777 1.201102
v 0.4026771 -0.2095777 1.201102
v 0.3925984 -0.2085541 1.202126
v 0.4026771 -0.2085541 1.202126
v 0.4026771 -0.2085541 1.202126
v 0.4037007 -0.2085541 1.201102
v 0.4037007 0.1930994 1.201102
v 0.4026771 -0.2085541 1.202126
v 0.4037007 0.1930994 1.201102
v 0.4026771 0.1930994 1.202126
v 0.3925984 0.194123 1.201102
v 0.4026771 0.1930994 1.202126
v 0.4026771 0.194123 1.201102
v 0.3925984 0.1930994 1.202126
v 0.3925984 0.1930994 1.202126
v 0.3915747 0.1930994 1.201102
v 0.3915747 -0.2085541 1.201102
v 0.3925984 -0.2085541 1.202126
v 0.3925984 0.1930994 1.202126
v 0.3915747 -0.2085541 1.201102
v 0.4026771 -0.2095777 1.201102
v 0.4026771 -0.2095774 0.00102362
v 0.4037007 -0.2085541 1.201102
v 0.4037007 -0.2085541 1.201102
v 0.4026771 -0.2095774 0.00102362
v 0.4037007 -0.2085537 0.00102362
v 0.4037007 -0.2085537 0.00102362
v 0.4026771 -0.2085537 0
v 0.4026771 0.1930997 1.3e-7
v 0.4037007 0.1930997 0.00102375
v 0.4026771 0.194123 1.201102
v 0.4037007 0.1930997 0.00102375
v 0.4026771 0.1941234 0.00102375
v 0.4037007 0.1930994 1.201102
v 0.4037007 0.1930997 0.00102375
v 0.4026771 0.194123 1.201102
v 0.4026771 -0.2085537 0
v 0.4026771 -0.2095774 0.00102362
v 0.3925984 -0.2095774 0.00102362
v 0.3925984 -0.2085537 0
v 0.3915747 0.1930997 0.00102375
v 0.3925984 -0.2085537 0
v 0.3915747 -0.2085537 0.00102362
v 0.3925984 0.1930997 1.3e-7
v 0.3925984 0.1941234 0.00102375
v 0.4026771 0.1941234 0.00102375
v 0.3925984 0.1930997 1.3e-7
v 0.4026771 0.1930997 1.3e-7
v 0.3925984 -0.2095777 1.201102
v 0.3915747 -0.2085537 0.00102362
v 0.3925984 -0.2095774 0.00102362
v 0.3915747 -0.2085541 1.201102
v 0.3915747 -0.2085537 0.00102362
v 0.3925984 -0.2095777 1.201102
v 0.3925984 0.194123 1.201102
v 0.3925984 0.1941234 0.00102375
v 0.3915747 0.1930994 1.201102
v 0.3915747 0.1930994 1.201102
v 0.3925984 0.1941234 0.00102375
v 0.3915747 0.1930997 0.00102375
v -0.3905511 0.1930997 0.0517324
v -0.3905511 -0.2085537 0.05173228
v 0.3905905 0.1930997 0.0517324
v 0.3905905 -0.2085537 0.05173228
v 0.3915747 0.1930997 0.05070878
v 0.3915747 -0.2085537 0.05070866
v 0.3915747 0.1930997 0.00102375
v 0.3915747 -0.2085537 0.00102362
v 0.3905905 0.1930997 1.3e-7
v 0.3905905 -0.2085537 0
v -0.3905511 0.1930997 1.3e-7
v -0.3905511 -0.2085537 0
v -0.3915747 0.1930997 0.05070878
v -0.3915747 0.1930997 0.00102375
v -0.3915747 -0.2085537 0.00102362
v -0.3915747 -0.2085537 0.05070866
v -0.3905511 -0.2095774 0.05070866
v 0.3905905 -0.2095774 0.00102362
v 0.3905905 -0.2095774 0.05070866
v -0.3905511 -0.2095774 0.00102362
v -0.3905511 0.1941234 0.05070878
v 0.3905905 0.1941234 0.05070878
v 0.3905905 0.1941234 0.00102375
v -0.3905511 0.1941234 0.00102375
v -0.3905511 -0.2085537 0.05173228
v -0.3915747 -0.2085537 0.05070866
v -0.3905511 -0.2095774 0.05070866
v 0.3905905 -0.2085537 0.05173228
v 0.3905905 -0.2095774 0.05070866
v 0.3915747 -0.2085537 0.05070866
v 0.3905905 -0.2095774 0.00102362
v 0.3905905 -0.2085537 0
v 0.3915747 -0.2085537 0.00102362
v -0.3915747 -0.2085537 0.00102362
v -0.3905511 -0.2085537 0
v -0.3905511 -0.2095774 0.00102362
v -0.3905511 0.1930997 0.0517324
v -0.3905511 0.1941234 0.05070878
v -0.3915747 0.1930997 0.05070878
v 0.3905905 0.1930997 0.0517324
v 0.3915747 0.1930997 0.05070878
v 0.3905905 0.1941234 0.05070878
v 0.3915747 0.1930997 0.00102375
v 0.3905905 0.1930997 1.3e-7
v 0.3905905 0.1941234 0.00102375
v -0.3905511 0.1941234 0.00102375
v -0.3905511 0.1930997 1.3e-7
v -0.3915747 0.1930997 0.00102375
v -0.3905511 -0.2085537 0.05173228
v -0.3905511 -0.2095774 0.05070866
v 0.3905905 -0.2095774 0.05070866
v -0.3905511 -0.2085537 0.05173228
v 0.3905905 -0.2095774 0.05070866
v 0.3905905 -0.2085537 0.05173228
v 0.3905905 -0.2085537 0.05173228
v 0.3915747 -0.2085537 0.05070866
v 0.3915747 0.1930997 0.05070878
v 0.3905905 0.1930997 0.0517324
v 0.3905905 -0.2085537 0.05173228
v 0.3915747 0.1930997 0.05070878
v -0.3905511 0.1941234 0.05070878
v 0.3905905 0.1930997 0.0517324
v 0.3905905 0.1941234 0.05070878
v -0.3905511 0.1930997 0.0517324
v -0.3905511 0.1930997 0.0517324
v -0.3915747 0.1930997 0.05070878
v -0.3915747 -0.2085537 0.05070866
v -0.3905511 0.1930997 0.0517324
v -0.3915747 -0.2085537 0.05070866
v -0.3905511 -0.2085537 0.05173228
v 0.3905905 -0.2095774 0.05070866
v 0.3905905 -0.2095774 0.00102362
v 0.3915747 -0.2085537 0.05070866
v 0.3915747 -0.2085537 0.05070866
v 0.3905905 -0.2095774 0.00102362
v 0.3915747 -0.2085537 0.00102362
v 0.3915747 -0.2085537 0.00102362
v 0.3905905 -0.2085537 0
v 0.3905905 0.1930997 1.3e-7
v 0.3915747 0.1930997 0.00102375
v 0.3905905 0.1941234 0.05070878
v 0.3915747 0.1930997 0.00102375
v 0.3905905 0.1941234 0.00102375
v 0.3915747 0.1930997 0.05070878
v 0.3915747 0.1930997 0.00102375
v 0.3905905 0.1941234 0.05070878
v -0.3905511 -0.2095774 0.00102362
v 0.3905905 -0.2085537 0
v 0.3905905 -0.2095774 0.00102362
v 0.3905905 -0.2085537 0
v -0.3905511 -0.2095774 0.00102362
v -0.3905511 -0.2085537 0
v -0.3915747 0.1930997 0.00102375
v -0.3905511 -0.2085537 0
v -0.3915747 -0.2085537 0.00102362
v -0.3905511 0.1930997 1.3e-7
v -0.3905511 -0.2085537 0
v -0.3905511 0.1941234 0.00102375
v 0.3905905 0.1941234 0.00102375
v -0.3905511 0.1930997 1.3e-7
v 0.3905905 0.1930997 1.3e-7
v -0.3905511 -0.2095774 0.05070866
v -0.3915747 -0.2085537 0.00102362
v -0.3905511 -0.2095774 0.00102362
v -0.3915747 -0.2085537 0.05070866
v -0.3915747 -0.2085537 0.00102362
v -0.3905511 -0.2095774 0.05070866
v -0.3905511 0.1941234 0.05070878
v -0.3905511 0.1941234 0.00102375
v -0.3915747 0.1930997 0.05070878
v -0.3915747 0.1930997 0.05070878
v -0.3905511 0.1941234 0.00102375
v -0.3915747 0.1930997 0.00102375
v -0.4037007 -0.2075699 1.214212
v -0.4037007 -0.2095778 1.214212
v 0.4037007 -0.2075699 1.214212
v 0.4037007 -0.2095778 1.214212
v 0.4037007 -0.2095778 1.214212
v 0.4037007 -0.2075695 0
v 0.4037007 -0.2075699 1.214212
v 0.4037007 -0.2095774 0
v 0.4037007 -0.2075695 0
v 0.4037007 -0.2095774 0
v -0.4037007 -0.2075695 0
v -0.4037007 -0.2095774 0
v -0.4037007 -0.2075699 1.214212
v -0.4037007 -0.2075695 0
v -0.4037007 -0.2095774 0
v -0.4037007 -0.2095778 1.214212
v -0.4037007 -0.2095778 1.214212
v 0.4037007 -0.2095774 0
v 0.4037007 -0.2095778 1.214212
v -0.4037007 -0.2095774 0
v -0.4037007 -0.2075699 1.214212
v 0.4037007 -0.2075699 1.214212
v 0.4037007 -0.2075695 0
v -0.4037007 -0.2075695 0
vt -1.022806 0.5101246
vt -1.022806 -0.5101268
vt -0.9971782 0.5101246
vt -0.9971782 -0.5101268
vt -3.050822 -0.5101258
vt -0.00256418 0.5101233
vt -3.050822 0.5101258
vt -0.00256356 -0.5101258
vt 0.9971782 0.5101233
vt 0.9971782 -0.5101258
vt 1.022806 0.5101233
vt 1.022806 -0.5101258
vt 3.050822 0.5101258
vt 0.00256418 0.5101233
vt 0.00256356 -0.5101258
vt 3.050822 -0.5101258
vt -1.022806 3.050822
vt -0.9971782 0.00256336
vt -0.9971782 3.050822
vt -1.022806 0.00256336
vt 1.022806 3.050822
vt 0.9971782 3.050822
vt 0.9971782 0.00256461
vt 1.022806 0.00256461
vt 1.428724 1.250704
vt 1.430543 1.247564
vt 1.432353 1.250704
vt -2.86064 0.4229284
vt -2.85882 0.4260684
vt -2.86245 0.4260684
vt 0.7023251 -0.8232806
vt 0.7041443 -0.8264216
vt 0.7059548 -0.8232806
vt 0.724112 0.00103492
vt 0.7259225 -0.00210607
vt 0.7277418 0.00103492
vt 1.430434 -1.246933
vt 1.428614 -1.250073
vt 1.432244 -1.250073
vt -2.860584 -0.4226192
vt -2.862395 -0.4257601
vt -2.858765 -0.4257601
vt 0.7041439 0.8264223
vt 0.7023247 0.8232813
vt 0.7059544 0.8232813
vt 0.7277423 -0.00104451
vt 0.725923 0.00209641
vt 0.7241125 -0.00104451
vt -1.022806 1.795351
vt -0.9971782 1.795351
vt -1.022806 1.798975
vt -0.9971782 1.798975
vt -2.85882 0.5101255
vt -2.86245 -0.5101259
vt -2.85882 -0.5101259
vt -2.862395 0.5101253
vt -2.862395 -0.5101261
vt -2.858765 0.5101253
vt -1.022806 -1.794636
vt -0.9971782 -1.798261
vt -0.9971782 -1.794636
vt -1.022806 -1.798261
vt 1.428614 0.5101253
vt 1.428615 -0.5101261
vt 1.432244 0.5101253
vt 1.432353 0.510125
vt 1.428724 -0.5101266
vt 1.432353 -0.5101266
vt -0.00256398 -1.068128
vt -3.050822 -1.064497
vt -3.050822 -1.068126
vt -0.00256356 -1.068044
vt -0.00256356 -1.064415
vt -3.050822 -1.064415
vt 0.7059544 0.5101236
vt 0.7023251 -0.5101254
vt 0.7059548 -0.5101254
vt 0.7023247 0.5101236
vt -3.050821 1.068049
vt -0.00256336 1.064416
vt -0.00256336 1.068046
vt -3.050821 1.068046
vt -3.050821 1.064416
vt -0.00256338 1.064413
vt 0.9971782 -0.3607161
vt 0.9971782 -0.3643416
vt 1.022806 -0.3643416
vt 1.022806 -0.3607161
vt 0.7277423 0.510123
vt 0.724112 -0.5101261
vt 0.7277418 -0.5101261
vt 0.7241125 0.510123
vt 1.022806 0.3643368
vt 0.9971782 0.3643368
vt 1.022806 0.3607115
vt 0.9971782 0.3607115
vt 0.00256314 0.3656484
vt 0.00256314 0.3620185
vt 3.050822 0.3620203
vt 0.00256356 0.3659151
vt 3.050822 0.3622861
vt 3.050822 0.3659151
vt 3.050823 -0.3656466
vt 3.050823 -0.3620167
vt 0.00256503 -0.3620203
vt 3.050823 -0.3656569
vt 0.00256501 -0.3620305
vt 0.00256502 -0.3656604
vt -1.022806 0.5101234
vt -1.022806 -0.510128
vt 1.022816 0.5101234
vt 1.022816 -0.510128
vt -3.081585 -0.5101258
vt -3.05595 0.5101258
vt -3.081584 0.5101258
vt -3.05595 -0.5101258
vt -1.022816 0.5101252
vt -1.022816 -0.5101264
vt 1.022806 0.5101252
vt 1.022806 -0.5101264
vt 3.081584 0.5101258
vt 3.05595 0.5101258
vt 3.05595 -0.5101258
vt 3.081585 -0.5101258
vt -1.022806 3.081585
vt 1.022816 3.05595
vt 1.022816 3.081585
vt -1.022806 3.05595
vt 1.022807 3.081584
vt -1.022816 3.081584
vt -1.022816 3.05595
vt 1.022806 3.08161
vt -1.022816 3.055975
vt 1.022806 3.055975
vt 1.45045 1.262674
vt 1.452269 1.259533
vt 1.45408 1.262674
vt -1.459723 1.258597
vt -1.457909 1.255458
vt -1.456101 1.258597
vt -2.885183 -1.247099
vt -2.883369 -1.24396
vt -2.886992 -1.24396
vt 2.880567 -1.248007
vt 2.882378 -1.251148
vt 2.884197 -1.248007
vt 1.452049 -1.259501
vt 1.45023 -1.262642
vt 1.45386 -1.262642
vt -1.459613 -1.259199
vt -1.455991 -1.259199
vt -1.457799 -1.256061
vt -2.886883 1.244258
vt -2.883261 1.244258
vt -2.885074 1.247396
vt 2.884197 1.248211
vt 2.882378 1.251351
vt 2.880567 1.248211
vt -1.022806 1.816483
vt 1.022816 1.816483
vt -1.022806 1.820109
vt 1.022816 1.820109
vt -1.459723 -0.5101268
vt -1.456101 -0.5101268
vt -1.4561 0.5101246
vt -1.459614 -0.5101273
vt -1.455991 0.5101242
vt -1.459613 0.5101242
vt -1.022809 -1.817011
vt 1.022814 -1.820637
vt 1.022814 -1.817013
vt -1.022806 -1.816291
vt -1.022806 -1.819916
vt 1.022816 -1.819916
vt 1.45023 0.5101249
vt 1.45023 -0.5101266
vt 1.45386 0.5101249
vt 1.454079 0.5101241
vt 1.45045 -0.5101273
vt 1.45408 -0.5101273
vt -3.081585 0.3599133
vt -3.05595 0.3599133
vt -3.081585 0.3635361
vt -3.081585 0.3635361
vt -3.05595 0.3599133
vt -3.05595 0.3635361
vt -2.886992 -0.5101259
vt -2.883369 -0.5101259
vt -2.883369 0.5101255
vt -2.886883 -0.5101264
vt -2.883261 0.5101252
vt -2.886883 0.5101252
vt -3.081584 -0.3601811
vt -3.05595 -0.363803
vt -3.05595 -0.3601811
vt -3.081584 -0.363803
vt 1.022806 -2.523409
vt -1.022816 -2.519784
vt -1.022816 -2.523409
vt 1.022806 -2.519784
vt 2.884197 0.5101255
vt 2.880567 -0.5101259
vt 2.884197 -0.5101259
vt 2.880567 0.5101255
vt 1.022807 2.52385
vt -1.022816 2.52385
vt 1.022807 2.520226
vt 1.022806 2.52009
vt -1.022816 2.523714
vt -1.022816 2.52009
vt 3.05595 0.3656484
vt 3.05595 0.3620185
vt 3.081585 0.3620185
vt 3.05595 0.3656484
vt 3.081585 0.3620185
vt 3.081585 0.3656484
vt 3.081635 -0.365541
vt 3.081635 -0.3619111
vt 3.056001 -0.3619128
vt 3.081584 -0.3659151
vt 3.05595 -0.3622861
vt 3.05595 -0.3659151
vt 0.9971782 0.5101246
vt 0.9971782 -0.5101268
vt 1.022816 0.5101246
vt 1.022816 -0.5101268
vt -3.050822 -0.5101258
vt -0.00256418 0.5101233
vt -3.050822 0.5101258
vt -0.00256356 -0.5101258
vt -1.022816 0.5101233
vt -1.022816 -0.5101258
vt -0.9971782 0.5101233
vt -0.9971782 -0.5101258
vt 3.050822 0.5101258
vt 0.00256418 0.5101233
vt 0.00256356 -0.5101258
vt 3.050822 -0.5101258
vt 0.9971782 3.050822
vt 1.022816 0.00256336
vt 1.022816 3.050822
vt 0.9971782 0.00256336
vt -0.9971782 3.050822
vt -1.022816 3.050822
vt -1.022816 0.00256461
vt -0.9971782 0.00256461
vt 2.865253 0.4215354
vt 2.86163 0.4215354
vt 2.863439 0.4183974
vt -1.437955 1.246667
vt -1.436141 1.243529
vt -1.434332 1.246667
vt -0.7245263 -0.00209856
vt -0.7227123 0.00104046
vt -0.7263351 0.00104046
vt -0.7009739 -0.8238101
vt -0.7045966 -0.8238101
vt -0.7027826 -0.8269491
vt 2.865143 -0.4212646
vt 2.863329 -0.4181257
vt 2.86152 -0.4212646
vt -1.437737 -1.246022
vt -1.434114 -1.246022
vt -1.435923 -1.242883
vt -0.7263356 -0.00105011
vt -0.7227128 -0.00105011
vt -0.7245268 0.00208884
vt -0.7027822 0.8269498
vt -0.7045962 0.8238109
vt -0.7009735 0.8238109
vt 0.9971782 1.795351
vt 1.022816 1.795351
vt 0.9971782 1.798975
vt 1.022816 1.798975
vt -1.437955 -0.5101258
vt -1.434332 -0.5101258
vt -1.434332 0.5101258
vt -1.437737 -0.5101266
vt -1.434114 0.510125
vt -1.437737 0.510125
vt 0.9971782 -1.79454
vt 1.022816 -1.798166
vt 1.022816 -1.79454
vt 0.9971782 -1.798166
vt 2.865143 0.5101258
vt 2.86152 0.5101258
vt 2.86152 -0.5101258
vt 2.865253 -0.5101261
vt 2.865252 0.5101253
vt 2.86163 -0.5101261
vt -3.050822 0.360182
vt -0.00256314 0.3601802
vt -3.050822 0.3638039
vt -3.050822 0.3635361
vt -0.00256356 0.3599133
vt -0.00256356 0.3635361
vt -0.7263351 -0.5101261
vt -0.7227123 -0.5101261
vt -0.7227128 0.510123
vt -0.7263356 0.510123
vt -3.050823 -0.3599218
vt -0.00256503 -0.3635482
vt -0.00256503 -0.3599254
vt -3.050823 -0.3635345
vt -0.00256501 -0.3635379
vt -3.050823 -0.3599116
vt -1.022816 -0.3607161
vt -1.022816 -0.3643416
vt -0.9971782 -0.3643416
vt -0.9971782 -0.3607161
vt -0.7009734 0.5101236
vt -0.7045966 -0.5101254
vt -0.7009739 -0.5101254
vt -0.7045962 0.5101236
vt -0.9971782 0.3643368
vt -1.022816 0.3643368
vt -0.9971782 0.3607115
vt -1.022816 0.3607115
vt 3.050822 -1.067383
vt 0.00256397 -1.063762
vt 0.00256398 -1.067385
vt 3.050822 -1.063846
vt 0.00256356 -1.063846
vt 3.050822 -1.067468
vt 3.050821 1.067386
vt 0.00256336 1.067383
vt 3.050821 1.063764
vt 3.050821 1.063767
vt 0.00256338 1.067386
vt 0.00256338 1.063763
vt -0.9920486 0.5101246
vt -0.9920486 -0.5101256
vt 0.9920585 0.5101246
vt 0.9920585 -0.5101256
vt -0.1288109 0.5101245
vt -0.1288107 -0.5101258
vt -0.00256605 0.5101245
vt -0.00256543 -0.5101258
vt -0.9920585 0.5101245
vt -0.9920585 -0.5101258
vt 0.9920486 0.5101245
vt 0.9920486 -0.5101258
vt 0.1288109 0.5101245
vt 0.00256605 0.5101245
vt 0.00256543 -0.5101258
vt 0.1288107 -0.5101258
vt -0.9920489 0.1288108
vt 0.9920582 0.00256544
vt 0.9920582 0.1288108
vt -0.9920489 0.00256544
vt 0.9920486 0.1288109
vt -0.9920585 0.1288109
vt -0.9920585 0.00256604
vt 0.9920486 0.00256604
vt -0.6080477 0.04202199
vt -0.6116704 0.04202199
vt -0.6098616 0.03888303
vt 0.6080397 0.04224283
vt 0.6098536 0.03910494
vt 0.6116624 0.04224283
vt -0.7027941 -0.01445663
vt -0.7009801 -0.01131868
vt -0.7046029 -0.01131868
vt 0.7046092 -0.0115236
vt 0.7009863 -0.0115236
vt 0.7028003 -0.01466262
vt -0.6080231 -0.04205596
vt -0.6098371 -0.03891695
vt -0.6116459 -0.04205596
vt 0.6080151 -0.04205823
vt 0.6116379 -0.04205823
vt 0.6098291 -0.03891933
vt -0.7046037 0.01151156
vt -0.7009809 0.01151156
vt -0.7027949 0.01465052
vt 0.7028011 0.01465452
vt 0.7009871 0.01151556
vt 0.70461 0.01151556
vt -0.9920486 -0.2678354
vt -0.9920486 -0.2714608
vt 0.9920585 -0.271459
vt -0.9920486 -0.2677236
vt 0.9920585 -0.271348
vt 0.9920585 -0.2677236
vt 0.6080397 -0.5101256
vt 0.6116624 -0.5101256
vt 0.6116623 0.5101246
vt 0.6080151 0.5101247
vt 0.6080153 -0.5101256
vt 0.6116379 0.5101247
vt -0.9920486 0.2714411
vt 0.9920585 0.2678156
vt 0.9920585 0.2714411
vt -0.9920486 0.2678156
vt -0.6080231 0.5101246
vt -0.6116459 0.5101246
vt -0.6116461 -0.5101256
vt -0.6080475 0.5101247
vt -0.6116704 -0.5101256
vt -0.6080477 -0.5101256
vt -0.1288107 0.3384427
vt -0.00256543 0.3384427
vt -0.1288107 0.3420646
vt -0.1288107 0.3420646
vt -0.00256543 0.3384427
vt -0.00256543 0.3420646
vt -0.7046029 -0.5101261
vt -0.7009801 -0.5101261
vt -0.7009805 0.5101242
vt -0.7046037 0.5101242
vt -0.1288109 -0.3381913
vt -0.00256605 -0.341814
vt -0.00256605 -0.3381913
vt -0.1288109 -0.341814
vt -0.00256605 -0.341814
vt -0.1288109 -0.3381913
vt 0.9920486 -0.3642545
vt -0.9920585 -0.3606281
vt -0.9920585 -0.3642528
vt -0.9920585 -0.3607173
vt 0.9920486 -0.3643427
vt 0.9920486 -0.3607173
vt 0.7046096 0.5101242
vt 0.7009863 -0.5101261
vt 0.7046092 -0.5101261
vt 0.7009871 0.5101242
vt 0.7009867 -0.5101261
vt 0.9920486 0.3643391
vt -0.9920585 0.3643391
vt 0.9920486 0.3607136
vt -0.9920585 0.3607136
vt 0.1288107 0.3381934
vt 0.00256543 0.3418163
vt 0.00256543 0.3381934
vt 0.1288107 0.3418163
vt 0.00256543 0.3418163
vt 0.1288107 0.3381934
vt 0.1288109 -0.3382044
vt 0.00256605 -0.3382044
vt 0.1288109 -0.3418272
vt 0.1288109 -0.3418272
vt 0.00256605 -0.3382044
vt 0.00256605 -0.3418272
vt -1.025376 -0.5075622
vt -1.025376 -0.5126882
vt 1.025376 -0.5075622
vt 1.025376 -0.5126882
vt -3.084147 -0.5126882
vt 0 -0.5075622
vt -3.084147 -0.5075622
vt 0 -0.5126894
vt -1.025376 -0.5075622
vt -1.025376 -0.5126894
vt 1.025376 -0.5075634
vt 1.025376 -0.5126894
vt 3.084147 -0.5075622
vt 0 -0.5075634
vt 0 -0.5126894
vt 3.084147 -0.5126882
vt -1.025376 3.084147
vt 1.025376 -2.4e-7
vt 1.025376 3.084147
vt -1.025376 -2.4e-7
vt 1.025376 3.084147
vt -1.025376 3.084147
vt -1.025376 0
vt 1.025376 -2.4e-7
vn 0 -5.9753e-7 1
vn 0 -5.9753e-7 1
vn 0 -5.9753e-7 1
vn 0 -5.9753e-7 1
vn 1 0 0
vn 1 0 0
vn 1 0 0
vn 1 0 0
vn 0 3.236621e-7 -1
vn 0 3.236621e-7 -1
vn 0 3.236621e-7 -1
vn 0 3.236621e-7 -1
vn -1 0 0
vn -1 0 0
vn -1 0 0
vn -1 0 0
vn 0 -1 -3.083132e-7
vn 0 -1 -3.083132e-7
vn 0 -1 -3.083132e-7
vn 0 -1 -3.083132e-7
vn 0 1 3.083131e-7
vn 0 1 3.083131e-7
vn 0 1 3.083131e-7
vn 0 1 3.083131e-7
vn -0.5773258 -0.5773315 0.5773935
vn -0.5773258 -0.5773315 0.5773935
vn -0.5773258 -0.5773315 0.5773935
vn 0.5773371 -0.5773258 0.5773879
vn 0.5773371 -0.5773258 0.5773879
vn 0.5773371 -0.5773258 0.5773879
vn 0.577354 -0.5773427 -0.577354
vn 0.577354 -0.5773427 -0.577354
vn 0.577354 -0.5773427 -0.577354
vn -0.5773427 -0.5773484 -0.5773597
vn -0.5773427 -0.5773484 -0.5773597
vn -0.5773427 -0.5773484 -0.5773597
vn -0.5773258 0.5773315 0.5773935
vn -0.5773258 0.5773315 0.5773935
vn -0.5773258 0.5773315 0.5773935
vn 0.5773371 0.5773258 0.5773879
vn 0.5773371 0.5773258 0.5773879
vn 0.5773371 0.5773258 0.5773879
vn 0.5773522 0.5773465 -0.5773522
vn 0.5773522 0.5773465 -0.5773522
vn 0.5773522 0.5773465 -0.5773522
vn -0.5773408 0.5773522 -0.5773578
vn -0.5773408 0.5773522 -0.5773578
vn -0.5773408 0.5773522 -0.5773578
vn 0 -0.7070688 0.7071448
vn 0 -0.7070688 0.7071448
vn 0 -0.7070688 0.7071448
vn 0 -0.7070688 0.7071448
vn 0.7070757 -4.225361e-7 0.7071379
vn 0.7070757 -4.225361e-7 0.7071379
vn 0.7070757 -4.225361e-7 0.7071379
vn 0.7070757 -4.225361e-7 0.7071379
vn 0.7070757 -4.225361e-7 0.7071379
vn 0.7070757 -4.225361e-7 0.7071379
vn 0 0.7070688 0.7071448
vn 0 0.7070688 0.7071448
vn 0 0.7070688 0.7071448
vn 0 0.7070688 0.7071448
vn -0.7070653 -4.225423e-7 0.7071483
vn -0.7070653 -4.225423e-7 0.7071483
vn -0.7070653 -4.225423e-7 0.7071483
vn -0.7070653 -4.225423e-7 0.7071483
vn -0.7070653 -4.225423e-7 0.7071483
vn -0.7070653 -4.225423e-7 0.7071483
vn 0.7071137 -0.7070999 -2.180082e-7
vn 0.7071137 -0.7070999 -2.180082e-7
vn 0.7071137 -0.7070999 -2.180082e-7
vn 0.7071137 -0.7070999 -2.180082e-7
vn 0.7071137 -0.7070999 -2.180082e-7
vn 0.7071137 -0.7070999 -2.180082e-7
vn 0.7071068 2.288637e-7 -0.7071068
vn 0.7071068 2.288637e-7 -0.7071068
vn 0.7071068 2.288637e-7 -0.7071068
vn 0.7071068 2.288637e-7 -0.7071068
vn 0.7071102 0.7071033 2.180092e-7
vn 0.7071102 0.7071033 2.180092e-7
vn 0.7071102 0.7071033 2.180092e-7
vn 0.7071137 0.7070999 2.239003e-7
vn 0.7071137 0.7070999 2.239003e-7
vn 0.7071137 0.7070999 2.239003e-7
vn 0 -0.7070999 -0.7071137
vn 0 -0.7070999 -0.7071137
vn 0 -0.7070999 -0.7071137
vn 0 -0.7070999 -0.7071137
vn -0.7070964 2.28867e-7 -0.7071171
vn -0.7070964 2.28867e-7 -0.7071171
vn -0.7070964 2.28867e-7 -0.7071171
vn -0.7070964 2.28867e-7 -0.7071171
vn 0 0.7071033 -0.7071102
vn 0 0.7071033 -0.7071102
vn 0 0.7071033 -0.7071102
vn 0 0.7071033 -0.7071102
vn -0.7071033 -0.7071102 -2.180114e-7
vn -0.7071033 -0.7071102 -2.180114e-7
vn -0.7071033 -0.7071102 -2.180114e-7
vn -0.7071033 -0.7071102 -2.180114e-7
vn -0.7071033 -0.7071102 -2.180114e-7
vn -0.7071033 -0.7071102 -2.180114e-7
vn -0.7071033 0.7071102 2.180114e-7
vn -0.7071033 0.7071102 2.180114e-7
vn -0.7071033 0.7071102 2.180114e-7
vn -0.7070999 0.7071137 2.239047e-7
vn -0.7070999 0.7071137 2.239047e-7
vn -0.7070999 0.7071137 2.239047e-7
vn 0 -5.9753e-7 1
vn 0 -5.9753e-7 1
vn 0 -5.9753e-7 1
vn 0 -5.9753e-7 1
vn 1 0 0
vn 1 0 0
vn 1 0 0
vn 1 0 0
vn 0 5.9753e-7 -1
vn 0 5.9753e-7 -1
vn 0 5.9753e-7 -1
vn 0 5.9753e-7 -1
vn -1 0 0
vn -1 0 0
vn -1 0 0
vn -1 0 0
vn 0 -1 -9.921944e-7
vn 0 -1 -9.921944e-7
vn 0 -1 -9.921944e-7
vn 0 -1 -9.921944e-7
vn 0 1 9.883377e-7
vn 0 1 9.883377e-7
vn 0 1 9.883377e-7
vn 4.846683e-11 1 9.921954e-7
vn 4.846683e-11 1 9.921954e-7
vn 4.846683e-11 1 9.921954e-7
vn -0.5696333 -0.5696444 0.5924721
vn -0.5696333 -0.5696444 0.5924721
vn -0.5696333 -0.5696444 0.5924721
vn 0.5696333 -0.5696444 0.5924721
vn 0.5696333 -0.5696444 0.5924721
vn 0.5696333 -0.5696444 0.5924721
vn 0.5773709 -0.5773766 -0.5773033
vn 0.5773709 -0.5773766 -0.5773033
vn 0.5773709 -0.5773766 -0.5773033
vn -0.5773709 -0.5773766 -0.5773033
vn -0.5773709 -0.5773766 -0.5773033
vn -0.5773709 -0.5773766 -0.5773033
vn -0.5696371 0.5696427 0.59247
vn -0.5696371 0.5696427 0.59247
vn -0.5696371 0.5696427 0.59247
vn 0.5696371 0.5696427 0.59247
vn 0.5696371 0.5696427 0.59247
vn 0.5696371 0.5696427 0.59247
vn 0.5696838 0.5696894 -0.5923802
vn 0.5696838 0.5696894 -0.5923802
vn 0.5696838 0.5696894 -0.5923802
vn -0.5773709 0.5773766 -0.5773033
vn -0.5773709 0.5773766 -0.5773033
vn -0.5773709 0.5773766 -0.5773033
vn 0 -0.6930832 0.7208576
vn 0 -0.6930832 0.7208576
vn 0 -0.6930832 0.7208576
vn 0 -0.6930832 0.7208576
vn 0.6930762 -4.127907e-7 0.7208643
vn 0.6930762 -4.127907e-7 0.7208643
vn 0.6930762 -4.127907e-7 0.7208643
vn 0.6930799 -4.30736e-7 0.7208608
vn 0.6930799 -4.30736e-7 0.7208608
vn 0.6930799 -4.30736e-7 0.7208608
vn 0 0.6930834 0.7208574
vn 0 0.6930834 0.7208574
vn 0 0.6930834 0.7208574
vn 0 0.6930834 0.7208574
vn 0 0.6930834 0.7208574
vn 0 0.6930834 0.7208574
vn -0.6930799 -4.127886e-7 0.7208608
vn -0.6930799 -4.127886e-7 0.7208608
vn -0.6930799 -4.127886e-7 0.7208608
vn -0.6930762 -4.307381e-7 0.7208643
vn -0.6930762 -4.307381e-7 0.7208643
vn -0.6930762 -4.307381e-7 0.7208643
vn 0.7070999 -0.7071137 -7.015943e-7
vn 0.7070999 -0.7071137 -7.015943e-7
vn 0.7070999 -0.7071137 -7.015943e-7
vn 0.7071033 -0.7071102 -0.000001403182
vn 0.7071033 -0.7071102 -0.000001403182
vn 0.7071033 -0.7071102 -0.000001403182
vn 0.7071482 4.224928e-7 -0.7070653
vn 0.7071482 4.224928e-7 -0.7070653
vn 0.7071482 4.224928e-7 -0.7070653
vn 0.693164 -0.00007016619 -0.7207799
vn 0.693164 -0.00007016619 -0.7207799
vn 0.693164 -0.00007016619 -0.7207799
vn 0.7071033 0.7071102 6.988636e-7
vn 0.7071033 0.7071102 6.988636e-7
vn 0.7071033 0.7071102 6.988636e-7
vn 0.7071033 0.7071102 6.988636e-7
vn 0 -0.7071517 -0.7070619
vn 0 -0.7071517 -0.7070619
vn 0 -0.7071517 -0.7070619
vn 0 -0.7071517 -0.7070619
vn -0.7071482 4.224928e-7 -0.7070653
vn -0.7071482 4.224928e-7 -0.7070653
vn -0.7071482 4.224928e-7 -0.7070653
vn -0.7071482 4.224928e-7 -0.7070653
vn -0.00003453861 0.7071517 -0.7070619
vn -0.00003453861 0.7071517 -0.7070619
vn -0.00003453861 0.7071517 -0.7070619
vn 0 0.6931675 -0.7207765
vn 0 0.6931675 -0.7207765
vn 0 0.6931675 -0.7207765
vn -0.7071033 -0.7071102 -7.015908e-7
vn -0.7071033 -0.7071102 -7.015908e-7
vn -0.7071033 -0.7071102 -7.015908e-7
vn -0.7070999 -0.7071137 -0.000001403189
vn -0.7070999 -0.7071137 -0.000001403189
vn -0.7070999 -0.7071137 -0.000001403189
vn -0.7071033 0.7071102 7.015915e-7
vn -0.7071033 0.7071102 7.015915e-7
vn -0.7071033 0.7071102 7.015915e-7
vn -0.7071033 0.7071102 7.015915e-7
vn -0.7071033 0.7071102 7.015915e-7
vn -0.7071033 0.7071102 7.015915e-7
vn 0 -5.9753e-7 1
vn 0 -5.9753e-7 1
vn 0 -5.9753e-7 1
vn 0 -5.9753e-7 1
vn 1 0 0
vn 1 0 0
vn 1 0 0
vn 1 0 0
vn 0 3.236621e-7 -1
vn 0 3.236621e-7 -1
vn 0 3.236621e-7 -1
vn 0 3.236621e-7 -1
vn -1 0 0
vn -1 0 0
vn -1 0 0
vn -1 0 0
vn 0 -1 -3.083132e-7
vn 0 -1 -3.083132e-7
vn 0 -1 -3.083132e-7
vn 0 -1 -3.083132e-7
vn 0 1 3.083131e-7
vn 0 1 3.083131e-7
vn 0 1 3.083131e-7
vn 0 1 3.083131e-7
vn -0.5773371 -0.5773258 0.5773879
vn -0.5773371 -0.5773258 0.5773879
vn -0.5773371 -0.5773258 0.5773879
vn 0.5773258 -0.5773315 0.5773935
vn 0.5773258 -0.5773315 0.5773935
vn 0.5773258 -0.5773315 0.5773935
vn 0.5773427 -0.5773484 -0.5773597
vn 0.5773427 -0.5773484 -0.5773597
vn 0.5773427 -0.5773484 -0.5773597
vn -0.577354 -0.5773427 -0.577354
vn -0.577354 -0.5773427 -0.577354
vn -0.577354 -0.5773427 -0.577354
vn -0.5773371 0.5773258 0.5773879
vn -0.5773371 0.5773258 0.5773879
vn -0.5773371 0.5773258 0.5773879
vn 0.5773258 0.5773315 0.5773935
vn 0.5773258 0.5773315 0.5773935
vn 0.5773258 0.5773315 0.5773935
vn 0.5773408 0.5773522 -0.5773578
vn 0.5773408 0.5773522 -0.5773578
vn 0.5773408 0.5773522 -0.5773578
vn -0.5773522 0.5773465 -0.5773522
vn -0.5773522 0.5773465 -0.5773522
vn -0.5773522 0.5773465 -0.5773522
vn 0 -0.7070688 0.7071448
vn 0 -0.7070688 0.7071448
vn 0 -0.7070688 0.7071448
vn 0 -0.7070688 0.7071448
vn 0.7070653 -4.225423e-7 0.7071483
vn 0.7070653 -4.225423e-7 0.7071483
vn 0.7070653 -4.225423e-7 0.7071483
vn 0.7070653 -4.225423e-7 0.7071483
vn 0.7070653 -4.225423e-7 0.7071483
vn 0.7070653 -4.225423e-7 0.7071483
vn 0 0.7070688 0.7071448
vn 0 0.7070688 0.7071448
vn 0 0.7070688 0.7071448
vn 0 0.7070688 0.7071448
vn -0.7070757 -4.225361e-7 0.7071379
vn -0.7070757 -4.225361e-7 0.7071379
vn -0.7070757 -4.225361e-7 0.7071379
vn -0.7070757 -4.225361e-7 0.7071379
vn -0.7070757 -4.225361e-7 0.7071379
vn -0.7070757 -4.225361e-7 0.7071379
vn 0.7071033 -0.7071102 -2.180114e-7
vn 0.7071033 -0.7071102 -2.180114e-7
vn 0.7071033 -0.7071102 -2.180114e-7
vn 0.7071033 -0.7071102 -2.180114e-7
vn 0.7071033 -0.7071102 -2.180114e-7
vn 0.7071033 -0.7071102 -2.180114e-7
vn 0.7070964 2.28867e-7 -0.7071171
vn 0.7070964 2.28867e-7 -0.7071171
vn 0.7070964 2.28867e-7 -0.7071171
vn 0.7070964 2.28867e-7 -0.7071171
vn 0.7070999 0.7071137 2.180124e-7
vn 0.7070999 0.7071137 2.180124e-7
vn 0.7070999 0.7071137 2.180124e-7
vn 0.7071033 0.7071102 2.239036e-7
vn 0.7071033 0.7071102 2.239036e-7
vn 0.7071033 0.7071102 2.239036e-7
vn 0 -0.7070999 -0.7071137
vn 0 -0.7070999 -0.7071137
vn 0 -0.7070999 -0.7071137
vn 0 -0.7070999 -0.7071137
vn -0.7071068 2.288637e-7 -0.7071068
vn -0.7071068 2.288637e-7 -0.7071068
vn -0.7071068 2.288637e-7 -0.7071068
vn -0.7071068 2.288637e-7 -0.7071068
vn 0 0.7071033 -0.7071102
vn 0 0.7071033 -0.7071102
vn 0 0.7071033 -0.7071102
vn 0 0.7071033 -0.7071102
vn -0.7071137 -0.7070999 -2.180082e-7
vn -0.7071137 -0.7070999 -2.180082e-7
vn -0.7071137 -0.7070999 -2.180082e-7
vn -0.7071137 -0.7070999 -2.180082e-7
vn -0.7071137 -0.7070999 -2.180082e-7
vn -0.7071137 -0.7070999 -2.180082e-7
vn -0.7071137 0.7070999 2.180082e-7
vn -0.7071137 0.7070999 2.180082e-7
vn -0.7071137 0.7070999 2.180082e-7
vn -0.7071102 0.7071033 2.239014e-7
vn -0.7071102 0.7071033 2.239014e-7
vn -0.7071102 0.7071033 2.239014e-7
vn 0 -2.98765e-7 1
vn 0 -2.98765e-7 1
vn 0 -2.98765e-7 1
vn 0 -2.98765e-7 1
vn 1 0 0
vn 1 0 0
vn 1 0 0
vn 1 0 0
vn 0 3.236621e-7 -1
vn 0 3.236621e-7 -1
vn 0 3.236621e-7 -1
vn 0 3.236621e-7 -1
vn -1 0 0
vn -1 0 0
vn -1 0 0
vn -1 0 0
vn 0 -1 -2.012678e-7
vn 0 -1 -2.012678e-7
vn 0 -1 -2.012678e-7
vn 0 -1 -2.012678e-7
vn 0 1 2.012679e-7
vn 0 1 2.012679e-7
vn 0 1 2.012679e-7
vn 0 1 2.012679e-7
vn -0.5773522 -0.5773465 0.5773522
vn -0.5773522 -0.5773465 0.5773522
vn -0.5773522 -0.5773465 0.5773522
vn 0.592443 -0.5696512 0.5696567
vn 0.592443 -0.5696512 0.5696567
vn 0.592443 -0.5696512 0.5696567
vn 0.5924449 -0.5696474 -0.5696586
vn 0.5924449 -0.5696474 -0.5696586
vn 0.5924449 -0.5696474 -0.5696586
vn -0.577354 -0.5773427 -0.577354
vn -0.577354 -0.5773427 -0.577354
vn -0.577354 -0.5773427 -0.577354
vn -0.577354 0.5773427 0.577354
vn -0.577354 0.5773427 0.577354
vn -0.577354 0.5773427 0.577354
vn 0.5924449 0.5696474 0.5696586
vn 0.5924449 0.5696474 0.5696586
vn 0.5924449 0.5696474 0.5696586
vn 0.592443 0.5696512 -0.5696567
vn 0.592443 0.5696512 -0.5696567
vn 0.592443 0.5696512 -0.5696567
vn -0.5773522 0.5773465 -0.5773522
vn -0.5773522 0.5773465 -0.5773522
vn -0.5773522 0.5773465 -0.5773522
vn 0 -0.7071033 0.7071102
vn 0 -0.7071033 0.7071102
vn 0 -0.7071033 0.7071102
vn 0 -0.7071033 0.7071102
vn 0 -0.7071033 0.7071102
vn 0 -0.7071033 0.7071102
vn 0.7208331 -2.070766e-7 0.6931087
vn 0.7208331 -2.070766e-7 0.6931087
vn 0.7208331 -2.070766e-7 0.6931087
vn 0.7208331 -2.070766e-7 0.6931087
vn 0.7208331 -2.070766e-7 0.6931087
vn 0.7208331 -2.070766e-7 0.6931087
vn 0 0.7070999 0.7071137
vn 0 0.7070999 0.7071137
vn 0 0.7070999 0.7071137
vn 0 0.7070999 0.7071137
vn -0.7071068 -2.112588e-7 0.7071068
vn -0.7071068 -2.112588e-7 0.7071068
vn -0.7071068 -2.112588e-7 0.7071068
vn -0.7071068 -2.112588e-7 0.7071068
vn -0.7071068 -2.112588e-7 0.7071068
vn -0.7071068 -2.112588e-7 0.7071068
vn 0.7208365 -0.6931052 -1.394998e-7
vn 0.7208365 -0.6931052 -1.394998e-7
vn 0.7208365 -0.6931052 -1.394998e-7
vn 0.7208399 -0.6931017 -2.789981e-7
vn 0.7208399 -0.6931017 -2.789981e-7
vn 0.7208399 -0.6931017 -2.789981e-7
vn 0.7208331 2.24333e-7 -0.6931087
vn 0.7208331 2.24333e-7 -0.6931087
vn 0.7208331 2.24333e-7 -0.6931087
vn 0.7208331 2.24333e-7 -0.6931087
vn 0.7208365 0.6931052 1.394998e-7
vn 0.7208365 0.6931052 1.394998e-7
vn 0.7208365 0.6931052 1.394998e-7
vn 0.7208399 0.6931017 2.789982e-7
vn 0.7208399 0.6931017 2.789982e-7
vn 0.7208399 0.6931017 2.789982e-7
vn 0 -0.7070999 -0.7071137
vn 0 -0.7070999 -0.7071137
vn 0 -0.7070999 -0.7071137
vn 0 -0.7070999 -0.7071137
vn 0 -0.7070999 -0.7071137
vn 0 -0.7070999 -0.7071137
vn -0.7071068 2.288637e-7 -0.7071068
vn -0.7071068 2.288637e-7 -0.7071068
vn -0.7071068 2.288637e-7 -0.7071068
vn -0.7071068 2.288637e-7 -0.7071068
vn -0.7071068 2.288637e-7 -0.7071068
vn 0 0.7071033 -0.7071102
vn 0 0.7071033 -0.7071102
vn 0 0.7071033 -0.7071102
vn 0 0.7071033 -0.7071102
vn -0.7071137 -0.7070999 -1.423165e-7
vn -0.7071137 -0.7070999 -1.423165e-7
vn -0.7071137 -0.7070999 -1.423165e-7
vn -0.7071102 -0.7071033 -2.846343e-7
vn -0.7071102 -0.7071033 -2.846343e-7
vn -0.7071102 -0.7071033 -2.846343e-7
vn -0.7071137 0.7070999 1.423165e-7
vn -0.7071137 0.7070999 1.423165e-7
vn -0.7071137 0.7070999 1.423165e-7
vn -0.7071102 0.7071033 2.846344e-7
vn -0.7071102 0.7071033 2.846344e-7
vn -0.7071102 0.7071033 2.846344e-7
vn 0 0 1
vn 0 0 1
vn 0 0 1
vn 0 0 1
vn 1 0 0
vn 1 0 0
vn 1 0 0
vn 1 0 0
vn 0 0 -1
vn 0 0 -1
vn 0 0 -1
vn 0 0 -1
vn -1 0 0
vn -1 0 0
vn -1 0 0
vn -1 0 0
vn 0 -1 -3.129601e-7
vn 0 -1 -3.129601e-7
vn 0 -1 -3.129601e-7
vn 0 -1 -3.129601e-7
vn 0 1 3.211959e-7
vn 0 1 3.211959e-7
vn 0 1 3.211959e-7
vn 0 1 3.211959e-7
f 1/1/1 2/2/2 3/3/3
f 3/3/3 2/2/2 4/4/4
f 5/5/5 6/6/6 7/7/7
f 5/5/5 8/8/8 6/6/6
f 9/9/9 10/10/10 11/11/11
f 11/11/11 10/10/10 12/12/12
f 13/13/13 14/14/14 15/15/15
f 16/16/16 13/13/13 15/15/15
f 17/17/17 18/18/18 19/19/19
f 20/20/20 18/18/18 17/17/17
f 21/21/21 22/22/22 23/23/23
f 21/21/21 23/23/23 24/24/24
f 25/25/25 26/26/26 27/27/27
f 28/28/28 29/29/29 30/30/30
f 31/31/31 32/32/32 33/33/33
f 34/34/34 35/35/35 36/36/36
f 37/37/37 38/38/38 39/39/39
f 40/40/40 41/41/41 42/42/42
f 43/43/43 44/44/44 45/45/45
f 46/46/46 47/47/47 48/48/48
f 49/49/49 50/50/50 51/51/51
f 51/51/51 50/50/50 52/52/52
f 53/53/53 54/54/54 55/55/55
f 56/56/56 57/57/57 58/58/58
f 59/59/59 60/60/60 61/61/61
f 59/59/59 62/62/62 60/60/60
f 63/63/63 64/64/64 65/65/65
f 66/66/66 67/67/67 68/68/68
f 69/69/69 70/70/70 71/71/71
f 72/72/72 73/73/73 74/74/74
f 75/75/75 76/76/76 77/77/77
f 78/78/78 76/76/76 75/75/75
f 79/79/79 80/80/80 81/81/81
f 82/82/82 83/83/83 84/84/84
f 85/85/85 86/86/86 87/87/87
f 85/85/85 87/87/87 88/88/88
f 89/89/89 90/90/90 91/91/91
f 92/92/92 90/90/90 89/89/89
f 93/93/93 94/94/94 95/95/95
f 95/95/95 94/94/94 96/96/96
f 97/97/97 98/98/98 99/99/99
f 100/100/100 101/101/101 102/102/102
f 103/103/103 104/104/104 105/105/105
f 106/106/106 107/107/107 108/108/108
f 109/109/109 110/110/110 111/111/111
f 111/111/111 110/110/110 112/112/112
f 113/113/113 114/114/114 115/115/115
f 113/113/113 116/116/116 114/114/114
f 117/117/117 118/118/118 119/119/119
f 119/119/119 118/118/118 120/120/120
f 121/121/121 122/122/122 123/123/123
f 124/124/124 121/121/121 123/123/123
f 125/125/125 126/126/126 127/127/127
f 128/128/128 126/126/126 125/125/125
f 129/129/129 130/130/130 131/131/131
f 132/132/132 133/133/133 134/134/134
f 135/135/135 136/136/136 137/137/137
f 138/138/138 139/139/139 140/140/140
f 141/141/141 142/142/142 143/143/143
f 144/144/144 145/145/145 146/146/146
f 147/147/147 148/148/148 149/149/149
f 150/150/150 151/151/151 152/152/152
f 153/153/153 154/154/154 155/155/155
f 156/156/156 157/157/157 158/158/158
f 159/159/159 160/160/160 161/161/161
f 161/161/161 160/160/160 162/162/162
f 163/163/163 164/164/164 165/165/165
f 166/166/166 167/167/167 168/168/168
f 169/169/169 170/170/170 171/171/171
f 172/172/172 173/173/173 174/174/174
f 175/175/175 176/176/176 177/177/177
f 178/178/178 179/179/179 180/180/180
f 181/181/181 182/182/182 183/183/183
f 184/184/184 185/185/185 186/186/186
f 187/187/187 188/188/188 189/189/189
f 190/190/190 191/191/191 192/192/192
f 193/193/193 194/194/194 195/195/195
f 196/196/196 194/194/194 193/193/193
f 197/197/197 198/198/198 199/199/199
f 198/198/198 197/197/197 200/200/200
f 201/201/201 202/202/202 203/203/203
f 204/204/204 202/202/202 201/201/201
f 205/205/205 206/206/206 207/207/207
f 208/208/208 209/209/209 210/210/210
f 211/211/211 212/212/212 213/213/213
f 214/214/214 215/215/215 216/216/216
f 217/217/217 218/218/218 219/219/219
f 220/220/220 221/221/221 222/222/222
f 223/223/223 224/224/224 225/225/225
f 225/225/225 224/224/224 226/226/226
f 227/227/227 228/228/228 229/229/229
f 227/227/227 230/230/230 228/228/228
f 231/231/231 232/232/232 233/233/233
f 233/233/233 232/232/232 234/234/234
f 235/235/235 236/236/236 237/237/237
f 235/235/235 237/237/237 238/238/238
f 239/239/239 240/240/240 241/241/241
f 242/242/242 240/240/240 239/239/239
f 243/243/243 244/244/244 245/245/245
f 243/243/243 245/245/245 246/246/246
f 247/247/247 248/248/248 249/249/249
f 250/250/250 251/251/251 252/252/252
f 253/253/253 254/254/254 255/255/255
f 256/256/256 257/257/257 258/258/258
f 259/259/259 260/260/260 261/261/261
f 262/262/262 263/263/263 264/264/264
f 265/265/265 266/266/266 267/267/267
f 268/268/268 269/269/269 270/270/270
f 271/271/271 272/272/272 273/273/273
f 273/273/273 272/272/272 274/274/274
f 275/275/275 276/276/276 277/277/277
f 278/278/278 279/279/279 280/280/280
f 281/281/281 282/282/282 283/283/283
f 281/281/281 284/284/284 282/282/282
f 285/285/285 286/286/286 287/287/287
f 288/288/288 289/289/289 290/290/290
f 291/291/291 292/292/292 293/293/293
f 294/294/294 295/295/295 296/296/296
f 297/297/297 298/298/298 299/299/299
f 300/300/300 297/297/297 299/299/299
f 301/301/301 302/302/302 303/303/303
f 304/304/304 305/305/305 306/306/306
f 307/307/307 308/308/308 309/309/309
f 307/307/307 309/309/309 310/310/310
f 311/311/311 312/312/312 313/313/313
f 311/311/311 314/314/314 312/312/312
f 315/315/315 316/316/316 317/317/317
f 317/317/317 316/316/316 318/318/318
f 319/319/319 320/320/320 321/321/321
f 322/322/322 323/323/323 324/324/324
f 325/325/325 326/326/326 327/327/327
f 328/328/328 329/329/329 330/330/330
f 331/331/331 332/332/332 333/333/333
f 333/333/333 332/332/332 334/334/334
f 335/335/335 336/336/336 337/337/337
f 336/336/336 338/338/338 337/337/337
f 339/339/339 340/340/340 341/341/341
f 341/341/341 340/340/340 342/342/342
f 343/343/343 344/344/344 345/345/345
f 343/343/343 345/345/345 346/346/346
f 347/347/347 348/348/348 349/349/349
f 350/350/350 348/348/348 347/347/347
f 351/351/351 352/352/352 353/353/353
f 351/351/351 353/353/353 354/354/354
f 355/355/355 356/356/356 357/357/357
f 358/358/358 359/359/359 360/360/360
f 361/361/361 362/362/362 363/363/363
f 364/364/364 365/365/365 366/366/366
f 367/367/367 368/368/368 369/369/369
f 370/370/370 371/371/371 372/372/372
f 373/373/373 374/374/374 375/375/375
f 376/376/376 377/377/377 378/378/378
f 379/379/379 380/380/380 381/381/381
f 382/382/382 383/383/383 384/384/384
f 385/385/385 386/386/386 387/387/387
f 388/388/388 389/389/389 390/390/390
f 391/391/391 392/392/392 393/393/393
f 394/394/394 392/392/392 391/391/391
f 395/395/395 396/396/396 397/397/397
f 398/398/398 399/399/399 400/400/400
f 401/401/401 402/402/402 403/403/403
f 404/404/404 405/405/405 406/406/406
f 407/407/407 408/408/408 409/409/409
f 410/410/410 407/407/407 409/409/409
f 411/411/411 412/412/412 413/413/413
f 414/414/414 415/415/415 416/416/416
f 417/417/417 418/418/418 419/419/419
f 420/420/420 421/421/421 422/422/422
f 423/423/423 424/424/424 425/425/425
f 423/423/423 426/426/426 427/427/427
f 428/428/428 429/429/429 430/430/430
f 430/430/430 429/429/429 431/431/431
f 432/432/432 433/433/433 434/434/434
f 435/435/435 436/436/436 437/437/437
f 438/438/438 439/439/439 440/440/440
f 441/441/441 442/442/442 443/443/443
f 444/444/444 445/445/445 446/446/446
f 446/446/446 445/445/445 447/447/447
f 448/448/448 449/449/449 450/450/450
f 448/448/448 451/451/451 449/449/449
f 452/452/452 453/453/453 454/454/454
f 454/454/454 453/453/453 455/455/455
f 456/456/456 457/457/457 458/458/458
f 456/456/456 458/458/458 459/459/459
f 460/460/460 461/461/461 462/462/462
f 463/463/463 461/461/461 460/460/460
f 464/464/464 465/465/465 466/466/466
f 464/464/464 466/466/466 467/467/467
