# SceneSmith visual LOD; original UVs retained
v -0.2173369 0.1861149 0.4705664
v 0.2173031 0.1862526 0.4705664
v -0.2173369 0.1862526 0.4705664
v 0.2173031 0.1861149 0.4705664
v 0.2173031 0.1861149 0.4705664
v 0.2173031 0.1862526 0.2558864
v 0.2173031 0.1862526 0.4705664
v 0.2173031 0.1861149 0.2558864
v -0.2173369 0.1862526 0.2558864
v 0.2173031 0.1862526 0.2558864
v 0.2173031 0.1861149 0.2558864
v -0.2173369 0.1861149 0.2558864
v -0.2173369 0.1861149 0.2558864
v -0.2173369 0.1862526 0.4705664
v -0.2173369 0.1862526 0.2558864
v -0.2173369 0.1861149 0.4705664
v -0.2173369 0.1861149 0.4705664
v 0.2173031 0.1861149 0.2558864
v 0.2173031 0.1861149 0.4705664
v -0.2173369 0.1861149 0.2558864
v 0.2173031 0.1862526 0.4705664
v 0.2173031 0.1862526 0.2558864
v -0.2173369 0.1862526 0.4705664
v -0.2173369 0.1862526 0.2558864
v -0.2191369 0.1867575 0.4722464
v 0.2188631 0.1870787 0.4720064
v -0.2188969 0.1870787 0.4720064
v 0.2192231 0.1867575 0.4722464
v -0.2188969 0.1870787 0.4720064
v 0.2182631 0.1873083 0.4714064
v -0.2182969 0.1873083 0.4714064
v 0.2188631 0.1870787 0.4720064
v -0.2182969 0.1873083 0.4714064
v 0.2173031 0.1874001 0.4705664
v -0.2173369 0.1874001 0.4705664
v 0.2182631 0.1873083 0.4714064
v -0.2173369 0.1874001 0.4705664
v 0.2164631 0.1873083 0.4697264
v -0.2164969 0.1873083 0.4697264
v 0.2173031 0.1874001 0.4705664
v -0.2164969 0.1873083 0.4697264
v 0.2157431 0.1870787 0.4691264
v -0.2157769 0.1870787 0.4691264
v 0.2164631 0.1873083 0.4697264
v -0.2157769 0.1870787 0.4691264
v 0.2155031 0.1867575 0.4688864
v -0.2155369 0.1867575 0.4688864
v 0.2157431 0.1870787 0.4691264
v -0.2157769 0.1864362 0.4691264
v -0.2155369 0.1867575 0.4688864
v 0.2157431 0.1864362 0.4691264
v 0.2155031 0.1867575 0.4688864
v -0.2164969 0.1862067 0.4697264
v -0.2157769 0.1864362 0.4691264
v 0.2164631 0.1862067 0.4697264
v 0.2157431 0.1864362 0.4691264
v 0.2173031 0.1861149 0.4705664
v -0.01513692 0.1861149 0.4705664
v -0.2164969 0.1862067 0.4697264
v -0.2173369 0.1861149 0.4705664
v 0.2164631 0.1862067 0.4697264
v -0.2182969 0.1862067 0.4714064
v -0.2173369 0.1861149 0.4705664
v 0.2182631 0.1862067 0.4714064
v 0.2173031 0.1861149 0.4705664
v -0.2173369 0.1861149 0.4705664
v -0.01513692 0.1861149 0.4705664
v 0.2173031 0.1861149 0.4705664
v -0.2188969 0.1864362 0.4720064
v -0.2182969 0.1862067 0.4714064
v 0.2188631 0.1864362 0.4720064
v 0.2182631 0.1862067 0.4714064
v -0.2191369 0.1867575 0.4722464
v -0.2188969 0.1864362 0.4720064
v 0.2192231 0.1867575 0.4722464
v 0.2188631 0.1864362 0.4720064
v 0.2192231 0.1867575 0.4722464
v 0.2188631 0.1870787 0.2544464
v 0.2188631 0.1870787 0.4720064
v 0.2192231 0.1867575 0.2542064
v 0.2188631 0.1870787 0.4720064
v 0.2182631 0.1873083 0.2550464
v 0.2182631 0.1873083 0.4714064
v 0.2188631 0.1870787 0.2544464
v 0.2182631 0.1873083 0.4714064
v 0.2173031 0.1874001 0.2558864
v 0.2173031 0.1874001 0.4705664
v 0.2182631 0.1873083 0.2550464
v 0.2173031 0.1874001 0.4705664
v 0.2164631 0.1873083 0.2567264
v 0.2164631 0.1873083 0.4697264
v 0.2173031 0.1874001 0.2558864
v 0.2164631 0.1873083 0.4697264
v 0.2157431 0.1870787 0.2573264
v 0.2157431 0.1870787 0.4691264
v 0.2164631 0.1873083 0.2567264
v 0.2155031 0.1867575 0.2575664
v 0.2155031 0.1867575 0.4688864
v 0.2157431 0.1870787 0.4691264
v 0.2157431 0.1870787 0.2573264
v 0.2157431 0.1864362 0.4691264
v 0.2155031 0.1867575 0.4688864
v 0.2157431 0.1864362 0.2573264
v 0.2155031 0.1867575 0.2575664
v 0.2164631 0.1862067 0.4697264
v 0.2157431 0.1864362 0.4691264
v 0.2164631 0.1862067 0.2567264
v 0.2157431 0.1864362 0.2573264
v 0.2173031 0.1861149 0.3770864
v 0.2164631 0.1862067 0.4697264
v 0.2173031 0.1861149 0.2558864
v 0.2173031 0.1861149 0.4705664
v 0.2164631 0.1862067 0.2567264
v 0.2182631 0.1862067 0.4714064
v 0.2173031 0.1861149 0.4705664
v 0.2182631 0.1862067 0.2550464
v 0.2173031 0.1861149 0.3770864
v 0.2173031 0.1861149 0.2558864
v 0.2188631 0.1864362 0.4720064
v 0.2182631 0.1862067 0.4714064
v 0.2188631 0.1864362 0.2544464
v 0.2182631 0.1862067 0.2550464
v 0.2188631 0.1864362 0.4720064
v 0.2192231 0.1867575 0.2542064
v 0.2192231 0.1867575 0.4722464
v 0.2188631 0.1864362 0.2544464
v -0.2188969 0.1870787 0.2544464
v 0.2188631 0.1870787 0.2544464
v 0.2192231 0.1867575 0.2542064
v -0.2191369 0.1867575 0.2542064
v -0.2182969 0.1873083 0.2550464
v 0.2182631 0.1873083 0.2550464
v 0.2188631 0.1870787 0.2544464
v -0.2188969 0.1870787 0.2544464
v -0.2173369 0.1874001 0.2558864
v 0.2173031 0.1874001 0.2558864
v 0.2182631 0.1873083 0.2550464
v -0.2182969 0.1873083 0.2550464
v 0.2164631 0.1873083 0.2567264
v 0.2173031 0.1874001 0.2558864
v -0.2164969 0.1873083 0.2567264
v -0.2173369 0.1874001 0.2558864
v 0.2157431 0.1870787 0.2573264
v 0.2164631 0.1873083 0.2567264
v -0.2157769 0.1870787 0.2573264
v -0.2164969 0.1873083 0.2567264
v -0.2155369 0.1867575 0.2575664
v 0.2155031 0.1867575 0.2575664
v 0.2157431 0.1870787 0.2573264
v -0.2157769 0.1870787 0.2573264
v -0.2157769 0.1864362 0.2573264
v 0.2157431 0.1864362 0.2573264
v 0.2155031 0.1867575 0.2575664
v -0.2155369 0.1867575 0.2575664
v -0.2164969 0.1862067 0.2567264
v 0.2164631 0.1862067 0.2567264
v 0.2157431 0.1864362 0.2573264
v -0.2157769 0.1864362 0.2573264
v 0.2173031 0.1861149 0.2558864
v -0.2173369 0.1861149 0.2558864
v 0.01510308 0.1861149 0.2558864
v -0.2173369 0.1861149 0.2558864
v 0.2173031 0.1861149 0.2558864
v 0.2164631 0.1862067 0.2567264
v -0.2164969 0.1862067 0.2567264
v 0.2173031 0.1861149 0.2558864
v -0.2182969 0.1862067 0.2550464
v 0.2182631 0.1862067 0.2550464
v -0.2173369 0.1861149 0.2558864
v 0.01510308 0.1861149 0.2558864
v -0.2188969 0.1864362 0.2544464
v 0.2188631 0.1864362 0.2544464
v 0.2182631 0.1862067 0.2550464
v -0.2182969 0.1862067 0.2550464
v -0.2191369 0.1867575 0.2542064
v 0.2192231 0.1867575 0.2542064
v 0.2188631 0.1864362 0.2544464
v -0.2188969 0.1864362 0.2544464
v -0.2191369 0.1867575 0.2542064
v -0.2188969 0.1870787 0.4720064
v -0.2188969 0.1870787 0.2544464
v -0.2191369 0.1867575 0.4722464
v -0.2182969 0.1873083 0.4714064
v -0.2182969 0.1873083 0.2550464
v -0.2188969 0.1870787 0.2544464
v -0.2188969 0.1870787 0.4720064
v -0.2173369 0.1874001 0.4705664
v -0.2173369 0.1874001 0.2558864
v -0.2182969 0.1873083 0.2550464
v -0.2182969 0.1873083 0.4714064
v -0.2164969 0.1873083 0.4697264
v -0.2164969 0.1873083 0.2567264
v -0.2173369 0.1874001 0.2558864
v -0.2173369 0.1874001 0.4705664
v -0.2157769 0.1870787 0.4691264
v -0.2157769 0.1870787 0.2573264
v -0.2164969 0.1873083 0.2567264
v -0.2164969 0.1873083 0.4697264
v -0.2155369 0.1867575 0.4688864
v -0.2155369 0.1867575 0.2575664
v -0.2157769 0.1870787 0.2573264
v -0.2157769 0.1870787 0.4691264
v -0.2157769 0.1864362 0.4691264
v -0.2157769 0.1864362 0.2573264
v -0.2155369 0.1867575 0.2575664
v -0.2155369 0.1867575 0.4688864
v -0.2164969 0.1862067 0.4697264
v -0.2164969 0.1862067 0.2567264
v -0.2157769 0.1864362 0.2573264
v -0.2157769 0.1864362 0.4691264
v -0.2164969 0.1862067 0.2567264
v -0.2173369 0.1861149 0.3493664
v -0.2173369 0.1861149 0.2558864
v -0.2173369 0.1861149 0.4705664
v -0.2164969 0.1862067 0.4697264
v -0.2182969 0.1862067 0.4714064
v -0.2182969 0.1862067 0.2550464
v -0.2173369 0.1861149 0.2558864
v -0.2173369 0.1861149 0.3493664
v -0.2173369 0.1861149 0.4705664
v -0.2188969 0.1864362 0.4720064
v -0.2188969 0.1864362 0.2544464
v -0.2182969 0.1862067 0.2550464
v -0.2182969 0.1862067 0.4714064
v -0.2188969 0.1864362 0.2544464
v -0.2191369 0.1867575 0.4722464
v -0.2191369 0.1867575 0.2542064
v -0.2188969 0.1864362 0.4720064
v -0.2354569 0.179138 0.4871264
v 0.2354231 0.179138 0.4871264
v 0.2354231 0.1846461 0.4871264
v -0.2354569 0.1846461 0.4871264
v 0.2354231 0.179138 0.2393264
v 0.2354231 0.1846461 0.2393264
v 0.2354231 0.179138 0.4871264
v 0.2354231 0.1846461 0.4871264
v -0.2354569 0.1846461 0.2393264
v 0.2354231 0.179138 0.2393264
v -0.2354569 0.179138 0.2393264
v 0.2354231 0.1846461 0.2393264
v -0.2354569 0.179138 0.2393264
v -0.2354569 0.179138 0.4871264
v -0.2354569 0.1846461 0.4871264
v -0.2354569 0.1846461 0.2393264
v 0.2324231 0.1776692 0.4843664
v -0.2022169 0.1776692 0.4567664
v 0.2021831 0.1776692 0.4567664
v -0.2324569 0.1776692 0.4843664
v -0.2022169 0.1776692 0.2696864
v -0.2324569 0.1776692 0.2420864
v 0.2021831 0.1776692 0.2696864
v 0.2324231 0.1776692 0.2420864
v -0.2324569 0.1861149 0.4843664
v -0.01513692 0.1861149 0.4705664
v -0.2173369 0.1861149 0.4705664
v 0.2173031 0.1861149 0.4705664
v 0.2324231 0.1861149 0.4843664
v 0.2173031 0.1861149 0.3770864
v 0.2173031 0.1861149 0.2558864
v 0.2324231 0.1861149 0.2420864
v 0.01510308 0.1861149 0.2558864
v -0.2173369 0.1861149 0.2558864
v -0.2324569 0.1861149 0.2420864
v -0.2173369 0.1861149 0.3493664
v -0.1992169 0.179138 0.4540064
v -0.1992169 0.1846461 0.2724464
v -0.1992169 0.1846461 0.4540064
v -0.1992169 0.179138 0.2724464
v -0.1992169 0.179138 0.2724464
v 0.1991831 0.1846461 0.2724464
v -0.1992169 0.1846461 0.2724464
v 0.1991831 0.179138 0.2724464
v 0.1991831 0.179138 0.2724464
v 0.1991831 0.1846461 0.4540064
v 0.1991831 0.1846461 0.2724464
v 0.1991831 0.179138 0.4540064
v -0.1992169 0.1846461 0.4540064
v 0.1991831 0.1846461 0.4540064
v 0.1991831 0.179138 0.4540064
v -0.1992169 0.179138 0.4540064
v -0.2337769 0.177761 0.4855664
v 0.2324231 0.1776692 0.4843664
v 0.2337431 0.177761 0.4855664
v -0.2324569 0.1776692 0.4843664
v -0.2337769 0.1860231 0.4855664
v 0.2337431 0.1860231 0.4855664
v -0.2324569 0.1861149 0.4843664
v 0.2324231 0.1861149 0.4843664
v 0.2337431 0.177761 0.4855664
v 0.2324231 0.1776692 0.2420864
v 0.2337431 0.177761 0.2408864
v 0.2324231 0.1776692 0.4843664
v 0.2337431 0.1860231 0.4855664
v 0.2337431 0.1860231 0.2408864
v 0.2324231 0.1861149 0.4843664
v 0.2324231 0.1861149 0.2420864
v -0.2324569 0.1776692 0.2420864
v -0.2337769 0.177761 0.2408864
v 0.2337431 0.177761 0.2408864
v 0.2324231 0.1776692 0.2420864
v 0.2324231 0.1861149 0.2420864
v 0.2337431 0.1860231 0.2408864
v -0.2337769 0.1860231 0.2408864
v -0.2324569 0.1861149 0.2420864
v -0.2337769 0.177761 0.4855664
v -0.2337769 0.177761 0.2408864
v -0.2324569 0.1776692 0.4843664
v -0.2324569 0.1776692 0.2420864
v -0.2337769 0.1860231 0.4855664
v -0.2324569 0.1861149 0.2420864
v -0.2337769 0.1860231 0.2408864
v -0.2324569 0.1861149 0.4843664
v -0.2022169 0.1776692 0.4567664
v -0.2008969 0.177761 0.4555664
v 0.2008631 0.177761 0.4555664
v 0.2021831 0.1776692 0.4567664
v -0.2008969 0.177761 0.4555664
v -0.2022169 0.1776692 0.2696864
v -0.2008969 0.177761 0.2708864
v -0.2022169 0.1776692 0.4567664
v 0.2008631 0.177761 0.2708864
v -0.2008969 0.177761 0.2708864
v 0.2021831 0.1776692 0.2696864
v -0.2022169 0.1776692 0.2696864
v 0.2021831 0.1776692 0.4567664
v 0.2008631 0.177761 0.4555664
v 0.2008631 0.177761 0.2708864
v 0.2021831 0.1776692 0.2696864
v 0.2021831 0.1861149 0.4567664
v 0.2008631 0.1860231 0.4555664
v -0.2008969 0.1860231 0.4555664
v -0.2022169 0.1861149 0.4567664
v 0.2008631 0.1860231 0.4555664
v 0.2021831 0.1861149 0.2696864
v 0.2008631 0.1860231 0.2708864
v 0.2021831 0.1861149 0.4567664
v 0.2008631 0.1860231 0.2708864
v -0.2022169 0.1861149 0.2696864
v -0.2008969 0.1860231 0.2708864
v 0.2021831 0.1861149 0.2696864
v -0.2022169 0.1861149 0.4567664
v -0.2008969 0.1860231 0.4555664
v -0.2008969 0.1860231 0.2708864
v -0.2022169 0.1861149 0.2696864
v -0.2347369 0.1780364 0.4864064
v 0.2337431 0.177761 0.4855664
v 0.2347031 0.1780364 0.4864064
v -0.2337769 0.177761 0.4855664
v -0.2353369 0.1784954 0.4868864
v 0.2347031 0.1780364 0.4864064
v 0.2353031 0.1784954 0.4868864
v -0.2347369 0.1780364 0.4864064
v -0.2354569 0.179138 0.4871264
v 0.2353031 0.1784954 0.4868864
v 0.2354231 0.179138 0.4871264
v -0.2353369 0.1784954 0.4868864
v 0.2347031 0.1857477 0.4864064
v -0.2337769 0.1860231 0.4855664
v -0.2347369 0.1857477 0.4864064
v 0.2337431 0.1860231 0.4855664
v -0.2353369 0.1852886 0.4868864
v 0.2353031 0.1852886 0.4868864
v -0.2347369 0.1857477 0.4864064
v 0.2347031 0.1857477 0.4864064
v -0.2354569 0.1846461 0.4871264
v 0.2354231 0.1846461 0.4871264
v -0.2353369 0.1852886 0.4868864
v 0.2353031 0.1852886 0.4868864
v 0.2347031 0.1780364 0.4864064
v 0.2337431 0.177761 0.2408864
v 0.2347031 0.1780364 0.2400464
v 0.2337431 0.177761 0.4855664
v 0.2347031 0.1780364 0.2400464
v 0.2353031 0.1784954 0.2395664
v 0.2353031 0.1784954 0.4868864
v 0.2347031 0.1780364 0.4864064
v 0.2353031 0.1784954 0.2395664
v 0.2354231 0.179138 0.2393264
v 0.2354231 0.179138 0.4871264
v 0.2353031 0.1784954 0.4868864
v 0.2347031 0.1857477 0.4864064
v 0.2347031 0.1857477 0.2400464
v 0.2337431 0.1860231 0.4855664
v 0.2337431 0.1860231 0.2408864
v 0.2353031 0.1852886 0.2395664
v 0.2347031 0.1857477 0.4864064
v 0.2353031 0.1852886 0.4868864
v 0.2347031 0.1857477 0.2400464
v 0.2354231 0.1846461 0.2393264
v 0.2353031 0.1852886 0.4868864
v 0.2354231 0.1846461 0.4871264
v 0.2353031 0.1852886 0.2395664
v -0.2337769 0.177761 0.2408864
v -0.2347369 0.1780364 0.2400464
v 0.2347031 0.1780364 0.2400464
v 0.2337431 0.177761 0.2408864
v -0.2353369 0.1784954 0.2395664
v 0.2353031 0.1784954 0.2395664
v -0.2347369 0.1780364 0.2400464
v 0.2347031 0.1780364 0.2400464
v -0.2354569 0.179138 0.2393264
v 0.2354231 0.179138 0.2393264
v -0.2353369 0.1784954 0.2395664
v 0.2353031 0.1784954 0.2395664
v 0.2337431 0.1860231 0.2408864
v 0.2347031 0.1857477 0.2400464
v -0.2347369 0.1857477 0.2400464
v -0.2337769 0.1860231 0.2408864
v -0.2353369 0.1852886 0.2395664
v 0.2347031 0.1857477 0.2400464
v 0.2353031 0.1852886 0.2395664
v -0.2347369 0.1857477 0.2400464
v -0.2354569 0.1846461 0.2393264
v 0.2353031 0.1852886 0.2395664
v 0.2354231 0.1846461 0.2393264
v -0.2353369 0.1852886 0.2395664
v -0.2347369 0.1780364 0.4864064
v -0.2347369 0.1780364 0.2400464
v -0.2337769 0.177761 0.4855664
v -0.2337769 0.177761 0.2408864
v -0.2347369 0.1780364 0.4864064
v -0.2353369 0.1784954 0.4868864
v -0.2353369 0.1784954 0.2395664
v -0.2347369 0.1780364 0.2400464
v -0.2353369 0.1784954 0.4868864
v -0.2354569 0.179138 0.4871264
v -0.2354569 0.179138 0.2393264
v -0.2353369 0.1784954 0.2395664
v -0.2347369 0.1857477 0.4864064
v -0.2337769 0.1860231 0.2408864
v -0.2347369 0.1857477 0.2400464
v -0.2337769 0.1860231 0.4855664
v -0.2353369 0.1852886 0.2395664
v -0.2353369 0.1852886 0.4868864
v -0.2347369 0.1857477 0.2400464
v -0.2347369 0.1857477 0.4864064
v -0.2354569 0.1846461 0.2393264
v -0.2354569 0.1846461 0.4871264
v -0.2353369 0.1852886 0.2395664
v -0.2353369 0.1852886 0.4868864
v -0.2008969 0.177761 0.4555664
v -0.1999369 0.1780364 0.4547264
v 0.2000231 0.1780364 0.4547264
v 0.2008631 0.177761 0.4555664
v -0.1999369 0.1780364 0.4547264
v -0.1994569 0.1784954 0.4542464
v 0.1994231 0.1784954 0.4542464
v 0.2000231 0.1780364 0.4547264
v -0.1994569 0.1784954 0.4542464
v -0.1992169 0.179138 0.4540064
v 0.1991831 0.179138 0.4540064
v 0.1994231 0.1784954 0.4542464
v -0.1999369 0.1780364 0.4547264
v -0.2008969 0.177761 0.2708864
v -0.1999369 0.1780364 0.2717264
v -0.2008969 0.177761 0.4555664
v -0.1999369 0.1780364 0.2717264
v -0.1994569 0.1784954 0.2722064
v -0.1994569 0.1784954 0.4542464
v -0.1999369 0.1780364 0.4547264
v -0.1994569 0.1784954 0.2722064
v -0.1992169 0.179138 0.2724464
v -0.1992169 0.179138 0.4540064
v -0.1994569 0.1784954 0.4542464
v 0.2000231 0.1780364 0.2717264
v -0.1999369 0.1780364 0.2717264
v 0.2008631 0.177761 0.2708864
v -0.2008969 0.177761 0.2708864
v -0.1994569 0.1784954 0.2722064
v 0.2000231 0.1780364 0.2717264
v 0.1994231 0.1784954 0.2722064
v -0.1999369 0.1780364 0.2717264
v -0.1992169 0.179138 0.2724464
v 0.1994231 0.1784954 0.2722064
v 0.1991831 0.179138 0.2724464
v -0.1994569 0.1784954 0.2722064
v 0.2008631 0.177761 0.4555664
v 0.2000231 0.1780364 0.4547264
v 0.2000231 0.1780364 0.2717264
v 0.2008631 0.177761 0.2708864
v 0.2000231 0.1780364 0.4547264
v 0.1994231 0.1784954 0.4542464
v 0.1994231 0.1784954 0.2722064
v 0.2000231 0.1780364 0.2717264
v 0.1994231 0.1784954 0.4542464
v 0.1991831 0.179138 0.4540064
v 0.1991831 0.179138 0.2724464
v 0.1994231 0.1784954 0.2722064
v 0.2008631 0.1860231 0.4555664
v 0.2000231 0.1857477 0.4547264
v -0.1999369 0.1857477 0.4547264
v -0.2008969 0.1860231 0.4555664
v -0.1994569 0.1852886 0.4542464
v 0.2000231 0.1857477 0.4547264
v 0.1994231 0.1852886 0.4542464
v -0.1999369 0.1857477 0.4547264
v -0.1992169 0.1846461 0.4540064
v 0.1994231 0.1852886 0.4542464
v 0.1991831 0.1846461 0.4540064
v -0.1994569 0.1852886 0.4542464
v 0.2000231 0.1857477 0.4547264
v 0.2008631 0.1860231 0.2708864
v 0.2000231 0.1857477 0.2717264
v 0.2008631 0.1860231 0.4555664
v 0.1994231 0.1852886 0.2722064
v 0.1994231 0.1852886 0.4542464
v 0.2000231 0.1857477 0.2717264
v 0.2000231 0.1857477 0.4547264
v 0.1991831 0.1846461 0.2724464
v 0.1991831 0.1846461 0.4540064
v 0.1994231 0.1852886 0.2722064
v 0.1994231 0.1852886 0.4542464
v 0.2000231 0.1857477 0.2717264
v -0.2008969 0.1860231 0.2708864
v -0.1999369 0.1857477 0.2717264
v 0.2008631 0.1860231 0.2708864
v -0.1999369 0.1857477 0.2717264
v -0.1994569 0.1852886 0.2722064
v 0.1994231 0.1852886 0.2722064
v 0.2000231 0.1857477 0.2717264
v -0.1994569 0.1852886 0.2722064
v -0.1992169 0.1846461 0.2724464
v 0.1991831 0.1846461 0.2724464
v 0.1994231 0.1852886 0.2722064
v -0.2008969 0.1860231 0.4555664
v -0.1999369 0.1857477 0.4547264
v -0.1999369 0.1857477 0.2717264
v -0.2008969 0.1860231 0.2708864
v -0.1994569 0.1852886 0.2722064
v -0.1999369 0.1857477 0.4547264
v -0.1994569 0.1852886 0.4542464
v -0.1999369 0.1857477 0.2717264
v -0.1992169 0.1846461 0.2724464
v -0.1994569 0.1852886 0.4542464
v -0.1992169 0.1846461 0.4540064
v -0.1994569 0.1852886 0.2722064
v 0.2021831 0.1861149 0.4567664
v -0.2022169 0.1861149 0.4567664
v 0.2021831 0.1861149 0.2696864
v -0.2022169 0.1861149 0.2696864
vt 0.1252611 0.00061043
vt 0.5922035 0.7324327
vt 0.1252611 0.7324327
vt 0.5922035 0.00061043
vt 0.00061043 0.7242438
vt 0.00072175 0.5932601
vt 0.00072175 0.7242438
vt 0.00061043 0.5932601
vt 0.6078934 0.7324327
vt 0.140951 0.7324328
vt 0.140951 0.00061043
vt 0.6078934 0.00061043
vt 0.00061043 0.5932601
vt 0.7324328 0.7242438
vt 0.7324328 0.5932601
vt 0.00061043 0.7242438
vt 0.7155778 0.01612059
vt 0.6996588 0.02557942
vt 0.6996588 0.01612059
vt 0.7155778 0.02557942
vt 0.6996588 0.01612059
vt 0.6996588 0.02557942
vt 0.7155778 0.01612059
vt 0.7155778 0.02557942
vt 0.734127 0.00054944
vt 0.734127 0.00054944
vt 0.734127 0.00054944
vt 0.734127 0.00054944
vt 0.734127 0.00054944
vt 0.734127 0.00054944
vt 0.734127 0.00054944
vt 0.734127 0.00054944
vt 0.734127 0.00054944
vt 0.734127 0.00054944
vt 0.734127 0.00054944
vt 0.734127 0.00054944
vt 0.734127 0.00054944
vt 0.734127 0.00054944
vt 0.734127 0.00054944
vt 0.734127 0.00054944
vt 0.734127 0.00054944
vt 0.734127 0.00054944
vt 0.734127 0.00054944
vt 0.734127 0.00054944
vt 0.734127 0.00054944
vt 0.734127 0.00054944
vt 0.734127 0.00054944
vt 0.734127 0.00054944
vt 0.734127 0.00054944
vt 0.734127 0.00054944
vt 0.734127 0.00054944
vt 0.734127 0.00054944
vt 0.734127 0.00054944
vt 0.734127 0.00054944
vt 0.734127 0.00054944
vt 0.734127 0.00054944
vt 0.734127 0.00054944
vt 0.734127 0.00054944
vt 0.734127 0.00054944
vt 0.734127 0.00054944
vt 0.734127 0.00054944
vt 0.734127 0.00054944
vt 0.734127 0.00054944
vt 0.734127 0.00054944
vt 0.734127 0.00054944
vt 0.734127 0.00054944
vt 0.734127 0.00054944
vt 0.734127 0.00054944
vt 0.734127 0.00054944
vt 0.734127 0.00054944
vt 0.734127 0.00054944
vt 0.734127 0.00054944
vt 0.734127 0.00054944
vt 0.734127 0.00054944
vt 0.734127 0.00054944
vt 0.734127 0.00054944
vt 0.734127 0.00054944
vt 0.734127 0.00054944
vt 0.734127 0.00054944
vt 0.734127 0.00054944
vt 0.734127 0.00054944
vt 0.734127 0.00054944
vt 0.734127 0.00054944
vt 0.734127 0.00054944
vt 0.734127 0.00054944
vt 0.734127 0.00054944
vt 0.734127 0.00054944
vt 0.734127 0.00054944
vt 0.734127 0.00054944
vt 0.734127 0.00054944
vt 0.734127 0.00054944
vt 0.734127 0.00054944
vt 0.734127 0.00054944
vt 0.734127 0.00054944
vt 0.734127 0.00054944
vt 0.734127 0.00054944
vt 0.734127 0.00054944
vt 0.734127 0.00054944
vt 0.734127 0.00054944
vt 0.734127 0.00054944
vt 0.734127 0.00054944
vt 0.734127 0.00054944
vt 0.734127 0.00054944
vt 0.734127 0.00054944
vt 0.734127 0.00054944
vt 0.734127 0.00054944
vt 0.734127 0.00054944
vt 0.734127 0.00054944
vt 0.734127 0.00054944
vt 0.734127 0.00054944
vt 0.734127 0.00054944
vt 0.734127 0.00054944
vt 0.734127 0.00054944
vt 0.734127 0.00054944
vt 0.734127 0.00054944
vt 0.734127 0.00054944
vt 0.734127 0.00054944
vt 0.734127 0.00054944
vt 0.734127 0.00054944
vt 0.734127 0.00054944
vt 0.734127 0.00054944
vt 0.734127 0.00054944
vt 0.734127 0.00054944
vt 0.734127 0.00054944
vt 0.734127 0.00054944
vt 0.734127 0.00054944
vt 0.734127 0.00054944
vt 0.734127 0.00054944
vt 0.734127 0.00054944
vt 0.734127 0.00054944
vt 0.734127 0.00054944
vt 0.734127 0.00054944
vt 0.734127 0.00054944
vt 0.734127 0.00054944
vt 0.734127 0.00054944
vt 0.734127 0.00054944
vt 0.734127 0.00054944
vt 0.734127 0.00054944
vt 0.734127 0.00054944
vt 0.734127 0.00054944
vt 0.734127 0.00054944
vt 0.734127 0.00054944
vt 0.734127 0.00054944
vt 0.734127 0.00054944
vt 0.734127 0.00054944
vt 0.734127 0.00054944
vt 0.734127 0.00054944
vt 0.734127 0.00054944
vt 0.734127 0.00054944
vt 0.734127 0.00054944
vt 0.734127 0.00054944
vt 0.734127 0.00054944
vt 0.734127 0.00054944
vt 0.734127 0.00054944
vt 0.734127 0.00054944
vt 0.734127 0.00054944
vt 0.734127 0.00054944
vt 0.734127 0.00054944
vt 0.734127 0.00054944
vt 0.734127 0.00054944
vt 0.734127 0.00054944
vt 0.734127 0.00054944
vt 0.734127 0.00054944
vt 0.734127 0.00054944
vt 0.734127 0.00054944
vt 0.734127 0.00054944
vt 0.734127 0.00054944
vt 0.734127 0.00054944
vt 0.734127 0.00054944
vt 0.734127 0.00054944
vt 0.734127 0.00054944
vt 0.734127 0.00054944
vt 0.734127 0.00054944
vt 0.734127 0.00054944
vt 0.734127 0.00054944
vt 0.734127 0.00054944
vt 0.734127 0.00054944
vt 0.734127 0.00054944
vt 0.734127 0.00054944
vt 0.734127 0.00054944
vt 0.734127 0.00054944
vt 0.734127 0.00054944
vt 0.734127 0.00054944
vt 0.734127 0.00054944
vt 0.734127 0.00054944
vt 0.734127 0.00054944
vt 0.734127 0.00054944
vt 0.734127 0.00054944
vt 0.734127 0.00054944
vt 0.734127 0.00054944
vt 0.734127 0.00054944
vt 0.734127 0.00054944
vt 0.734127 0.00054944
vt 0.734127 0.00054944
vt 0.734127 0.00054944
vt 0.734127 0.00054944
vt 0.734127 0.00054944
vt 0.734127 0.00054944
vt 0.734127 0.00054944
vt 0.734127 0.00054944
vt 0.734127 0.00054944
vt 0.734127 0.00054944
vt 0.734127 0.00054944
vt 0.734127 0.00054944
vt 0.734127 0.00054944
vt 0.734127 0.00054944
vt 0.734127 0.00054944
vt 0.734127 0.00054944
vt 0.734127 0.00054944
vt 0.734127 0.00054944
vt 0.734127 0.00054944
vt 0.734127 0.00054944
vt 0.734127 0.00054944
vt 0.734127 0.00054944
vt 0.734127 0.00054944
vt 0.734127 0.00054944
vt 0.734127 0.00054944
vt 0.734127 0.00054944
vt 0.734127 0.00054944
vt 0.734127 0.00054944
vt 0.734127 0.00054944
vt 0.734127 0.00054944
vt 0.734127 0.00054944
vt 0.734127 0.00054944
vt 0.734127 0.00054944
vt 0.734127 0.00054944
vt 0.734127 0.00054944
vt 0.734127 0.00054944
vt 0.734127 0.00054944
vt 0.734127 0.00054944
vt 0.734127 0.00054944
vt 0.734127 0.00054944
vt 0.734127 0.00054944
vt 0.734127 0.00054944
vt 0.734127 0.00054944
vt 0.734127 0.00054944
vt 0.734127 0.00054944
vt 0.734127 0.00054944
vt 0.734127 0.00054944
vt 0.734127 0.00054944
vt 0.734127 0.00054944
vt 0.734127 0.00054944
vt 0.734127 0.00054944
vt 0.734127 0.00054944
vt 0.734127 0.00054944
vt 0.734127 0.00054944
vt 0.734127 0.00054944
vt 0.734127 0.00054944
vt 0.734127 0.00054944
vt 0.734127 0.00054944
vt 0.734127 0.00054944
vt 0.734127 0.00054944
vt 0.734127 0.00054944
vt 0.734127 0.00054944
vt 0.734127 0.00054944
vt 0.734127 0.00054944
vt 0.734127 0.00054944
vt 0.734127 0.00054944
vt 0.734127 0.00054944
vt 0.734127 0.00054944
vt 0.734127 0.00054944
vt 0.734127 0.00054944
vt 0.734127 0.00054944
vt 0.734127 0.00054944
vt 0.734127 0.00054944
vt 0.734127 0.00054944
vt 0.734127 0.00054944
vt 0.734127 0.00054944
vt 0.734127 0.00054944
vt 0.734127 0.00054944
vt 0.734127 0.00054944
vt 0.734127 0.00054944
vt 0.734127 0.00054944
vt 0.734127 0.00054944
vt 0.734127 0.00054944
vt 0.734127 0.00054944
vt 0.734127 0.00054944
vt 0.734127 0.00054944
vt 0.734127 0.00054944
vt 0.734127 0.00054944
vt 0.734127 0.00054944
vt 0.734127 0.00054944
vt 0.734127 0.00054944
vt 0.734127 0.00054944
vt 0.734127 0.00054944
vt 0.734127 0.00054944
vt 0.734127 0.00054944
vt 0.734127 0.00054944
vt 0.734127 0.00054944
vt 0.734127 0.00054944
vt 0.734127 0.00054944
vt 0.734127 0.00054944
vt 0.734127 0.00054944
vt 0.734127 0.00054944
vt 0.734127 0.00054944
vt 0.734127 0.00054944
vt 0.734127 0.00054944
vt 0.734127 0.00054944
vt 0.734127 0.00054944
vt 0.734127 0.00054944
vt 0.734127 0.00054944
vt 0.734127 0.00054944
vt 0.734127 0.00054944
vt 0.734127 0.00054944
vt 0.734127 0.00054944
vt 0.734127 0.00054944
vt 0.734127 0.00054944
vt 0.734127 0.00054944
vt 0.734127 0.00054944
vt 0.734127 0.00054944
vt 0.734127 0.00054944
vt 0.734127 0.00054944
vt 0.734127 0.00054944
vt 0.734127 0.00054944
vt 0.734127 0.00054944
vt 0.734127 0.00054944
vt 0.734127 0.00054944
vt 0.734127 0.00054944
vt 0.734127 0.00054944
vt 0.734127 0.00054944
vt 0.734127 0.00054944
vt 0.734127 0.00054944
vt 0.734127 0.00054944
vt 0.734127 0.00054944
vt 0.734127 0.00054944
vt 0.734127 0.00054944
vt 0.734127 0.00054944
vt 0.734127 0.00054944
vt 0.734127 0.00054944
vt 0.734127 0.00054944
vt 0.734127 0.00054944
vt 0.734127 0.00054944
vt 0.734127 0.00054944
vt 0.734127 0.00054944
vt 0.734127 0.00054944
vt 0.734127 0.00054944
vt 0.734127 0.00054944
vt 0.734127 0.00054944
vt 0.734127 0.00054944
vt 0.734127 0.00054944
vt 0.734127 0.00054944
vt 0.734127 0.00054944
vt 0.734127 0.00054944
vt 0.734127 0.00054944
vt 0.734127 0.00054944
vt 0.734127 0.00054944
vt 0.734127 0.00054944
vt 0.734127 0.00054944
vt 0.734127 0.00054944
vt 0.734127 0.00054944
vt 0.734127 0.00054944
vt 0.734127 0.00054944
vt 0.734127 0.00054944
vt 0.734127 0.00054944
vt 0.734127 0.00054944
vt 0.734127 0.00054944
vt 0.734127 0.00054944
vt 0.734127 0.00054944
vt 0.734127 0.00054944
vt 0.734127 0.00054944
vt 0.734127 0.00054944
vt 0.734127 0.00054944
vt 0.734127 0.00054944
vt 0.734127 0.00054944
vt 0.734127 0.00054944
vt 0.734127 0.00054944
vt 0.734127 0.00054944
vt 0.734127 0.00054944
vt 0.734127 0.00054944
vt 0.734127 0.00054944
vt 0.734127 0.00054944
vt 0.734127 0.00054944
vt 0.734127 0.00054944
vt 0.734127 0.00054944
vt 0.734127 0.00054944
vt 0.734127 0.00054944
vt 0.734127 0.00054944
vt 0.734127 0.00054944
vt 0.734127 0.00054944
vt 0.734127 0.00054944
vt 0.734127 0.00054944
vt 0.734127 0.00054944
vt 0.734127 0.00054944
vt 0.734127 0.00054944
vt 0.734127 0.00054944
vt 0.734127 0.00054944
vt 0.734127 0.00054944
vt 0.734127 0.00054944
vt 0.734127 0.00054944
vt 0.734127 0.00054944
vt 0.734127 0.00054944
vt 0.734127 0.00054944
vt 0.734127 0.00054944
vt 0.734127 0.00054944
vt 0.734127 0.00054944
vt 0.734127 0.00054944
vt 0.734127 0.00054944
vt 0.734127 0.00054944
vt 0.734127 0.00054944
vt 0.734127 0.00054944
vt 0.734127 0.00054944
vt 0.734127 0.00054944
vt 0.734127 0.00054944
vt 0.734127 0.00054944
vt 0.734127 0.00054944
vt 0.734127 0.00054944
vt 0.734127 0.00054944
vt 0.734127 0.00054944
vt 0.734127 0.00054944
vt 0.734127 0.00054944
vt 0.734127 0.00054944
vt 0.734127 0.00054944
vt 0.734127 0.00054944
vt 0.734127 0.00054944
vt 0.734127 0.00054944
vt 0.734127 0.00054944
vt 0.734127 0.00054944
vt 0.734127 0.00054944
vt 0.734127 0.00054944
vt 0.734127 0.00054944
vt 0.734127 0.00054944
vt 0.734127 0.00054944
vt 0.734127 0.00054944
vt 0.734127 0.00054944
vt 0.734127 0.00054944
vt 0.734127 0.00054944
vt 0.734127 0.00054944
vt 0.734127 0.00054944
vt 0.734127 0.00054944
vt 0.734127 0.00054944
vt 0.734127 0.00054944
vt 0.734127 0.00054944
vt 0.734127 0.00054944
vt 0.734127 0.00054944
vt 0.734127 0.00054944
vt 0.734127 0.00054944
vt 0.734127 0.00054944
vt 0.734127 0.00054944
vt 0.734127 0.00054944
vt 0.734127 0.00054944
vt 0.734127 0.00054944
vt 0.734127 0.00054944
vt 0.734127 0.00054944
vt 0.734127 0.00054944
vt 0.734127 0.00054944
vt 0.734127 0.00054944
vt 0.734127 0.00054944
vt 0.734127 0.00054944
vt 0.734127 0.00054944
vt 0.734127 0.00054944
vt 0.734127 0.00054944
vt 0.734127 0.00054944
vt 0.734127 0.00054944
vt 0.734127 0.00054944
vt 0.734127 0.00054944
vt 0.734127 0.00054944
vt 0.734127 0.00054944
vt 0.734127 0.00054944
vt 0.734127 0.00054944
vt 0.734127 0.00054944
vt 0.734127 0.00054944
vt 0.734127 0.00054944
vt 0.734127 0.00054944
vt 0.734127 0.00054944
vt 0.734127 0.00054944
vt 0.734127 0.00054944
vt 0.734127 0.00054944
vt 0.734127 0.00054944
vt 0.734127 0.00054944
vt 0.734127 0.00054944
vt 0.734127 0.00054944
vt 0.734127 0.00054944
vt 0.734127 0.00054944
vt 0.734127 0.00054944
vt 0.734127 0.00054944
vt 0.734127 0.00054944
vt 0.734127 0.00054944
vt 0.734127 0.00054944
vt 0.734127 0.00054944
vt 0.734127 0.00054944
vt 0.734127 0.00054944
vt 0.734127 0.00054944
vt 0.734127 0.00054944
vt 0.734127 0.00054944
vt 0.734127 0.00054944
vt 0.734127 0.00054944
vt 0.734127 0.00054944
vt 0.734127 0.00054944
vt 0.734127 0.00054944
vt 0.734127 0.00054944
vt 0.734127 0.00054944
vt 0.734127 0.00054944
vt 0.734127 0.00054944
vt 0.734127 0.00054944
vt 0.734127 0.00054944
vt 0.734127 0.00054944
vt 0.734127 0.00054944
vt 0.734127 0.00054944
vt 0.734127 0.00054944
vt 0.734127 0.00054944
vt 0.734127 0.00054944
vt 0.734127 0.00054944
vt 0.734127 0.00054944
vt 0.734127 0.00054944
vt 0.734127 0.00054944
vt 0.734127 0.00054944
vt 0.734127 0.00054944
vt 0.734127 0.00054944
vt 0.734127 0.00054944
vt 0.734127 0.00054944
vt 0.734127 0.00054944
vt 0.734127 0.00054944
vt 0.734127 0.00054944
vt 0.734127 0.00054944
vt 0.734127 0.00054944
vt 0.734127 0.00054944
vt 0.734127 0.00054944
vt 0.734127 0.00054944
vt 0.734127 0.00054944
vt 0.734127 0.00054944
vt 0.734127 0.00054944
vt 0.734127 0.00054944
vt 0.734127 0.00054944
vt 0.734127 0.00054944
vt 0.734127 0.00054944
vt 0.734127 0.00054944
vt 0.734127 0.00054944
vt 0.734127 0.00054944
vt 0.734127 0.00054944
vt 0.734127 0.00054944
vt 0.734127 0.00054944
vt 0.734127 0.00054944
vt 0.734127 0.00054944
vt 0.734127 0.00054944
vt 0.734127 0.00054944
vt 0.734127 0.00054944
vt 0.734127 0.00054944
vt 0.734127 0.00054944
vt 0.734127 0.00054944
vt 0.734127 0.00054944
vn 0 0 1
vn 0 0 1
vn 0 0 1
vn 0 0 1
vn 1 0 0
vn 1 0 0
vn 1 0 0
vn 1 0 0
vn 0 0 -1
vn 0 0 -1
vn 0 0 -1
vn 0 0 -1
vn -1 0 0
vn -1 0 0
vn -1 0 0
vn -1 0 0
vn 0 -1 0
vn 0 -1 0
vn 0 -1 0
vn 0 -1 0
vn 0 1 0
vn 0 1 0
vn 0 1 0
vn 0 1 0
vn 0 0.5984549 0.8011565
vn 0 0.5984549 0.8011565
vn 0 0.5984549 0.8011565
vn 0 0.5984549 0.8011565
vn 0 0.9339885 0.3573032
vn 0 0.9339885 0.3573032
vn 0 0.9339885 0.3573032
vn 0 0.9339885 0.3573032
vn 0 0.9940813 0.1086389
vn 0 0.9940813 0.1086389
vn 0 0.9940813 0.1086389
vn 0 0.9940813 0.1086389
vn 0 0.9940811 -0.1086402
vn 0 0.9940811 -0.1086402
vn 0 0.9940811 -0.1086402
vn 0 0.9940811 -0.1086402
vn 0 0.9339904 -0.357298
vn 0 0.9339904 -0.357298
vn 0 0.9339904 -0.357298
vn 0 0.9339904 -0.357298
vn 0 0.5984549 -0.8011565
vn 0 0.5984549 -0.8011565
vn 0 0.5984549 -0.8011565
vn 0 0.5984549 -0.8011565
vn 0 -0.5984429 -0.8011655
vn 0 -0.5984429 -0.8011655
vn 0 -0.5984429 -0.8011655
vn 0 -0.5984429 -0.8011655
vn 0 -0.9340112 -0.3572437
vn 0 -0.9340112 -0.3572437
vn 0 -0.9340112 -0.3572437
vn 0 -0.9340112 -0.3572437
vn 0 -0.9940811 -0.1086402
vn 0 -0.9940811 -0.1086402
vn 0 -0.9940811 -0.1086402
vn 0 -0.9940811 -0.1086402
vn 0 -0.9940811 -0.1086402
vn 0 -0.9940813 0.1086389
vn 0 -0.9940813 0.1086389
vn 0 -0.9940813 0.1086389
vn 0 0 0
vn 0 0 0
vn 0 0 0
vn 0 -0.9940813 0.1086389
vn 0 -0.9340092 0.3572489
vn 0 -0.9340092 0.3572489
vn 0 -0.9340092 0.3572489
vn 0 -0.9340092 0.3572489
vn 0 -0.5984429 0.8011655
vn 0 -0.5984429 0.8011655
vn 0 -0.5984429 0.8011655
vn 0 -0.5984429 0.8011655
vn 0.6658663 0.7460711 0
vn 0.6658663 0.7460711 0
vn 0.6658663 0.7460711 0
vn 0.6658663 0.7460711 0
vn 0.3572928 0.9339924 0
vn 0.3572928 0.9339924 0
vn 0.3572928 0.9339924 0
vn 0.3572928 0.9339924 0
vn 0.09519077 0.995459 0
vn 0.09519077 0.995459 0
vn 0.09519077 0.995459 0
vn 0.09519077 0.995459 0
vn -0.1086389 0.9940813 0
vn -0.1086389 0.9940813 0
vn -0.1086389 0.9940813 0
vn -0.1086389 0.9940813 0
vn -0.303735 0.9527565 0
vn -0.303735 0.9527565 0
vn -0.303735 0.9527565 0
vn -0.303735 0.9527565 0
vn -0.8011445 0.5984709 0
vn -0.8011445 0.5984709 0
vn -0.8011445 0.5984709 0
vn -0.8011445 0.5984709 0
vn -0.8011535 -0.5984589 0
vn -0.8011535 -0.5984589 0
vn -0.8011535 -0.5984589 0
vn -0.8011535 -0.5984589 0
vn -0.303687 -0.9527718 0
vn -0.303687 -0.9527718 0
vn -0.303687 -0.9527718 0
vn -0.303687 -0.9527718 0
vn -0.1086389 -0.9940813 0
vn -0.1086389 -0.9940813 0
vn -0.1086389 -0.9940813 0
vn -0.1086389 -0.9940813 0
vn -0.1086389 -0.9940813 0
vn 0.09519077 -0.995459 0
vn 0.09519077 -0.995459 0
vn 0.09519077 -0.995459 0
vn 0.09519077 -0.995459 0
vn 0.09519077 -0.995459 0
vn 0.3572385 -0.9340132 0
vn 0.3572385 -0.9340132 0
vn 0.3572385 -0.9340132 0
vn 0.3572385 -0.9340132 0
vn 0.6658778 -0.7460608 0
vn 0.6658778 -0.7460608 0
vn 0.6658778 -0.7460608 0
vn 0.6658778 -0.7460608 0
vn 0 0.5984549 -0.8011565
vn 0 0.5984549 -0.8011565
vn 0 0.5984549 -0.8011565
vn 0 0.5984549 -0.8011565
vn 0 0.9339885 -0.3573032
vn 0 0.9339885 -0.3573032
vn 0 0.9339885 -0.3573032
vn 0 0.9339885 -0.3573032
vn 0 0.9940813 -0.1086389
vn 0 0.9940813 -0.1086389
vn 0 0.9940813 -0.1086389
vn 0 0.9940813 -0.1086389
vn 0 0.9940811 0.1086402
vn 0 0.9940811 0.1086402
vn 0 0.9940811 0.1086402
vn 0 0.9940811 0.1086402
vn 0 0.9339924 0.3572928
vn 0 0.9339924 0.3572928
vn 0 0.9339924 0.3572928
vn 0 0.9339924 0.3572928
vn 0 0.5984709 0.8011445
vn 0 0.5984709 0.8011445
vn 0 0.5984709 0.8011445
vn 0 0.5984709 0.8011445
vn 0 -0.5984589 0.8011535
vn 0 -0.5984589 0.8011535
vn 0 -0.5984589 0.8011535
vn 0 -0.5984589 0.8011535
vn 0 -0.9340132 0.3572385
vn 0 -0.9340132 0.3572385
vn 0 -0.9340132 0.3572385
vn 0 -0.9340132 0.3572385
vn 0 0 0
vn 0 0 0
vn 0 0 0
vn 0 -0.9940811 0.1086402
vn 0 -0.9940811 0.1086402
vn 0 -0.9940811 0.1086402
vn 0 -0.9940811 0.1086402
vn 0 -0.9940813 -0.1086389
vn 0 -0.9940813 -0.1086389
vn 0 -0.9940813 -0.1086389
vn 0 -0.9940813 -0.1086389
vn 0 -0.9940813 -0.1086389
vn 0 -0.9340092 -0.3572489
vn 0 -0.9340092 -0.3572489
vn 0 -0.9340092 -0.3572489
vn 0 -0.9340092 -0.3572489
vn 0 -0.5984429 -0.8011655
vn 0 -0.5984429 -0.8011655
vn 0 -0.5984429 -0.8011655
vn 0 -0.5984429 -0.8011655
vn -0.8011565 0.5984549 0
vn -0.8011565 0.5984549 0
vn -0.8011565 0.5984549 0
vn -0.8011565 0.5984549 0
vn -0.3573032 0.9339885 0
vn -0.3573032 0.9339885 0
vn -0.3573032 0.9339885 0
vn -0.3573032 0.9339885 0
vn -0.0951888 0.9954593 0
vn -0.0951888 0.9954593 0
vn -0.0951888 0.9954593 0
vn -0.0951888 0.9954593 0
vn 0.1086389 0.9940813 0
vn 0.1086389 0.9940813 0
vn 0.1086389 0.9940813 0
vn 0.1086389 0.9940813 0
vn 0.303735 0.9527565 0
vn 0.303735 0.9527565 0
vn 0.303735 0.9527565 0
vn 0.303735 0.9527565 0
vn 0.8011565 0.5984549 0
vn 0.8011565 0.5984549 0
vn 0.8011565 0.5984549 0
vn 0.8011565 0.5984549 0
vn 0.8011655 -0.5984429 0
vn 0.8011655 -0.5984429 0
vn 0.8011655 -0.5984429 0
vn 0.8011655 -0.5984429 0
vn 0.303687 -0.9527718 0
vn 0.303687 -0.9527718 0
vn 0.303687 -0.9527718 0
vn 0.303687 -0.9527718 0
vn 0.1086389 -0.9940813 0
vn 0.1086389 -0.9940813 0
vn 0.1086389 -0.9940813 0
vn 0.1086389 -0.9940813 0
vn 0.1086389 -0.9940813 0
vn -0.0951888 -0.9954593 0
vn -0.0951888 -0.9954593 0
vn -0.0951888 -0.9954593 0
vn -0.0951888 -0.9954593 0
vn -0.0951888 -0.9954593 0
vn -0.3572489 -0.9340092 0
vn -0.3572489 -0.9340092 0
vn -0.3572489 -0.9340092 0
vn -0.3572489 -0.9340092 0
vn -0.8011655 -0.5984429 0
vn -0.8011655 -0.5984429 0
vn -0.8011655 -0.5984429 0
vn -0.8011655 -0.5984429 0
vn 0 0 1
vn 0 0 1
vn 0 0 1
vn 0 0 1
vn 1 0 0
vn 1 0 0
vn 1 0 0
vn 1 0 0
vn 0 0 -1
vn 0 0 -1
vn 0 0 -1
vn 0 0 -1
vn -1 0 0
vn -1 0 0
vn -1 0 0
vn -1 0 0
vn 0 -1 0
vn 0 -1 0
vn 0 -1 0
vn 0 -1 0
vn 0 -1 0
vn 0 -1 0
vn 0 -1 0
vn 0 -1 0
vn 0 1 0
vn 0 1 0
vn 0 1 0
vn 0 1 0
vn 0 1 0
vn 0 1 0
vn 0 1 0
vn 0 1 0
vn 0 1 0
vn 0 1 0
vn 0 1 0
vn 0 1 0
vn 1 0 0
vn 1 0 0
vn 1 0 0
vn 1 0 0
vn 0 0 1
vn 0 0 1
vn 0 0 1
vn 0 0 1
vn -1 0 0
vn -1 0 0
vn -1 0 0
vn -1 0 0
vn 0 0 -1
vn 0 0 -1
vn 0 0 -1
vn 0 0 -1
vn 0 -0.9970866 0.07627776
vn 0 -0.9970866 0.07627776
vn 0 -0.9970866 0.07627776
vn 0 -0.9970866 0.07627776
vn 0 0.9970866 0.07627776
vn 0 0.9970866 0.07627776
vn 0 0.9970866 0.07627776
vn 0 0.9970866 0.07627776
vn 0.06937736 -0.9975905 0
vn 0.06937736 -0.9975905 0
vn 0.06937736 -0.9975905 0
vn 0.06937736 -0.9975905 0
vn 0.06937736 0.9975905 0
vn 0.06937736 0.9975905 0
vn 0.06937736 0.9975905 0
vn 0.06937736 0.9975905 0
vn 0 -0.9970867 -0.0762765
vn 0 -0.9970867 -0.0762765
vn 0 -0.9970867 -0.0762765
vn 0 -0.9970867 -0.0762765
vn 0 0.9970867 -0.0762765
vn 0 0.9970867 -0.0762765
vn 0 0.9970867 -0.0762765
vn 0 0.9970867 -0.0762765
vn -0.06937788 -0.9975904 0
vn -0.06937788 -0.9975904 0
vn -0.06937788 -0.9975904 0
vn -0.06937788 -0.9975904 0
vn -0.06937788 0.9975904 0
vn -0.06937788 0.9975904 0
vn -0.06937788 0.9975904 0
vn -0.06937788 0.9975904 0
vn 0 -0.9970866 -0.0762784
vn 0 -0.9970866 -0.0762784
vn 0 -0.9970866 -0.0762784
vn 0 -0.9970866 -0.0762784
vn 0.06937788 -0.9975904 0
vn 0.06937788 -0.9975904 0
vn 0.06937788 -0.9975904 0
vn 0.06937788 -0.9975904 0
vn 0 -0.9970866 0.07627713
vn 0 -0.9970866 0.07627713
vn 0 -0.9970866 0.07627713
vn 0 -0.9970866 0.07627713
vn -0.06937893 -0.9975904 0
vn -0.06937893 -0.9975904 0
vn -0.06937893 -0.9975904 0
vn -0.06937893 -0.9975904 0
vn 0 0.9970866 -0.0762784
vn 0 0.9970866 -0.0762784
vn 0 0.9970866 -0.0762784
vn 0 0.9970866 -0.0762784
vn -0.06937893 0.9975904 0
vn -0.06937893 0.9975904 0
vn -0.06937893 0.9975904 0
vn -0.06937893 0.9975904 0
vn 0 0.9970866 0.07627713
vn 0 0.9970866 0.07627713
vn 0 0.9970866 0.07627713
vn 0 0.9970866 0.07627713
vn 0.06937788 0.9975904 0
vn 0.06937788 0.9975904 0
vn 0.06937788 0.9975904 0
vn 0.06937788 0.9975904 0
vn 0 -0.9502428 0.3115101
vn 0 -0.9502428 0.3115101
vn 0 -0.9502428 0.3115101
vn 0 -0.9502428 0.3115101
vn 0 -0.7227108 0.6911505
vn 0 -0.7227108 0.6911505
vn 0 -0.7227108 0.6911505
vn 0 -0.7227108 0.6911505
vn 0 -0.3498802 0.9367945
vn 0 -0.3498802 0.9367945
vn 0 -0.3498802 0.9367945
vn 0 -0.3498802 0.9367945
vn 0 0.9502328 0.3115408
vn 0 0.9502328 0.3115408
vn 0 0.9502328 0.3115408
vn 0 0.9502328 0.3115408
vn 0 0.7227033 0.6911584
vn 0 0.7227033 0.6911584
vn 0 0.7227033 0.6911584
vn 0 0.7227033 0.6911584
vn 0 0.3498994 0.9367873
vn 0 0.3498994 0.9367873
vn 0 0.3498994 0.9367873
vn 0 0.3498994 0.9367873
vn 0.275734 -0.961234 0
vn 0.275734 -0.961234 0
vn 0.275734 -0.961234 0
vn 0.275734 -0.961234 0
vn 0.6076123 -0.7942338 0
vn 0.6076123 -0.7942338 0
vn 0.6076123 -0.7942338 0
vn 0.6076123 -0.7942338 0
vn 0.983008 -0.1835625 0
vn 0.983008 -0.1835625 0
vn 0.983008 -0.1835625 0
vn 0.983008 -0.1835625 0
vn 0.2757617 0.961226 0
vn 0.2757617 0.961226 0
vn 0.2757617 0.961226 0
vn 0.2757617 0.961226 0
vn 0.6076206 0.7942274 0
vn 0.6076206 0.7942274 0
vn 0.6076206 0.7942274 0
vn 0.6076206 0.7942274 0
vn 0.9830059 0.1835736 0
vn 0.9830059 0.1835736 0
vn 0.9830059 0.1835736 0
vn 0.9830059 0.1835736 0
vn 0 -0.9502384 -0.3115236
vn 0 -0.9502384 -0.3115236
vn 0 -0.9502384 -0.3115236
vn 0 -0.9502384 -0.3115236
vn 0 -0.7227252 -0.6911355
vn 0 -0.7227252 -0.6911355
vn 0 -0.7227252 -0.6911355
vn 0 -0.7227252 -0.6911355
vn 0 -0.3498802 -0.9367945
vn 0 -0.3498802 -0.9367945
vn 0 -0.3498802 -0.9367945
vn 0 -0.3498802 -0.9367945
vn 0 0.9502284 -0.3115542
vn 0 0.9502284 -0.3115542
vn 0 0.9502284 -0.3115542
vn 0 0.9502284 -0.3115542
vn 0 0.7227177 -0.6911433
vn 0 0.7227177 -0.6911433
vn 0 0.7227177 -0.6911433
vn 0 0.7227177 -0.6911433
vn 0 0.3498994 -0.9367873
vn 0 0.3498994 -0.9367873
vn 0 0.3498994 -0.9367873
vn 0 0.3498994 -0.9367873
vn -0.275734 -0.961234 0
vn -0.275734 -0.961234 0
vn -0.275734 -0.961234 0
vn -0.275734 -0.961234 0
vn -0.6076123 -0.7942338 0
vn -0.6076123 -0.7942338 0
vn -0.6076123 -0.7942338 0
vn -0.6076123 -0.7942338 0
vn -0.983008 -0.1835625 0
vn -0.983008 -0.1835625 0
vn -0.983008 -0.1835625 0
vn -0.983008 -0.1835625 0
vn -0.2757617 0.961226 0
vn -0.2757617 0.961226 0
vn -0.2757617 0.961226 0
vn -0.2757617 0.961226 0
vn -0.6076206 0.7942274 0
vn -0.6076206 0.7942274 0
vn -0.6076206 0.7942274 0
vn -0.6076206 0.7942274 0
vn -0.9830059 0.1835736 0
vn -0.9830059 0.1835736 0
vn -0.9830059 0.1835736 0
vn -0.9830059 0.1835736 0
vn 0 -0.9502439 -0.3115068
vn 0 -0.9502439 -0.3115068
vn 0 -0.9502439 -0.3115068
vn 0 -0.9502439 -0.3115068
vn 0 -0.7227108 -0.6911505
vn 0 -0.7227108 -0.6911505
vn 0 -0.7227108 -0.6911505
vn 0 -0.7227108 -0.6911505
vn 0 -0.3498674 -0.9367992
vn 0 -0.3498674 -0.9367992
vn 0 -0.3498674 -0.9367992
vn 0 -0.3498674 -0.9367992
vn 0.275734 -0.961234 0
vn 0.275734 -0.961234 0
vn 0.275734 -0.961234 0
vn 0.275734 -0.961234 0
vn 0.6911204 -0.7227396 0
vn 0.6911204 -0.7227396 0
vn 0.6911204 -0.7227396 0
vn 0.6911204 -0.7227396 0
vn 0.9368088 -0.3498419 0
vn 0.9368088 -0.3498419 0
vn 0.9368088 -0.3498419 0
vn 0.9368088 -0.3498419 0
vn 0 -0.9502395 0.3115202
vn 0 -0.9502395 0.3115202
vn 0 -0.9502395 0.3115202
vn 0 -0.9502395 0.3115202
vn 0 -0.7227396 0.6911204
vn 0 -0.7227396 0.6911204
vn 0 -0.7227396 0.6911204
vn 0 -0.7227396 0.6911204
vn 0 -0.3498674 0.9367992
vn 0 -0.3498674 0.9367992
vn 0 -0.3498674 0.9367992
vn 0 -0.3498674 0.9367992
vn -0.3115135 -0.9502417 0
vn -0.3115135 -0.9502417 0
vn -0.3115135 -0.9502417 0
vn -0.3115135 -0.9502417 0
vn -0.6076123 -0.7942338 0
vn -0.6076123 -0.7942338 0
vn -0.6076123 -0.7942338 0
vn -0.6076123 -0.7942338 0
vn -0.9367992 -0.3498674 0
vn -0.9367992 -0.3498674 0
vn -0.9367992 -0.3498674 0
vn -0.9367992 -0.3498674 0
vn 0 0.9502339 -0.3115374
vn 0 0.9502339 -0.3115374
vn 0 0.9502339 -0.3115374
vn 0 0.9502339 -0.3115374
vn 0 0.7227033 -0.6911584
vn 0 0.7227033 -0.6911584
vn 0 0.7227033 -0.6911584
vn 0 0.7227033 -0.6911584
vn 0 0.3498865 -0.9367921
vn 0 0.3498865 -0.9367921
vn 0 0.3498865 -0.9367921
vn 0 0.3498865 -0.9367921
vn -0.3115442 0.9502317 0
vn -0.3115442 0.9502317 0
vn -0.3115442 0.9502317 0
vn -0.3115442 0.9502317 0
vn -0.6076206 0.7942274 0
vn -0.6076206 0.7942274 0
vn -0.6076206 0.7942274 0
vn -0.6076206 0.7942274 0
vn -0.9367921 0.3498865 0
vn -0.9367921 0.3498865 0
vn -0.9367921 0.3498865 0
vn -0.9367921 0.3498865 0
vn 0 0.9502295 0.3115508
vn 0 0.9502295 0.3115508
vn 0 0.9502295 0.3115508
vn 0 0.9502295 0.3115508
vn 0 0.7227321 0.6911283
vn 0 0.7227321 0.6911283
vn 0 0.7227321 0.6911283
vn 0 0.7227321 0.6911283
vn 0 0.3498865 0.9367921
vn 0 0.3498865 0.9367921
vn 0 0.3498865 0.9367921
vn 0 0.3498865 0.9367921
vn 0.2757617 0.961226 0
vn 0.2757617 0.961226 0
vn 0.2757617 0.961226 0
vn 0.2757617 0.961226 0
vn 0.6911283 0.7227321 0
vn 0.6911283 0.7227321 0
vn 0.6911283 0.7227321 0
vn 0.6911283 0.7227321 0
vn 0.9368016 0.349861 0
vn 0.9368016 0.349861 0
vn 0.9368016 0.349861 0
vn 0.9368016 0.349861 0
vn 0 1 0
vn 0 1 0
vn 0 1 0
vn 0 1 0
f 1/1/1 2/2/2 3/3/3
f 1/1/1 4/4/4 2/2/2
f 5/5/5 6/6/6 7/7/7
f 8/8/8 6/6/6 5/5/5
f 9/9/9 10/10/10 11/11/11
f 9/9/9 11/11/11 12/12/12
f 13/13/13 14/14/14 15/15/15
f 16/16/16 14/14/14 13/13/13
f 17/17/17 18/18/18 19/19/19
f 17/17/17 20/20/20 18/18/18
f 21/21/21 22/22/22 23/23/23
f 23/23/23 22/22/22 24/24/24
f 25/25/25 26/26/26 27/27/27
f 25/25/25 28/28/28 26/26/26
f 29/29/29 30/30/30 31/31/31
f 29/29/29 32/32/32 30/30/30
f 33/33/33 34/34/34 35/35/35
f 36/36/36 34/34/34 33/33/33
f 37/37/37 38/38/38 39/39/39
f 40/40/40 38/38/38 37/37/37
f 41/41/41 42/42/42 43/43/43
f 41/41/41 44/44/44 42/42/42
f 45/45/45 46/46/46 47/47/47
f 45/45/45 48/48/48 46/46/46
f 49/49/49 50/50/50 51/51/51
f 50/50/50 52/52/52 51/51/51
f 53/53/53 54/54/54 55/55/55
f 55/55/55 54/54/54 56/56/56
f 57/57/57 58/58/58 59/59/59
f 60/60/60 59/59/59 58/58/58
f 57/57/57 59/59/59 61/61/61
f 62/62/62 63/63/63 64/64/64
f 65/65/65 66/66/66 67/67/67
f 63/63/63 68/68/68 64/64/64
f 69/69/69 70/70/70 71/71/71
f 71/71/71 70/70/70 72/72/72
f 73/73/73 74/74/74 75/75/75
f 74/74/74 76/76/76 75/75/75
f 77/77/77 78/78/78 79/79/79
f 80/80/80 78/78/78 77/77/77
f 81/81/81 82/82/82 83/83/83
f 81/81/81 84/84/84 82/82/82
f 85/85/85 86/86/86 87/87/87
f 85/85/85 88/88/88 86/86/86
f 89/89/89 90/90/90 91/91/91
f 89/89/89 92/92/92 90/90/90
f 93/93/93 94/94/94 95/95/95
f 93/93/93 96/96/96 94/94/94
f 97/97/97 98/98/98 99/99/99
f 97/97/97 99/99/99 100/100/100
f 101/101/101 102/102/102 103/103/103
f 103/103/103 102/102/102 104/104/104
f 105/105/105 106/106/106 107/107/107
f 106/106/106 108/108/108 107/107/107
f 109/109/109 110/110/110 111/111/111
f 110/110/110 109/109/109 112/112/112
f 110/110/110 113/113/113 111/111/111
f 114/114/114 115/115/115 116/116/116
f 116/116/116 117/117/117 118/118/118
f 117/117/117 116/116/116 115/115/115
f 119/119/119 120/120/120 121/121/121
f 120/120/120 122/122/122 121/121/121
f 123/123/123 124/124/124 125/125/125
f 126/126/126 124/124/124 123/123/123
f 127/127/127 128/128/128 129/129/129
f 130/130/130 127/127/127 129/129/129
f 131/131/131 132/132/132 133/133/133
f 131/131/131 133/133/133 134/134/134
f 135/135/135 136/136/136 137/137/137
f 135/135/135 137/137/137 138/138/138
f 139/139/139 140/140/140 141/141/141
f 141/141/141 140/140/140 142/142/142
f 143/143/143 144/144/144 145/145/145
f 145/145/145 144/144/144 146/146/146
f 147/147/147 148/148/148 149/149/149
f 150/150/150 147/147/147 149/149/149
f 151/151/151 152/152/152 153/153/153
f 151/151/151 153/153/153 154/154/154
f 155/155/155 156/156/156 157/157/157
f 155/155/155 157/157/157 158/158/158
f 159/159/159 160/160/160 161/161/161
f 162/162/162 163/163/163 164/164/164
f 165/165/165 162/162/162 164/164/164
f 166/166/166 167/167/167 168/168/168
f 169/169/169 167/167/167 170/170/170
f 166/166/166 170/170/170 167/167/167
f 171/171/171 172/172/172 173/173/173
f 171/171/171 173/173/173 174/174/174
f 175/175/175 176/176/176 177/177/177
f 175/175/175 177/177/177 178/178/178
f 179/179/179 180/180/180 181/181/181
f 182/182/182 180/180/180 179/179/179
f 183/183/183 184/184/184 185/185/185
f 186/186/186 183/183/183 185/185/185
f 187/187/187 188/188/188 189/189/189
f 190/190/190 187/187/187 189/189/189
f 191/191/191 192/192/192 193/193/193
f 194/194/194 191/191/191 193/193/193
f 195/195/195 196/196/196 197/197/197
f 198/198/198 195/195/195 197/197/197
f 199/199/199 200/200/200 201/201/201
f 199/199/199 201/201/201 202/202/202
f 203/203/203 204/204/204 205/205/205
f 203/203/203 205/205/205 206/206/206
f 207/207/207 208/208/208 209/209/209
f 207/207/207 209/209/209 210/210/210
f 211/211/211 212/212/212 213/213/213
f 212/212/212 211/211/211 214/214/214
f 214/214/214 211/211/211 215/215/215
f 216/216/216 217/217/217 218/218/218
f 219/219/219 216/216/216 218/218/218
f 216/216/216 219/219/219 220/220/220
f 221/221/221 222/222/222 223/223/223
f 221/221/221 223/223/223 224/224/224
f 225/225/225 226/226/226 227/227/227
f 228/228/228 226/226/226 225/225/225
f 229/229/229 230/230/230 231/231/231
f 229/229/229 231/231/231 232/232/232
f 233/233/233 234/234/234 235/235/235
f 235/235/235 234/234/234 236/236/236
f 237/237/237 238/238/238 239/239/239
f 237/237/237 240/240/240 238/238/238
f 241/241/241 242/242/242 243/243/243
f 241/241/241 243/243/243 244/244/244
f 245/245/245 246/246/246 247/247/247
f 248/248/248 246/246/246 245/245/245
f 248/248/248 249/249/249 246/246/246
f 248/248/248 250/250/250 249/249/249
f 251/251/251 249/249/249 250/250/250
f 251/251/251 250/250/250 252/252/252
f 247/247/247 251/251/251 252/252/252
f 245/245/245 247/247/247 252/252/252
f 253/253/253 254/254/254 255/255/255
f 253/253/253 256/256/256 254/254/254
f 256/256/256 253/253/253 257/257/257
f 257/257/257 258/258/258 256/256/256
f 259/259/259 257/257/257 260/260/260
f 257/257/257 259/259/259 258/258/258
f 259/259/259 260/260/260 261/261/261
f 262/262/262 260/260/260 263/263/263
f 260/260/260 262/262/262 261/261/261
f 264/264/264 262/262/262 263/263/263
f 253/253/253 264/264/264 263/263/263
f 264/264/264 253/253/253 255/255/255
f 265/265/265 266/266/266 267/267/267
f 268/268/268 266/266/266 265/265/265
f 269/269/269 270/270/270 271/271/271
f 269/269/269 272/272/272 270/270/270
f 273/273/273 274/274/274 275/275/275
f 273/273/273 276/276/276 274/274/274
f 277/277/277 278/278/278 279/279/279
f 277/277/277 279/279/279 280/280/280
f 281/281/281 282/282/282 283/283/283
f 281/281/281 284/284/284 282/282/282
f 285/285/285 286/286/286 287/287/287
f 286/286/286 288/288/288 287/287/287
f 289/289/289 290/290/290 291/291/291
f 289/289/289 292/292/292 290/290/290
f 293/293/293 294/294/294 295/295/295
f 295/295/295 294/294/294 296/296/296
f 297/297/297 298/298/298 299/299/299
f 297/297/297 299/299/299 300/300/300
f 301/301/301 302/302/302 303/303/303
f 301/301/301 303/303/303 304/304/304
f 305/305/305 306/306/306 307/307/307
f 307/307/307 306/306/306 308/308/308
f 309/309/309 310/310/310 311/311/311
f 309/309/309 312/312/312 310/310/310
f 313/313/313 314/314/314 315/315/315
f 313/313/313 315/315/315 316/316/316
f 317/317/317 318/318/318 319/319/319
f 320/320/320 318/318/318 317/317/317
f 321/321/321 322/322/322 323/323/323
f 322/322/322 324/324/324 323/323/323
f 325/325/325 326/326/326 327/327/327
f 325/325/325 327/327/327 328/328/328
f 329/329/329 330/330/330 331/331/331
f 329/329/329 331/331/331 332/332/332
f 333/333/333 334/334/334 335/335/335
f 336/336/336 334/334/334 333/333/333
f 337/337/337 338/338/338 339/339/339
f 337/337/337 340/340/340 338/338/338
f 341/341/341 342/342/342 343/343/343
f 341/341/341 343/343/343 344/344/344
f 345/345/345 346/346/346 347/347/347
f 345/345/345 348/348/348 346/346/346
f 349/349/349 350/350/350 351/351/351
f 349/349/349 352/352/352 350/350/350
f 353/353/353 354/354/354 355/355/355
f 353/353/353 356/356/356 354/354/354
f 357/357/357 358/358/358 359/359/359
f 357/357/357 360/360/360 358/358/358
f 361/361/361 362/362/362 363/363/363
f 363/363/363 362/362/362 364/364/364
f 365/365/365 366/366/366 367/367/367
f 367/367/367 366/366/366 368/368/368
f 369/369/369 370/370/370 371/371/371
f 369/369/369 372/372/372 370/370/370
f 373/373/373 374/374/374 375/375/375
f 373/373/373 375/375/375 376/376/376
f 377/377/377 378/378/378 379/379/379
f 377/377/377 379/379/379 380/380/380
f 381/381/381 382/382/382 383/383/383
f 383/383/383 382/382/382 384/384/384
f 385/385/385 386/386/386 387/387/387
f 385/385/385 388/388/388 386/386/386
f 389/389/389 390/390/390 391/391/391
f 389/389/389 392/392/392 390/390/390
f 393/393/393 394/394/394 395/395/395
f 393/393/393 395/395/395 396/396/396
f 397/397/397 398/398/398 399/399/399
f 399/399/399 398/398/398 400/400/400
f 401/401/401 402/402/402 403/403/403
f 403/403/403 402/402/402 404/404/404
f 405/405/405 406/406/406 407/407/407
f 405/405/405 407/407/407 408/408/408
f 409/409/409 410/410/410 411/411/411
f 409/409/409 412/412/412 410/410/410
f 413/413/413 414/414/414 415/415/415
f 413/413/413 416/416/416 414/414/414
f 417/417/417 418/418/418 419/419/419
f 419/419/419 418/418/418 420/420/420
f 421/421/421 422/422/422 423/423/423
f 424/424/424 421/421/421 423/423/423
f 425/425/425 426/426/426 427/427/427
f 428/428/428 425/425/425 427/427/427
f 429/429/429 430/430/430 431/431/431
f 429/429/429 432/432/432 430/430/430
f 433/433/433 434/434/434 435/435/435
f 434/434/434 436/436/436 435/435/435
f 437/437/437 438/438/438 439/439/439
f 438/438/438 440/440/440 439/439/439
f 441/441/441 442/442/442 443/443/443
f 441/441/441 443/443/443 444/444/444
f 445/445/445 446/446/446 447/447/447
f 445/445/445 447/447/447 448/448/448
f 449/449/449 450/450/450 451/451/451
f 449/449/449 451/451/451 452/452/452
f 453/453/453 454/454/454 455/455/455
f 456/456/456 454/454/454 453/453/453
f 457/457/457 458/458/458 459/459/459
f 457/457/457 459/459/459 460/460/460
f 461/461/461 462/462/462 463/463/463
f 461/461/461 463/463/463 464/464/464
f 465/465/465 466/466/466 467/467/467
f 466/466/466 468/468/468 467/467/467
f 469/469/469 470/470/470 471/471/471
f 472/472/472 470/470/470 469/469/469
f 473/473/473 474/474/474 475/475/475
f 476/476/476 474/474/474 473/473/473
f 477/477/477 478/478/478 479/479/479
f 477/477/477 479/479/479 480/480/480
f 481/481/481 482/482/482 483/483/483
f 484/484/484 481/481/481 483/483/483
f 485/485/485 486/486/486 487/487/487
f 488/488/488 485/485/485 487/487/487
f 489/489/489 490/490/490 491/491/491
f 489/489/489 491/491/491 492/492/492
f 493/493/493 494/494/494 495/495/495
f 496/496/496 494/494/494 493/493/493
f 497/497/497 498/498/498 499/499/499
f 500/500/500 498/498/498 497/497/497
f 501/501/501 502/502/502 503/503/503
f 504/504/504 502/502/502 501/501/501
f 505/505/505 506/506/506 507/507/507
f 506/506/506 508/508/508 507/507/507
f 509/509/509 510/510/510 511/511/511
f 510/510/510 512/512/512 511/511/511
f 513/513/513 514/514/514 515/515/515
f 513/513/513 516/516/516 514/514/514
f 517/517/517 518/518/518 519/519/519
f 517/517/517 519/519/519 520/520/520
f 521/521/521 522/522/522 523/523/523
f 521/521/521 523/523/523 524/524/524
f 525/525/525 526/526/526 527/527/527
f 525/525/525 527/527/527 528/528/528
f 529/529/529 530/530/530 531/531/531
f 529/529/529 532/532/532 530/530/530
f 533/533/533 534/534/534 535/535/535
f 533/533/533 536/536/536 534/534/534
f 256/256/256 537/537/537 254/254/254
f 255/255/255 537/537/537 538/538/538
f 537/537/537 255/255/255 254/254/254
f 258/258/258 259/259/259 539/539/539
f 537/537/537 258/258/258 539/539/539
f 258/258/258 537/537/537 256/256/256
f 540/540/540 261/261/261 262/262/262
f 540/540/540 259/259/259 261/261/261
f 259/259/259 540/540/540 539/539/539
f 255/255/255 538/538/538 264/264/264
f 264/264/264 540/540/540 262/262/262
f 540/540/540 264/264/264 538/538/538
