# SceneSmith visual LOD; original UVs retained
v -0.2354653 0.1728592 0.2370254
v 0.2354147 0.1728592 0.2370254
v 0.2354147 0.1828192 0.2370254
v -0.2354653 0.1828192 0.2370254
v 0.2354147 0.1728592 0.2370254
v 0.2354147 0.1728592 0.1179854
v 0.2354147 0.1828192 0.1179854
v 0.2354147 0.1828192 0.2370254
v -0.2354653 0.1828192 0.1179854
v 0.2354147 0.1728592 0.1179854
v -0.2354653 0.1728592 0.1179854
v 0.2354147 0.1828192 0.1179854
v -0.2354653 0.1728592 0.2370254
v -0.2354653 0.1828192 0.2370254
v -0.2354653 0.1728592 0.1179854
v -0.2354653 0.1828192 0.1179854
v -0.2318653 0.1696192 0.2337854
v -0.2318653 0.1696192 0.1213454
v 0.2318147 0.1696192 0.1213454
v 0.2318147 0.1696192 0.2337854
v -0.2113453 0.1794592 0.2150654
v 0.2112947 0.1794592 0.1400654
v -0.2113453 0.1794592 0.1400654
v 0.2112947 0.1794592 0.2150654
v -0.2354653 0.1721392 0.2370254
v 0.2354147 0.1721392 0.2370254
v -0.2354653 0.1835392 0.2370254
v 0.2354147 0.1835392 0.2370254
v 0.2354147 0.1721392 0.2370254
v 0.2354147 0.1721392 0.1181054
v 0.2354147 0.1835392 0.1181054
v 0.2354147 0.1835392 0.2370254
v -0.2354653 0.1721392 0.1181054
v 0.2354147 0.1728592 0.1179854
v 0.2354147 0.1721392 0.1181054
v -0.2354653 0.1728592 0.1179854
v -0.2354653 0.1828192 0.1179854
v -0.2354653 0.1835392 0.1181054
v 0.2354147 0.1835392 0.1181054
v 0.2354147 0.1828192 0.1179854
v -0.2354653 0.1721392 0.2370254
v -0.2354653 0.1721392 0.1181054
v -0.2354653 0.1835392 0.2370254
v -0.2354653 0.1835392 0.1181054
v -0.2354653 0.1721392 0.2370254
v -0.2352253 0.1714192 0.2369054
v 0.2352947 0.1714192 0.2369054
v 0.2354147 0.1721392 0.2370254
v -0.2352253 0.1714192 0.2369054
v -0.2349853 0.1708192 0.2365454
v 0.2349347 0.1708192 0.2365454
v 0.2352947 0.1714192 0.2369054
v -0.2349853 0.1708192 0.2365454
v -0.2346253 0.1704592 0.2361854
v 0.2345747 0.1704592 0.2361854
v 0.2349347 0.1708192 0.2365454
v -0.2341453 0.1700992 0.2358254
v 0.2340947 0.1700992 0.2358254
v -0.2341453 0.1700992 0.2358254
v -0.2334253 0.1697392 0.2352254
v 0.2333747 0.1697392 0.2352254
v 0.2340947 0.1700992 0.2358254
v -0.2334253 0.1697392 0.2352254
v -0.2327053 0.1696192 0.2345054
v 0.2326547 0.1696192 0.2345054
v 0.2333747 0.1697392 0.2352254
v -0.2327053 0.1696192 0.2345054
v 0.2326547 0.1696192 0.2345054
v -0.2352253 0.1842592 0.2369054
v 0.2354147 0.1835392 0.2370254
v 0.2352947 0.1842592 0.2369054
v -0.2354653 0.1835392 0.2370254
v -0.2349853 0.1848592 0.2365454
v 0.2352947 0.1842592 0.2369054
v 0.2349347 0.1848592 0.2365454
v -0.2352253 0.1842592 0.2369054
v -0.2346253 0.1853392 0.2361854
v 0.2349347 0.1848592 0.2365454
v 0.2345747 0.1853392 0.2361854
v -0.2349853 0.1848592 0.2365454
v 0.2345747 0.1853392 0.2361854
v 0.2340947 0.1856992 0.2358254
v -0.2341453 0.1856992 0.2358254
v -0.2346253 0.1853392 0.2361854
v 0.2340947 0.1856992 0.2358254
v 0.2333747 0.1859392 0.2352254
v -0.2334253 0.1859392 0.2352254
v -0.2341453 0.1856992 0.2358254
v 0.2333747 0.1859392 0.2352254
v 0.2326547 0.1860592 0.2345054
v -0.2327053 0.1860592 0.2345054
v -0.2334253 0.1859392 0.2352254
v 0.2326547 0.1860592 0.2345054
v 0.2318147 0.1860592 0.2337854
v -0.2318653 0.1860592 0.2337854
v -0.2327053 0.1860592 0.2345054
v 0.2352947 0.1714192 0.1182254
v 0.2354147 0.1721392 0.2370254
v 0.2352947 0.1714192 0.2369054
v 0.2354147 0.1721392 0.1181054
v 0.2349347 0.1708192 0.1184654
v 0.2352947 0.1714192 0.2369054
v 0.2349347 0.1708192 0.2365454
v 0.2352947 0.1714192 0.1182254
v 0.2345747 0.1704592 0.1188254
v 0.2349347 0.1708192 0.2365454
v 0.2345747 0.1704592 0.2361854
v 0.2349347 0.1708192 0.1184654
v 0.2345747 0.1704592 0.2361854
v 0.2340947 0.1700992 0.2358254
v 0.2340947 0.1700992 0.1193054
v 0.2345747 0.1704592 0.1188254
v 0.2340947 0.1700992 0.2358254
v 0.2333747 0.1697392 0.2352254
v 0.2333747 0.1697392 0.1199054
v 0.2340947 0.1700992 0.1193054
v 0.2333747 0.1697392 0.2352254
v 0.2326547 0.1696192 0.2345054
v 0.2326547 0.1696192 0.1206254
v 0.2333747 0.1697392 0.1199054
v 0.2326547 0.1696192 0.1206254
v 0.2354147 0.1835392 0.1181054
v 0.2352947 0.1842592 0.1182254
v 0.2352947 0.1842592 0.2369054
v 0.2354147 0.1835392 0.2370254
v 0.2352947 0.1842592 0.1182254
v 0.2349347 0.1848592 0.1184654
v 0.2349347 0.1848592 0.2365454
v 0.2352947 0.1842592 0.2369054
v 0.2349347 0.1848592 0.1184654
v 0.2345747 0.1853392 0.1188254
v 0.2345747 0.1853392 0.2361854
v 0.2349347 0.1848592 0.2365454
v 0.2340947 0.1856992 0.2358254
v 0.2345747 0.1853392 0.1188254
v 0.2340947 0.1856992 0.1193054
v 0.2345747 0.1853392 0.2361854
v 0.2333747 0.1859392 0.2352254
v 0.2340947 0.1856992 0.1193054
v 0.2333747 0.1859392 0.1199054
v 0.2340947 0.1856992 0.2358254
v 0.2326547 0.1860592 0.2345054
v 0.2333747 0.1859392 0.1199054
v 0.2326547 0.1860592 0.1206254
v 0.2333747 0.1859392 0.2352254
v 0.2326547 0.1860592 0.1206254
v 0.2318147 0.1860592 0.1213454
v -0.2352253 0.1714192 0.1182254
v 0.2354147 0.1721392 0.1181054
v 0.2352947 0.1714192 0.1182254
v -0.2354653 0.1721392 0.1181054
v -0.2349853 0.1708192 0.1184654
v 0.2352947 0.1714192 0.1182254
v 0.2349347 0.1708192 0.1184654
v -0.2352253 0.1714192 0.1182254
v -0.2346253 0.1704592 0.1188254
v 0.2349347 0.1708192 0.1184654
v 0.2345747 0.1704592 0.1188254
v -0.2349853 0.1708192 0.1184654
v -0.2341453 0.1700992 0.1193054
v 0.2345747 0.1704592 0.1188254
v 0.2340947 0.1700992 0.1193054
v -0.2346253 0.1704592 0.1188254
v -0.2334253 0.1697392 0.1199054
v 0.2340947 0.1700992 0.1193054
v 0.2333747 0.1697392 0.1199054
v -0.2341453 0.1700992 0.1193054
v -0.2327053 0.1696192 0.1206254
v 0.2333747 0.1697392 0.1199054
v 0.2326547 0.1696192 0.1206254
v -0.2334253 0.1697392 0.1199054
v -0.2327053 0.1696192 0.1206254
v -0.2354653 0.1835392 0.1181054
v -0.2352253 0.1842592 0.1182254
v 0.2352947 0.1842592 0.1182254
v 0.2354147 0.1835392 0.1181054
v -0.2352253 0.1842592 0.1182254
v -0.2349853 0.1848592 0.1184654
v 0.2349347 0.1848592 0.1184654
v 0.2352947 0.1842592 0.1182254
v -0.2349853 0.1848592 0.1184654
v -0.2346253 0.1853392 0.1188254
v 0.2345747 0.1853392 0.1188254
v 0.2349347 0.1848592 0.1184654
v 0.2340947 0.1856992 0.1193054
v -0.2346253 0.1853392 0.1188254
v -0.2341453 0.1856992 0.1193054
v 0.2345747 0.1853392 0.1188254
v 0.2333747 0.1859392 0.1199054
v -0.2341453 0.1856992 0.1193054
v -0.2334253 0.1859392 0.1199054
v 0.2340947 0.1856992 0.1193054
v 0.2326547 0.1860592 0.1206254
v -0.2334253 0.1859392 0.1199054
v -0.2327053 0.1860592 0.1206254
v 0.2333747 0.1859392 0.1199054
v -0.2327053 0.1860592 0.1206254
v -0.2318653 0.1860592 0.1213454
v -0.2352253 0.1714192 0.1182254
v -0.2352253 0.1714192 0.2369054
v -0.2354653 0.1721392 0.1181054
v -0.2354653 0.1721392 0.2370254
v -0.2349853 0.1708192 0.1184654
v -0.2349853 0.1708192 0.2365454
v -0.2352253 0.1714192 0.1182254
v -0.2352253 0.1714192 0.2369054
v -0.2346253 0.1704592 0.1188254
v -0.2346253 0.1704592 0.2361854
v -0.2349853 0.1708192 0.1184654
v -0.2349853 0.1708192 0.2365454
v -0.2341453 0.1700992 0.2358254
v -0.2346253 0.1704592 0.1188254
v -0.2341453 0.1700992 0.1193054
v -0.2346253 0.1704592 0.2361854
v -0.2334253 0.1697392 0.2352254
v -0.2341453 0.1700992 0.1193054
v -0.2334253 0.1697392 0.1199054
v -0.2341453 0.1700992 0.2358254
v -0.2327053 0.1696192 0.2345054
v -0.2334253 0.1697392 0.1199054
v -0.2327053 0.1696192 0.1206254
v -0.2334253 0.1697392 0.2352254
v -0.2354653 0.1835392 0.2370254
v -0.2352253 0.1842592 0.2369054
v -0.2352253 0.1842592 0.1182254
v -0.2354653 0.1835392 0.1181054
v -0.2352253 0.1842592 0.2369054
v -0.2349853 0.1848592 0.2365454
v -0.2349853 0.1848592 0.1184654
v -0.2352253 0.1842592 0.1182254
v -0.2349853 0.1848592 0.2365454
v -0.2346253 0.1853392 0.2361854
v -0.2346253 0.1853392 0.1188254
v -0.2349853 0.1848592 0.1184654
v -0.2346253 0.1853392 0.2361854
v -0.2341453 0.1856992 0.2358254
v -0.2341453 0.1856992 0.1193054
v -0.2346253 0.1853392 0.1188254
v -0.2341453 0.1856992 0.2358254
v -0.2334253 0.1859392 0.2352254
v -0.2334253 0.1859392 0.1199054
v -0.2341453 0.1856992 0.1193054
v -0.2334253 0.1859392 0.2352254
v -0.2327053 0.1860592 0.2345054
v -0.2327053 0.1860592 0.1206254
v -0.2334253 0.1859392 0.1199054
v 0.2156147 0.1860592 0.2189054
v -0.2156653 0.1860592 0.2189054
v 0.2156147 0.1860592 0.1362254
v -0.2156653 0.1860592 0.1362254
v -0.2113453 0.1806592 0.2150654
v 0.2112947 0.1794592 0.2150654
v -0.2113453 0.1794592 0.2150654
v 0.2112947 0.1806592 0.2150654
v 0.2112947 0.1794592 0.1400654
v 0.2112947 0.1794592 0.2150654
v 0.2112947 0.1806592 0.2150654
v 0.2112947 0.1806592 0.1400654
v -0.2113453 0.1794592 0.1400654
v 0.2112947 0.1794592 0.1400654
v 0.2112947 0.1806592 0.1400654
v -0.2113453 0.1806592 0.1400654
v -0.2113453 0.1794592 0.1400654
v -0.2113453 0.1806592 0.1400654
v -0.2113453 0.1794592 0.2150654
v -0.2113453 0.1806592 0.2150654
v -0.2114653 0.1818592 0.2150654
v 0.2114147 0.1818592 0.2150654
v 0.2112947 0.1806592 0.2150654
v 0.2114147 0.1818592 0.2150654
v 0.2114147 0.1818592 0.1400654
v 0.2112947 0.1806592 0.1400654
v -0.2114653 0.1818592 0.1400654
v 0.2114147 0.1818592 0.1400654
v -0.2113453 0.1806592 0.1400654
v -0.2114653 0.1818592 0.1400654
v -0.2114653 0.1818592 0.2150654
v -0.2113453 0.1806592 0.2150654
v -0.2115853 0.1830592 0.2153054
v 0.2115347 0.1830592 0.2153054
v -0.2114653 0.1818592 0.2150654
v 0.2114147 0.1818592 0.2150654
v -0.2119453 0.1840192 0.2155454
v 0.2118947 0.1840192 0.2155454
v -0.2115853 0.1830592 0.2153054
v 0.2115347 0.1830592 0.2153054
v -0.2124253 0.1847392 0.2160254
v 0.2123747 0.1847392 0.2160254
v -0.2119453 0.1840192 0.2155454
v 0.2118947 0.1840192 0.2155454
v -0.2130253 0.1853392 0.2165054
v 0.2129747 0.1853392 0.2165054
v -0.2124253 0.1847392 0.2160254
v 0.2123747 0.1847392 0.2160254
v 0.2136947 0.1858192 0.2172254
v -0.2130253 0.1853392 0.2165054
v -0.2137453 0.1858192 0.2172254
v 0.2129747 0.1853392 0.2165054
v 0.2145347 0.1860592 0.2180654
v -0.2137453 0.1858192 0.2172254
v -0.2145853 0.1860592 0.2180654
v 0.2136947 0.1858192 0.2172254
v -0.2145853 0.1860592 0.2180654
v 0.2145347 0.1860592 0.2180654
v 0.2114147 0.1818592 0.2150654
v 0.2115347 0.1830592 0.2153054
v 0.2115347 0.1830592 0.1398254
v 0.2114147 0.1818592 0.1400654
v 0.2115347 0.1830592 0.2153054
v 0.2118947 0.1840192 0.2155454
v 0.2118947 0.1840192 0.1395854
v 0.2115347 0.1830592 0.1398254
v 0.2118947 0.1840192 0.2155454
v 0.2123747 0.1847392 0.2160254
v 0.2123747 0.1847392 0.1391054
v 0.2118947 0.1840192 0.1395854
v 0.2123747 0.1847392 0.2160254
v 0.2129747 0.1853392 0.2165054
v 0.2129747 0.1853392 0.1385054
v 0.2123747 0.1847392 0.1391054
v 0.2136947 0.1858192 0.2172254
v 0.2136947 0.1858192 0.1379054
v 0.2129747 0.1853392 0.2165054
v 0.2129747 0.1853392 0.1385054
v 0.2145347 0.1860592 0.2180654
v 0.2145347 0.1860592 0.1370654
v 0.2136947 0.1858192 0.2172254
v 0.2136947 0.1858192 0.1379054
v 0.2145347 0.1860592 0.1370654
v -0.2115853 0.1830592 0.1398254
v 0.2114147 0.1818592 0.1400654
v 0.2115347 0.1830592 0.1398254
v -0.2114653 0.1818592 0.1400654
v -0.2119453 0.1840192 0.1395854
v 0.2115347 0.1830592 0.1398254
v 0.2118947 0.1840192 0.1395854
v -0.2115853 0.1830592 0.1398254
v -0.2124253 0.1847392 0.1391054
v 0.2118947 0.1840192 0.1395854
v 0.2123747 0.1847392 0.1391054
v -0.2119453 0.1840192 0.1395854
v -0.2130253 0.1853392 0.1385054
v 0.2123747 0.1847392 0.1391054
v 0.2129747 0.1853392 0.1385054
v -0.2124253 0.1847392 0.1391054
v 0.2129747 0.1853392 0.1385054
v 0.2136947 0.1858192 0.1379054
v -0.2137453 0.1858192 0.1379054
v -0.2130253 0.1853392 0.1385054
v 0.2136947 0.1858192 0.1379054
v 0.2145347 0.1860592 0.1370654
v -0.2145853 0.1860592 0.1370654
v -0.2137453 0.1858192 0.1379054
v -0.2145853 0.1860592 0.1370654
v -0.2114653 0.1818592 0.1400654
v -0.2115853 0.1830592 0.1398254
v -0.2115853 0.1830592 0.2153054
v -0.2114653 0.1818592 0.2150654
v -0.2115853 0.1830592 0.1398254
v -0.2119453 0.1840192 0.1395854
v -0.2119453 0.1840192 0.2155454
v -0.2115853 0.1830592 0.2153054
v -0.2119453 0.1840192 0.1395854
v -0.2124253 0.1847392 0.1391054
v -0.2124253 0.1847392 0.2160254
v -0.2119453 0.1840192 0.2155454
v -0.2124253 0.1847392 0.1391054
v -0.2130253 0.1853392 0.1385054
v -0.2130253 0.1853392 0.2165054
v -0.2124253 0.1847392 0.2160254
v -0.2137453 0.1858192 0.2172254
v -0.2130253 0.1853392 0.1385054
v -0.2137453 0.1858192 0.1379054
v -0.2130253 0.1853392 0.2165054
v -0.2145853 0.1860592 0.2180654
v -0.2137453 0.1858192 0.1379054
v -0.2145853 0.1860592 0.1370654
v -0.2137453 0.1858192 0.2172254
v 0.2158547 0.1685392 0.2119454
v 0.2242547 0.1747792 0.2119454
v 0.2158547 0.1747792 0.2119454
v 0.2158547 0.1747792 0.1279454
v 0.2242547 0.1747792 0.1231454
v 0.2158547 0.1747792 0.1231454
v 0.2242547 0.1747792 0.2119454
v 0.2158547 0.1747792 0.2119454
v 0.2158547 0.1685392 0.1279454
v 0.2158547 0.1747792 0.2119454
v 0.2158547 0.1747792 0.1279454
v 0.2158547 0.1685392 0.2119454
v -0.2157853 -0.1541408 0.2119454
v -0.2157853 0.1747792 0.1279454
v -0.2157853 0.1747792 0.2119454
v -0.2157853 -0.1541408 0.1279454
v -0.2241853 0.1747792 0.2119454
v -0.2157853 0.1747792 0.1231454
v -0.2241853 0.1747792 0.1231454
v -0.2157853 0.1747792 0.1279454
v -0.2157853 0.1747792 0.2119454
v -0.2157853 -0.1541408 0.1279454
v -0.2117053 -0.1541408 0.2119454
v -0.2117053 -0.1541408 0.1279454
v -0.2157853 -0.1541408 0.2119454
v -0.2241853 -0.1635008 0.1231454
v -0.2241853 0.1747792 0.2119454
v -0.2241853 0.1747792 0.1231454
v -0.2241853 -0.1635008 0.2119454
v 0.2242547 -0.1635008 0.2119454
v -0.2241853 -0.1635008 0.1231454
v 0.2242547 -0.1635008 0.1231454
v -0.2241853 -0.1635008 0.2119454
v 0.2242547 -0.1635008 0.2119454
v 0.2242547 0.1747792 0.1231454
v 0.2242547 0.1747792 0.2119454
v 0.2242547 -0.1635008 0.1231454
v -0.2241853 0.1747792 0.2119454
v -0.2157853 -0.1541408 0.2119454
v -0.2157853 0.1747792 0.2119454
v -0.2241853 -0.1635008 0.2119454
v -0.2117053 -0.1541408 0.2119454
v 0.2242547 -0.1635008 0.2119454
v 0.2158547 -0.1541408 0.2119454
v 0.2158547 0.1747792 0.1231454
v 0.2242547 -0.1635008 0.1231454
v 0.2242547 0.1747792 0.1231454
v -0.2241853 -0.1635008 0.1231454
v -0.2157853 0.1747792 0.1231454
v -0.2241853 0.1747792 0.1231454
v 0.2158547 -0.1541408 0.1279454
v 0.2158547 -0.1541408 0.2119454
v 0.2158547 -0.1541408 0.1279454
v 0.2158547 -0.1541408 0.2119454
vt 0.5489583 0.3169643
vt 0.5489583 0.3169643
vt 0.5489583 0.3169643
vt 0.5489583 0.3169643
vt 0.5489583 0.3169643
vt 0.5489583 0.3169643
vt 0.5489583 0.3169643
vt 0.5489583 0.3169643
vt 0.5489583 0.3169643
vt 0.5489583 0.3169643
vt 0.5489583 0.3169643
vt 0.5489583 0.3169643
vt 0.5489583 0.3169643
vt 0.5489583 0.3169643
vt 0.5489583 0.3169643
vt 0.5489583 0.3169643
vt 0.5489583 0.3169643
vt 0.5489583 0.3169643
vt 0.5489583 0.3169643
vt 0.5489583 0.3169643
vt 0.5489583 0.3169643
vt 0.5489583 0.3169643
vt 0.5489583 0.3169643
vt 0.5489583 0.3169643
vt 0.5489583 0.3169643
vt 0.5489583 0.3169643
vt 0.5489583 0.3169643
vt 0.5489583 0.3169643
vt 0.5489583 0.3169643
vt 0.5489583 0.3169643
vt 0.5489583 0.3169643
vt 0.5489583 0.3169643
vt 0.5489583 0.3169643
vt 0.5489583 0.3169643
vt 0.5489583 0.3169643
vt 0.5489583 0.3169643
vt 0.5489583 0.3169643
vt 0.5489583 0.3169643
vt 0.5489583 0.3169643
vt 0.5489583 0.3169643
vt 0.5489583 0.3169643
vt 0.5489583 0.3169643
vt 0.5489583 0.3169643
vt 0.5489583 0.3169643
vt 0.5489583 0.3169643
vt 0.5489583 0.3169643
vt 0.5489583 0.3169643
vt 0.5489583 0.3169643
vt 0.5489583 0.3169643
vt 0.5489583 0.3169643
vt 0.5489583 0.3169643
vt 0.5489583 0.3169643
vt 0.5489583 0.3169643
vt 0.5489583 0.3169643
vt 0.5489583 0.3169643
vt 0.5489583 0.3169643
vt 0.5489583 0.3169643
vt 0.5489583 0.3169643
vt 0.5489583 0.3169643
vt 0.5489583 0.3169643
vt 0.5489583 0.3169643
vt 0.5489583 0.3169643
vt 0.5489583 0.3169643
vt 0.5489583 0.3169643
vt 0.5489583 0.3169643
vt 0.5489583 0.3169643
vt 0.5489583 0.3169643
vt 0.5489583 0.3169643
vt 0.5489583 0.3169643
vt 0.5489583 0.3169643
vt 0.5489583 0.3169643
vt 0.5489583 0.3169643
vt 0.5489583 0.3169643
vt 0.5489583 0.3169643
vt 0.5489583 0.3169643
vt 0.5489583 0.3169643
vt 0.5489583 0.3169643
vt 0.5489583 0.3169643
vt 0.5489583 0.3169643
vt 0.5489583 0.3169643
vt 0.5489583 0.3169643
vt 0.5489583 0.3169643
vt 0.5489583 0.3169643
vt 0.5489583 0.3169643
vt 0.5489583 0.3169643
vt 0.5489583 0.3169643
vt 0.5489583 0.3169643
vt 0.5489583 0.3169643
vt 0.5489583 0.3169643
vt 0.5489583 0.3169643
vt 0.5489583 0.3169643
vt 0.5489583 0.3169643
vt 0.5489583 0.3169643
vt 0.5489583 0.3169643
vt 0.5489583 0.3169643
vt 0.5489583 0.3169643
vt 0.5489583 0.3169643
vt 0.5489583 0.3169643
vt 0.5489583 0.3169643
vt 0.5489583 0.3169643
vt 0.5489583 0.3169643
vt 0.5489583 0.3169643
vt 0.5489583 0.3169643
vt 0.5489583 0.3169643
vt 0.5489583 0.3169643
vt 0.5489583 0.3169643
vt 0.5489583 0.3169643
vt 0.5489583 0.3169643
vt 0.5489583 0.3169643
vt 0.5489583 0.3169643
vt 0.5489583 0.3169643
vt 0.5489583 0.3169643
vt 0.5489583 0.3169643
vt 0.5489583 0.3169643
vt 0.5489583 0.3169643
vt 0.5489583 0.3169643
vt 0.5489583 0.3169643
vt 0.5489583 0.3169643
vt 0.5489583 0.3169643
vt 0.5489583 0.3169643
vt 0.5489583 0.3169643
vt 0.5489583 0.3169643
vt 0.5489583 0.3169643
vt 0.5489583 0.3169643
vt 0.5489583 0.3169643
vt 0.5489583 0.3169643
vt 0.5489583 0.3169643
vt 0.5489583 0.3169643
vt 0.5489583 0.3169643
vt 0.5489583 0.3169643
vt 0.5489583 0.3169643
vt 0.5489583 0.3169643
vt 0.5489583 0.3169643
vt 0.5489583 0.3169643
vt 0.5489583 0.3169643
vt 0.5489583 0.3169643
vt 0.5489583 0.3169643
vt 0.5489583 0.3169643
vt 0.5489583 0.3169643
vt 0.5489583 0.3169643
vt 0.5489583 0.3169643
vt 0.5489583 0.3169643
vt 0.5489583 0.3169643
vt 0.5489583 0.3169643
vt 0.5489583 0.3169643
vt 0.5489583 0.3169643
vt 0.5489583 0.3169643
vt 0.5489583 0.3169643
vt 0.5489583 0.3169643
vt 0.5489583 0.3169643
vt 0.5489583 0.3169643
vt 0.5489583 0.3169643
vt 0.5489583 0.3169643
vt 0.5489583 0.3169643
vt 0.5489583 0.3169643
vt 0.5489583 0.3169643
vt 0.5489583 0.3169643
vt 0.5489583 0.3169643
vt 0.5489583 0.3169643
vt 0.5489583 0.3169643
vt 0.5489583 0.3169643
vt 0.5489583 0.3169643
vt 0.5489583 0.3169643
vt 0.5489583 0.3169643
vt 0.5489583 0.3169643
vt 0.5489583 0.3169643
vt 0.5489583 0.3169643
vt 0.5489583 0.3169643
vt 0.5489583 0.3169643
vt 0.5489583 0.3169643
vt 0.5489583 0.3169643
vt 0.5489583 0.3169643
vt 0.5489583 0.3169643
vt 0.5489583 0.3169643
vt 0.5489583 0.3169643
vt 0.5489583 0.3169643
vt 0.5489583 0.3169643
vt 0.5489583 0.3169643
vt 0.5489583 0.3169643
vt 0.5489583 0.3169643
vt 0.5489583 0.3169643
vt 0.5489583 0.3169643
vt 0.5489583 0.3169643
vt 0.5489583 0.3169643
vt 0.5489583 0.3169643
vt 0.5489583 0.3169643
vt 0.5489583 0.3169643
vt 0.5489583 0.3169643
vt 0.5489583 0.3169643
vt 0.5489583 0.3169643
vt 0.5489583 0.3169643
vt 0.5489583 0.3169643
vt 0.5489583 0.3169643
vt 0.5489583 0.3169643
vt 0.5489583 0.3169643
vt 0.5489583 0.3169643
vt 0.5489583 0.3169643
vt 0.5489583 0.3169643
vt 0.5489583 0.3169643
vt 0.5489583 0.3169643
vt 0.5489583 0.3169643
vt 0.5489583 0.3169643
vt 0.5489583 0.3169643
vt 0.5489583 0.3169643
vt 0.5489583 0.3169643
vt 0.5489583 0.3169643
vt 0.5489583 0.3169643
vt 0.5489583 0.3169643
vt 0.5489583 0.3169643
vt 0.5489583 0.3169643
vt 0.5489583 0.3169643
vt 0.5489583 0.3169643
vt 0.5489583 0.3169643
vt 0.5489583 0.3169643
vt 0.5489583 0.3169643
vt 0.5489583 0.3169643
vt 0.5489583 0.3169643
vt 0.5489583 0.3169643
vt 0.5489583 0.3169643
vt 0.5489583 0.3169643
vt 0.5489583 0.3169643
vt 0.5489583 0.3169643
vt 0.5489583 0.3169643
vt 0.5489583 0.3169643
vt 0.5489583 0.3169643
vt 0.5489583 0.3169643
vt 0.5489583 0.3169643
vt 0.5489583 0.3169643
vt 0.5489583 0.3169643
vt 0.5489583 0.3169643
vt 0.5489583 0.3169643
vt 0.5489583 0.3169643
vt 0.5489583 0.3169643
vt 0.5489583 0.3169643
vt 0.5489583 0.3169643
vt 0.5489583 0.3169643
vt 0.5489583 0.3169643
vt 0.5489583 0.3169643
vt 0.5489583 0.3169643
vt 0.5489583 0.3169643
vt 0.5489583 0.3169643
vt 0.5489583 0.3169643
vt 0.5489583 0.3169643
vt 0.5489583 0.3169643
vt 0.5489583 0.3169643
vt 0.5489583 0.3169643
vt 0.5489583 0.3169643
vt 0.5489583 0.3169643
vt 0.5489583 0.3169643
vt 0.5489583 0.3169643
vt 0.5489583 0.3169643
vt 0.5489583 0.3169643
vt 0.5489583 0.3169643
vt 0.5489583 0.3169643
vt 0.5489583 0.3169643
vt 0.5489583 0.3169643
vt 0.5489583 0.3169643
vt 0.5489583 0.3169643
vt 0.5489583 0.3169643
vt 0.5489583 0.3169643
vt 0.5489583 0.3169643
vt 0.5489583 0.3169643
vt 0.5489583 0.3169643
vt 0.5489583 0.3169643
vt 0.5489583 0.3169643
vt 0.5489583 0.3169643
vt 0.5489583 0.3169643
vt 0.5489583 0.3169643
vt 0.5489583 0.3169643
vt 0.5489583 0.3169643
vt 0.5489583 0.3169643
vt 0.5489583 0.3169643
vt 0.5489583 0.3169643
vt 0.5489583 0.3169643
vt 0.5489583 0.3169643
vt 0.5489583 0.3169643
vt 0.5489583 0.3169643
vt 0.5489583 0.3169643
vt 0.5489583 0.3169643
vt 0.5489583 0.3169643
vt 0.5489583 0.3169643
vt 0.5489583 0.3169643
vt 0.5489583 0.3169643
vt 0.5489583 0.3169643
vt 0.5489583 0.3169643
vt 0.5489583 0.3169643
vt 0.5489583 0.3169643
vt 0.5489583 0.3169643
vt 0.5489583 0.3169643
vt 0.5489583 0.3169643
vt 0.5489583 0.3169643
vt 0.5489583 0.3169643
vt 0.5489583 0.3169643
vt 0.5489583 0.3169643
vt 0.5489583 0.3169643
vt 0.5489583 0.3169643
vt 0.5489583 0.3169643
vt 0.5489583 0.3169643
vt 0.5489583 0.3169643
vt 0.5489583 0.3169643
vt 0.5489583 0.3169643
vt 0.5489583 0.3169643
vt 0.5489583 0.3169643
vt 0.5489583 0.3169643
vt 0.5489583 0.3169643
vt 0.5489583 0.3169643
vt 0.5489583 0.3169643
vt 0.5489583 0.3169643
vt 0.5489583 0.3169643
vt 0.5489583 0.3169643
vt 0.5489583 0.3169643
vt 0.5489583 0.3169643
vt 0.5489583 0.3169643
vt 0.5489583 0.3169643
vt 0.5489583 0.3169643
vt 0.5489583 0.3169643
vt 0.5489583 0.3169643
vt 0.5489583 0.3169643
vt 0.5489583 0.3169643
vt 0.5489583 0.3169643
vt 0.5489583 0.3169643
vt 0.5489583 0.3169643
vt 0.5489583 0.3169643
vt 0.5489583 0.3169643
vt 0.5489583 0.3169643
vt 0.5489583 0.3169643
vt 0.5489583 0.3169643
vt 0.5489583 0.3169643
vt 0.5489583 0.3169643
vt 0.5489583 0.3169643
vt 0.5489583 0.3169643
vt 0.5489583 0.3169643
vt 0.5489583 0.3169643
vt 0.5489583 0.3169643
vt 0.5489583 0.3169643
vt 0.5489583 0.3169643
vt 0.5489583 0.3169643
vt 0.5489583 0.3169643
vt 0.5489583 0.3169643
vt 0.5489583 0.3169643
vt 0.5489583 0.3169643
vt 0.5489583 0.3169643
vt 0.5489583 0.3169643
vt 0.5489583 0.3169643
vt 0.5489583 0.3169643
vt 0.5489583 0.3169643
vt 0.5489583 0.3169643
vt 0.5489583 0.3169643
vt 0.5489583 0.3169643
vt 0.5489583 0.3169643
vt 0.5489583 0.3169643
vt 0.5489583 0.3169643
vt 0.5489583 0.3169643
vt 0.5489583 0.3169643
vt 0.5489583 0.3169643
vt 0.5489583 0.3169643
vt 0.5489583 0.3169643
vt 0.5489583 0.3169643
vt 0.5489583 0.3169643
vt 0.5489583 0.3169643
vt 0.5489583 0.3169643
vt 0.5489583 0.3169643
vt 0.5489583 0.3169643
vt 0.5489583 0.3169643
vt 0.5489583 0.3169643
vt 0.5489583 0.3169643
vt 0.5489583 0.3169643
vt 0.5489583 0.3169643
vt 0.5489583 0.3169643
vt 0.5489583 0.3169643
vt 0.5489583 0.3169643
vt 0.5489583 0.3169643
vt 0.5489583 0.3169643
vt 0.5489583 0.3169643
vt 0.5489583 0.3169643
vt 0.5489583 0.3169643
vt 0.5489583 0.3169643
vt 0.5489583 0.3169643
vt 0.1489583 0.3169643
vt 0.1489583 0.3169643
vt 0.1489583 0.3169643
vt 0.1489583 0.3169643
vt 0.1489583 0.3169643
vt 0.1489583 0.3169643
vt 0.1489583 0.3169643
vt 0.1489583 0.3169643
vt 0.1489583 0.3169643
vt 0.1489583 0.3169643
vt 0.1489583 0.3169643
vt 0.1489583 0.3169643
vt 0.1784647 0.3169643
vt 0.1489583 0.3169643
vt 0.1489583 0.3169643
vt 0.1784647 0.3169643
vt 0.1489583 0.3169643
vt 0.1489583 0.3169643
vt 0.1489583 0.3169643
vt 0.1489583 0.3169643
vt 0.1489583 0.3169643
vt 0.1489583 0.3169643
vt 0.1489583 0.3169643
vt 0.1489583 0.3169643
vt 0.1489583 0.3169643
vt 0.1511925 0.3169643
vt 0.1489583 0.3169643
vt 0.1489583 0.3169643
vt 0.1511925 0.3169643
vt 0.1489583 0.3169643
vt 0.1489583 0.3169643
vt 0.1489583 0.3169643
vt 0.1489583 0.3169643
vt 0.1779742 0.3169643
vt 0.1489583 0.3169643
vt 0.1489583 0.3169643
vt 0.1779742 0.3169643
vt 0.1489583 0.3169643
vt 0.1489583 0.3204516
vt 0.1489583 0.3169643
vt 0.1489583 0.3214326
vt 0.1489583 0.3204516
vt 0.1489583 0.3214326
vt 0.1489583 0.3204516
vt 0.1489583 0.3169643
vt 0.1489583 0.3214326
vt 0.1489583 0.3169643
vt 0.1489583 0.3214326
vt 0.1489583 0.3169643
vt 0.1489583 0.3169643
vt 0.1489583 0.3169643
vt 0.1489583 0.3169643
vt 0.150702 0.3169643
vt 0.150702 0.3169643
vn 0 0 1
vn 0 0 1
vn 0 0 1
vn 0 0 1
vn 1 0 0
vn 1 0 0
vn 1 0 0
vn 1 0 0
vn 0 0 -1
vn 0 0 -1
vn 0 0 -1
vn 0 0 -1
vn -1 0 0
vn -1 0 0
vn -1 0 0
vn -1 0 0
vn 0 -1 0
vn 0 -1 0
vn 0 -1 0
vn 0 -1 0
vn 0 1 0
vn 0 1 0
vn 0 1 0
vn 0 1 0
vn 0 0 1
vn 0 0 1
vn 0 0 1
vn 0 0 1
vn 1 0 0
vn 1 0 0
vn 1 0 0
vn 1 0 0
vn 0 -0.1644168 -0.9863909
vn 0 -0.1644168 -0.9863909
vn 0 -0.1644168 -0.9863909
vn 0 -0.1644168 -0.9863909
vn 0 0.1644101 -0.9863921
vn 0 0.1644101 -0.9863921
vn 0 0.1644101 -0.9863921
vn 0 0.1644101 -0.9863921
vn -1 0 0
vn -1 0 0
vn -1 0 0
vn -1 0 0
vn 0 -0.1643968 0.9863943
vn 0 -0.1643968 0.9863943
vn 0 -0.1643968 0.9863943
vn 0 -0.1643968 0.9863943
vn 0 -0.5144916 0.8574954
vn 0 -0.5144916 0.8574954
vn 0 -0.5144916 0.8574954
vn 0 -0.5144916 0.8574954
vn 0 -0.7071068 0.7071068
vn 0 -0.7071068 0.7071068
vn 0 -0.7071068 0.7071068
vn 0 -0.7071068 0.7071068
vn 0 -0.7071068 0.7071068
vn 0 -0.7071068 0.7071068
vn 0 -0.8574992 0.5144852
vn 0 -0.8574992 0.5144852
vn 0 -0.8574992 0.5144852
vn 0 -0.8574992 0.5144852
vn 0 -0.9863899 0.1644234
vn 0 -0.9863899 0.1644234
vn 0 -0.9863899 0.1644234
vn 0 -0.9863899 0.1644234
vn 0 -1 0
vn 0 -1 0
vn 0 0.1644034 0.9863932
vn 0 0.1644034 0.9863932
vn 0 0.1644034 0.9863932
vn 0 0.1644034 0.9863932
vn 0 0.5144727 0.8575068
vn 0 0.5144727 0.8575068
vn 0 0.5144727 0.8575068
vn 0 0.5144727 0.8575068
vn 0 0.6000267 0.79998
vn 0 0.6000267 0.79998
vn 0 0.6000267 0.79998
vn 0 0.6000267 0.79998
vn 0 0.7070872 0.7071264
vn 0 0.7070872 0.7071264
vn 0 0.7070872 0.7071264
vn 0 0.7070872 0.7071264
vn 0 0.9284767 0.3713907
vn 0 0.9284767 0.3713907
vn 0 0.9284767 0.3713907
vn 0 0.9284767 0.3713907
vn 0 0.9863965 0.1643834
vn 0 0.9863965 0.1643834
vn 0 0.9863965 0.1643834
vn 0 0.9863965 0.1643834
vn 0 1 0
vn 0 1 0
vn 0 1 0
vn 0 1 0
vn 0.9863943 -0.1643968 0
vn 0.9863943 -0.1643968 0
vn 0.9863943 -0.1643968 0
vn 0.9863943 -0.1643968 0
vn 0.8574829 -0.5145126 0
vn 0.8574829 -0.5145126 0
vn 0.8574829 -0.5145126 0
vn 0.8574829 -0.5145126 0
vn 0.7071264 -0.7070872 0
vn 0.7071264 -0.7070872 0
vn 0.7071264 -0.7070872 0
vn 0.7071264 -0.7070872 0
vn 0.599992 -0.800006 0
vn 0.599992 -0.800006 0
vn 0.599992 -0.800006 0
vn 0.599992 -0.800006 0
vn 0.4472086 -0.8944297 0
vn 0.4472086 -0.8944297 0
vn 0.4472086 -0.8944297 0
vn 0.4472086 -0.8944297 0
vn 0.1644234 -0.9863899 0
vn 0.1644234 -0.9863899 0
vn 0.1644234 -0.9863899 0
vn 0.1644234 -0.9863899 0
vn 0 -1 0
vn 0.9863932 0.1644034 0
vn 0.9863932 0.1644034 0
vn 0.9863932 0.1644034 0
vn 0.9863932 0.1644034 0
vn 0.8574942 0.5144936 0
vn 0.8574942 0.5144936 0
vn 0.8574942 0.5144936 0
vn 0.8574942 0.5144936 0
vn 0.799996 0.6000053 0
vn 0.799996 0.6000053 0
vn 0.799996 0.6000053 0
vn 0.799996 0.6000053 0
vn 0.6000133 0.79999 0
vn 0.6000133 0.79999 0
vn 0.6000133 0.79999 0
vn 0.6000133 0.79999 0
vn 0.3162317 0.948682 0
vn 0.3162317 0.948682 0
vn 0.3162317 0.948682 0
vn 0.3162317 0.948682 0
vn 0.1643834 0.9863965 0
vn 0.1643834 0.9863965 0
vn 0.1643834 0.9863965 0
vn 0.1643834 0.9863965 0
vn 0 1 0
vn 0 1 0
vn 0 -0.1643834 -0.9863965
vn 0 -0.1643834 -0.9863965
vn 0 -0.1643834 -0.9863965
vn 0 -0.1643834 -0.9863965
vn 0 -0.3713827 -0.9284799
vn 0 -0.3713827 -0.9284799
vn 0 -0.3713827 -0.9284799
vn 0 -0.3713827 -0.9284799
vn 0 -0.7071068 -0.7071068
vn 0 -0.7071068 -0.7071068
vn 0 -0.7071068 -0.7071068
vn 0 -0.7071068 -0.7071068
vn 0 -0.8 -0.6
vn 0 -0.8 -0.6
vn 0 -0.8 -0.6
vn 0 -0.8 -0.6
vn 0 -0.8574992 -0.5144852
vn 0 -0.8574992 -0.5144852
vn 0 -0.8574992 -0.5144852
vn 0 -0.8574992 -0.5144852
vn 0 -0.9863891 -0.1644279
vn 0 -0.9863891 -0.1644279
vn 0 -0.9863891 -0.1644279
vn 0 -0.9863891 -0.1644279
vn 0 -1 0
vn 0 0.1643901 -0.9863954
vn 0 0.1643901 -0.9863954
vn 0 0.1643901 -0.9863954
vn 0 0.1643901 -0.9863954
vn 0 0.3713666 -0.9284863
vn 0 0.3713666 -0.9284863
vn 0 0.3713666 -0.9284863
vn 0 0.3713666 -0.9284863
vn 0 0.6000267 -0.79998
vn 0 0.6000267 -0.79998
vn 0 0.6000267 -0.79998
vn 0 0.6000267 -0.79998
vn 0 0.799984 -0.6000214
vn 0 0.799984 -0.6000214
vn 0 0.799984 -0.6000214
vn 0 0.799984 -0.6000214
vn 0 0.9284767 -0.3713907
vn 0 0.9284767 -0.3713907
vn 0 0.9284767 -0.3713907
vn 0 0.9284767 -0.3713907
vn 0 0.9863958 -0.1643879
vn 0 0.9863958 -0.1643879
vn 0 0.9863958 -0.1643879
vn 0 0.9863958 -0.1643879
vn 0 1 0
vn 0 1 0
vn -0.9486886 -0.316212 0
vn -0.9486886 -0.316212 0
vn -0.9486886 -0.316212 0
vn -0.9486886 -0.316212 0
vn -0.9284745 -0.371396 0
vn -0.9284745 -0.371396 0
vn -0.9284745 -0.371396 0
vn -0.9284745 -0.371396 0
vn -0.7071068 -0.7071068 0
vn -0.7071068 -0.7071068 0
vn -0.7071068 -0.7071068 0
vn -0.7071068 -0.7071068 0
vn -0.600008 -0.799994 0
vn -0.600008 -0.799994 0
vn -0.600008 -0.799994 0
vn -0.600008 -0.799994 0
vn -0.4471987 -0.8944346 0
vn -0.4471987 -0.8944346 0
vn -0.4471987 -0.8944346 0
vn -0.4471987 -0.8944346 0
vn -0.1644256 -0.9863895 0
vn -0.1644256 -0.9863895 0
vn -0.1644256 -0.9863895 0
vn -0.1644256 -0.9863895 0
vn -0.9486846 0.3162238 0
vn -0.9486846 0.3162238 0
vn -0.9486846 0.3162238 0
vn -0.9486846 0.3162238 0
vn -0.928481 0.37138 0
vn -0.928481 0.37138 0
vn -0.928481 0.37138 0
vn -0.928481 0.37138 0
vn -0.79998 0.6000267 0
vn -0.79998 0.6000267 0
vn -0.79998 0.6000267 0
vn -0.79998 0.6000267 0
vn -0.6000293 0.799978 0
vn -0.6000293 0.799978 0
vn -0.6000293 0.799978 0
vn -0.6000293 0.799978 0
vn -0.3162238 0.9486846 0
vn -0.3162238 0.9486846 0
vn -0.3162238 0.9486846 0
vn -0.3162238 0.9486846 0
vn -0.1643857 0.9863961 0
vn -0.1643857 0.9863961 0
vn -0.1643857 0.9863961 0
vn -0.1643857 0.9863961 0
vn 0 1 0
vn 0 1 0
vn 0 1 0
vn 0 1 0
vn 0 0 -1
vn 0 0 -1
vn 0 0 -1
vn 0 0 -1
vn -1 0 0
vn -1 0 0
vn -1 0 0
vn -1 0 0
vn 0 0 1
vn 0 0 1
vn 0 0 1
vn 0 0 1
vn 1 0 0
vn 1 0 0
vn 1 0 0
vn 1 0 0
vn 0 0 -1
vn 0 0 -1
vn -0.9950374 0.09950208 0
vn -0.9950374 0.09950208 0
vn -0.9950374 0.09950208 0
vn -0.9950374 0.09950208 0
vn 0 0 1
vn 0 0 1
vn 0.9950374 0.09950208 0
vn 0.9950374 0.09950208 0
vn 0.9950374 0.09950208 0
vn 0.9950374 0.09950208 0
vn 0 0.1961271 -0.9805785
vn 0 0.1961271 -0.9805785
vn 0 0.1961271 -0.9805785
vn 0 0.1961271 -0.9805785
vn 0 0.2425119 -0.9701484
vn 0 0.2425119 -0.9701484
vn 0 0.2425119 -0.9701484
vn 0 0.2425119 -0.9701484
vn 0 0.5547242 -0.8320343
vn 0 0.5547242 -0.8320343
vn 0 0.5547242 -0.8320343
vn 0 0.5547242 -0.8320343
vn 0 0.624703 -0.7808625
vn 0 0.624703 -0.7808625
vn 0 0.624703 -0.7808625
vn 0 0.624703 -0.7808625
vn 0 0.8320467 -0.5547055
vn 0 0.8320467 -0.5547055
vn 0 0.8320467 -0.5547055
vn 0 0.8320467 -0.5547055
vn 0 0.9615209 -0.2747317
vn 0 0.9615209 -0.2747317
vn 0 0.9615209 -0.2747317
vn 0 0.9615209 -0.2747317
vn 0 1 0
vn 0 1 0
vn -0.9950379 0.09949715 0
vn -0.9950379 0.09949715 0
vn -0.9950379 0.09949715 0
vn -0.9950379 0.09949715 0
vn -0.9363316 0.351117 0
vn -0.9363316 0.351117 0
vn -0.9363316 0.351117 0
vn -0.9363316 0.351117 0
vn -0.8320343 0.5547242 0
vn -0.8320343 0.5547242 0
vn -0.8320343 0.5547242 0
vn -0.8320343 0.5547242 0
vn -0.7071127 0.7071009 0
vn -0.7071127 0.7071009 0
vn -0.7071127 0.7071009 0
vn -0.7071127 0.7071009 0
vn -0.5547002 0.8320503 0
vn -0.5547002 0.8320503 0
vn -0.5547002 0.8320503 0
vn -0.5547002 0.8320503 0
vn -0.2747287 0.9615218 0
vn -0.2747287 0.9615218 0
vn -0.2747287 0.9615218 0
vn -0.2747287 0.9615218 0
vn 0 1 0
vn 0 0.1961193 0.98058
vn 0 0.1961193 0.98058
vn 0 0.1961193 0.98058
vn 0 0.1961193 0.98058
vn 0 0.2425404 0.9701413
vn 0 0.2425404 0.9701413
vn 0 0.2425404 0.9701413
vn 0 0.2425404 0.9701413
vn 0 0.5547082 0.832045
vn 0 0.5547082 0.832045
vn 0 0.5547082 0.832045
vn 0 0.5547082 0.832045
vn 0 0.7071068 0.7071068
vn 0 0.7071068 0.7071068
vn 0 0.7071068 0.7071068
vn 0 0.7071068 0.7071068
vn 0 0.7808688 0.6246951
vn 0 0.7808688 0.6246951
vn 0 0.7808688 0.6246951
vn 0 0.7808688 0.6246951
vn 0 0.9615209 0.2747317
vn 0 0.9615209 0.2747317
vn 0 0.9615209 0.2747317
vn 0 0.9615209 0.2747317
vn 0 1 0
vn 0.9950362 0.09951357 0
vn 0.9950362 0.09951357 0
vn 0.9950362 0.09951357 0
vn 0.9950362 0.09951357 0
vn 0.9363316 0.351117 0
vn 0.9363316 0.351117 0
vn 0.9363316 0.351117 0
vn 0.9363316 0.351117 0
vn 0.832045 0.5547082 0
vn 0.832045 0.5547082 0
vn 0.832045 0.5547082 0
vn 0.832045 0.5547082 0
vn 0.7071009 0.7071127 0
vn 0.7071009 0.7071127 0
vn 0.7071009 0.7071127 0
vn 0.7071009 0.7071127 0
vn 0.5547002 0.8320503 0
vn 0.5547002 0.8320503 0
vn 0.5547002 0.8320503 0
vn 0.5547002 0.8320503 0
vn 0.2747347 0.9615201 0
vn 0.2747347 0.9615201 0
vn 0.2747347 0.9615201 0
vn 0.2747347 0.9615201 0
vn 0 0 1
vn 0 0 1
vn 0 0 1
vn 0 1 0
vn 0 1 0
vn 0 1 0
vn 0 1 0
vn 0 1 0
vn -1 0 0
vn -1 0 0
vn -1 0 0
vn -1 0 0
vn 1 0 0
vn 1 0 0
vn 1 0 0
vn 1 0 0
vn 0 1 0
vn 0 1 0
vn 0 1 0
vn 0 1 0
vn 0 1 0
vn 0 1 0
vn 0 1 0
vn 0 1 0
vn 0 1 0
vn -1 0 0
vn -1 0 0
vn -1 0 0
vn -1 0 0
vn 0 -1 0
vn 0 -1 0
vn 0 -1 0
vn 0 -1 0
vn 1 0 0
vn 1 0 0
vn 1 0 0
vn 1 0 0
vn 0 0 1
vn 0 0 1
vn 0 0 1
vn 0 0 1
vn 0 0 1
vn 0 0 1
vn 0 0 1
vn 0 0 1
vn 0 0 1
vn 0 0 1
vn 0 0 1
vn 0 0 1
vn 0 0 1
vn 0 1 0
vn 0 1 0
vn -1 0 0
vn -1 0 0
f 1/1/1 2/2/2 3/3/3
f 1/1/1 3/3/3 4/4/4
f 5/5/5 6/6/6 7/7/7
f 5/5/5 7/7/7 8/8/8
f 9/9/9 10/10/10 11/11/11
f 9/9/9 12/12/12 10/10/10
f 13/13/13 14/14/14 15/15/15
f 15/15/15 14/14/14 16/16/16
f 17/17/17 18/18/18 19/19/19
f 17/17/17 19/19/19 20/20/20
f 21/21/21 22/22/22 23/23/23
f 24/24/24 22/22/22 21/21/21
f 1/1/1 25/25/25 26/26/26
f 1/1/1 26/26/26 2/2/2
f 27/27/27 3/3/3 28/28/28
f 4/4/4 3/3/3 27/27/27
f 29/29/29 30/30/30 5/5/5
f 30/30/30 6/6/6 5/5/5
f 7/7/7 31/31/31 32/32/32
f 8/8/8 7/7/7 32/32/32
f 33/33/33 34/34/34 35/35/35
f 36/36/36 34/34/34 33/33/33
f 37/37/37 38/38/38 39/39/39
f 37/37/37 39/39/39 40/40/40
f 41/41/41 15/15/15 42/42/42
f 41/41/41 13/13/13 15/15/15
f 14/14/14 43/43/43 44/44/44
f 14/14/14 44/44/44 16/16/16
f 45/45/45 46/46/46 47/47/47
f 45/45/45 47/47/47 48/48/48
f 49/49/49 50/50/50 51/51/51
f 49/49/49 51/51/51 52/52/52
f 53/53/53 54/54/54 55/55/55
f 53/53/53 55/55/55 56/56/56
f 54/54/54 57/57/57 58/58/58
f 54/54/54 58/58/58 55/55/55
f 59/59/59 60/60/60 61/61/61
f 59/59/59 61/61/61 62/62/62
f 63/63/63 64/64/64 65/65/65
f 63/63/63 65/65/65 66/66/66
f 67/67/67 17/17/17 20/20/20
f 67/67/67 20/20/20 68/68/68
f 69/69/69 70/70/70 71/71/71
f 72/72/72 70/70/70 69/69/69
f 73/73/73 74/74/74 75/75/75
f 76/76/76 74/74/74 73/73/73
f 77/77/77 78/78/78 79/79/79
f 80/80/80 78/78/78 77/77/77
f 81/81/81 82/82/82 83/83/83
f 81/81/81 83/83/83 84/84/84
f 85/85/85 86/86/86 87/87/87
f 85/85/85 87/87/87 88/88/88
f 89/89/89 90/90/90 91/91/91
f 89/89/89 91/91/91 92/92/92
f 93/93/93 94/94/94 95/95/95
f 93/93/93 95/95/95 96/96/96
f 97/97/97 98/98/98 99/99/99
f 97/97/97 100/100/100 98/98/98
f 101/101/101 102/102/102 103/103/103
f 101/101/101 104/104/104 102/102/102
f 105/105/105 106/106/106 107/107/107
f 105/105/105 108/108/108 106/106/106
f 109/109/109 110/110/110 111/111/111
f 109/109/109 111/111/111 112/112/112
f 113/113/113 114/114/114 115/115/115
f 113/113/113 115/115/115 116/116/116
f 117/117/117 118/118/118 119/119/119
f 117/117/117 119/119/119 120/120/120
f 68/68/68 20/20/20 19/19/19
f 68/68/68 19/19/19 121/121/121
f 122/122/122 123/123/123 124/124/124
f 125/125/125 122/122/122 124/124/124
f 126/126/126 127/127/127 128/128/128
f 129/129/129 126/126/126 128/128/128
f 130/130/130 131/131/131 132/132/132
f 133/133/133 130/130/130 132/132/132
f 134/134/134 135/135/135 136/136/136
f 137/137/137 135/135/135 134/134/134
f 138/138/138 139/139/139 140/140/140
f 141/141/141 139/139/139 138/138/138
f 142/142/142 143/143/143 144/144/144
f 145/145/145 143/143/143 142/142/142
f 94/94/94 146/146/146 147/147/147
f 93/93/93 146/146/146 94/94/94
f 148/148/148 149/149/149 150/150/150
f 151/151/151 149/149/149 148/148/148
f 152/152/152 153/153/153 154/154/154
f 155/155/155 153/153/153 152/152/152
f 156/156/156 157/157/157 158/158/158
f 159/159/159 157/157/157 156/156/156
f 160/160/160 161/161/161 162/162/162
f 160/160/160 163/163/163 161/161/161
f 164/164/164 165/165/165 166/166/166
f 164/164/164 167/167/167 165/165/165
f 168/168/168 169/169/169 170/170/170
f 168/168/168 171/171/171 169/169/169
f 18/18/18 121/121/121 19/19/19
f 18/18/18 172/172/172 121/121/121
f 173/173/173 174/174/174 175/175/175
f 173/173/173 175/175/175 176/176/176
f 177/177/177 178/178/178 179/179/179
f 177/177/177 179/179/179 180/180/180
f 181/181/181 182/182/182 183/183/183
f 181/181/181 183/183/183 184/184/184
f 185/185/185 186/186/186 187/187/187
f 185/185/185 188/188/188 186/186/186
f 189/189/189 190/190/190 191/191/191
f 189/189/189 192/192/192 190/190/190
f 193/193/193 194/194/194 195/195/195
f 193/193/193 196/196/196 194/194/194
f 147/147/147 197/197/197 198/198/198
f 147/147/147 146/146/146 197/197/197
f 199/199/199 200/200/200 201/201/201
f 200/200/200 202/202/202 201/201/201
f 203/203/203 204/204/204 205/205/205
f 204/204/204 206/206/206 205/205/205
f 207/207/207 208/208/208 209/209/209
f 208/208/208 210/210/210 209/209/209
f 211/211/211 212/212/212 213/213/213
f 214/214/214 212/212/212 211/211/211
f 215/215/215 216/216/216 217/217/217
f 218/218/218 216/216/216 215/215/215
f 219/219/219 220/220/220 221/221/221
f 222/222/222 220/220/220 219/219/219
f 17/17/17 172/172/172 18/18/18
f 67/67/67 172/172/172 17/17/17
f 223/223/223 224/224/224 225/225/225
f 223/223/223 225/225/225 226/226/226
f 227/227/227 228/228/228 229/229/229
f 227/227/227 229/229/229 230/230/230
f 231/231/231 232/232/232 233/233/233
f 231/231/231 233/233/233 234/234/234
f 235/235/235 236/236/236 237/237/237
f 235/235/235 237/237/237 238/238/238
f 239/239/239 240/240/240 241/241/241
f 239/239/239 241/241/241 242/242/242
f 243/243/243 244/244/244 245/245/245
f 243/243/243 245/245/245 246/246/246
f 96/96/96 95/95/95 198/198/198
f 96/96/96 198/198/198 197/197/197
f 95/95/95 247/247/247 248/248/248
f 94/94/94 247/247/247 95/95/95
f 94/94/94 249/249/249 247/247/247
f 94/94/94 147/147/147 249/249/249
f 249/249/249 147/147/147 250/250/250
f 250/250/250 147/147/147 198/198/198
f 248/248/248 250/250/250 198/198/198
f 95/95/95 248/248/248 198/198/198
f 251/251/251 252/252/252 253/253/253
f 251/251/251 254/254/254 252/252/252
f 255/255/255 256/256/256 257/257/257
f 255/255/255 257/257/257 258/258/258
f 259/259/259 260/260/260 261/261/261
f 259/259/259 261/261/261 262/262/262
f 263/263/263 264/264/264 265/265/265
f 265/265/265 264/264/264 266/266/266
f 267/267/267 268/268/268 251/251/251
f 251/251/251 268/268/268 254/254/254
f 269/269/269 270/270/270 271/271/271
f 272/272/272 269/269/269 271/271/271
f 273/273/273 261/261/261 274/274/274
f 273/273/273 262/262/262 261/261/261
f 275/275/275 276/276/276 277/277/277
f 275/275/275 277/277/277 278/278/278
f 279/279/279 280/280/280 281/281/281
f 281/281/281 280/280/280 282/282/282
f 283/283/283 284/284/284 285/285/285
f 285/285/285 284/284/284 286/286/286
f 287/287/287 288/288/288 289/289/289
f 289/289/289 288/288/288 290/290/290
f 291/291/291 292/292/292 293/293/293
f 293/293/293 292/292/292 294/294/294
f 295/295/295 296/296/296 297/297/297
f 295/295/295 298/298/298 296/296/296
f 299/299/299 300/300/300 301/301/301
f 299/299/299 302/302/302 300/300/300
f 247/247/247 303/303/303 248/248/248
f 247/247/247 304/304/304 303/303/303
f 305/305/305 306/306/306 307/307/307
f 308/308/308 305/305/305 307/307/307
f 309/309/309 310/310/310 311/311/311
f 312/312/312 309/309/309 311/311/311
f 313/313/313 314/314/314 315/315/315
f 316/316/316 313/313/313 315/315/315
f 317/317/317 318/318/318 319/319/319
f 320/320/320 317/317/317 319/319/319
f 321/321/321 322/322/322 323/323/323
f 323/323/323 322/322/322 324/324/324
f 325/325/325 326/326/326 327/327/327
f 327/327/327 326/326/326 328/328/328
f 247/247/247 249/249/249 304/304/304
f 304/304/304 249/249/249 329/329/329
f 330/330/330 331/331/331 332/332/332
f 330/330/330 333/333/333 331/331/331
f 334/334/334 335/335/335 336/336/336
f 334/334/334 337/337/337 335/335/335
f 338/338/338 339/339/339 340/340/340
f 338/338/338 341/341/341 339/339/339
f 342/342/342 343/343/343 344/344/344
f 342/342/342 345/345/345 343/343/343
f 346/346/346 347/347/347 348/348/348
f 346/346/346 348/348/348 349/349/349
f 350/350/350 351/351/351 352/352/352
f 350/350/350 352/352/352 353/353/353
f 329/329/329 249/249/249 250/250/250
f 329/329/329 250/250/250 354/354/354
f 355/355/355 356/356/356 357/357/357
f 355/355/355 357/357/357 358/358/358
f 359/359/359 360/360/360 361/361/361
f 359/359/359 361/361/361 362/362/362
f 363/363/363 364/364/364 365/365/365
f 363/363/363 365/365/365 366/366/366
f 367/367/367 368/368/368 369/369/369
f 367/367/367 369/369/369 370/370/370
f 371/371/371 372/372/372 373/373/373
f 371/371/371 374/374/374 372/372/372
f 375/375/375 376/376/376 377/377/377
f 375/375/375 378/378/378 376/376/376
f 248/248/248 354/354/354 250/250/250
f 248/248/248 303/303/303 354/354/354
f 379/379/379 380/380/380 381/381/381
f 382/382/382 383/383/383 384/384/384
f 383/383/383 382/382/382 385/385/385
f 385/385/385 382/382/382 386/386/386
f 387/387/387 388/388/388 389/389/389
f 388/388/388 387/387/387 390/390/390
f 391/391/391 392/392/392 393/393/393
f 392/392/392 391/391/391 394/394/394
f 395/395/395 396/396/396 397/397/397
f 396/396/396 395/395/395 398/398/398
f 398/398/398 395/395/395 399/399/399
f 400/400/400 401/401/401 402/402/402
f 401/401/401 400/400/400 403/403/403
f 404/404/404 405/405/405 406/406/406
f 405/405/405 404/404/404 407/407/407
f 408/408/408 409/409/409 410/410/410
f 409/409/409 408/408/408 411/411/411
f 412/412/412 413/413/413 414/414/414
f 413/413/413 412/412/412 415/415/415
f 398/398/398 384/384/384 396/396/396
f 384/384/384 398/398/398 382/382/382
f 416/416/416 417/417/417 418/418/418
f 417/417/417 419/419/419 420/420/420
f 419/419/419 417/417/417 416/416/416
f 379/379/379 421/421/421 380/380/380
f 421/421/421 379/379/379 422/422/422
f 421/421/421 422/422/422 419/419/419
f 419/419/419 422/422/422 420/420/420
f 423/423/423 424/424/424 425/425/425
f 424/424/424 423/423/423 426/426/426
f 426/426/426 423/423/423 427/427/427
f 426/426/426 427/427/427 428/428/428
f 401/401/401 429/429/429 402/402/402
f 429/429/429 401/401/401 430/430/430
f 431/431/431 390/390/390 387/387/387
f 390/390/390 431/431/431 432/432/432
