# SceneSmith visual LOD; original UVs retained
v -2.425 -0.025 0
v -1.141364 -0.025 0.9
v -1.141364 -0.025 2.1
v 2.425 -0.025 0
v -2.425 -0.025 0
v -2.425 0.025 0
v 2.425 -0.025 0
v -2.425 -0.025 2.6
v -2.425 -0.025 0
v -2.425 -0.025 2.6
v -2.425 0.025 2.6
v 0.4586357 -0.025 2.1
v -2.425 0.025 0
v -2.425 0.025 0
v -2.425 0.025 2.6
v -1.141364 0.025 0.9
v 0.4586357 0.025 0.9
v -1.141364 0.025 2.1
v -2.425 -0.025 2.6
v 2.425 0.025 2.6
v -2.425 0.025 2.6
v 2.425 0.025 2.6
v 0.4586357 -0.025 0.9
v 2.425 -0.025 2.6
v 2.425 -0.025 0
v 2.425 0.025 0
v 2.425 -0.025 2.6
v 2.425 -0.025 2.6
v 2.425 0.025 0
v 2.425 0.025 0
v 0.4586357 0.025 2.1
v 2.425 0.025 2.6
v -1.141364 -0.025 0.9
v 0.4586357 -0.025 0.9
v 0.4586357 0.025 0.9
v -1.141364 -0.025 0.9
v -1.141364 0.025 0.9
v -1.141364 -0.025 2.1
v -1.141364 0.025 2.1
v 0.4586357 -0.025 2.1
v -1.141364 -0.025 2.1
v -1.141364 0.025 0.9
v -1.141364 0.025 2.1
v 0.4586357 0.025 2.1
v 0.4586357 0.025 2.1
v 0.4586357 -0.025 0.9
v 0.4586357 -0.025 2.1
v 0.4586357 0.025 0.9
vt -4.85 0
vt -2.282728 1.8
vt -2.282728 4.2
vt 4.85 0
vt -4.85 -0.04999995
vt -4.85 0.05000001
vt 4.85 -0.04999995
vt -4.85 5.2
vt -0.05 0
vt -0.05 5.2
vt 0.05 5.2
vt 0.9172714 4.2
vt 0.05 0
vt -4.85 0
vt -4.85 5.2
vt -2.282728 1.8
vt 0.9172714 1.8
vt -2.282728 4.2
vt -4.85 -0.04999995
vt 4.85 0.05000001
vt -4.85 0.05000001
vt 4.85 5.2
vt 0.9172714 1.8
vt 4.85 5.2
vt -0.05 0
vt 0.05 0
vt -0.05 5.2
vt 4.85 -0.04999995
vt 4.85 0.05000001
vt 4.85 0
vt 0.9172714 4.2
vt 0.05 5.2
vt -2.282728 -0.04999995
vt 0.9172714 -0.04999995
vt 0.9172714 0.05000001
vt -0.05 1.8
vt 0.05 1.8
vt -0.05 4.2
vt -2.282728 0.05000001
vt 0.9172714 -0.04999995
vt -2.282728 -0.04999995
vt -2.282728 0.05000001
vt 0.05 4.2
vt 0.9172714 0.05000001
vt 0.05 4.2
vt -0.05 1.8
vt -0.05 4.2
vt 0.05 1.8
vn 0 -1 0
vn 0 -1 0
vn 0 -1 0
vn 0 -1 0
vn 0 0 -1
vn 0 0 -1
vn 0 0 -1
vn 0 -1 0
vn -1 0 0
vn -1 0 0
vn -1 0 0
vn 0 -1 0
vn -1 0 0
vn 0 1 0
vn 0 1 0
vn 0 1 0
vn 0 1 0
vn 0 1 0
vn 0 0 1
vn 0 0 1
vn 0 0 1
vn 0 1 0
vn 0 -1 0
vn 0 -1 0
vn 1 0 0
vn 1 0 0
vn 1 0 0
vn 0 0 1
vn 0 0 -1
vn 0 1 0
vn 0 1 0
vn 1 0 0
vn 0 0 1
vn 0 0 1
vn 0 0 1
vn 1 0 0
vn 1 0 0
vn 1 0 0
vn 0 0 -1
vn 0 0 -1
vn 0 0 -1
vn 0 0 1
vn 1 0 0
vn 0 0 -1
vn -1 0 0
vn -1 0 0
vn -1 0 0
vn -1 0 0
f 1/1/1 2/2/2 3/3/3
f 1/1/1 4/4/4 2/2/2
f 5/5/5 6/6/6 7/7/7
f 1/1/1 3/3/3 8/8/8
f 9/9/9 10/10/10 11/11/11
f 8/8/8 3/3/3 12/12/12
f 9/9/9 11/11/11 13/13/13
f 14/14/14 15/15/15 16/16/16
f 14/14/14 16/16/16 17/17/17
f 15/15/15 18/18/18 16/16/16
f 19/19/19 20/20/20 21/21/21
f 15/15/15 22/22/22 18/18/18
f 4/4/4 23/23/23 2/2/2
f 4/4/4 24/24/24 23/23/23
f 25/25/25 26/26/26 27/27/27
f 24/24/24 12/12/12 23/23/23
f 8/8/8 12/12/12 24/24/24
f 19/19/19 28/28/28 20/20/20
f 6/6/6 29/29/29 7/7/7
f 14/14/14 17/17/17 30/30/30
f 30/30/30 17/17/17 31/31/31
f 22/22/22 31/31/31 18/18/18
f 27/27/27 26/26/26 32/32/32
f 30/30/30 31/31/31 22/22/22
f 33/33/33 34/34/34 35/35/35
f 36/36/36 37/37/37 38/38/38
f 39/39/39 40/40/40 41/41/41
f 35/35/35 42/42/42 33/33/33
f 38/38/38 37/37/37 43/43/43
f 39/39/39 44/44/44 40/40/40
f 45/45/45 46/46/46 47/47/47
f 46/46/46 45/45/45 48/48/48
