# SceneSmith visual LOD; original UVs retained
v 0.125 0.09 0
v -0.125 0.09 0
v -0.125 0.09 0.002
v 0.125 0.09 0.002
v -0.125 -0.09 0
v 0.125 -0.09 0
v 0.125 -0.09 0.002
v -0.125 -0.09 0.002
v 0.125 -0.09 0
v 0.125 0.09 0
v 0.125 0.09 0.002
v 0.125 -0.09 0.002
v -0.125 0.09 0
v -0.125 -0.09 0
v -0.125 -0.09 0.002
v -0.125 0.09 0.002
v -0.125 -0.09 0.002
v 0.125 -0.09 0.002
v 0.125 0.09 0.002
v -0.125 0.09 0.002
v -0.125 0.09 0
v 0.125 0.09 0
v 0.125 -0.09 0
v -0.125 -0.09 0
vt 0 1
vt 0.5 1
vt 0.5 0.996
vt 0 0.996
vt 0 1
vt 0.5 1
vt 0.5 0.996
vt 0 0.996
vt 0 1
vt 0.36 1
vt 0.36 0.996
vt 0 0.996
vt 0 1
vt 0.36 1
vt 0.36 0.996
vt 0 0.996
vt 0 0.64
vt 0.5 0.64
vt 0.5 1
vt 0 1
vt 0 1
vt 0.5 1
vt 0.5 0.64
vt 0 0.64
vn 0 1 0
vn 0 1 0
vn 0 1 0
vn 0 1 0
vn 0 -1 0
vn 0 -1 0
vn 0 -1 0
vn 0 -1 0
vn 1 0 0
vn 1 0 0
vn 1 0 0
vn 1 0 0
vn -1 0 0
vn -1 0 0
vn -1 0 0
vn -1 0 0
vn 0 0 1
vn 0 0 1
vn 0 0 1
vn 0 0 1
vn 0 0 -1
vn 0 0 -1
vn 0 0 -1
vn 0 0 -1
f 1/1/1 2/2/2 3/3/3
f 1/1/1 3/3/3 4/4/4
f 5/5/5 6/6/6 7/7/7
f 5/5/5 7/7/7 8/8/8
f 9/9/9 10/10/10 11/11/11
f 9/9/9 11/11/11 12/12/12
f 13/13/13 14/14/14 15/15/15
f 13/13/13 15/15/15 16/16/16
f 17/17/17 18/18/18 19/19/19
f 17/17/17 19/19/19 20/20/20
f 21/21/21 22/22/22 23/23/23
f 21/21/21 23/23/23 24/24/24
