# SceneSmith visual LOD; original UVs retained
v -1.9 -0.025 0
v -1.44 -0.025 0
v -1.44 -0.025 2.1
v -1.9 -0.025 0
v -1.9 0.025 0
v -1.44 -0.025 0
v -1.9 -0.025 2.6
v -0.54 -0.025 2.1
v -1.9 -0.025 0
v -1.9 -0.025 2.6
v -1.9 0.025 2.6
v 1.9 -0.025 2.6
v -1.44 0.025 0
v -1.9 0.025 0
v -1.9 0.025 0
v -1.44 0.025 2.1
v -1.44 0.025 0
v -1.9 0.025 2.6
v -0.54 0.025 2.1
v -1.9 -0.025 2.6
v 1.9 0.025 2.6
v -1.9 0.025 2.6
v 1.9 0.025 2.6
v 1.9 -0.025 0
v -0.54 -0.025 0
v -0.54 0.025 0
v 1.9 -0.025 0
v -0.54 -0.025 0
v 1.9 -0.025 0
v 1.9 0.025 0
v 1.9 -0.025 2.6
v 1.9 -0.025 2.6
v 1.9 0.025 0
v -0.54 0.025 0
v 1.9 0.025 0
v 1.9 0.025 2.6
v -1.44 -0.025 0
v -1.44 0.025 0
v -1.44 -0.025 2.1
v -1.44 -0.025 2.1
v -1.44 0.025 2.1
v -0.54 -0.025 2.1
v -0.54 -0.025 0
v -0.54 -0.025 2.1
v -0.54 0.025 2.1
v -0.54 0.025 0
v -1.44 0.025 2.1
v -0.54 0.025 2.1
vt -3.8 0
vt -2.88 0
vt -2.88 4.2
vt -3.8 -0.04999995
vt -3.8 0.05000001
vt -2.88 -0.04999995
vt -3.8 5.2
vt -1.08 4.2
vt -0.05 0
vt -0.05 5.2
vt 0.05 5.2
vt 3.8 5.2
vt -2.88 0.05000001
vt 0.05 0
vt -3.8 0
vt -2.88 4.2
vt -2.88 0
vt -3.8 5.2
vt -1.08 4.2
vt -3.8 -0.04999995
vt 3.8 0.05000001
vt -3.8 0.05000001
vt 3.8 5.2
vt 3.8 -0.04999995
vt -1.08 -0.04999995
vt -1.08 0.05000001
vt 3.8 0
vt -1.08 0
vt -0.05 0
vt 0.05 0
vt -0.05 5.2
vt 3.8 -0.04999995
vt 3.8 0
vt -1.08 0
vt 3.8 0.05000001
vt 0.05 5.2
vt -0.05 0
vt 0.05 0
vt -0.05 4.2
vt -2.88 -0.04999995
vt -2.88 0.05000001
vt -1.08 -0.04999995
vt -0.05 0
vt -0.05 4.2
vt 0.05 4.2
vt 0.05 0
vt 0.05 4.2
vt -1.08 0.05000001
vn 0 -1 0
vn 0 -1 0
vn 0 -1 0
vn 0 0 -1
vn 0 0 -1
vn 0 0 -1
vn 0 -1 0
vn 0 -1 0
vn -1 0 0
vn -1 0 0
vn -1 0 0
vn 0 -1 0
vn 0 0 -1
vn -1 0 0
vn 0 1 0
vn 0 1 0
vn 0 1 0
vn 0 1 0
vn 0 1 0
vn 0 0 1
vn 0 0 1
vn 0 0 1
vn 0 1 0
vn 0 0 -1
vn 0 0 -1
vn 0 0 -1
vn 0 -1 0
vn 0 -1 0
vn 1 0 0
vn 1 0 0
vn 1 0 0
vn 0 0 1
vn 0 1 0
vn 0 1 0
vn 0 0 -1
vn 1 0 0
vn 1 0 0
vn 1 0 0
vn 1 0 0
vn 0 0 -1
vn 0 0 -1
vn 0 0 -1
vn -1 0 0
vn -1 0 0
vn -1 0 0
vn -1 0 0
vn 1 0 0
vn 0 0 -1
f 1/1/1 2/2/2 3/3/3
f 4/4/4 5/5/5 6/6/6
f 1/1/1 3/3/3 7/7/7
f 7/7/7 3/3/3 8/8/8
f 9/9/9 10/10/10 11/11/11
f 7/7/7 8/8/8 12/12/12
f 5/5/5 13/13/13 6/6/6
f 9/9/9 11/11/11 14/14/14
f 15/15/15 16/16/16 17/17/17
f 15/15/15 18/18/18 16/16/16
f 18/18/18 19/19/19 16/16/16
f 20/20/20 21/21/21 22/22/22
f 18/18/18 23/23/23 19/19/19
f 24/24/24 25/25/25 26/26/26
f 27/27/27 12/12/12 28/28/28
f 29/29/29 30/30/30 31/31/31
f 12/12/12 8/8/8 28/28/28
f 20/20/20 32/32/32 21/21/21
f 33/33/33 34/34/34 19/19/19
f 24/24/24 26/26/26 35/35/35
f 31/31/31 30/30/30 36/36/36
f 33/33/33 19/19/19 23/23/23
f 37/37/37 38/38/38 39/39/39
f 40/40/40 41/41/41 42/42/42
f 43/43/43 44/44/44 45/45/45
f 43/43/43 45/45/45 46/46/46
f 39/39/39 38/38/38 47/47/47
f 41/41/41 48/48/48 42/42/42
