# SceneSmith visual LOD; original UVs retained
v -0.00482404 0.1589487 1.526817
v 0.00588408 0.1590161 1.526748
v -0.00049828 0.159722 1.502661
v -0.05698429 0.1465549 1.526617
v -0.03229506 0.1530391 1.529349
v -0.00482404 0.1589487 1.526817
v -0.04297736 0.1504834 1.272846
v -0.03229506 0.1530391 1.529349
v 0.00588408 0.1590161 1.526748
v -0.00482404 0.1589487 1.526817
v -0.00126454 0.1588676 1.328481
v -0.00022605 0.1574067 1.272233
v -0.04297736 0.1504834 1.272846
v -0.00049828 0.159722 1.502661
v -0.00049828 0.159722 1.502661
v -0.00217102 0.1589986 1.412888
v -0.00217102 0.1589986 1.412888
v -0.00126454 0.1588676 1.328481
v -0.00217102 0.1589986 1.412888
v 0.00588408 0.1590161 1.526748
v -0.00126454 0.1588676 1.328481
v -0.00126454 0.1588676 1.328481
v -0.00022605 0.1574067 1.272233
v -0.00049828 0.159722 1.502661
v 0.04602475 0.1490989 1.272476
v 0.04926509 0.1470019 1.529312
v 0.06867805 0.1411389 1.526552
v -0.03229506 0.1530391 1.529349
v -0.02895928 0.1472831 1.526005
v -0.0031039 0.1510635 1.526413
v -0.03229506 0.1530391 1.529349
v -0.0031039 0.1510635 1.526413
v -0.0031039 0.1510635 1.526413
v 0.03067084 0.1467703 1.525294
v 0.00588408 0.1590161 1.526748
v 0.04926509 0.1470019 1.529312
v -0.1141974 0.1058671 1.528877
v -0.03229506 0.1530391 1.529349
v -0.05698429 0.1465549 1.526617
v -0.04711986 0.1418357 1.526583
v -0.02895928 0.1472831 1.526005
v 0.00016829 0.145842 0.02960186
v 0.04636371 0.1374881 0.00073869
v -0.02251191 0.1426202 0.0003857
v 0.03067084 0.1467703 1.525294
v 0.06026331 0.1348066 1.525172
v 0.07035376 0.1382851 1.272344
v -0.0964783 0.123665 1.526924
v -0.05698429 0.1465549 1.526617
v -0.06805403 0.1400733 1.27273
v -0.101752 0.1177004 1.272447
v -0.06095595 0.1345755 1.526029
v -0.06095595 0.1345755 1.526029
v -0.04711986 0.1418357 1.526583
v -0.04178889 0.1389653 0.03006444
v -0.02251191 0.1426202 0.0003857
v -0.05376177 0.1346377 0.00056283
v -0.04178889 0.1389653 0.03006444
v -0.09536429 0.1109644 0.03029765
v 0.00016829 0.145842 0.02960186
v 0.09763777 0.1061697 0.03140305
v 0.0503273 0.136553 0.02969765
v 0.0503273 0.136553 0.02969765
v -0.09422304 0.1134168 1.525964
v -0.06095595 0.1345755 1.526029
v -0.05376177 0.1346377 0.00056283
v -0.09342925 0.1113734 0.00063389
v -0.09536429 0.1109644 0.03029765
v 0.04926509 0.1470019 1.529312
v 0.06026331 0.1348066 1.525172
v 0.1050809 0.1036902 1.525538
v 0.06867805 0.1411389 1.526552
v 0.0503273 0.136553 0.02969765
v 0.09763777 0.1061697 0.03140305
v 0.04636371 0.1374881 0.00073869
v 0.09118103 0.1133362 0.00098465
v 0.1137619 0.1074084 1.526768
v 0.1137619 0.1074084 1.526768
v 0.1075012 0.1117224 1.272182
v 0.06867805 0.1411389 1.526552
v 0.1075012 0.1117224 1.272182
v -0.119009 0.08077026 0.03134397
v -0.1366712 0.07827242 1.526704
v -0.1141974 0.1058671 1.528877
v -0.1161016 0.09146907 1.525891
v -0.09422304 0.1134168 1.525964
v 0.1162374 0.08763427 0.02951691
v 0.1139593 0.08977889 0.00119171
v 0.09118103 0.1133362 0.00098465
v 0.1277549 0.08852292 1.272441
v -0.1167525 0.08781439 0.02961721
v -0.119009 0.08077026 0.03134397
v -0.09536429 0.1109644 0.03029765
v 0.09763777 0.1061697 0.03140305
v 0.1312073 0.05570125 0.03110594
v 0.1162374 0.08763427 0.02951691
v 0.1050809 0.1036902 1.525538
v 0.1218651 0.08483657 1.526688
v 0.1218651 0.08483657 1.526688
v 0.1390169 0.06937741 1.52913
v 0.1392098 0.07336207 1.526316
v 0.1139593 0.08977889 0.00119171
v 0.1162374 0.08763427 0.02951691
v 0.1286459 0.06483182 0.00100237
v 0.1392098 0.07336207 1.526316
v -0.1161016 0.09146907 1.525891
v -0.1319165 0.06786478 1.447787
v -0.1287936 0.07432035 1.333517
v -0.1287936 0.07432035 1.333517
v -0.1130408 0.09815021 1.278619
v -0.1287936 0.07432035 1.333517
v -0.1296478 0.07491721 1.278397
v -0.1366712 0.07827242 1.526704
v -0.1517788 0.04506191 1.52648
v -0.1406882 0.04894519 1.521494
v -0.1319165 0.06786478 1.447787
v 0.09763777 0.1061697 0.03140305
v -0.1348193 0.06116899 1.526122
v -0.1161016 0.09146907 1.525891
v -0.1348193 0.06116899 1.526122
v -0.1287936 0.07432035 1.333517
v -0.1319165 0.06786478 1.447787
v -0.1296478 0.07491721 1.278397
v 0.1218651 0.08483657 1.526688
v 0.1417732 0.04760714 1.526155
v 0.1392098 0.07336207 1.526316
v 0.1503958 0.04404363 1.27262
v 0.1277549 0.08852292 1.272441
v -0.1348193 0.06116899 1.526122
v -0.1167525 0.08781439 0.02961721
v -0.142885 0.02392675 0.03031851
v -0.119009 0.08077026 0.03134397
v 0.1312073 0.05570125 0.03110594
v 0.1425935 0.02236046 0.02994502
v 0.1343791 0.05204246 0.00108718
v 0.1286459 0.06483182 0.00100237
v 0.1286459 0.06483182 0.00100237
v 0.1390169 0.06937741 1.52913
v 0.1523723 0.04271396 1.526016
v -0.1482433 0.03462816 1.273049
v -0.1476888 0.02807395 1.526223
v -0.1348193 0.06116899 1.526122
v 0.00712553 0.0086339 0.03232234
v 0.1343791 0.05204246 0.00108718
v 0.144348 -0.00070039 0.00176689
v -0.1406882 0.04894519 1.521494
v -0.1476888 0.02807395 1.526223
v -0.02189586 0.03642226 1.435999
v 0.00123868 0.04784653 1.423639
v -0.01689899 0.04342391 1.407344
v -0.00101002 0.04742712 1.407636
v -0.01689899 0.04342391 1.407344
v -0.00101002 0.04742712 1.407636
v -0.00473086 0.04234548 1.395115
v -0.01689899 0.04342391 1.407344
v 0.00123868 0.04784653 1.423639
v 0.02138282 0.0364056 1.402143
v -0.00101002 0.04742712 1.407636
v -0.00101002 0.04742712 1.407636
v -0.00473086 0.04234548 1.395115
v 0.1390169 0.06937741 1.52913
v 0.1589288 0.01244275 1.526684
v 0.1523723 0.04271396 1.526016
v -0.01415027 0.00939952 0.03156278
v -0.01689899 0.04342391 1.407344
v -0.00473086 0.04234548 1.395115
v -0.01432476 0.03608413 1.389631
v -0.02189586 0.03642226 1.435999
v 0.00418657 0.02565152 1.456836
v 0.00123868 0.04784653 1.423639
v 0.01671164 0.03580711 1.440806
v 0.04066572 0.00651472 1.42826
v 0.02138282 0.0364056 1.402143
v 0.1417732 0.04760714 1.526155
v 0.1490104 0.031401 1.527049
v 0.1490104 0.031401 1.527049
v 0.1578537 0.00144999 1.272574
v -0.1521312 0.00534697 1.273309
v -0.03642132 0.02482223 1.408329
v -0.01432476 0.03608413 1.389631
v -0.01705216 0.02965849 1.383914
v -0.01432476 0.03608413 1.389631
v -0.00473086 0.04234548 1.395115
v -0.01705216 0.02965849 1.383914
v 0.00123868 0.04784653 1.423639
v 0.01671164 0.03580711 1.440806
v 0.1589288 0.01244275 1.526684
v -0.07809193 -0.1200599 0.03117417
v -0.01415027 0.00939952 0.03156278
v -0.01715473 0.01760086 1.456839
v 0.00418657 0.02565152 1.456836
v -0.1597575 0.00318163 1.526546
v -0.1505197 0.00252831 1.526432
v -0.1505197 0.00252831 1.526432
v -0.1476888 0.02807395 1.526223
v -0.1505197 0.00252831 1.526432
v 0.00418657 0.02565152 1.456836
v 0.02304627 0.0030795 1.456931
v 0.01671164 0.03580711 1.440806
v 0.02138282 0.0364056 1.402143
v 0.0348671 0.00099903 1.390535
v 0.02105362 0.00530391 1.374538
v 0.0348671 0.00099903 1.390535
v 0.1589288 0.01244275 1.526684
v 0.1598948 0.00236067 1.52831
v -0.01715473 0.01760086 1.456839
v 0.00116741 -0.00435125 1.465362
v 0.02304627 0.0030795 1.456931
v 0.04066572 0.00651472 1.42826
v 0.1490104 0.031401 1.527049
v 0.1505683 -0.00107431 1.526314
v -0.142885 0.02392675 0.03031851
v -0.00810251 0.00894967 1.363196
v -0.00453766 0.01127591 1.133913
v -0.00941331 0.00941303 1.327482
v -0.00941331 0.00941303 1.327482
v -0.00918526 0.00888534 1.262302
v -0.00918526 0.00888534 1.262302
v -0.00916752 0.00928289 0.7515569
v -0.00453766 0.01127591 1.133913
v -0.00454704 0.01150036 0.7909486
v -0.00916752 0.00928289 0.7515569
v -0.00454704 0.01150036 0.7909486
v -0.00882984 0.0088836 0.08937947
v -0.00882984 0.0088836 0.08937947
v 0.00252546 0.01148468 0.08932059
v -0.00882984 0.0088836 0.08937947
v -0.00780563 0.0078051 0.05385864
v -0.00780563 0.0078051 0.05385864
v 0.00252546 0.01148468 0.08932059
v -0.00826036 0.00806304 0.0335498
v -0.00826036 0.00806304 0.0335498
v -0.01415027 0.00939952 0.03156278
v -0.00826036 0.00806304 0.0335498
v 0.00684058 0.00914149 1.303294
v -0.00810251 0.00894967 1.363196
v 0.00830854 0.00391972 1.36358
v 0.00830854 0.00391972 1.36358
v 0.00999384 -0.00197907 1.260833
v 0.00684058 0.00914149 1.303294
v -0.00453766 0.01127591 1.133913
v 0.00792479 0.00956656 0.6913473
v 0.00999384 -0.00197907 1.260833
v 0.01110912 0.00475497 0.4494447
v 0.00792479 0.00956656 0.6913473
v 0.00792479 0.00956656 0.6913473
v 0.00809454 0.0096932 0.4163679
v 0.01110912 0.00475497 0.4494447
v 0.00809454 0.0096932 0.4163679
v 0.00809454 0.0096932 0.4163679
v 0.00774696 0.00916606 0.1629718
v 0.01110912 0.00475497 0.4494447
v 0.00774696 0.00916606 0.1629718
v 0.00712553 0.0086339 0.03232234
v 0.00774696 0.00916606 0.1629718
v 0.00712553 0.0086339 0.03232234
v 0.0426522 0.00094443 1.419247
v 0.0396753 -0.00390817 1.401619
v -0.03830532 -0.02145208 1.41233
v -0.04184927 0.00506743 1.42957
v -0.04083973 0.01640942 1.41911
v -0.01415027 0.00939952 0.03156278
v -0.0094117 -0.0089916 0.03239394
v -0.02448646 -0.02405934 1.448043
v -0.01715473 0.01760086 1.456839
v -0.01415027 0.00939952 0.03156278
v 0.00871058 -0.00180071 1.363753
v 0.01164772 -0.00247037 0.6824732
v 0.01164772 -0.00247037 0.6824732
v 0.01160425 -0.00242026 0.2130468
v 0.01160425 -0.00242026 0.2130468
v 0.01037276 -0.0080887 0.03210188
v 0.02051038 -0.01181117 1.456701
v 0.00631143 -0.00689847 1.363686
v 0.00744268 -0.00803992 1.339773
v 0.00871058 -0.00180071 1.363753
v 0.00744268 -0.00803992 1.339773
v 0.0074708 -0.00820917 1.303068
v 0.0074708 -0.00820917 1.303068
v 0.00723529 -0.00788056 1.259613
v 0.00723529 -0.00788056 1.259613
v 0.00999384 -0.00197907 1.260833
v 0.00999384 -0.00197907 1.260833
v 0.00723529 -0.00788056 1.259613
v 0.00719543 -0.00762623 1.184139
v 0.00719543 -0.00762623 1.184139
v 0.00745285 -0.00821783 1.128203
v 0.00745285 -0.00821783 1.128203
v 0.00745285 -0.00821783 1.128203
v 0.0082872 -0.00868335 0.6714512
v 0.0082872 -0.00868335 0.6714512
v 0.00817993 -0.00848505 0.2139522
v 0.01160425 -0.00242026 0.2130468
v 0.00817993 -0.00848505 0.2139522
v 0.00790258 -0.00796213 0.1622556
v 0.01160425 -0.00242026 0.2130468
v 0.00790258 -0.00796213 0.1622556
v 0.00756332 -0.00824011 0.05416864
v 0.00756332 -0.00824011 0.05416864
v 0.00116741 -0.00435125 1.465362
v 0.02051038 -0.01181117 1.456701
v 0.02304627 0.0030795 1.456931
v 0.1425935 0.02236046 0.02994502
v 0.1421966 -0.02374081 0.03008599
v 0.144348 -0.00070039 0.00176689
v 0.1505683 -0.00107431 1.526314
v 0.1586537 -0.01237765 1.527072
v 0.1598948 0.00236067 1.52831
v 0.1598948 0.00236067 1.52831
v 0.1586537 -0.01237765 1.527072
v 0.1578537 0.00144999 1.272574
v -0.0043758 -0.01116787 0.03259913
v 0.00116741 -0.00435125 1.465362
v -0.0017848 -0.02841059 1.455309
v 0.01037276 -0.0080887 0.03210188
v 0.1421966 -0.02374081 0.03008599
v -0.1428118 -0.05105438 1.52717
v -0.1505197 0.00252831 1.526432
v -0.1472369 -0.03054112 1.30958
v 0.00116741 -0.00435125 1.465362
v -0.02448646 -0.02405934 1.448043
v 0.0348671 0.00099903 1.390535
v 0.02932452 -0.02877299 1.399645
v 0.00631143 -0.00689847 1.363686
v 0.02888516 -0.03339754 1.425991
v 0.0396753 -0.00390817 1.401619
v 0.02888516 -0.03339754 1.425991
v 0.0426522 0.00094443 1.419247
v 0.03992174 -0.0132221 1.408831
v 0.02932452 -0.02877299 1.399645
v 0.1586537 -0.01237765 1.527072
v 0.1548119 -0.02776988 1.272538
v -0.1428118 -0.05105438 1.52717
v -0.1472369 -0.03054112 1.30958
v -0.1472369 -0.03054112 1.30958
v -0.1287919 -0.07609173 1.279081
v -0.1521312 0.00534697 1.273309
v 0.02051038 -0.01181117 1.456701
v 0.01646924 -0.04300623 1.427503
v 0.03992174 -0.0132221 1.408831
v 0.1173837 -0.08140986 0.03128767
v 0.1421966 -0.02374081 0.03008599
v 0.1347455 -0.05150539 0.00079914
v 0.144348 -0.00070039 0.00176689
v -0.0017848 -0.02841059 1.455309
v 0.02888516 -0.03339754 1.425991
v 0.02932452 -0.02877299 1.399645
v 0.14608 -0.03163843 1.525706
v 0.147633 -0.04369912 1.528945
v 0.1505683 -0.00107431 1.526314
v 0.147633 -0.04369912 1.528945
v -0.1422277 -0.05177972 1.273461
v -0.1521312 0.00534697 1.273309
v 0.14608 -0.03163843 1.525706
v 0.1343794 -0.06074715 1.526322
v 0.147633 -0.04369912 1.528945
v 0.147633 -0.04369912 1.528945
v 0.15132 -0.0454095 1.526213
v -0.1522671 -0.04474112 1.526438
v -0.1428118 -0.05105438 1.52717
v -0.1362686 -0.04824075 0.02957995
v -0.1348068 -0.06265293 1.525674
v -0.1472369 -0.03054112 1.30958
v -0.1348068 -0.06265293 1.525674
v -0.1318402 -0.07281265 1.273756
v -0.1422277 -0.05177972 1.273461
v 0.1343794 -0.06074715 1.526322
v 0.1216197 -0.08486183 1.526639
v 0.147633 -0.04369912 1.528945
v 0.1173837 -0.08140986 0.03128767
v 0.1347455 -0.05150539 0.00079914
v -0.1368406 -0.07881727 1.526337
v -0.1428118 -0.05105438 1.52717
v -0.1348068 -0.06265293 1.525674
v 0.0941005 -0.1104046 0.02981416
v 0.1221229 -0.07690886 0.00091323
v 0.1221229 -0.07690886 0.00091323
v 0.1101295 -0.1114634 1.526896
v 0.15132 -0.0454095 1.526213
v -0.1173197 -0.09505191 1.526594
v 0.1216197 -0.08486183 1.526639
v 0.1116849 -0.09214208 0.00084455
v 0.1221229 -0.07690886 0.00091323
v 0.1074207 -0.1050778 1.274117
v 0.1337569 -0.06887846 1.274066
v 0.1245327 -0.09248872 1.272439
v 0.15132 -0.0454095 1.526213
v 0.1101295 -0.1114634 1.526896
v 0.1245327 -0.09248872 1.272439
v 0.1454801 -0.05618457 1.272664
v -0.09843355 -0.1224225 1.52765
v -0.1173197 -0.09505191 1.526594
v -0.1362686 -0.04824075 0.02957995
v -0.1138386 -0.09031347 0.02939735
v -0.07809193 -0.1200599 0.03117417
v -0.08633865 -0.1221213 1.274677
v -0.1287919 -0.07609173 1.279081
v -0.1053313 -0.1080989 1.273589
v -0.1318402 -0.07281265 1.273756
v 0.0247733 -0.1414131 0.03078505
v 0.0941005 -0.1104046 0.02981416
v 0.1173837 -0.08140986 0.03128767
v -0.1173197 -0.09505191 1.526594
v -0.1053313 -0.1080989 1.273589
v -0.138111 -0.0719858 1.272858
v 0.09498259 -0.113268 1.525915
v 0.0941005 -0.1104046 0.02981416
v 0.08999892 -0.113503 0.00092366
v 0.1116849 -0.09214208 0.00084455
v -0.1173197 -0.09505191 1.526594
v -0.07299284 -0.1294165 1.525683
v 0.07018952 -0.1265911 0.02879238
v 0.0941005 -0.1104046 0.02981416
v 0.09498259 -0.113268 1.525915
v 0.06639586 -0.1410692 1.528768
v 0.0988318 -0.1126392 1.274932
v 0.1074207 -0.1050778 1.274117
v 0.1245327 -0.09248872 1.272439
v -0.08073131 -0.13537 1.527875
v -0.07299284 -0.1294165 1.525683
v -0.08633865 -0.1221213 1.274677
v -0.07638913 -0.1300401 1.27309
v -0.1053313 -0.1080989 1.273589
v 0.06132398 -0.1344171 1.525895
v 0.09498259 -0.113268 1.525915
v 0.06132398 -0.1344171 1.525895
v 0.09498259 -0.113268 1.525915
v 0.0988318 -0.1126392 1.274932
v 0.05288485 -0.1405364 1.27474
v -0.08633865 -0.1221213 1.274677
v -0.02769646 -0.1481079 1.278438
v -0.07638913 -0.1300401 1.27309
v 0.04902975 -0.1364063 0.02942017
v 0.07018952 -0.1265911 0.02879238
v 0.04600237 -0.1415907 1.520202
v -0.07299284 -0.1294165 1.525683
v -0.04931263 -0.1408871 1.525624
v -0.04931263 -0.1408871 1.525624
v -0.02372761 -0.1427691 0.02988075
v 0.06132398 -0.1344171 1.525895
v 0.02814033 -0.1490735 1.526841
v 0.06639586 -0.1410692 1.528768
v -0.0396483 -0.145821 1.273005
v 0.04600237 -0.1415907 1.520202
v 0.04459279 -0.1422987 1.358334
v 0.03096037 -0.1478872 1.277827
v 0.04459279 -0.1422987 1.358334
v 0.05288485 -0.1405364 1.27474
v 0.02661617 -0.156796 1.526799
v 0.06639586 -0.1410692 1.528768
v 0.05887793 -0.1445237 1.272483
v -0.04461396 -0.1518081 1.526704
v -0.04931263 -0.1408871 1.525624
v -0.02769646 -0.1481079 1.278438
v 0.00373673 -0.1519613 1.273233
v -0.0396483 -0.145821 1.273005
v 0.02661617 -0.156796 1.526799
v 0.00610056 -0.1504561 1.525926
v -0.02769646 -0.1481079 1.278438
v -0.02769646 -0.1481079 1.278438
v 0.00373673 -0.1519613 1.273233
v 0.00610056 -0.1504561 1.525926
v 0.00610056 -0.1504561 1.525926
v 0.02814033 -0.1490735 1.526841
v 0.04600237 -0.1415907 1.520202
v 0.00610056 -0.1504561 1.525926
v 0.02814033 -0.1490735 1.526841
v 0.03096037 -0.1478872 1.277827
v 0.05288485 -0.1405364 1.27474
v 0.00373673 -0.1519613 1.273233
v -0.04461396 -0.1518081 1.526704
v 0.00179448 -0.159722 1.527835
v -0.04297736 0.1504834 1.272846
v -0.00022605 0.1574067 1.272233
v -0.03508469 0.1460561 1.275629
v -0.06308872 0.1370223 1.272987
v -0.04297736 0.1504834 1.272846
v 0.0360386 0.1465037 1.273624
v 0.04602475 0.1490989 1.272476
v -0.06805403 0.1400733 1.27273
v -0.04297736 0.1504834 1.272846
v -0.02251191 0.1426202 0.0003857
v -0.0031039 0.1510635 1.526413
v -0.02895928 0.1472831 1.526005
v -0.03508469 0.1460561 1.275629
v 0.03397319 0.1459941 1.277421
v 0.03067084 0.1467703 1.525294
v 0.04602475 0.1490989 1.272476
v 0.07035376 0.1382851 1.272344
v -0.04711986 0.1418357 1.526583
v -0.03508469 0.1460561 1.275629
v 0.06026331 0.1348066 1.525172
v 0.03397319 0.1459941 1.277421
v -0.06095595 0.1345755 1.526029
v -0.09422304 0.1134168 1.525964
v -0.07757672 0.1271643 1.277972
v -0.06308872 0.1370223 1.272987
v -0.05376177 0.1346377 0.00056283
v -0.02251191 0.1426202 0.0003857
v 0.04636371 0.1374881 0.00073869
v -0.101752 0.1177004 1.272447
v -0.06805403 0.1400733 1.27273
v -0.06308872 0.1370223 1.272987
v -0.05376177 0.1346377 0.00056283
v -0.09342925 0.1113734 0.00063389
v 0.06026331 0.1348066 1.525172
v 0.1063577 0.1042971 1.277908
v 0.0360386 0.1465037 1.273624
v 0.1050809 0.1036902 1.525538
v 0.07035376 0.1382851 1.272344
v 0.1075012 0.1117224 1.272182
v -0.0964783 0.123665 1.526924
v -0.101752 0.1177004 1.272447
v -0.1320628 0.08357154 1.27282
v -0.09536429 0.1109644 0.03029765
v -0.09342925 0.1113734 0.00063389
v -0.1099935 0.09456537 0.00068627
v -0.1130408 0.09815021 1.278619
v -0.101752 0.1177004 1.272447
v -0.07757672 0.1271643 1.277972
v -0.1167525 0.08781439 0.02961721
v -0.1099935 0.09456537 0.00068627
v -0.1130408 0.09815021 1.278619
v -0.09422304 0.1134168 1.525964
v 0.1158965 0.09163933 1.425226
v 0.1050809 0.1036902 1.525538
v 0.1063577 0.1042971 1.277908
v 0.1277549 0.08852292 1.272441
v -0.1296478 0.07491721 1.278397
v -0.1320628 0.08357154 1.27282
v -0.101752 0.1177004 1.272447
v 0.09118103 0.1133362 0.00098465
v 0.1139593 0.08977889 0.00119171
v -0.1130408 0.09815021 1.278619
v -0.1099935 0.09456537 0.00068627
v -0.1414105 0.02608693 0.00032444
v 0.1218651 0.08483657 1.526688
v 0.1158965 0.09163933 1.425226
v 0.1158965 0.09163933 1.425226
v 0.1063577 0.1042971 1.277908
v 0.1280182 0.07621845 1.278325
v 0.1280182 0.07621845 1.278325
v -0.1517788 0.04506191 1.52648
v -0.1392604 0.07073563 1.272607
v -0.1392604 0.07073563 1.272607
v -0.1320628 0.08357154 1.27282
v -0.1414105 0.02608693 0.00032444
v -0.1099935 0.09456537 0.00068627
v -0.1320628 0.08357154 1.27282
v -0.1482433 0.03462816 1.273049
v -0.1392604 0.07073563 1.272607
v 0.1158965 0.09163933 1.425226
v 0.1139593 0.08977889 0.00119171
v 0.1286459 0.06483182 0.00100237
v -0.1308885 -0.05962613 0.00042419
v -0.1519797 0.04018363 1.272745
v -0.1519797 0.04018363 1.272745
v -0.1392604 0.07073563 1.272607
v -0.1482433 0.03462816 1.273049
v 0.1286459 0.06483182 0.00100237
v 0.1343791 0.05204246 0.00108718
v -0.1406882 0.04894519 1.521494
v 0.1498254 0.02478296 1.273404
v 0.1503958 0.04404363 1.27262
v -0.1597575 0.00318163 1.526546
v -0.1517788 0.04506191 1.52648
v -0.1519797 0.04018363 1.272745
v -0.01689899 0.04342391 1.407344
v 0.1343791 0.05204246 0.00108718
v 0.144348 -0.00070039 0.00176689
v 0.148983 0.01971363 1.522287
v 0.1280182 0.07621845 1.278325
v -0.02189586 0.03642226 1.435999
v -0.04083973 0.01640942 1.41911
v -0.03642132 0.02482223 1.408329
v -0.01402019 0.01988076 1.373004
v -0.01705216 0.02965849 1.383914
v 0.1347455 -0.05150539 0.00079914
v 0.1490104 0.031401 1.527049
v 0.1498254 0.02478296 1.273404
v -0.03742735 -0.00085998 1.391283
v -0.01402019 0.01988076 1.373004
v -0.00810251 0.00894967 1.363196
v 0.148983 0.01971363 1.522287
v 0.1498254 0.02478296 1.273404
v -0.1519797 0.04018363 1.272745
v -0.1482433 0.03462816 1.273049
v -0.1521312 0.00534697 1.273309
v -0.1570042 -0.01290243 1.272599
v -0.1519797 0.04018363 1.272745
v -0.1521312 0.00534697 1.273309
v -0.04083973 0.01640942 1.41911
v -0.03642132 0.02482223 1.408329
v -0.01715473 0.01760086 1.456839
v -0.04184927 0.00506743 1.42957
v -0.01402019 0.01988076 1.373004
v -0.01132138 0.00399687 1.363241
v 0.1498254 0.02478296 1.273404
v 0.1503958 0.04404363 1.27262
v 0.1578537 0.00144999 1.272574
v -0.1587006 0.00150189 1.31588
v -0.01402019 0.01988076 1.373004
v -0.00810251 0.00894967 1.363196
v 0.1505683 -0.00107431 1.526314
v 0.1490104 0.031401 1.527049
v 0.148983 0.01971363 1.522287
v 0.1466822 -0.03447901 1.274396
v -0.1587006 0.00150189 1.31588
v -0.1570042 -0.01290243 1.272599
v -0.01132138 0.00399687 1.363241
v -0.00810251 0.00894967 1.363196
v -0.00941331 0.00941303 1.327482
v -0.00941331 0.00941303 1.327482
v -0.00918526 0.00888534 1.262302
v -0.01132138 0.00399687 1.363241
v -0.00918526 0.00888534 1.262302
v -0.01190226 0.00451912 1.133713
v -0.01190226 0.00451912 1.133713
v -0.01255111 -0.00222953 0.6978583
v -0.01255111 -0.00222953 0.6978583
v -0.01206227 -0.00208298 0.09028815
v -0.00882984 0.0088836 0.08937947
v -0.01206227 -0.00208298 0.09028815
v -0.00882984 0.0088836 0.08937947
v -0.00780563 0.0078051 0.05385864
v -0.00780563 0.0078051 0.05385864
v 0.02200153 -0.1422606 0.00040415
v -0.03742735 -0.00085998 1.391283
v -0.02448646 -0.02405934 1.448043
v -0.04184927 0.00506743 1.42957
v -0.0094117 -0.0089916 0.03239394
v 0.00871058 -0.00180071 1.363753
v 0.00830854 0.00391972 1.36358
v 0.02105362 0.00530391 1.374538
v 0.00871058 -0.00180071 1.363753
v 0.02105362 0.00530391 1.374538
v 0.0348671 0.00099903 1.390535
v -0.00896096 -0.00716673 1.363652
v -0.01132138 0.00399687 1.363241
v -0.01035791 -0.00752478 1.107488
v -0.01035791 -0.00752478 1.107488
v -0.01255111 -0.00222953 0.6978583
v -0.01020877 -0.00798448 0.6284078
v -0.01020877 -0.00798448 0.6284078
v -0.0094117 -0.0089916 0.03239394
v 0.00871058 -0.00180071 1.363753
v 0.03992174 -0.0132221 1.408831
v 0.0426522 0.00094443 1.419247
v 0.1578537 0.00144999 1.272574
v 0.1548119 -0.02776988 1.272538
v -0.1570042 -0.01290243 1.272599
v -0.1597575 0.00318163 1.526546
v -0.1587006 0.00150189 1.31588
v -0.02684003 -0.03674958 1.417492
v -0.04184927 0.00506743 1.42957
v -0.03830532 -0.02145208 1.41233
v -0.03742735 -0.00085998 1.391283
v -0.00896096 -0.00716673 1.363652
v 0.00177959 -0.0111289 1.363822
v -0.00896096 -0.00716673 1.363652
v -0.00257573 -0.0127082 1.312452
v -0.00518144 -0.01097487 1.238705
v -0.00518144 -0.01097487 1.238705
v -0.00518144 -0.01097487 1.238705
v -0.00530455 -0.01132504 0.6744292
v -0.00530455 -0.01132504 0.6744292
v -0.00509672 -0.01057119 0.1624284
v -0.00509672 -0.01057119 0.1624284
v -0.0043758 -0.01116787 0.03259913
v 0.00169539 -0.01112894 0.9954661
v 0.00817993 -0.00848505 0.2139522
v 0.00631143 -0.00689847 1.363686
v 0.00177959 -0.0111289 1.363822
v -0.00257573 -0.0127082 1.312452
v 0.00631143 -0.00689847 1.363686
v 0.00744268 -0.00803992 1.339773
v 0.00744268 -0.00803992 1.339773
v 0.0074708 -0.00820917 1.303068
v -0.00518144 -0.01097487 1.238705
v 0.00723529 -0.00788056 1.259613
v 0.0074708 -0.00820917 1.303068
v 0.00723529 -0.00788056 1.259613
v 0.00723529 -0.00788056 1.259613
v 0.00719543 -0.00762623 1.184139
v 0.00169539 -0.01112894 0.9954661
v 0.00745285 -0.00821783 1.128203
v 0.00719543 -0.00762623 1.184139
v 0.00745285 -0.00821783 1.128203
v 0.00745285 -0.00821783 1.128203
v 0.00817993 -0.00848505 0.2139522
v 0.00790258 -0.00796213 0.1622556
v 0.00790258 -0.00796213 0.1622556
v 0.00756332 -0.00824011 0.05416864
v 0.00756332 -0.00824011 0.05416864
v -0.0043758 -0.01116787 0.03259913
v 0.00756332 -0.00824011 0.05416864
v 0.01037276 -0.0080887 0.03210188
v 0.1505683 -0.00107431 1.526314
v 0.14608 -0.03163843 1.525706
v -0.1362686 -0.04824075 0.02957995
v -0.142885 0.02392675 0.03031851
v -0.1308885 -0.05962613 0.00042419
v -0.03830532 -0.02145208 1.41233
v -0.01439973 -0.02725687 1.38021
v -0.00896096 -0.00716673 1.363652
v -0.00896096 -0.00716673 1.363652
v -0.00146153 -0.02254706 1.371166
v 0.00177959 -0.0111289 1.363822
v 0.00631143 -0.00689847 1.363686
v 0.1466822 -0.03447901 1.274396
v 0.1548119 -0.02776988 1.272538
v -0.01439973 -0.02725687 1.38021
v -0.00146153 -0.02254706 1.371166
v -0.00146153 -0.02254706 1.371166
v -0.00419882 -0.03326188 1.381494
v -0.01439973 -0.02725687 1.38021
v -0.00146153 -0.02254706 1.371166
v -0.00419882 -0.03326188 1.381494
v 0.02932452 -0.02877299 1.399645
v -0.02448646 -0.02405934 1.448043
v -0.01366805 -0.04289353 1.431352
v -0.00149325 -0.04067556 1.390566
v -0.01439973 -0.02725687 1.38021
v -0.0017848 -0.02841059 1.455309
v -0.01439973 -0.02725687 1.38021
v -0.00419882 -0.03326188 1.381494
v -0.1522671 -0.04474112 1.526438
v -0.1497411 -0.04672687 1.273355
v -0.02684003 -0.03674958 1.417492
v -0.00149325 -0.04067556 1.390566
v -0.0017848 -0.02841059 1.455309
v 0.00054239 -0.04812324 1.425048
v 0.00054239 -0.04812324 1.425048
v -0.00149325 -0.04067556 1.390566
v 0.02888516 -0.03339754 1.425991
v 0.1337569 -0.06887846 1.274066
v 0.1454801 -0.05618457 1.272664
v 0.1454801 -0.05618457 1.272664
v 0.1548119 -0.02776988 1.272538
v 0.1586537 -0.01237765 1.527072
v -0.1570042 -0.01290243 1.272599
v -0.1497411 -0.04672687 1.273355
v -0.1497411 -0.04672687 1.273355
v -0.1422277 -0.05177972 1.273461
v -0.01366805 -0.04289353 1.431352
v -0.02684003 -0.03674958 1.417492
v 0.00054239 -0.04812324 1.425048
v -0.00112137 -0.04625824 1.402214
v 0.01646924 -0.04300623 1.427503
v 0.00054239 -0.04812324 1.425048
v -0.00112137 -0.04625824 1.402214
v 0.01646924 -0.04300623 1.427503
v 0.15132 -0.0454095 1.526213
v 0.1466822 -0.03447901 1.274396
v 0.1337569 -0.06887846 1.274066
v -0.1522671 -0.04474112 1.526438
v -0.1275909 -0.08998123 1.274993
v -0.1497411 -0.04672687 1.273355
v -0.1422277 -0.05177972 1.273461
v -0.138111 -0.0719858 1.272858
v 0.1343794 -0.06074715 1.526322
v -0.1497411 -0.04672687 1.273355
v -0.138111 -0.0719858 1.272858
v -0.1368406 -0.07881727 1.526337
v -0.1275909 -0.08998123 1.274993
v -0.138111 -0.0719858 1.272858
v -0.1422277 -0.05177972 1.273461
v -0.1318402 -0.07281265 1.273756
v -0.1308885 -0.05962613 0.00042419
v -0.1224959 -0.07547045 0.00048645
v 0.1221229 -0.07690886 0.00091323
v 0.1245327 -0.09248872 1.272439
v 0.1337569 -0.06887846 1.274066
v -0.1224959 -0.07547045 0.00048645
v -0.1138386 -0.09031347 0.02939735
v -0.1224959 -0.07547045 0.00048645
v -0.0512732 -0.1345961 0.00044541
v 0.1074207 -0.1050778 1.274117
v 0.1216197 -0.08486183 1.526639
v 0.1116849 -0.09214208 0.00084455
v 0.1221229 -0.07690886 0.00091323
v -0.1138386 -0.09031347 0.02939735
v -0.1224959 -0.07547045 0.00048645
v -0.09913652 -0.1048205 0.00071651
v -0.1224959 -0.07547045 0.00048645
v -0.09913652 -0.1048205 0.00071651
v 0.08999892 -0.113503 0.00092366
v 0.1116849 -0.09214208 0.00084455
v -0.09843355 -0.1224225 1.52765
v -0.1368406 -0.07881727 1.526337
v -0.1275909 -0.08998123 1.274993
v -0.09033863 -0.1268219 1.272761
v -0.1275909 -0.08998123 1.274993
v -0.1053313 -0.1080989 1.273589
v -0.09033863 -0.1268219 1.272761
v -0.1138386 -0.09031347 0.02939735
v -0.09913652 -0.1048205 0.00071651
v -0.0512732 -0.1345961 0.00044541
v 0.08999892 -0.113503 0.00092366
v 0.07263346 -0.1245441 0.00086582
v 0.0941005 -0.1104046 0.02981416
v 0.07538197 -0.1367244 1.272586
v -0.07809193 -0.1200599 0.03117417
v 0.0988318 -0.1126392 1.274932
v 0.07538197 -0.1367244 1.272586
v 0.07018952 -0.1265911 0.02879238
v 0.07263346 -0.1245441 0.00086582
v -0.08073131 -0.13537 1.527875
v -0.09033863 -0.1268219 1.272761
v -0.09033863 -0.1268219 1.272761
v -0.07638913 -0.1300401 1.27309
v 0.07538197 -0.1367244 1.272586
v -0.0396483 -0.145821 1.273005
v -0.02372761 -0.1427691 0.02988075
v -0.0512732 -0.1345961 0.00044541
v 0.04600237 -0.1415907 1.520202
v 0.04459279 -0.1422987 1.358334
v 0.04902975 -0.1364063 0.02942017
v 0.02200153 -0.1422606 0.00040415
v 0.07263346 -0.1245441 0.00086582
v 0.07018952 -0.1265911 0.02879238
v 0.04902975 -0.1364063 0.02942017
v 0.07263346 -0.1245441 0.00086582
v 0.05887793 -0.1445237 1.272483
v 0.07538197 -0.1367244 1.272586
v -0.08073131 -0.13537 1.527875
v -0.04388906 -0.1498492 1.272593
v -0.0396483 -0.145821 1.273005
v -0.04388906 -0.1498492 1.272593
v 0.05887793 -0.1445237 1.272483
v -0.04388906 -0.1498492 1.272593
v -0.0396483 -0.145821 1.273005
v -0.04388906 -0.1498492 1.272593
v 0.0149964 -0.156148 1.272079
v 0.0247733 -0.1414131 0.03078505
v 0.0149964 -0.156148 1.272079
v 0.05887793 -0.1445237 1.272483
v 0.04902975 -0.1364063 0.02942017
v 0.00185968 -0.1574307 1.272259
v -0.04388906 -0.1498492 1.272593
v 0.0149964 -0.156148 1.272079
v 0.00185968 -0.1574307 1.272259
v 0.00179448 -0.159722 1.527835
v -0.00038087 -0.1592187 1.424187
v -0.00038087 -0.1592187 1.424187
v 0.00185968 -0.1574307 1.272259
v 0.0149964 -0.156148 1.272079
v 0.00179448 -0.159722 1.527835
v -0.00038087 -0.1592187 1.424187
v 0.02661617 -0.156796 1.526799
v 0.0149964 -0.156148 1.272079
vt 0.7263018 0.7288
vt 0.7263579 0.7403272
vt 0.7427053 0.73343
vt 0.2224255 0.6948583
vt 0.2246853 0.7223044
vt 0.2226579 0.7528187
vt 0.0502156 0.7107689
vt 0.06474755 0.3575047
vt 0.06747528 0.3984184
vt 0.06560628 0.3873879
vt 0.08799262 0.7568182
vt 0.04971997 0.7576
vt 0.0502156 0.7107689
vt 0.2062506 0.7576
vt 0.2062506 0.7576
vt 0.1452992 0.7558466
vt 0.1452992 0.7558466
vt 0.08799262 0.7568182
vt 0.8036322 0.7317849
vt 0.7263579 0.7403272
vt 0.8609139 0.7328489
vt 0.8609139 0.7328489
vt 0.899174 0.734367
vt 0.7427053 0.73343
vt 0.8988955 0.7852558
vt 0.7241903 0.7891983
vt 0.7264855 0.8111004
vt 0.06474755 0.3575047
vt 0.06962792 0.3591874
vt 0.07163525 0.3867052
vt 0.06474755 0.3575047
vt 0.07163525 0.3867052
vt 0.07163525 0.3867052
vt 0.08075422 0.4196057
vt 0.06747528 0.3984184
vt 0.08304634 0.4394996
vt 0.07809155 0.258706
vt 0.06474755 0.3575047
vt 0.06333794 0.3302754
vt 0.06954634 0.3390567
vt 0.06962792 0.3591874
vt 0.5521632 0.8027619
vt 0.5838491 0.8355944
vt 0.5364192 0.8349656
vt 0.08075422 0.4196057
vt 0.05815464 0.4012821
vt 0.8990093 0.814136
vt 0.222568 0.645561
vt 0.2224255 0.6948583
vt 0.05013908 0.6814705
vt 0.04987435 0.6379256
vt 0.07151215 0.322661
vt 0.07151215 0.322661
vt 0.06954634 0.3390567
vt 0.5232027 0.8019119
vt 0.5364192 0.8349656
vt 0.5144828 0.8345957
vt 0.500506 0.3232448
vt 0.4899391 0.26043
vt 0.4988402 0.3689415
vt 0.4576927 0.4615163
vt 0.4851301 0.4194044
vt 0.5869273 0.8035356
vt 0.07806157 0.2818123
vt 0.07151215 0.322661
vt 0.5144828 0.8345957
vt 0.4831396 0.8347015
vt 0.4817503 0.8018198
vt 0.08304634 0.4394996
vt 0.05815464 0.4012821
vt 0.03923958 0.35044
vt 0.05012302 0.4045414
vt 0.5869273 0.8035356
vt 0.707996 0.6331333
vt 0.5838491 0.8355944
vt 0.7301713 0.6432391
vt 0.03143303 0.350901
vt 0.7263673 0.8719481
vt 0.899112 0.8634285
vt 0.7264855 0.8111004
vt 0.899112 0.8634285
vt 0.4734699 0.2285056
vt 0.2223071 0.5799891
vt 0.2240779 0.6184443
vt 0.08721314 0.2519134
vt 0.07806157 0.2818123
vt 0.7092065 0.605396
vt 0.7298217 0.6084576
vt 0.7301713 0.6432391
vt 0.8989847 0.896712
vt 0.4780393 0.232282
vt 0.4734699 0.2285056
vt 0.4899391 0.26043
vt 0.4576927 0.4615163
vt 0.4192539 0.4846469
vt 0.4427918 0.4772273
vt 0.03923958 0.35044
vt 0.03370272 0.3246738
vt 0.03370272 0.3246738
vt 0.02690658 0.3020223
vt 0.7267265 0.9177881
vt 0.7298217 0.6084576
vt 0.7092065 0.605396
vt 0.7298113 0.5765676
vt 0.02479757 0.3060818
vt 0.7919385 0.1787238
vt 0.7725213 0.2627243
vt 0.7772168 0.3857151
vt 0.7772168 0.3857151
vt 0.7963514 0.445021
vt 0.7772168 0.3857151
vt 0.7769563 0.4449685
vt 0.08979258 0.2251449
vt 0.1072817 0.1971728
vt 0.7584591 0.183313
vt 0.7725213 0.2627243
vt 0.4576927 0.4615163
vt 0.1019217 0.2215874
vt 0.08721314 0.2519134
vt 0.7676988 0.178398
vt 0.1521829 0.9498516
vt 0.2300083 0.9410298
vt 0.1146408 0.9507298
vt 0.7680162 0.7264124
vt 0.03182119 0.2794405
vt 0.7267265 0.9177881
vt 0.8989699 0.9508028
vt 0.8989847 0.896712
vt 0.1019217 0.2215874
vt 0.6758053 0.6206314
vt 0.6768745 0.6957364
vt 0.4734699 0.2285056
vt 0.4192539 0.4846469
vt 0.7085878 0.5282913
vt 0.7296857 0.5611618
vt 0.7298113 0.5765676
vt 0.7298113 0.5765676
vt 0.7244659 0.9216403
vt 0.7269916 0.9537439
vt 0.1104522 0.9032166
vt 0.1197075 0.196011
vt 0.7676988 0.178398
vt 0.4067699 0.3434374
vt 0.7296857 0.5611618
vt 0.7290182 0.5048
vt 0.2801239 0.9178619
vt 0.2832412 0.8940939
vt 0.6607862 0.2881401
vt 0.6620331 0.3179864
vt 0.6454722 0.3079085
vt 0.6505534 0.3245065
vt 0.6454722 0.3079085
vt 0.6505534 0.3245065
vt 0.640279 0.3256
vt 0.6454722 0.3079085
vt 0.0050709 0.04210347
vt 0.01629156 0.03304166
vt 0.01103819 0.04698777
vt 0.01103819 0.04698777
vt 0.01656715 0.05097425
vt 0.02690658 0.3020223
vt 0.02952034 0.2372458
vt 0.02483231 0.2699964
vt 0.4104833 0.3213598
vt 0.6454722 0.3079085
vt 0.640279 0.3256
vt 0.6327798 0.316651
vt 0.6607862 0.2881401
vt 0.6827686 0.2915862
vt 0.6620331 0.3179864
vt 0.6801367 0.315679
vt 0.0135561 0.00542367
vt 0.01629156 0.03304166
vt 0.7965345 0.7256842
vt 0.0314079 0.2603692
vt 0.0314079 0.2603692
vt 0.899174 0.9976255
vt 0.1104706 0.8717158
vt 0.6381329 0.279189
vt 0.6327798 0.316651
vt 0.9505187 0.148
vt 0.01999011 0.05766726
vt 0.01656715 0.05097425
vt 0.02370639 0.05961823
vt 0.0050709 0.04210347
vt 0.00161837 0.02422673
vt 0.7265928 0.9872217
vt 0.334431 0.2235465
vt 0.4104833 0.3213598
vt 0.675323 0.2720001
vt 0.6827686 0.2915862
vt 0.1317143 0.1726933
vt 0.1348506 0.1824631
vt 0.1348506 0.1824631
vt 0.1197075 0.196011
vt 0.2833087 0.8664995
vt 0.6827686 0.2915862
vt 0.6327165 0.4057366
vt 0.6801367 0.315679
vt 0.01629156 0.03304166
vt 0.0280197 0.01648319
vt 0.03262103 0.02907681
vt 0.0280197 0.01648319
vt 0.7265928 0.9872217
vt 0.7255115 0.9981414
vt 0.675323 0.2720001
vt 0.694838 0.2624087
vt 0.6327165 0.4057366
vt 0.6127568 0.3853539
vt 0.0314079 0.2603692
vt 0.03898393 0.2274114
vt 0.4394622 0.1898714
vt 0.03634309 0.05333138
vt 0.1877009 0.05094874
vt 0.05610192 0.05577761
vt 0.05610192 0.05577761
vt 0.09935448 0.05606771
vt 0.09935448 0.05606771
vt 0.463856 0.05969858
vt 0.1877009 0.05094874
vt 0.4349227 0.05331999
vt 0.52009 0.1222053
vt 0.4349227 0.05331999
vt 0.9564447 0.06480002
vt 0.9564447 0.06480002
vt 0.9565067 0.05034357
vt 0.9564447 0.06480002
vt 0.9832542 0.06377977
vt 0.9832542 0.06377977
vt 0.9565067 0.05034357
vt 0.9985452 0.06399822
vt 0.9985452 0.06399822
vt 0.4104833 0.3213598
vt 0.00236884 0.106377
vt 0.07180411 0.03790832
vt 0.03634309 0.05333138
vt 0.03702122 0.03814912
vt 0.01302476 0.1508732
vt 0.08268868 0.1438679
vt 0.05394322 0.1576
vt 0.1877009 0.05094874
vt 0.5083219 0.03861606
vt 0.08268868 0.1438679
vt 0.6333821 0.150196
vt 0.5083219 0.03861606
vt 0.4692595 0.1562641
vt 0.7122214 0.04043061
vt 0.6333821 0.150196
vt 0.6558111 0.156854
vt 0.7122214 0.04043061
vt 0.9013746 0.04286319
vt 0.6333821 0.150196
vt 0.8276095 0.1572695
vt 0.9161189 0.1564995
vt 0.8276095 0.1572695
vt 0.999494 0.04490471
vt 0.01804651 0.00477856
vt 0.02535847 0.00879633
vt 0.9696704 0.1078814
vt 0.9782389 0.1305172
vt 0.9724579 0.1384367
vt 0.4104833 0.3213598
vt 0.3976477 0.3220416
vt 0.5189729 0.2140922
vt 0.675323 0.2720001
vt 0.4104833 0.3213598
vt 0.01292032 0.1443468
vt 0.4752913 0.1416061
vt 0.4752913 0.1416061
vt 0.7937251 0.1426893
vt 0.7937251 0.1426893
vt 0.916498 0.137203
vt 0.6394088 0.3941678
vt 0.6276992 0.9189689
vt 0.6118421 0.9331546
vt 0.6257389 0.9131592
vt 0.02913405 0.1367462
vt 0.05404903 0.1362854
vt 0.05404903 0.1362854
vt 0.08350698 0.1364679
vt 0.08350698 0.1364679
vt 0.08268868 0.1438679
vt 0.08268868 0.1438679
vt 0.08350698 0.1364679
vt 0.1347576 0.1364923
vt 0.1347576 0.1364923
vt 0.172735 0.1353745
vt 0.172735 0.1353745
vt 0.172735 0.1353745
vt 0.4993737 0.02873611
vt 0.4993737 0.02873611
vt 0.7931371 0.1347924
vt 0.7937251 0.1426893
vt 0.7931371 0.1347924
vt 0.8281675 0.1355332
vt 0.7937251 0.1426893
vt 0.8281675 0.1355332
vt 0.9013931 0.1360219
vt 0.9013931 0.1360219
vt 0.6492698 0.4129595
vt 0.6394088 0.3941678
vt 0.6327165 0.4057366
vt 0.7085878 0.5282913
vt 0.909785 0.8065138
vt 0.9298677 0.7818932
vt 0.03898393 0.2274114
vt 0.03618972 0.2125167
vt 0.03178843 0.2268946
vt 0.2654002 0.7608
vt 0.2663105 0.7448704
vt 0.4393232 0.7608
vt 0.3955095 0.3267077
vt 0.6492698 0.4129595
vt 0.535361 0.2145504
vt 0.3952251 0.3428848
vt 0.3650037 0.4774404
vt 0.1704528 0.1672018
vt 0.1348506 0.1824631
vt 0.1351217 0.8325543
vt 0.5365834 0.1848
vt 0.5189729 0.2140922
vt 0.6430976 0.8814326
vt 0.6588423 0.9046304
vt 0.6276992 0.9189689
vt 0.6349254 0.3534107
vt 0.6519405 0.8776
vt 0.6349254 0.3534107
vt 0.6108299 0.3731137
vt 0.6597568 0.8821176
vt 0.6588423 0.9046304
vt 0.2663105 0.7448704
vt 0.4394036 0.7291319
vt 0.2836705 0.8082667
vt 0.1351217 0.8325543
vt 0.1351217 0.8325543
vt 0.114154 0.7797129
vt 0.1104706 0.8717158
vt 0.6394088 0.3941678
vt 0.6459177 0.3486336
vt 0.6138055 0.3532881
vt 0.33061 0.437548
vt 0.3650037 0.4774404
vt 0.9303871 0.8374776
vt 0.9298677 0.7818932
vt 0.6577633 0.3856478
vt 0.6776587 0.9015114
vt 0.6588423 0.9046304
vt 0.04981096 0.1988088
vt 0.05130526 0.1854851
vt 0.03898393 0.2274114
vt 0.05130526 0.1854851
vt 0.1102685 0.8094425
vt 0.7501487 0.2369902
vt 0.04981096 0.1988088
vt 0.8725743 0.7258713
vt 0.05130526 0.1854851
vt 0.05130526 0.1854851
vt 0.0489361 0.181722
vt 0.1637945 0.1592
vt 0.1704528 0.1672018
vt 0.3906889 0.1792276
vt 0.2823121 0.7933739
vt 0.1351217 0.8325543
vt 0.2823121 0.7933739
vt 0.1104483 0.7843379
vt 0.1102685 0.8094425
vt 0.2797762 0.4327723
vt 0.8910164 0.7263489
vt 0.2764878 0.4557761
vt 0.9084008 0.8749949
vt 0.9303871 0.8374776
vt 0.1895261 0.1592227
vt 0.1704528 0.1672018
vt 0.1799449 0.1705214
vt 0.910116 0.9153007
vt 0.9303516 0.8680126
vt 0.9303516 0.8680126
vt 0.2984646 0.3791031
vt 0.279405 0.4584
vt 0.2864783 0.7952353
vt 0.2877482 0.4060076
vt 0.930458 0.8878785
vt 0.9303516 0.8680126
vt 0.9080123 0.455246
vt 0.5613161 0.3491837
vt 0.5571862 0.3227888
vt 0.2670353 0.7083238
vt 0.2669209 0.623783
vt 0.4397729 0.6514006
vt 0.4394532 0.6968194
vt 0.2280989 0.1763344
vt 0.2051837 0.1725092
vt 0.3906889 0.1792276
vt 0.3593612 0.1926945
vt 0.334431 0.2235465
vt 0.4584391 0.8381649
vt 0.4548662 0.7704982
vt 0.4592083 0.8128617
vt 0.4584208 0.7656
vt 0.3048078 0.3262249
vt 0.3147618 0.4064027
vt 0.33061 0.437548
vt 0.2864783 0.7952353
vt 0.6790795 0.1664919
vt 0.7117532 0.1774713
vt 0.2924768 0.3644147
vt 0.910116 0.9153007
vt 0.9305195 0.9206235
vt 0.930458 0.8878785
vt 0.2051837 0.1725092
vt 0.2873058 0.8554966
vt 0.9109942 0.9464
vt 0.3147618 0.4064027
vt 0.2924768 0.3644147
vt 0.2974414 0.3217288
vt 0.5641072 0.2894543
vt 0.5620369 0.3012879
vt 0.5571862 0.3227888
vt 0.2415889 0.1870091
vt 0.2401643 0.1984388
vt 0.4584391 0.8381649
vt 0.4596968 0.8516663
vt 0.6790795 0.1664919
vt 0.9444239 0.7257441
vt 0.2924768 0.3644147
vt 0.9444239 0.7257441
vt 0.9173704 0.7255788
vt 0.9157223 0.4561895
vt 0.9523757 0.4563433
vt 0.4584391 0.8381649
vt 0.4561 0.9071703
vt 0.4596968 0.8516663
vt 0.3041498 0.3528966
vt 0.3070866 0.3776538
vt 0.9559188 0.7197317
vt 0.2401643 0.1984388
vt 0.2548387 0.2151492
vt 0.2873916 0.8836806
vt 0.3110216 0.2749735
vt 0.2912541 0.3213544
vt 0.2873449 0.2824295
vt 0.2974414 0.3217288
vt 0.4598672 0.8941964
vt 0.2914011 0.9886222
vt 0.4016754 0.9861068
vt 0.4566 0.9704263
vt 0.4016754 0.9861068
vt 0.4585776 0.9952756
vt 0.2675464 0.5200782
vt 0.2656841 0.5663286
vt 0.4402117 0.559783
vt 0.2638447 0.2120425
vt 0.2548387 0.2151492
vt 0.4561 0.9071703
vt 0.6009689 0.1957323
vt 0.4598672 0.8941964
vt 0.2919262 0.2760868
vt 0.2873283 0.9445279
vt 0.4561 0.9071703
vt 0.4561 0.9071703
vt 0.459749 0.9409959
vt 0.2800539 0.2614223
vt 0.2873283 0.9445279
vt 0.2866372 0.9681025
vt 0.2914011 0.9886222
vt 0.2800539 0.2614223
vt 0.2873449 0.2824295
vt 0.4566 0.9704263
vt 0.4585776 0.9952756
vt 0.6009689 0.1957323
vt 0.4508803 0.5382264
vt 0.2843414 0.251833
vt 0.745773 0.4326937
vt 0.7243209 0.4645869
vt 0.8591635 0.4482927
vt 0.7518644 0.4084703
vt 0.745773 0.4326937
vt 0.6996081 0.4762969
vt 0.6951278 0.4850338
vt 0.7558418 0.4081305
vt 0.745773 0.4326937
vt 0.5364192 0.8349656
vt 0.8810279 0.178038
vt 0.8633494 0.1786016
vt 0.8591635 0.4482927
vt 0.9064558 0.4463198
vt 0.9041626 0.179327
vt 0.6951278 0.4850338
vt 0.6773742 0.4904
vt 0.8505077 0.177943
vt 0.8591635 0.4482927
vt 0.9258626 0.1794813
vt 0.9064558 0.4463198
vt 0.8399156 0.1785899
vt 0.8130118 0.1786796
vt 0.8275518 0.4457744
vt 0.8393181 0.4514469
vt 0.2758097 0.3233399
vt 0.2711771 0.2895144
vt 0.2471253 0.2258335
vt 0.7660371 0.3675698
vt 0.7558418 0.4081305
vt 0.8393181 0.4514469
vt 0.2758097 0.3233399
vt 0.2736845 0.3725718
vt 0.9258626 0.1794813
vt 0.9637203 0.4456469
vt 0.9077107 0.4505301
vt 0.9630919 0.1790196
vt 0.6773742 0.4904
vt 0.6463917 0.4904
vt 0.222568 0.645561
vt 0.04987435 0.6379256
vt 0.05003389 0.5884313
vt 0.4817503 0.8018198
vt 0.4831396 0.8347015
vt 0.4671053 0.8349929
vt 0.7963514 0.445021
vt 0.7660371 0.3675698
vt 0.8275518 0.4457744
vt 0.6758053 0.6206314
vt 0.6553644 0.6109832
vt 0.7963514 0.445021
vt 0.8130118 0.1786796
vt 0.9741903 0.2870308
vt 0.9630919 0.1790196
vt 0.7508967 0.4594554
vt 0.6260852 0.4827116
vt 0.7769563 0.4449685
vt 0.7697368 0.3186367
vt 0.7660371 0.3675698
vt 0.2187921 0.194356
vt 0.1975172 0.1837529
vt 0.7963514 0.445021
vt 0.2684753 0.3965229
vt 0.2362861 0.4594648
vt 0.7680162 0.7264124
vt 0.9741903 0.2870308
vt 0.7619019 0.6174579
vt 0.7508967 0.4594554
vt 0.7749529 0.4597256
vt 0.7749529 0.4597256
vt 0.2220546 0.5407079
vt 0.04985337 0.5725377
vt 0.7687598 0.3027915
vt 0.7697368 0.3186367
vt 0.655743 0.6934716
vt 0.6553644 0.6109832
vt 0.05003389 0.5884313
vt 0.7595704 0.2652599
vt 0.7687598 0.3027915
vt 0.7619019 0.6174579
vt 0.1975172 0.1837529
vt 0.1778507 0.1816
vt 0.1808553 0.4904
vt 0.04984713 0.536877
vt 0.7638618 0.2678404
vt 0.7687598 0.3027915
vt 0.7595704 0.2652599
vt 0.1778507 0.1816
vt 0.1683138 0.1822142
vt 0.7584591 0.183313
vt 0.5889235 0.4407351
vt 0.596139 0.4579152
vt 0.2219862 0.4947417
vt 0.2220546 0.5407079
vt 0.04984713 0.536877
vt 0.6454722 0.3079085
vt 0.1683138 0.1822142
vt 0.1330911 0.1977224
vt 0.8161393 0.7217095
vt 0.7749529 0.4597256
vt 0.6607862 0.2881401
vt 0.6453456 0.2629735
vt 0.6381329 0.279189
vt 0.02991582 0.05716658
vt 0.02370639 0.05961823
vt 0.1050978 0.2314435
vt 0.8083826 0.7271999
vt 0.812782 0.4540836
vt 0.9599006 0.1235218
vt 0.02991582 0.05716658
vt 0.03634309 0.05333138
vt 0.8161393 0.7217095
vt 0.812782 0.4540836
vt 0.7638618 0.2678404
vt 0.7595704 0.2652599
vt 0.7501487 0.2369902
vt 0.7457802 0.2176954
vt 0.7638618 0.2678404
vt 0.7501487 0.2369902
vt 0.9724579 0.1384367
vt 0.966367 0.1443089
vt 0.675323 0.2720001
vt 0.6528978 0.249649
vt 0.9456553 0.1392624
vt 0.9409238 0.1255435
vt 0.5889235 0.4407351
vt 0.596139 0.4579152
vt 0.5752457 0.4255126
vt 0.07898461 0.4941977
vt 0.9456553 0.1392624
vt 0.9402872 0.1307058
vt 0.8302581 0.7259254
vt 0.8083826 0.7271999
vt 0.8161393 0.7217095
vt 0.8529581 0.4553308
vt 0.07898461 0.4941977
vt 0.04908907 0.4792
vt 0.9409238 0.1255435
vt 0.9402872 0.1307058
vt 0.918815 0.1318353
vt 0.918815 0.1318353
vt 0.8757328 0.1307806
vt 0.9409238 0.1255435
vt 0.8757328 0.1307806
vt 0.788901 0.1232465
vt 0.788901 0.1232465
vt 0.4818083 0.1073105
vt 0.4818083 0.1073105
vt 0.0438351 0.095429
vt 0.04292316 0.1088197
vt 0.0438351 0.095429
vt 0.04292316 0.1088197
vt 0.01711155 0.1062561
vt 0.01711155 0.1062561
vt 0.08405317 0.3831496
vt 0.9599006 0.1235218
vt 0.5189729 0.2140922
vt 0.4938533 0.1997297
vt 0.00151822 0.08570349
vt 0.6257389 0.9131592
vt 0.6226122 0.9091905
vt 0.6298884 0.8945176
vt 0.6257389 0.9131592
vt 0.6298884 0.8945176
vt 0.6430976 0.8814326
vt 0.9410927 0.1143743
vt 0.9409238 0.1255435
vt 0.7708822 0.1090801
vt 0.7708822 0.1090801
vt 0.4818083 0.1073105
vt 0.4322296 0.09894532
vt 0.4322296 0.09894532
vt 0.00151822 0.08570349
vt 0.6257389 0.9131592
vt 0.02507469 0.00080001
vt 0.01804651 0.00477856
vt 0.5752457 0.4255126
vt 0.5654706 0.3981476
vt 0.6239651 0.7416934
vt 0.4513424 0.7608
vt 0.5945815 0.7577158
vt 0.5084705 0.2464803
vt 0.4938533 0.1997297
vt 0.4962511 0.2353893
vt 0.9599006 0.1235218
vt 0.9410927 0.1143743
vt 0.9782389 0.02269632
vt 0.9410927 0.1143743
vt 0.9093402 0.1037398
vt 0.8917161 0.01474875
vt 0.8601245 0.105131
vt 0.8917161 0.01474875
vt 0.4652043 0.09312505
vt 0.4652043 0.09312505
vt 0.1473458 0.01228637
vt 0.1473458 0.01228637
vt 0.00194749 0.07943374
vt 0.7234781 0.02169657
vt 0.1829602 0.02753764
vt 0.978137 0.02867711
vt 0.9782389 0.02269632
vt 0.9427177 0.01740015
vt 0.978137 0.02867711
vt 0.9615967 0.02960002
vt 0.9615967 0.02960002
vt 0.9362112 0.02950126
vt 0.8917161 0.01474875
vt 0.906157 0.02921104
vt 0.9362112 0.02950126
vt 0.906157 0.02921104
vt 0.906157 0.02921104
vt 0.8539582 0.02904046
vt 0.7234781 0.02169657
vt 0.8152717 0.02904898
vt 0.8539582 0.02904046
vt 0.8152717 0.02904898
vt 0.8152717 0.02904898
vt 0.1829602 0.02753764
vt 0.1472063 0.02722621
vt 0.1472063 0.02722621
vt 0.07245218 0.02652138
vt 0.07245218 0.02652138
vt 0.05755291 0.01262277
vt 0.07245218 0.02652138
vt 0.05718623 0.02960002
vt 0.8302581 0.7259254
vt 0.8512812 0.7251757
vt 0.6763982 0.7748275
vt 0.6768745 0.6957364
vt 0.6558915 0.7882295
vt 0.9696704 0.1078814
vt 0.9509923 0.1000714
vt 0.9410927 0.1143743
vt 0.9410927 0.1143743
vt 0.6370212 0.9342445
vt 0.6288572 0.925787
vt 0.6276992 0.9189689
vt 0.8529581 0.4553308
vt 0.5654706 0.3981476
vt 0.9509923 0.1000714
vt 0.943125 0.09925157
vt 0.6370212 0.9342445
vt 0.6466064 0.9416
vt 0.9509923 0.1000714
vt 0.943125 0.09925157
vt 0.9488344 0.0916816
vt 0.6588423 0.9046304
vt 0.5189729 0.2140922
vt 0.5235703 0.2427423
vt 0.9521716 0.08388335
vt 0.9509923 0.1000714
vt 0.535361 0.2145504
vt 0.9509923 0.1000714
vt 0.9488344 0.0916816
vt 0.4512888 0.7082543
vt 0.6233044 0.704216
vt 0.9698068 0.09162968
vt 0.9521716 0.08388335
vt 0.535361 0.2145504
vt 0.532009 0.2552
vt 0.6577633 0.3428095
vt 0.6551704 0.9409841
vt 0.6776587 0.9015114
vt 0.5613161 0.3491837
vt 0.5595889 0.3675326
vt 0.5595889 0.3675326
vt 0.5654706 0.3981476
vt 0.2663105 0.7448704
vt 0.6239651 0.7416934
vt 0.7283151 0.1923594
vt 0.7283151 0.1923594
vt 0.7221137 0.1926422
vt 0.9729874 0.07674599
vt 0.9698068 0.09162968
vt 0.9669963 0.06800002
vt 0.9571654 0.07756609
vt 0.6805967 0.9184852
vt 0.680668 0.9373008
vt 0.6642519 0.9416
vt 0.6805967 0.9184852
vt 0.2670353 0.7083238
vt 0.8529581 0.4553308
vt 0.8777856 0.4549686
vt 0.4512888 0.7082543
vt 0.6220498 0.6514804
vt 0.7283151 0.1923594
vt 0.7221137 0.1926422
vt 0.7117532 0.1774713
vt 0.8725743 0.7258713
vt 0.6233044 0.704216
vt 0.6236103 0.674089
vt 0.4512531 0.667868
vt 0.6220498 0.6514804
vt 0.7117532 0.1774713
vt 0.7221137 0.1926422
vt 0.7079161 0.1807903
vt 0.6558915 0.7882295
vt 0.6558405 0.8075731
vt 0.09345085 0.2557245
vt 0.5571862 0.3227888
vt 0.5613161 0.3491837
vt 0.6558405 0.8075731
vt 0.6760038 0.8264
vt 0.1686509 0.4899238
vt 0.1109846 0.4498389
vt 0.9080123 0.455246
vt 0.2877482 0.4060076
vt 0.08733976 0.2730409
vt 0.09345085 0.2557245
vt 0.03301205 0.7368
vt 0.1686509 0.4899238
vt 0.01372061 0.7595381
vt 0.1686509 0.4899238
vt 0.1436681 0.4815501
vt 0.0809074 0.3040904
vt 0.08733976 0.2730409
vt 0.4502712 0.6048545
vt 0.4512531 0.667868
vt 0.6220498 0.6514804
vt 0.623505 0.5945603
vt 0.6220498 0.6514804
vt 0.6790795 0.1664919
vt 0.6633217 0.1592
vt 0.03301205 0.7368
vt 0.01372061 0.7595381
vt 0.01389721 0.8207705
vt 0.0809074 0.3040904
vt 0.07945344 0.3260506
vt 0.910116 0.9153007
vt 0.4400367 0.5795472
vt 0.03491903 0.7873931
vt 0.5641072 0.2894543
vt 0.5670951 0.2535788
vt 0.9109942 0.9464
vt 0.930668 0.9427537
vt 0.4501128 0.5811136
vt 0.623505 0.5945603
vt 0.6633217 0.1592
vt 0.6542585 0.1650683
vt 0.5670951 0.2535788
vt 0.6275168 0.174009
vt 0.03398263 0.8517129
vt 0.01389721 0.8207705
vt 0.9559188 0.7197317
vt 0.9575918 0.546043
vt 0.03345123 0.9311289
vt 0.01386356 0.9011798
vt 0.01384427 0.9592
vt 0.03283194 0.9562511
vt 0.03345123 0.9311289
vt 0.01384427 0.9592
vt 0.5731058 0.2363933
vt 0.5670951 0.2535788
vt 0.4501128 0.5811136
vt 0.623638 0.5381871
vt 0.6275168 0.174009
vt 0.6282845 0.1678053
vt 0.5731058 0.2363933
vt 0.6282845 0.1678053
vt 0.6275168 0.174009
vt 0.6282845 0.1678053
vt 0.5929803 0.1988994
vt 0.03473786 0.9044445
vt 0.5929803 0.1988994
vt 0.4402117 0.559783
vt 0.03345123 0.9311289
vt 0.599797 0.1895969
vt 0.6282845 0.1678053
vt 0.5929803 0.1988994
vt 0.6239652 0.4878067
vt 0.4501138 0.4872
vt 0.5205823 0.4896799
vt 0.3374808 0.4919946
vt 0.4407761 0.4963771
vt 0.4407895 0.5106023
vt 0.2670099 0.4931555
vt 0.3374808 0.4919946
vt 0.2675464 0.5200782
vt 0.4407895 0.5106023
vn -0.006088383 0.9995039 0.03090254
vn -0.006088383 0.9995039 0.03090254
vn -0.006088383 0.9995039 0.03090254
vn -0.3387313 0.9407191 0.01756851
vn -0.2472921 0.8010567 0.545119
vn -0.08814617 0.9959775 0.01609544
vn -0.2363165 0.9700827 -0.05562436
vn -0.00755043 0.4232818 0.9059666
vn 0.2856233 0.03549801 0.9576843
vn -0.00755043 0.4232818 0.9059666
vn -0.09154477 0.9956416 -0.01781591
vn -0.1162512 0.9923612 -0.04129006
vn -0.2755501 0.9609526 -0.02534287
vn -0.1123174 0.9936572 -0.005492207
vn -0.1111595 0.9937848 -0.005936884
vn -0.1111595 0.9937848 -0.005936884
vn -0.1114652 0.9937646 -0.002738454
vn -0.1114652 0.9937646 -0.002738454
vn 0.08002375 0.9967475 -0.009523067
vn 0.1075201 0.9942027 0.000644174
vn 0.1000711 0.9949747 -0.003329474
vn 0.1011177 0.9947577 -0.01524124
vn 0.09805948 0.9946099 -0.03369742
vn 0.111191 0.9937679 -0.007868801
vn 0.3849364 0.9220955 -0.03954552
vn 0.2539233 0.7526823 0.6074473
vn 0.3855676 0.9226584 0.006249921
vn 0.05592982 -0.4772078 0.8770089
vn 0.05592982 -0.4772078 0.8770089
vn 0.05592982 -0.4772078 0.8770089
vn 0.05234314 -0.506173 0.860842
vn 0.05234314 -0.506173 0.860842
vn -0.0454695 -0.4464139 0.8936706
vn -0.1529317 -0.7089264 0.6885023
vn 0.07410534 0.6273369 0.7752141
vn -0.1033168 -0.4718443 0.8756076
vn 0.1118995 -0.1473192 0.9827388
vn 0.2318453 -0.3847914 0.893411
vn -0.261662 0.5975156 0.7579631
vn 0.1840494 -0.5254657 0.8306694
vn 0.1840494 -0.5254657 0.8306694
vn -0.09642522 0.9948327 -0.03178224
vn 0.2604995 0.9654636 -0.004481365
vn -0.132572 0.9904571 0.03767575
vn -0.2256326 -0.5825469 0.7808515
vn -0.2029292 -0.6507011 0.7317157
vn 0.5255456 0.8448725 -0.09996141
vn -0.5959719 0.8030053 0.0002999293
vn -0.389798 0.9208971 0.002464263
vn -0.3829083 0.9228448 -0.04169838
vn -0.5924036 0.8036214 -0.05701499
vn 0.1725167 -0.432334 0.8850567
vn 0.2055705 -0.457775 0.8649756
vn 0.2055705 -0.457775 0.8649756
vn -0.2170161 0.9760254 -0.01668506
vn -0.1583425 0.985867 0.05471707
vn -0.3133524 0.9493924 -0.02154698
vn -0.09502605 0.329487 0.9393659
vn -0.09737846 0.110531 0.9890907
vn -0.03266573 0.3844475 0.9225687
vn -0.0007664614 0.01061011 0.9999434
vn 0.1320452 0.4653396 0.8752275
vn 0.2406461 0.9705856 0.007275938
vn 0.3544761 -0.4606377 0.8137319
vn 0.2204658 -0.3923595 0.8929999
vn -0.4226843 0.9061852 -0.01290239
vn -0.5903197 0.8067048 -0.02738744
vn -0.6059925 0.7944669 -0.03994229
vn -0.2008686 -0.4217921 0.8841625
vn -0.2803268 -0.4212219 0.8625479
vn -0.3665192 -0.4521064 0.8131811
vn 0.141713 0.4278476 0.8926723
vn 0.3941166 0.9187397 -0.02427806
vn 0.5723479 0.5982535 0.5608124
vn 0.3820763 0.9240411 -0.01287426
vn 0.5572825 0.8296889 -0.03244187
vn 0.4278183 0.4147799 0.8030748
vn 0.7153101 0.6987824 -0.005876713
vn 0.6414855 0.7667405 -0.0246033
vn 0.5070048 0.8619411 0.00193107
vn 0.6298748 0.7759368 -0.03434793
vn -0.001771286 0.005935622 0.9999808
vn -0.8374988 0.5464277 0.003539643
vn -0.6723037 0.6400334 0.3719743
vn 0.3886253 -0.3149708 0.865889
vn 0.3361592 -0.416064 0.8449188
vn 0.7707562 0.6368728 -0.01810841
vn 0.7640013 0.6450917 -0.0126037
vn 0.7032075 0.7103193 -0.03075263
vn 0.7529012 0.6568421 -0.04121016
vn -0.3900805 0.3351863 0.8576056
vn -0.3900805 0.3351863 0.8576056
vn -0.3900805 0.3351863 0.8576056
vn 0.4388483 0.3564337 0.8248437
vn 0.01137663 0.0005920416 0.9999351
vn 0.4388483 0.3564337 0.8248437
vn -0.409445 -0.355506 0.8402203
vn -0.5164416 -0.3765439 0.7690922
vn -0.416862 -0.3211394 0.8503503
vn -0.2356127 -0.1910106 0.9528912
vn 0.8257334 0.5639997 0.008288144
vn 0.8426813 0.5377654 -0.02639271
vn 0.8431695 0.5369614 -0.02715796
vn 0.8879974 0.4579064 -0.04221668
vn 0.4996631 0.25886 0.8266367
vn 0.8121698 -0.5833147 -0.01114528
vn 0.8438066 -0.5364451 -0.01473501
vn 0.8426566 -0.5384479 -0.001953364
vn 0.8392742 -0.5437074 -0.001001533
vn 0.792204 -0.6097056 -0.02592229
vn 0.8298767 -0.5576267 -0.01889961
vn 0.8298767 -0.5576267 -0.01889961
vn -0.6038721 0.3435863 0.7192266
vn -0.5004125 0.1169979 0.8578455
vn 0.9023163 -0.4299956 -0.03047968
vn 0.8584979 -0.5128066 -0.003283717
vn 0.0006261489 0.001993788 0.9999978
vn 0.3946251 -0.2056898 0.8955237
vn 0.4532311 -0.3342489 0.826353
vn 0.888732 -0.4581358 0.01634053
vn 0.8800312 -0.4747328 -0.01318378
vn 0.9064056 -0.4223442 0.007362429
vn 0.8924984 -0.4506623 -0.01871184
vn -0.8441 -0.4977447 0.1993624
vn -0.4813142 -0.2680833 0.8345466
vn 0.9173463 0.3980786 0.003034373
vn 0.9250035 0.3771553 -0.04606802
vn 0.8494628 0.5263494 -0.03700202
vn 0.4311751 -0.1960462 0.8807122
vn -0.8412333 0.5398889 -0.02909488
vn -0.9788489 0.20348 -0.02122851
vn -0.002169838 0.004963374 0.9999853
vn 0.6501855 0.2902188 0.7021623
vn 0.9761146 0.2158707 -0.02449827
vn 0.9124108 0.4088954 -0.01763929
vn 0.9124108 0.4088954 -0.01763929
vn 0.9185949 0.3943664 -0.02566158
vn 0.764166 0.3470319 0.5437088
vn 0.9596927 0.2810359 0.002960386
vn 0.9168457 -0.3444147 -0.2019218
vn 0.4389813 -0.1456551 0.8866115
vn 0.9062725 -0.4226482 -0.00622272
vn 0.04182262 0.1626146 0.9858029
vn 0.947991 0.3181934 -0.008121564
vn 0.9841011 0.1166103 -0.1339665
vn 0.9284265 -0.3711434 -0.01663808
vn 0.9675109 -0.2428291 0.0704031
vn -0.3862361 0.793146 0.4708939
vn -0.01146749 0.9996319 -0.02458643
vn -0.5701739 0.817913 -0.0769422
vn -0.2423854 0.9674002 -0.07339107
vn -0.2423854 0.9674002 -0.07339107
vn -0.2271504 0.9240278 -0.307531
vn -0.2271504 0.9240278 -0.307531
vn -0.2271504 0.9240278 -0.307531
vn 0.3503342 0.9339194 0.07113749
vn 0.4584756 0.7960848 -0.3950304
vn 0.3133479 0.9324284 -0.1799735
vn 0.2691339 0.9114169 -0.3112655
vn 0.08244848 0.8584995 -0.5061432
vn -0.3538727 -0.1177592 0.9278507
vn 0.3853463 0.1828379 0.9044769
vn 0.6828544 0.287681 0.6715277
vn 0.007220561 0.005782874 0.9999572
vn -0.3281387 0.8548578 -0.4019243
vn -0.3281387 0.8548578 -0.4019243
vn -0.3281387 0.8548578 -0.4019243
vn -0.4412767 0.7160884 0.5408255
vn -0.08838137 0.6349609 0.7674721
vn -0.1128728 0.9307794 0.3477204
vn 0.2591895 0.7953354 0.547962
vn 0.9683076 0.2413544 0.06425311
vn 0.6951543 0.6981159 -0.1714488
vn -0.885825 -0.4636482 0.01855989
vn -0.5465699 -0.1882183 0.8159873
vn -0.3684793 -0.1725598 0.9134802
vn 0.995016 0.09794926 -0.01868293
vn 0.9739701 -0.1309676 -0.185013
vn -0.7523115 0.6171474 -0.2305569
vn -0.4050386 0.82234 -0.3996257
vn -0.5710653 0.5260888 -0.6301706
vn -0.3030326 0.7019844 -0.6445069
vn -0.1991505 0.8004143 -0.565399
vn -0.3030326 0.7019844 -0.6445069
vn 0.272758 0.9599858 -0.06348481
vn 0.58703 0.6200125 0.5205576
vn 0.9913554 0.1312037 -0.00006894828
vn -0.009076354 -0.01478033 0.9998496
vn 0.0007556066 -0.0002286595 0.9999997
vn -0.2383909 0.448398 0.8614575
vn -0.115524 0.5529873 0.825142
vn -0.1441657 0.4560234 0.8782135
vn 0.3968694 -0.04550692 0.9167463
vn 0.4341507 -0.04073801 0.8999187
vn 0.4341507 -0.04073801 0.8999187
vn 0.9695827 0.06505224 0.2359611
vn 0.2915808 0.420609 0.8591093
vn 0.4862846 0.2205435 0.8455104
vn 0.4791404 0.6270629 0.6141796
vn 0.7233223 0.6300544 -0.2825535
vn 0.8253745 0.2210599 -0.5195088
vn 0.5834274 0.3251755 -0.7442266
vn 0.9273259 0.08577576 -0.3642927
vn 0.9955408 0.09384135 -0.009607313
vn 0.9955408 0.09384135 -0.009607313
vn -0.4865068 0.2110137 0.8478115
vn -0.2052496 -0.003650153 0.9787028
vn 0.6545867 0.2564952 0.7111444
vn 0.9183855 0.1119982 0.3795055
vn -0.3574115 -0.03827382 0.9331625
vn -0.3574115 -0.03827382 0.9331625
vn -0.1840336 0.01378724 0.9828233
vn -0.3341098 0.917138 0.2173213
vn 0.0352326 0.9992394 0.01671333
vn -0.4318369 0.9013225 0.03368368
vn -0.4501329 0.8929182 -0.008803869
vn -0.4501329 0.8929182 -0.008803869
vn -0.4585412 0.888651 -0.006273476
vn -0.4366489 0.8996319 0.0005742511
vn -0.02210983 0.9997553 -0.000761556
vn -0.0005957853 0.9999996 0.0006133729
vn -0.8547219 0.5190855 -0.0008760094
vn -0.03727963 0.9993044 0.0009526515
vn -0.4440427 0.8960037 -0.001842091
vn -0.4679809 0.8837386 -0.0001815927
vn -0.0199521 0.9998004 -0.001071868
vn -0.4619216 0.8860083 -0.04022048
vn -0.4619216 0.8860083 -0.04022048
vn -0.3968914 0.9176357 0.02054147
vn -0.02536863 0.9988241 -0.04131552
vn -0.3968914 0.9176357 0.02054147
vn -0.4069189 0.9131005 0.02577795
vn -0.1192434 0.1090994 0.9868527
vn -0.8780021 0.4779647 0.02572969
vn 0.4034887 0.9149516 -0.007775186
vn -0.2412669 0.5724863 -0.7836133
vn 0.5764162 0.3876206 -0.719371
vn 0.8867993 0.4599022 0.04557451
vn 0.9925793 0.1213611 -0.00760464
vn 0.8521439 0.5232949 -0.003636347
vn 0.05822138 0.998224 0.0126196
vn 0.4046017 0.9144911 0.001891301
vn 0.9918081 0.1277353 -0.0005825188
vn 0.9972167 0.07455359 0.0007664298
vn 0.3870501 0.9220582 0.000975798
vn 0.844524 0.5355177 -0.0001216488
vn 0.374046 0.9274086 0.001688292
vn 0.8471161 0.5314037 0.002131229
vn 0.8471161 0.5314037 0.002131229
vn 0.3822285 0.9240671 0.00113048
vn 0.4059308 0.913892 -0.004652959
vn 0.9975438 0.06998225 0.002985242
vn 0.830923 0.5563871 0.0005950461
vn 0.8670778 0.4979805 0.01383842
vn 0.8339885 0.5517808 0.001054258
vn 0.07662424 0.9831669 -0.1658663
vn 0.9840798 0.162473 -0.0720381
vn 0.9335028 0.09237558 -0.3464669
vn -0.9394748 -0.27634 -0.2025421
vn -0.9934748 0.0767277 0.08438373
vn -0.9729056 0.2287119 -0.0338463
vn 0.03810517 -0.01082559 0.9992151
vn -0.2889526 -0.2953537 0.9106441
vn -0.6420962 -0.2839393 0.7121032
vn -0.5826105 0.2553645 0.7715919
vn -0.23598 0.0002427881 0.9717579
vn 0.9314359 -0.3611476 0.04471718
vn 0.9971474 0.0754419 0.00234406
vn 0.8797028 -0.4755239 -0.0001668239
vn 0.9989899 0.04490498 0.001612093
vn 0.8422207 -0.5391269 -0.002556581
vn 0.9965116 0.08016827 0.02318827
vn 0.6515231 -0.3262038 0.6849151
vn 0.9026886 -0.4256545 0.06302096
vn 0.9026886 -0.4256545 0.06302096
vn 0.9026886 -0.4256545 0.06302096
vn 0.8967869 -0.4424543 0.002727257
vn 0.8967869 -0.4424543 0.002727257
vn 0.9125039 -0.408989 -0.00803815
vn 0.9125039 -0.408989 -0.00803815
vn 0.9064208 -0.4223242 -0.006607644
vn 0.9064208 -0.4223242 -0.006607644
vn 0.9060664 -0.4231313 -0.001904383
vn 0.9060664 -0.4231313 -0.001904383
vn 0.9060664 -0.4231313 -0.001904383
vn 0.9080018 -0.4188778 0.008608895
vn 0.9080018 -0.4188778 0.008608895
vn 0.9055754 -0.4240791 0.00949351
vn 0.8981114 -0.439768 0.0001873563
vn 0.4508401 -0.8926037 0.001387315
vn 0.4357952 -0.9000458 -0.000428167
vn 0.8710401 -0.4911947 0.004117095
vn 0.8710401 -0.4911947 0.004117095
vn 0.8701263 -0.4927343 -0.009652285
vn 0.8701263 -0.4927343 -0.009652285
vn 0.8701263 -0.4927343 -0.009652285
vn 0.8483244 -0.5294753 -0.00130098
vn 0.8483244 -0.5294753 -0.00130098
vn 0.8830438 -0.4691412 -0.01184288
vn 0.2819302 -0.1129507 0.9527631
vn 0.4170707 -0.3234809 0.8493598
vn 0.4621366 0.1746514 0.8694404
vn 0.995554 0.08668393 -0.03685311
vn 0.9966483 -0.08141112 -0.00802873
vn 0.9950912 -0.0982647 0.01173023
vn -0.4740364 0.009254055 0.8804566
vn 0.3650447 -0.1084467 0.9246522
vn 0.04483776 0.003285738 0.9989889
vn 0.9964061 -0.08445413 0.006517466
vn 0.9964061 -0.08445413 0.006517466
vn 0.9974073 -0.068816 -0.0210493
vn -0.1307875 -0.2113157 0.968628
vn 0.1886899 -0.2621673 0.9463955
vn -0.2423361 -0.4662782 0.8507984
vn 0.0416022 -0.1656956 0.9852991
vn 0.6305768 -0.03177427 0.7754762
vn 0.4818927 0.1654035 0.8604772
vn 0.3950772 0.03323688 0.9180465
vn 0.9952576 0.09705804 -0.006491316
vn -0.222213 -0.1493084 0.963498
vn -0.4676832 -0.4946404 0.7325321
vn 0.8279929 -0.1016321 -0.5514514
vn 0.6625655 -0.5728308 -0.482568
vn 0.5155103 -0.3373595 -0.7876787
vn 0.7067676 -0.6096184 0.3589497
vn 0.9277117 -0.21288 -0.3066481
vn 0.7789282 -0.545049 0.3101493
vn 0.9795079 -0.1148628 0.1654412
vn 0.9023415 -0.3007775 -0.3087276
vn 0.799633 -0.432799 -0.4162597
vn 0.9897178 -0.1424288 0.01314279
vn 0.9865564 -0.1614152 -0.02552624
vn 0.9374021 0.2107186 0.2772634
vn 0.9959502 0.0898914 0.001636765
vn 0.9896495 0.1430108 -0.01190424
vn 0.9030794 0.4291212 -0.01739665
vn 0.9748701 0.06923704 -0.2117417
vn 0.5171426 -0.381747 0.7660501
vn 0.3526782 -0.8181276 0.4541865
vn 0.9448005 -0.3245442 -0.0449791
vn 0.00968049 0.003586111 0.9999467
vn 0.2726764 -0.04524127 0.9610415
vn 0.9540553 -0.2993765 -0.01233743
vn 0.9895092 -0.1347628 -0.0520617
vn 0.2185214 -0.6221017 0.751823
vn 0.6164635 -0.7816875 0.09453774
vn 0.7924892 -0.5797569 -0.1893222
vn -0.5475623 0.1505189 0.8231158
vn -0.5475623 0.1505189 0.8231158
vn -0.3976372 0.04169609 0.9165948
vn -0.3076017 0.1455386 0.9403189
vn 0.81524 0.2544879 -0.5202111
vn 0.3764755 0.02983298 -0.9259461
vn -0.4796588 0.16942 0.8609438
vn -0.8726656 0.4820277 0.07812741
vn -0.4796588 0.16942 0.8609438
vn 0.5005131 -0.2465888 0.8298678
vn 0.5005131 -0.2465888 0.8298678
vn -0.5539524 -0.1289329 0.8225041
vn 0.4235089 0.1096679 0.8992292
vn -0.4328091 -0.2052783 0.8778024
vn 0.8916043 0.4526998 -0.01023043
vn 0.9453268 0.3261031 -0.003739946
vn 0.8847466 0.4660467 0.004898888
vn 0.859593 0.4204588 -0.290369
vn 0.859593 0.4204588 -0.290369
vn -0.4202351 0.2150779 0.8815576
vn -0.8732458 0.4749468 0.1089373
vn -0.4348322 0.2030487 0.8773211
vn 0.6224766 -0.3674413 0.6910208
vn 0.9075512 -0.4192385 -0.02428645
vn -0.5710466 -0.3420365 0.7462686
vn 0.4412113 0.2191012 0.8702455
vn 0.4840893 0.2352893 0.8427909
vn 0.6674785 -0.7410522 -0.07289869
vn 0.8697809 -0.4930186 -0.02034485
vn 0.8809397 -0.4721715 -0.03161097
vn 0.3460802 -0.361068 0.8659437
vn 0.5527292 -0.124638 0.8239878
vn 0.8333585 0.5222737 0.1809523
vn -0.2853465 0.1172476 0.9512258
vn 0.8246758 -0.5649534 -0.02715505
vn 0.8246758 -0.5649534 -0.02715505
vn -0.7689305 0.6153318 -0.1735302
vn -0.3079416 0.1846285 -0.933319
vn -0.3079416 0.1846285 -0.933319
vn 0.9270527 -0.3749003 0.004805782
vn 0.6693519 -0.7429238 0.005675146
vn 0.802749 -0.5958533 -0.02351114
vn 0.9171857 -0.3966241 -0.03820734
vn -0.2962466 -0.4934393 0.8177748
vn 0.3738172 0.2490308 0.8934452
vn -0.3558393 -0.1138135 0.9275909
vn -0.4107428 -0.3071833 0.8584455
vn -0.006715686 -0.01609605 0.9998479
vn 0.6353459 0.7719874 -0.01925898
vn 0.824402 0.5562701 -0.1045225
vn 0.7095786 0.6733203 -0.2076969
vn 0.8182364 0.5616722 -0.12253
vn 0.007739014 -0.107781 0.9941446
vn 0.2588083 -0.2551713 0.9316146
vn 0.2588083 -0.2551713 0.9316146
vn 0.696025 0.6839545 0.21853
vn 0.3913419 0.3958885 -0.8307369
vn 0.1566186 0.1238813 -0.9798592
vn -0.3563029 0.3790503 0.8540311
vn 0.6927077 -0.7202153 -0.03802578
vn 0.5362535 -0.8435711 0.02863649
vn 0.7015954 -0.7123421 -0.0182364
vn 0.2877542 0.2562026 0.9227989
vn 0.4318106 0.9017894 0.01776
vn 0.5273105 -0.8484398 -0.04575526
vn 0.3689737 -0.5473404 0.7511836
vn -0.3545644 0.3741022 0.8569315
vn -0.1279603 0.1207421 0.9844021
vn -0.3310679 0.2788729 -0.9014565
vn -0.3310679 0.2788729 -0.9014565
vn -0.299561 0.2858668 -0.9102436
vn -0.1886285 -0.291985 0.9376374
vn 0.2653804 0.3840778 0.8843402
vn 0.4327486 0.6655809 -0.6080549
vn 0.4327486 0.6655809 -0.6080549
vn 0.05132353 0.08508544 -0.9950509
vn -0.4455356 0.8952128 -0.009597402
vn -0.2232877 0.3266218 0.9184012
vn -0.4313425 0.9013778 0.03823226
vn -0.61428 0.7890835 -0.002688423
vn -0.6245846 0.7799928 -0.03879812
vn -0.4007075 0.9145026 -0.05584337
vn 0.527095 0.8490131 -0.03670932
vn 0.3316471 0.9433052 -0.01361785
vn 0.3741227 0.8762088 -0.3037932
vn 0.3437502 -0.7011001 0.6247356
vn 0.3437502 -0.7011001 0.6247356
vn -0.4139158 0.9102712 -0.008945026
vn 0.1728103 0.435945 0.8832262
vn 0.2682693 0.4775113 0.8366687
vn 0.3142392 0.9491262 0.02032761
vn -0.1009969 -0.4036272 0.909332
vn -0.1734536 0.5666267 0.805511
vn -0.1681517 0.2985021 0.9394794
vn -0.0558594 0.2419681 0.968675
vn 0.3450458 0.9015887 -0.2609237
vn -0.3327722 0.9430069 -0.0008158982
vn -0.2871915 0.9578726 -0.001082353
vn -0.1231685 0.9908893 -0.05447917
vn -0.2949728 0.9554914 -0.005211973
vn -0.3217643 0.9462811 -0.03193475
vn 0.2700672 -0.9628396 -0.001880464
vn 0.3733805 -0.8126733 0.4473803
vn 0.3798659 -0.9244003 -0.03443937
vn -0.2497735 -0.6342426 0.7316759
vn 0.06533073 0.5208809 0.8511257
vn 0.2671176 0.9447582 -0.1899479
vn 0.02714861 0.3326693 -0.9426527
vn 0.2671176 0.9447582 -0.1899479
vn 0.08769879 -0.6148741 0.7837338
vn -0.1314639 0.9912032 0.01527596
vn 0.07935655 0.9966491 -0.01982317
vn 0.0786221 0.9672686 -0.2412674
vn 0.0786221 0.9672686 -0.2412674
vn 0.03954025 0.4986594 0.8658957
vn -0.07105558 0.9646702 0.2536978
vn -0.07105558 0.9646702 0.2536978
vn -0.3177842 0.9481047 0.01052076
vn -0.0631372 0.4013095 0.9137639
vn -0.0631372 0.4013095 0.9137639
vn -0.3217809 0.9250299 -0.2019323
vn -0.3386285 0.9107813 -0.2362374
vn -0.02345937 0.2063545 -0.978196
vn -0.2813545 -0.9595863 0.005806153
vn -0.1142085 -0.4814626 0.8689938
vn -0.0117465 -0.1733023 -0.9847986
vn 0.0003132351 0.1024092 -0.9947423
vn 0.2275071 -0.8661602 -0.4449799
vn 0.01338003 -0.06229593 -0.997968
vn 0.005934893 0.02178019 -0.9997452
vn -0.1305064 -0.4871109 -0.863534
vn 0.01732485 -0.03698791 -0.9991655
vn -0.004875659 0.02291843 -0.9997255
vn -0.004875659 0.02291843 -0.9997255
vn -0.2135169 0.9767088 -0.02122632
vn 0.1398129 -0.9807733 0.1361476
vn 0.2881837 -0.9551993 0.067413
vn 0.1614777 -0.9868565 -0.006261637
vn -0.1704521 -0.9852771 -0.01323482
vn -0.1832445 -0.9828995 0.01816381
vn 0.0222706 0.06176241 -0.9978424
vn -0.011543 -0.1333694 -0.9909992
vn 0.2886044 -0.9551818 0.06584207
vn 0.3185792 -0.947741 -0.01715305
vn -0.4378981 -0.8990105 -0.00502767
vn -0.3298913 -0.9439784 -0.00874185
vn 0.4643791 -0.8855994 0.008105678
vn 0.593811 -0.8044728 -0.01455687
vn 0.4611788 -0.8870655 -0.02071208
vn 0.3261763 -0.8827284 -0.33823
vn -0.006361016 0.002344358 -0.999977
vn -0.006202901 0.003036881 -0.9999762
vn 0.02605658 0.03722565 -0.9989671
vn 0.1105813 -0.154122 -0.9818443
vn 0.1105813 -0.154122 -0.9818443
vn 0.4698884 -0.8171127 -0.3339636
vn -0.002991538 0.0464136 -0.9989178
vn -0.02606455 0.02257207 -0.9994054
vn -0.4596272 -0.8880603 -0.009576661
vn -0.6465406 -0.7627776 -0.01246965
vn -0.3506542 -0.9227067 -0.1601686
vn -0.6694369 -0.729011 0.1428185
vn -0.2845144 -0.3509515 -0.8921236
vn -0.1424478 -0.1932724 -0.9707494
vn -0.6440842 0.7649537 0.001210158
vn -0.621578 0.7824685 -0.03719936
vn -0.7851899 0.6170157 -0.05261683
vn -0.7021261 0.7111421 -0.0359982
vn -0.7116369 0.7011811 -0.04379461
vn -0.7116369 0.7011811 -0.04379461
vn 0.7436262 -0.6679124 -0.03021934
vn 0.1092194 -0.1490605 -0.9827777
vn 0.5562552 -0.8141634 -0.1664876
vn -0.7596226 0.6498511 -0.02582554
vn -0.7596226 0.6498511 -0.02582554
vn 0.7195321 -0.6940839 -0.0228254
vn 0.6659607 -0.7458091 0.01628392
vn -0.7439919 -0.6680663 -0.01278597
vn -0.6569631 -0.7538726 0.00869815
vn -0.7657281 -0.6430229 -0.01349633
vn -0.1448262 -0.1373832 -0.9798731
vn 0.7267982 -0.577004 -0.3726001
vn 0.09668072 -0.06452147 -0.9932219
vn 0.2156465 -0.1913851 -0.9575324
vn 0.04457838 0.03432848 -0.9984159
vn 0.04457838 0.03432848 -0.9984159
vn 0.7893283 -0.6133438 -0.02775196
vn -0.02591896 0.02199467 -0.9994221
vn -0.0137834 0.002384388 -0.9999022
vn -0.7544268 -0.6512328 0.08207351
vn -0.7396961 -0.6729294 -0.003952926
vn -0.8090459 -0.5877331 -0.003817126
vn -0.7644519 -0.6445096 -0.01485528
vn -0.8115278 -0.5840726 -0.01678673
vn -0.7392564 -0.5964671 -0.3126132
vn -0.9295558 0.3686771 0.001797121
vn -0.9069445 0.4176417 -0.05501843
vn 0.10835 -0.04426566 -0.9931268
vn 0.10835 -0.04426566 -0.9931268
vn -0.9558211 0.1335854 -0.2618415
vn -0.7818755 0.6223087 -0.03745137
vn -0.8709123 0.4891456 -0.04741682
vn 0.1013066 -0.03736378 -0.9941534
vn 0.1783888 -0.04190825 -0.9830672
vn -0.8220352 -0.5694245 -0.003723257
vn 0.04546764 0.03434454 -0.9983752
vn 0.04546764 0.03434454 -0.9983752
vn -0.02409442 -0.01669042 -0.9995704
vn -0.9395326 0.3405044 -0.03653957
vn 0.04612019 -0.02368949 -0.998655
vn 0.04612019 -0.02368949 -0.998655
vn 0.04612019 -0.02368949 -0.998655
vn 0.04685832 0.01438216 -0.998798
vn 0.04685832 0.01438216 -0.998798
vn 0.795432 -0.605836 0.01583432
vn -0.06945961 -0.03856397 -0.9968391
vn -0.06945961 -0.03856397 -0.9968391
vn -0.994707 0.1027512 -0.0003934549
vn -0.9603069 0.2789213 0.003679924
vn -0.9692952 0.2445844 -0.02540114
vn -0.601378 0.7666256 -0.2250105
vn 0.05380832 0.02613218 -0.9982093
vn 0.3322836 0.005865339 -0.9431612
vn -0.9813782 -0.1920806 0.00137095
vn -0.8712068 -0.4906109 -0.01731163
vn -0.5375705 0.8095231 0.2359877
vn -0.9176496 0.3458668 0.1956918
vn -0.8064014 0.5878399 -0.06450613
vn -0.3237181 0.6581255 -0.6797628
vn -0.3237181 0.6581255 -0.6797628
vn 0.04109109 -0.02058651 -0.9989433
vn -0.8110362 -0.4580429 0.3638914
vn -0.896602 -0.2493697 -0.3659503
vn -0.8213738 0.144753 -0.551717
vn -0.2223808 0.6057101 -0.7639778
vn -0.09556215 0.5299889 -0.8426029
vn -0.997761 -0.06686762 0.001287339
vn -0.968403 -0.09528886 -0.2304681
vn 0.05687766 -0.01643197 -0.9982459
vn 0.05687766 -0.01643197 -0.9982459
vn 0.05687766 -0.01643197 -0.9982459
vn 0.01436215 -0.008666719 -0.9998593
vn 0.210026 -0.0167624 -0.9775521
vn 0.210026 -0.0167624 -0.9775521
vn -0.9182252 0.3893692 -0.07248445
vn -0.8755841 0.3885652 -0.2870011
vn -0.5976924 0.308281 0.7400855
vn -0.8994831 0.1419259 0.4132639
vn -0.6041416 0.474201 -0.6404267
vn -0.5397972 0.3439018 -0.7683427
vn -0.399581 -0.02550696 -0.916343
vn -0.0957958 -0.01570064 -0.9952772
vn -0.0957958 -0.01570064 -0.9952772
vn -0.9950566 0.09895169 -0.008427091
vn -0.5181725 0.3984942 -0.7567692
vn -0.5181725 0.3984942 -0.7567692
vn -0.9902987 -0.05043858 0.1294776
vn -0.9902987 -0.05043858 0.1294776
vn -0.9902987 -0.05043858 0.1294776
vn -0.9859564 0.1659254 -0.01893784
vn -0.9973534 0.06822309 -0.02513724
vn -0.7642981 0.04720498 -0.643133
vn -0.8377231 0.5447844 0.03781443
vn -0.8377231 0.5447844 0.03781443
vn -0.8377231 0.5447844 0.03781443
vn -0.8525017 0.5226746 -0.007214217
vn -0.8525017 0.5226746 -0.007214217
vn -0.8741734 0.484874 0.02679527
vn -0.8515767 0.5241814 -0.007139083
vn -0.9915751 0.1292113 0.009129019
vn -0.9969864 0.07757372 -0.0005652794
vn -0.9945568 0.1041911 0.0009970815
vn -0.9958797 0.0906591 -0.002115192
vn -0.9942331 0.1072247 -0.001820522
vn -0.8832031 0.4689829 -0.00271875
vn -0.9935215 0.1136202 -0.002346057
vn -0.8693883 0.4925061 -0.0400217
vn -0.8693883 0.4925061 -0.0400217
vn -0.8676198 0.4967397 0.02203687
vn 0.002773226 -0.01436764 -0.999893
vn -0.902671 -0.2157274 -0.372353
vn -0.7102216 -0.2977567 0.6379076
vn -0.9880301 -0.02843913 0.1516174
vn -0.9365024 -0.3466566 0.05284394
vn 0.6503622 0.02273381 -0.759284
vn 0.6503622 0.02273381 -0.759284
vn 0.6503622 0.02273381 -0.759284
vn 0.6460046 0.03521761 -0.7625206
vn 0.6460046 0.03521761 -0.7625206
vn 0.8442492 -0.124874 -0.5212003
vn -0.9068106 -0.4196476 0.03988079
vn -0.6747053 -0.01675612 -0.737897
vn -0.5912743 -0.8064595 0.004226162
vn -0.9380311 -0.3465506 -0.0005484646
vn -0.9940352 0.1090575 0.0006543418
vn -0.926528 -0.3762258 -0.00007319202
vn -0.9412846 -0.3376139 0.0004970919
vn -0.9085759 -0.4109717 0.07478029
vn 0.648468 -0.08722297 -0.7562284
vn 0.9881529 -0.1219103 -0.09322906
vn 0.9881529 -0.1219103 -0.09322906
vn -0.07718293 0.009258831 -0.9969739
vn -0.07718293 0.009258831 -0.9969739
vn -0.9911482 -0.1304515 -0.02465252
vn -0.9975663 -0.06800322 0.01539719
vn -0.9961628 -0.08721481 -0.007292896
vn -0.7759185 -0.6280357 0.05934452
vn -0.9218502 0.02948679 0.386423
vn -0.9486903 -0.3142166 0.03542022
vn -0.7906504 -0.1769052 -0.586154
vn -0.6155915 -0.2974046 -0.7297928
vn -0.09195886 -0.9787202 -0.1834404
vn -0.6275949 -0.7784213 -0.0135975
vn -0.4716756 -0.8816135 0.01672806
vn 0.02889657 -0.9995422 -0.008960843
vn -0.5717377 -0.8204301 -0.003231352
vn -0.3647081 -0.931114 -0.003833277
vn -0.5650586 -0.8250507 0.0003268053
vn -0.5514916 -0.8341786 -0.001781506
vn -0.07317229 -0.9972754 -0.009355632
vn -0.07081693 -0.997489 -0.0007272308
vn -0.6408218 -0.7676226 0.01015113
vn -0.04753466 -0.9988656 0.002821682
vn 0.4147293 -0.9099197 -0.006759594
vn 0.6696243 -0.7228255 -0.170665
vn 0.6696243 -0.7228255 -0.170665
vn 0.1696452 -0.9852188 0.02375712
vn 0.4738372 -0.8782591 0.0643377
vn 0.4738372 -0.8782591 0.0643377
vn 0.5668952 -0.823779 0.00423286
vn 0.5668952 -0.823779 0.00423286
vn -0.0477948 -0.9988483 0.004200224
vn 0.4404572 -0.8975678 -0.01922386
vn 0.5009885 -0.8654044 -0.009259324
vn 0.5009885 -0.8654044 -0.009259324
vn 0.4770022 -0.8788962 -0.003213611
vn 0.4770022 -0.8788962 -0.003213611
vn 0.4791468 -0.8777345 -0.0006813725
vn 0.4614447 -0.8871349 0.007781696
vn 0.4937486 -0.869529 0.01146875
vn 0.4937486 -0.869529 0.01146875
vn 0.4648924 -0.8853654 -0.00179137
vn 0.4470974 -0.894412 -0.01144579
vn 0.4470974 -0.894412 -0.01144579
vn 0.4444375 -0.8958094 0.0009088719
vn 0.4444375 -0.8958094 0.0009088719
vn 0.4419043 -0.8967714 0.02283891
vn 0.02058069 -0.9997849 0.002567563
vn 0.4754792 -0.8796233 0.0135036
vn 0.3792125 -0.9043812 0.1956845
vn -0.9775683 0.08695684 0.19183
vn -0.9587743 0.2587438 0.1174882
vn -0.9666588 -0.2559856 0.00649698
vn -0.994714 0.1018152 -0.01332863
vn -0.9366325 -0.3454833 -0.05797191
vn -0.8067454 -0.5156902 -0.2884882
vn -0.4848696 -0.4763084 -0.7335065
vn -0.5961108 -0.350014 -0.722594
vn -0.4924668 -0.4663213 -0.7348611
vn 0.2437701 -0.5726419 -0.7827243
vn 0.2437701 -0.5726419 -0.7827243
vn 0.3791949 -0.4325341 -0.8180009
vn -0.91901 0.2781391 -0.2793908
vn -0.1165031 0.005629704 -0.9931744
vn -0.3082559 -0.5884873 -0.7474362
vn -0.3082559 -0.5884873 -0.7474362
vn 0.2452969 -0.5897255 -0.76945
vn -0.01108944 -0.77588 -0.630783
vn -0.2786947 -0.6286312 -0.7260524
vn -0.2786947 -0.6286312 -0.7260524
vn -0.2786947 -0.6286312 -0.7260524
vn 0.6202331 -0.6526256 -0.4351906
vn -0.5293862 -0.6730882 0.5164325
vn -0.4485241 -0.7805653 0.4353666
vn -0.2947506 -0.814984 -0.498922
vn -0.5619934 -0.6256991 -0.5409843
vn -0.2545958 -0.6676489 0.6995899
vn -0.3437762 -0.7142926 -0.6095933
vn -0.3437762 -0.7142926 -0.6095933
vn -0.9679574 -0.251104 -0.002277734
vn -0.9270015 -0.3744493 -0.02135341
vn -0.5803666 -0.8097698 -0.0862989
vn -0.2346006 -0.879509 -0.4140367
vn -0.244716 -0.6757264 0.6953474
vn 0.006750209 -0.9225637 0.3857859
vn 0.244181 -0.9146234 0.3222417
vn 0.2113864 -0.8125858 -0.5431575
vn 0.6402467 -0.7655784 0.06303842
vn -0.2396151 0.08362605 -0.9672596
vn -0.1866813 0.04032709 -0.9815925
vn -0.09244325 0.02595451 -0.9953796
vn -0.09244325 0.02595451 -0.9953796
vn 0.9953657 -0.09615824 0.0008588491
vn -0.9961506 -0.08707915 -0.01006156
vn 0.04756324 -0.01852432 -0.9986964
vn 0.0004224529 -0.02041101 -0.9997916
vn 0.0004224529 -0.02041101 -0.9997916
vn -0.3770722 -0.9121733 0.1604878
vn -0.6143104 -0.7740776 0.1530576
vn -0.2165246 -0.9333818 0.2862088
vn -0.2821524 -0.904809 -0.3189211
vn 0.2895817 -0.9514385 0.1044379
vn 0.2895817 -0.9514385 0.1044379
vn 0.2360551 -0.928009 -0.2882314
vn 0.4206351 -0.9064352 0.03796424
vn 0.9541283 -0.2993914 0.002005481
vn -0.9377612 0.3469572 -0.0149847
vn -0.8328359 0.5334265 -0.1477852
vn -0.9257685 -0.3780861 0.001893271
vn -0.8458182 -0.512168 -0.1492499
vn 0.03960704 0.03788241 -0.9984969
vn 0.03960704 0.03788241 -0.9984969
vn 0.03960704 0.03788241 -0.9984969
vn -0.8793951 0.4712405 0.0677989
vn -0.8998215 -0.4114588 -0.1449924
vn -0.8998215 -0.4114588 -0.1449924
vn -0.8739915 -0.4859411 0.0003402097
vn -0.7676943 -0.6397353 -0.03720533
vn 0.1491991 0.05986696 -0.9869932
vn 0.1491991 0.05986696 -0.9869932
vn 0.1491991 0.05986696 -0.9869932
vn -0.8826432 -0.4677128 -0.0467524
vn -0.8826432 -0.4677128 -0.0467524
vn 0.03529213 -0.02220367 -0.9991304
vn -0.1649748 0.1318143 -0.9774499
vn -0.1649748 0.1318143 -0.9774499
vn -0.8418936 -0.5390798 -0.02466161
vn -0.8418936 -0.5390798 -0.02466161
vn -0.0211574 -0.02028102 -0.9995704
vn -0.02173124 -0.02945096 -0.99933
vn -0.6627359 0.7467631 -0.05591032
vn -0.3944964 0.2704037 0.878211
vn 0.03294239 -0.01806706 -0.9992939
vn 0.03294239 -0.01806706 -0.9992939
vn -0.7276063 -0.6854925 -0.02624947
vn -0.2279899 -0.188942 -0.9551552
vn -0.7276063 -0.6854925 -0.02624947
vn -0.02650914 -0.02893084 -0.9992298
vn -0.02650914 -0.02893084 -0.9992298
vn 0.03652444 -0.04077833 -0.9985004
vn 0.03652444 -0.04077833 -0.9985004
vn -0.6453581 -0.7637727 0.01281449
vn -0.8378872 -0.5458396 -0.002047194
vn -0.6771551 -0.5447508 -0.4946792
vn -0.6396784 -0.7677382 -0.0372766
vn -0.7563534 -0.6520309 -0.05277463
vn 0.2822316 0.2667379 -0.9215184
vn 0.2822316 0.2667379 -0.9215184
vn -0.7321664 -0.6804128 -0.03115636
vn -0.675344 -0.7373439 -0.01531068
vn -0.4326495 -0.9012166 -0.02496115
vn 0.06019659 -0.08946931 -0.9941688
vn 0.06019659 -0.08946931 -0.9941688
vn 0.6039119 -0.7969799 -0.01065236
vn 0.5668136 -0.8228524 -0.04044946
vn -0.4408858 -0.7036613 0.5572078
vn -0.3602022 0.4837843 -0.797626
vn -0.204587 0.2422362 -0.9484017
vn 0.5503568 -0.8348279 -0.01302925
vn 0.5503568 -0.8348279 -0.01302925
vn -0.541526 -0.8406816 -0.002035958
vn -0.5378268 -0.8420643 -0.04086735
vn 0.04208067 0.08302045 -0.995659
vn 0.04420585 0.0854518 -0.9953611
vn -0.06017519 0.1748988 -0.9827458
vn 0.08555669 0.3036832 -0.9489239
vn -0.2339455 -0.9720232 -0.02098787
vn -0.4257286 -0.9047256 -0.0150547
vn -0.6255198 0.7508808 0.2119033
vn -0.3678214 0.92989 -0.003461111
vn 0.4301636 -0.9025434 -0.01935771
vn 0.1070424 -0.9940118 0.02196419
vn 0.4301636 -0.9025434 -0.01935771
vn 0.4198838 -0.9070903 -0.02974416
vn 0.4198838 -0.9070903 -0.02974416
vn 0.4198838 -0.9070903 -0.02974416
vn -0.04762206 0.1137859 -0.9923633
vn -0.04762206 0.1137859 -0.9923633
vn -0.4929039 -0.8700803 0.002471993
vn -0.2433372 -0.9593437 -0.1429922
vn 0.0291752 0.07131759 -0.9970269
vn 0.0291752 0.07131759 -0.9970269
vn -0.04053936 0.1175356 -0.9922408
vn 0.02285624 0.0779362 -0.9966963
vn 0.02285624 0.0779362 -0.9966963
vn 0.02784644 0.3370545 -0.9410732
vn 0.02784644 0.3370545 -0.9410732
vn 0.07400132 -0.8133956 0.5769848
vn -0.01822232 0.1956179 -0.9805109
vn 0.3871915 -0.9212493 -0.03718062
vn 0.2449177 -0.9695252 0.00602338
vn -0.01130238 -0.02415992 -0.9996442
vn -0.01130238 -0.02415992 -0.9996442
vn -0.01130238 -0.02415992 -0.9996442
vn -0.06638058 -0.9952753 -0.070857
vn -0.06804692 -0.9976821 -0.00000500106
vn -0.1014417 -0.9948236 -0.005968145
vn 0.1020195 -0.9947758 -0.003639932
vn 0.09685663 -0.995052 -0.02214007
vn 0.09685663 -0.995052 -0.02214007
vn 0.1026141 -0.9946826 -0.008768612
vn 0.1003055 -0.9949477 -0.004222947
vn 0.1273753 -0.9918412 -0.005155615
vn 0.08946672 -0.9956956 -0.0242064
f 1/1/1 2/2/2 3/3/3
f 4/4/4 5/5/5 6/6/6
f 6/6/6 7/7/7 4/4/4
f 8/8/8 9/9/9 10/10/10
f 11/11/11 12/12/12 13/13/13
f 6/6/6 14/14/14 13/13/13
f 15/15/15 16/16/16 13/13/13
f 13/13/13 17/17/17 18/18/18
f 19/19/19 20/20/20 21/21/21
f 22/22/22 20/20/20 23/23/23
f 24/24/24 20/20/20 19/19/19
f 20/20/20 25/25/25 23/23/23
f 20/20/20 26/26/26 27/27/27
f 28/28/28 29/29/29 30/30/30
f 31/31/31 32/32/32 9/9/9
f 33/33/33 34/34/34 35/35/35
f 35/35/35 34/34/34 36/36/36
f 20/20/20 27/27/27 25/25/25
f 37/37/37 38/38/38 39/39/39
f 38/38/38 40/40/40 41/41/41
f 42/42/42 43/43/43 44/44/44
f 45/45/45 46/46/46 36/36/36
f 27/27/27 47/47/47 25/25/25
f 48/48/48 37/37/37 4/4/4
f 49/49/49 50/50/50 48/48/48
f 48/48/48 50/50/50 51/51/51
f 37/37/37 52/52/52 38/38/38
f 53/53/53 54/54/54 38/38/38
f 55/55/55 56/56/56 57/57/57
f 58/58/58 59/59/59 60/60/60
f 60/60/60 61/61/61 62/62/62
f 42/42/42 63/63/63 43/43/43
f 64/64/64 65/65/65 37/37/37
f 55/55/55 66/66/66 67/67/67
f 68/68/68 55/55/55 67/67/67
f 69/69/69 70/70/70 71/71/71
f 69/69/69 71/71/71 72/72/72
f 73/73/73 74/74/74 75/75/75
f 60/60/60 59/59/59 61/61/61
f 74/74/74 76/76/76 75/75/75
f 72/72/72 71/71/71 77/77/77
f 78/78/78 79/79/79 80/80/80
f 80/80/80 81/81/81 47/47/47
f 59/59/59 82/82/82 61/61/61
f 83/83/83 84/84/84 48/48/48
f 37/37/37 85/85/85 86/86/86
f 87/87/87 88/88/88 74/74/74
f 74/74/74 88/88/88 89/89/89
f 78/78/78 90/90/90 79/79/79
f 91/91/91 92/92/92 93/93/93
f 94/94/94 95/95/95 96/96/96
f 97/97/97 98/98/98 77/77/77
f 77/77/77 99/99/99 100/100/100
f 78/78/78 101/101/101 90/90/90
f 102/102/102 103/103/103 104/104/104
f 77/77/77 100/100/100 105/105/105
f 106/106/106 107/107/107 108/108/108
f 106/106/106 109/109/109 110/110/110
f 110/110/110 111/111/111 112/112/112
f 113/113/113 114/114/114 37/37/37
f 106/106/106 115/115/115 116/116/116
f 82/82/82 95/95/95 117/117/117
f 37/37/37 118/118/118 119/119/119
f 119/119/119 120/120/120 115/115/115
f 121/121/121 122/122/122 123/123/123
f 124/124/124 125/125/125 100/100/100
f 126/126/126 127/127/127 128/128/128
f 114/114/114 129/129/129 37/37/37
f 130/130/130 131/131/131 132/132/132
f 133/133/133 134/134/134 103/103/103
f 134/134/134 135/135/135 136/136/136
f 103/103/103 134/134/134 137/137/137
f 138/138/138 139/139/139 126/126/126
f 122/122/122 140/140/140 123/123/123
f 139/139/139 127/127/127 126/126/126
f 114/114/114 141/141/141 142/142/142
f 82/82/82 143/143/143 95/95/95
f 144/144/144 134/134/134 145/145/145
f 122/122/122 146/146/146 147/147/147
f 122/122/122 147/147/147 140/140/140
f 148/148/148 149/149/149 150/150/150
f 149/149/149 151/151/151 152/152/152
f 153/153/153 154/154/154 155/155/155
f 156/156/156 157/157/157 158/158/158
f 159/159/159 157/157/157 160/160/160
f 161/161/161 162/162/162 163/163/163
f 164/164/164 143/143/143 132/132/132
f 165/165/165 166/166/166 167/167/167
f 168/168/168 169/169/169 170/170/170
f 169/169/169 171/171/171 170/170/170
f 156/156/156 172/172/172 173/173/173
f 174/174/174 175/175/175 161/161/161
f 161/161/161 176/176/176 162/162/162
f 139/139/139 177/177/177 127/127/127
f 147/147/147 178/178/178 140/140/140
f 179/179/179 180/180/180 181/181/181
f 182/182/182 183/183/183 184/184/184
f 185/185/185 186/186/186 172/172/172
f 187/187/187 177/177/177 139/139/139
f 188/188/188 189/189/189 132/132/132
f 168/168/168 190/190/190 191/191/191
f 114/114/114 192/192/192 193/193/193
f 114/114/114 194/194/194 195/195/195
f 147/147/147 196/196/196 178/178/178
f 197/197/197 198/198/198 199/199/199
f 200/200/200 201/201/201 202/202/202
f 172/172/172 203/203/203 200/200/200
f 204/204/204 205/205/205 177/177/177
f 206/206/206 207/207/207 191/191/191
f 191/191/191 207/207/207 198/198/198
f 199/199/199 208/208/208 209/209/209
f 210/210/210 211/211/211 162/162/162
f 132/132/132 212/212/212 188/188/188
f 213/213/213 214/214/214 215/215/215
f 216/216/216 214/214/214 217/217/217
f 218/218/218 214/214/214 219/219/219
f 219/219/219 220/220/220 221/221/221
f 222/222/222 223/223/223 224/224/224
f 225/225/225 223/223/223 226/226/226
f 227/227/227 226/226/226 228/228/228
f 229/229/229 230/230/230 231/231/231
f 230/230/230 143/143/143 232/232/232
f 233/233/233 234/234/234 143/143/143
f 213/213/213 235/235/235 214/214/214
f 236/236/236 237/237/237 235/235/235
f 238/238/238 239/239/239 240/240/240
f 241/241/241 235/235/235 242/242/242
f 235/235/235 243/243/243 242/242/242
f 241/241/241 242/242/242 221/221/221
f 242/242/242 243/243/243 244/244/244
f 221/221/221 245/245/245 226/226/226
f 246/246/246 247/247/247 226/226/226
f 246/246/246 248/248/248 249/249/249
f 250/250/250 251/251/251 226/226/226
f 250/250/250 252/252/252 251/251/251
f 253/253/253 252/252/252 254/254/254
f 230/230/230 255/255/255 256/256/256
f 257/257/257 258/258/258 172/172/172
f 172/172/172 258/258/258 203/203/203
f 259/259/259 260/260/260 261/261/261
f 262/262/262 188/188/188 263/263/263
f 264/264/264 207/207/207 265/265/265
f 266/266/266 263/263/263 234/234/234
f 238/238/238 267/267/267 239/239/239
f 243/243/243 268/268/268 244/244/244
f 269/269/269 270/270/270 252/252/252
f 252/252/252 271/271/271 254/254/254
f 271/271/271 272/272/272 254/254/254
f 208/208/208 273/273/273 209/209/209
f 274/274/274 275/275/275 276/276/276
f 267/267/267 277/277/277 278/278/278
f 267/267/267 279/279/279 280/280/280
f 267/267/267 281/281/281 282/282/282
f 283/283/283 284/284/284 285/285/285
f 286/286/286 287/287/287 243/243/243
f 243/243/243 288/288/288 268/268/268
f 289/289/289 290/290/290 268/268/268
f 269/269/269 291/291/291 270/270/270
f 291/291/291 292/292/292 293/293/293
f 294/294/294 295/295/295 296/296/296
f 271/271/271 297/297/297 298/298/298
f 271/271/271 299/299/299 272/272/272
f 300/300/300 301/301/301 302/302/302
f 303/303/303 304/304/304 305/305/305
f 306/306/306 307/307/307 162/162/162
f 162/162/162 307/307/307 308/308/308
f 309/309/309 310/310/310 311/311/311
f 263/263/263 188/188/188 312/312/312
f 313/313/313 314/314/314 301/301/301
f 143/143/143 315/315/315 95/95/95
f 95/95/95 316/316/316 303/303/303
f 192/192/192 317/317/317 318/318/318
f 196/196/196 319/319/319 178/178/178
f 320/320/320 321/321/321 314/314/314
f 322/322/322 323/323/323 324/324/324
f 273/273/273 325/325/325 209/209/209
f 326/326/326 323/323/323 322/322/322
f 209/209/209 327/327/327 328/328/328
f 329/329/329 330/330/330 326/326/326
f 311/311/311 331/331/331 332/332/332
f 333/333/333 334/334/334 196/196/196
f 335/335/335 336/336/336 337/337/337
f 338/338/338 339/339/339 325/325/325
f 328/328/328 327/327/327 340/340/340
f 341/341/341 342/342/342 95/95/95
f 304/304/304 343/343/343 344/344/344
f 345/345/345 339/339/339 301/301/301
f 340/340/340 346/346/346 347/347/347
f 348/348/348 349/349/349 350/350/350
f 350/350/350 351/351/351 307/307/307
f 336/336/336 352/352/352 353/353/353
f 354/354/354 355/355/355 356/356/356
f 188/188/188 315/315/315 312/312/312
f 357/357/357 358/358/358 307/307/307
f 192/192/192 359/359/359 360/360/360
f 212/212/212 361/361/361 188/188/188
f 333/333/333 362/362/362 363/363/363
f 188/188/188 95/95/95 315/315/315
f 364/364/364 336/336/336 363/363/363
f 336/336/336 365/365/365 366/366/366
f 367/367/367 368/368/368 369/369/369
f 304/304/304 370/370/370 371/371/371
f 359/359/359 372/372/372 373/373/373
f 373/373/373 372/372/372 374/374/374
f 370/370/370 375/375/375 376/376/376
f 370/370/370 377/377/377 371/371/371
f 369/369/369 378/378/378 379/379/379
f 374/374/374 372/372/372 380/380/380
f 381/381/381 378/378/378 369/369/369
f 375/375/375 382/382/382 383/383/383
f 384/384/384 385/385/385 386/386/386
f 387/387/387 388/388/388 389/389/389
f 387/387/387 389/389/389 390/390/390
f 372/372/372 391/391/391 392/392/392
f 393/393/393 394/394/394 395/395/395
f 364/364/364 396/396/396 397/397/397
f 396/396/396 398/398/398 397/397/397
f 397/397/397 398/398/398 399/399/399
f 400/400/400 401/401/401 402/402/402
f 364/364/364 403/403/403 396/396/396
f 188/188/188 341/341/341 95/95/95
f 399/399/399 404/404/404 405/405/405
f 188/188/188 400/400/400 341/341/341
f 368/368/368 406/406/406 378/378/378
f 407/407/407 408/408/408 409/409/409
f 410/410/410 391/391/391 411/411/411
f 403/403/403 411/411/411 396/396/396
f 400/400/400 412/412/412 413/413/413
f 414/414/414 415/415/415 378/378/378
f 416/416/416 417/417/417 418/418/418
f 391/391/391 419/419/419 420/420/420
f 421/421/421 422/422/422 423/423/423
f 424/424/424 415/415/415 425/425/425
f 426/426/426 427/427/427 428/428/428
f 426/426/426 428/428/428 429/429/429
f 430/430/430 431/431/431 432/432/432
f 433/433/433 434/434/434 400/400/400
f 435/435/435 426/426/426 429/429/429
f 436/436/436 419/419/419 437/437/437
f 411/411/411 438/438/438 431/431/431
f 411/411/411 431/431/431 430/430/430
f 395/395/395 439/439/439 400/400/400
f 440/440/440 441/441/441 442/442/442
f 431/431/431 443/443/443 432/432/432
f 444/444/444 445/445/445 446/446/446
f 446/446/446 447/447/447 448/448/448
f 449/449/449 388/388/388 450/450/450
f 388/388/388 449/449/449 451/451/451
f 419/419/419 452/452/452 453/453/453
f 454/454/454 455/455/455 456/456/456
f 452/452/452 457/457/457 453/453/453
f 438/438/438 458/458/458 459/459/459
f 460/460/460 446/446/446 461/461/461
f 453/453/453 457/457/457 462/462/462
f 463/463/463 464/464/464 465/465/465
f 466/466/466 457/457/457 467/467/467
f 458/458/458 465/465/465 459/459/459
f 459/459/459 465/465/465 446/446/446
f 468/468/468 469/469/469 470/470/470
f 441/441/441 457/457/457 442/442/442
f 457/457/457 471/471/471 472/472/472
f 50/50/50 4/4/4 13/13/13
f 473/473/473 474/474/474 475/475/475
f 476/476/476 477/477/477 475/475/475
f 475/475/475 23/23/23 478/478/478
f 23/23/23 479/479/479 478/478/478
f 480/480/480 481/481/481 476/476/476
f 42/42/42 482/482/482 55/55/55
f 483/483/483 484/484/484 485/485/485
f 483/483/483 485/485/485 486/486/486
f 483/483/483 486/486/486 487/487/487
f 486/486/486 475/475/475 478/478/478
f 478/478/478 488/488/488 489/489/489
f 484/484/484 490/490/490 491/491/491
f 492/492/492 487/487/487 493/493/493
f 494/494/494 495/495/495 496/496/496
f 490/490/490 494/494/494 491/491/491
f 491/491/491 494/494/494 496/496/496
f 491/491/491 496/496/496 497/497/497
f 498/498/498 499/499/499 500/500/500
f 501/501/501 502/502/502 503/503/503
f 504/504/504 500/500/500 505/505/505
f 506/506/506 493/493/493 507/507/507
f 507/507/507 493/493/493 508/508/508
f 507/507/507 508/508/508 489/489/489
f 509/509/509 506/506/506 507/507/507
f 507/507/507 510/510/510 511/511/511
f 512/512/512 513/513/513 514/514/514
f 83/83/83 512/512/512 514/514/514
f 515/515/515 516/516/516 517/517/517
f 495/495/495 518/518/518 496/496/496
f 518/518/518 519/519/519 503/503/503
f 520/520/520 518/518/518 503/503/503
f 521/521/521 515/515/515 522/522/522
f 85/85/85 523/523/523 524/524/524
f 525/525/525 526/526/526 507/507/507
f 527/527/527 511/511/511 528/528/528
f 529/529/529 530/530/530 531/531/531
f 500/500/500 532/532/532 533/533/533
f 529/529/529 531/531/531 534/534/534
f 535/535/535 505/505/505 536/536/536
f 537/537/537 97/97/97 538/538/538
f 539/539/539 540/540/540 541/541/541
f 542/542/542 527/527/527 528/528/528
f 543/543/543 83/83/83 544/544/544
f 545/545/545 546/546/546 529/529/529
f 547/547/547 130/130/130 548/548/548
f 544/544/544 83/83/83 549/549/549
f 550/550/550 551/551/551 529/529/529
f 124/124/124 552/552/552 174/174/174
f 174/174/174 552/552/552 541/541/541
f 500/500/500 553/553/553 554/554/554
f 131/131/131 130/130/130 547/547/547
f 505/505/505 500/500/500 555/555/555
f 543/543/543 544/544/544 556/556/556
f 557/557/557 558/558/558 559/559/559
f 536/536/536 505/505/505 555/555/555
f 500/500/500 560/560/560 561/561/561
f 142/142/142 141/141/141 562/562/562
f 563/563/563 128/128/128 564/564/564
f 565/565/565 566/566/566 567/567/567
f 568/568/568 180/180/180 179/179/179
f 500/500/500 569/569/569 570/570/570
f 571/571/571 174/174/174 572/572/572
f 573/573/573 568/568/568 574/574/574
f 574/574/574 568/568/568 575/575/575
f 576/576/576 577/577/577 183/183/183
f 183/183/183 157/157/157 202/202/202
f 500/500/500 570/570/570 578/578/578
f 579/579/579 174/174/174 571/571/571
f 572/572/572 528/528/528 580/580/580
f 581/581/581 179/179/179 181/181/181
f 582/582/582 183/183/183 583/583/583
f 236/236/236 183/183/183 202/202/202
f 584/584/584 572/572/572 585/585/585
f 586/586/586 587/587/587 588/588/588
f 589/589/589 590/590/590 591/591/591
f 592/592/592 593/593/593 581/581/581
f 594/594/594 168/168/168 595/595/595
f 168/168/168 574/574/574 595/595/595
f 181/181/181 596/596/596 597/597/597
f 581/581/581 181/181/181 597/597/597
f 237/237/237 236/236/236 202/202/202
f 598/598/598 599/599/599 600/600/600
f 601/601/601 565/565/565 567/567/567
f 597/597/597 602/602/602 603/603/603
f 604/604/604 605/605/605 606/606/606
f 607/607/607 584/584/584 585/585/585
f 608/608/608 567/567/567 609/609/609
f 610/610/610 611/611/611 612/612/612
f 613/613/613 614/614/614 615/615/615
f 616/616/616 219/219/219 615/615/615
f 615/615/615 219/219/219 617/617/617
f 618/618/618 219/219/219 619/619/619
f 620/620/620 222/222/222 621/621/621
f 621/621/621 222/222/222 622/622/622
f 623/623/623 624/624/624 625/625/625
f 623/623/623 626/626/626 234/234/234
f 555/555/555 500/500/500 627/627/627
f 259/259/259 261/261/261 628/628/628
f 629/629/629 594/594/594 630/630/630
f 623/623/623 234/234/234 631/631/631
f 632/632/632 633/633/633 634/634/634
f 635/635/635 636/636/636 637/637/637
f 627/627/627 500/500/500 578/578/578
f 638/638/638 639/639/639 618/618/618
f 638/638/638 618/618/618 640/640/640
f 641/641/641 618/618/618 642/642/642
f 641/641/641 642/642/642 643/643/643
f 644/644/644 620/620/620 645/645/645
f 645/645/645 620/620/620 623/623/623
f 646/646/646 637/637/637 324/324/324
f 647/647/647 258/258/258 648/648/648
f 598/598/598 649/649/649 650/650/650
f 651/651/651 652/652/652 653/653/653
f 654/654/654 655/655/655 656/656/656
f 657/657/657 639/639/639 658/658/658
f 659/659/659 660/660/660 661/661/661
f 661/661/661 638/638/638 662/662/662
f 663/663/663 638/638/638 640/640/640
f 664/664/664 641/641/641 665/665/665
f 665/665/665 641/641/641 643/643/643
f 666/666/666 644/644/644 667/667/667
f 644/644/644 645/645/645 667/667/667
f 668/668/668 645/645/645 669/669/669
f 664/664/664 665/665/665 670/670/670
f 670/670/670 666/666/666 667/667/667
f 670/670/670 667/667/667 671/671/671
f 672/672/672 673/673/673 674/674/674
f 675/675/675 674/674/674 676/676/676
f 677/677/677 674/674/674 678/678/678
f 674/674/674 679/679/679 680/680/680
f 681/681/681 674/674/674 682/682/682
f 683/683/683 662/662/662 684/684/684
f 662/662/662 685/685/685 686/686/686
f 687/687/687 662/662/662 688/688/688
f 689/689/689 685/685/685 290/290/290
f 291/291/291 670/670/670 671/671/671
f 690/690/690 668/668/668 691/691/691
f 692/692/692 668/668/668 693/693/693
f 694/694/694 668/668/668 695/695/695
f 696/696/696 695/695/695 697/697/697
f 698/698/698 584/584/584 699/699/699
f 700/700/700 701/701/701 702/702/702
f 701/701/701 547/547/547 702/702/702
f 629/629/629 630/630/630 654/654/654
f 703/703/703 657/657/657 704/704/704
f 704/704/704 657/657/657 705/705/705
f 704/704/704 706/706/706 659/659/659
f 707/707/707 708/708/708 709/709/709
f 710/710/710 598/598/598 711/711/711
f 712/712/712 659/659/659 713/713/713
f 714/714/714 709/709/709 715/715/715
f 699/699/699 584/584/584 607/607/607
f 716/716/716 717/717/717 718/718/718
f 715/715/715 709/709/709 719/719/719
f 720/720/720 654/654/654 721/721/721
f 722/722/722 703/703/703 723/723/723
f 724/724/724 321/321/321 721/721/721
f 722/722/722 725/725/725 726/726/726
f 727/727/727 652/652/652 651/651/651
f 727/727/727 651/651/651 728/728/728
f 729/729/729 703/703/703 730/730/730
f 731/731/731 721/721/721 732/732/732
f 339/339/339 731/731/731 733/733/733
f 734/734/734 715/715/715 719/719/719
f 735/735/735 734/734/734 719/719/719
f 736/736/736 710/710/710 737/737/737
f 738/738/738 710/710/710 739/739/739
f 740/740/740 390/390/390 332/332/332
f 741/741/741 353/353/353 742/742/742
f 743/743/743 353/353/353 744/744/744
f 745/745/745 746/746/746 747/747/747
f 747/747/747 746/746/746 748/748/748
f 748/748/748 729/729/729 730/730/730
f 749/749/749 750/750/750 751/751/751
f 752/752/752 751/751/751 735/735/735
f 735/735/735 751/751/751 734/734/734
f 740/740/740 753/753/753 390/390/390
f 699/699/699 754/754/754 755/755/755
f 756/756/756 728/728/728 757/757/757
f 758/758/758 759/759/759 760/760/760
f 761/761/761 699/699/699 368/368/368
f 757/757/757 762/762/762 763/763/763
f 368/368/368 699/699/699 755/755/755
f 764/764/764 756/756/756 765/765/765
f 766/766/766 767/767/767 768/768/768
f 700/700/700 769/769/769 770/770/770
f 627/627/627 578/578/578 771/771/771
f 772/772/772 773/773/773 390/390/390
f 700/700/700 774/774/774 775/775/775
f 776/776/776 555/555/555 777/777/777
f 777/777/777 555/555/555 627/627/627
f 755/755/755 778/778/778 779/779/779
f 780/780/780 627/627/627 781/781/781
f 782/782/782 783/783/783 784/784/784
f 785/785/785 777/777/777 786/786/786
f 787/787/787 627/627/627 788/788/788
f 789/789/789 790/790/790 765/765/765
f 791/791/791 405/405/405 792/792/792
f 427/427/427 368/368/368 778/778/778
f 789/789/789 793/793/793 792/792/792
f 405/405/405 794/794/794 795/795/795
f 796/796/796 797/797/797 798/798/798
f 627/627/627 799/799/799 800/800/800
f 778/778/778 428/428/428 427/427/427
f 412/412/412 408/408/408 801/801/801
f 388/388/388 802/802/802 389/389/389
f 803/803/803 796/796/796 798/798/798
f 804/804/804 418/418/418 805/805/805
f 408/408/408 806/806/806 807/807/807
f 808/808/808 789/789/789 809/809/809
f 810/810/810 423/423/423 811/811/811
f 429/429/429 804/804/804 812/812/812
f 810/810/810 432/432/432 813/813/813
f 814/814/814 803/803/803 815/815/815
f 441/441/441 440/440/440 816/816/816
f 435/435/435 429/429/429 817/817/817
f 818/818/818 819/819/819 820/820/820
f 821/821/821 822/822/822 823/823/823
f 824/824/824 429/429/429 825/825/825
f 826/826/826 809/809/809 827/827/827
f 810/810/810 828/828/828 829/829/829
f 814/814/814 777/777/777 819/819/819
f 470/470/470 429/429/429 830/830/830
f 388/388/388 451/451/451 802/802/802
f 831/831/831 832/832/832 455/455/455
f 833/833/833 455/455/455 834/834/834
f 835/835/835 814/814/814 819/819/819
f 836/836/836 470/470/470 837/837/837
f 838/838/838 835/835/835 819/819/819
f 471/471/471 826/826/826 827/827/827
f 839/839/839 840/840/840 841/841/841
f 471/471/471 827/827/827 842/842/842
f 843/843/843 471/471/471 844/844/844
f 845/845/845 471/471/471 842/842/842
f 845/845/845 846/846/846 847/847/847
f 848/848/848 849/849/849 850/850/850
f 850/850/850 845/845/845 851/851/851
f 837/837/837 850/850/850 851/851/851
